<svg id="svg" version="1.1" xmlns="http://www.w3.org/2000/svg" xmlns:xlink="http://www.w3.org/1999/xlink" width="400" height="366.6666666666667" viewBox="0, 0, 400,366.6666666666667"><g id="svgg"><path id="path0" d="M123.238 48.409 C 121.997 48.814,119.266 50.988,119.266 51.572 C 119.266 51.813,118.894 52.483,118.440 53.059 C 117.689 54.013,117.594 54.634,117.387 59.989 C 117.147 66.191,117.013 66.920,116.027 67.395 C 115.689 67.557,108.807 67.801,100.734 67.936 C 92.661 68.072,84.982 68.340,83.670 68.532 C 77.557 69.428,75.736 69.835,75.046 70.461 C 74.642 70.827,73.610 71.313,72.752 71.541 C 71.894 71.769,71.193 72.110,71.193 72.300 C 71.193 72.490,70.541 72.978,69.744 73.385 C 68.947 73.791,67.881 74.538,67.375 75.044 C 66.869 75.549,66.200 75.963,65.888 75.963 C 65.576 75.963,65.321 76.219,65.321 76.531 C 65.321 76.844,64.940 77.463,64.474 77.907 C 64.008 78.352,63.252 79.335,62.793 80.092 C 62.334 80.849,61.810 81.468,61.628 81.468 C 61.447 81.468,61.194 81.922,61.066 82.477 C 60.938 83.032,60.457 84.064,59.998 84.771 C 59.538 85.477,58.957 86.963,58.706 88.073 C 58.455 89.183,57.983 90.587,57.657 91.193 C 57.115 92.198,57.064 100.685,57.064 189.358 L 57.064 286.422 57.859 288.073 C 58.295 288.982,58.767 290.468,58.906 291.376 C 59.046 292.284,59.453 293.358,59.811 293.761 C 60.170 294.165,60.688 295.135,60.964 295.918 C 61.240 296.700,61.678 297.422,61.939 297.522 C 62.199 297.622,62.642 298.138,62.924 298.668 C 63.592 299.930,67.283 303.853,67.801 303.853 C 68.022 303.853,68.528 304.266,68.925 304.771 C 69.322 305.275,69.838 305.688,70.071 305.688 C 70.608 305.688,72.779 306.791,73.044 307.198 C 73.154 307.367,74.294 307.841,75.579 308.251 C 76.863 308.662,78.098 309.150,78.323 309.336 C 79.603 310.399,85.851 310.495,146.239 310.385 C 205.431 310.276,210.441 310.184,208.903 309.234 C 208.685 309.099,208.299 307.826,208.045 306.406 C 207.791 304.986,207.294 303.490,206.939 303.081 C 206.321 302.368,206.188 301.830,205.648 297.836 C 205.514 296.848,205.181 295.609,204.907 295.084 C 204.632 294.558,204.407 293.865,204.406 293.543 C 204.399 291.646,207.869 291.756,144.561 291.644 C 77.473 291.525,82.710 291.796,79.267 288.257 C 77.952 286.904,76.938 285.292,76.665 284.119 C 76.020 281.340,76.256 135.907,76.907 135.256 C 77.429 134.734,88.014 134.679,187.940 134.679 C 295.415 134.679,299.106 134.712,300.183 135.677 C 300.284 135.767,300.450 148.394,300.550 163.737 L 300.734 191.633 302.569 192.334 C 303.578 192.719,305.876 193.202,307.675 193.408 C 309.560 193.624,311.504 194.084,312.262 194.493 C 314.047 195.457,317.749 196.094,318.405 195.549 C 319.035 195.027,319.144 96.590,318.520 91.861 C 318.183 89.303,317.311 86.822,315.772 84.037 C 315.493 83.532,314.904 82.459,314.462 81.651 C 314.021 80.844,313.311 79.827,312.885 79.392 C 312.459 78.957,311.908 78.379,311.662 78.108 C 309.447 75.673,306.847 73.394,306.283 73.394 C 306.018 73.394,305.509 73.070,305.150 72.674 C 304.792 72.278,303.899 71.763,303.167 71.528 C 302.434 71.294,301.505 70.809,301.101 70.451 C 300.606 70.011,298.994 69.604,296.147 69.197 C 293.826 68.865,291.222 68.436,290.362 68.242 C 289.501 68.048,285.925 67.890,282.416 67.890 L 276.035 67.890 275.632 69.046 C 275.111 70.542,275.091 83.827,275.609 84.795 C 275.949 85.430,276.410 85.505,279.967 85.505 C 282.564 85.505,284.486 85.696,285.505 86.055 C 286.363 86.358,287.828 86.611,288.762 86.618 C 293.911 86.658,298.064 88.897,298.545 91.894 C 298.678 92.719,298.988 93.725,299.235 94.128 C 300.927 96.891,301.148 117.232,299.501 118.565 C 298.652 119.252,296.357 119.266,188.041 119.266 L 77.448 119.266 76.853 118.357 C 76.326 117.554,76.272 116.000,76.386 104.928 L 76.514 92.407 77.523 91.603 C 78.078 91.160,78.532 90.602,78.532 90.362 C 78.532 90.122,78.986 89.635,79.541 89.281 C 80.096 88.927,80.751 88.367,80.996 88.037 C 81.795 86.961,87.516 86.580,108.807 86.188 C 113.666 86.098,116.822 86.975,117.338 88.557 C 117.590 89.328,118.039 90.202,118.338 90.500 C 118.636 90.798,119.062 91.720,119.285 92.549 C 120.619 97.501,131.054 98.895,133.173 94.404 C 133.387 93.950,133.806 93.578,134.103 93.578 C 135.247 93.578,135.409 90.948,135.411 72.336 C 135.413 52.092,135.360 51.500,133.442 50.511 C 132.810 50.185,131.881 49.587,131.376 49.183 C 130.334 48.349,124.981 47.840,123.238 48.409 M246.049 48.397 C 244.589 48.696,242.362 50.435,241.852 51.673 C 241.628 52.216,241.205 53.073,240.911 53.578 C 240.507 54.273,240.376 55.886,240.372 60.235 C 240.368 65.333,240.289 66.070,239.666 66.840 L 238.964 67.706 197.739 67.890 C 155.012 68.080,155.295 68.069,154.728 69.545 C 154.219 70.872,154.004 84.362,154.483 84.939 C 154.899 85.441,158.819 85.505,189.288 85.505 C 217.835 85.505,223.998 85.593,225.848 86.031 C 227.072 86.321,230.539 86.628,233.551 86.714 C 239.782 86.891,240.367 87.166,240.367 89.914 C 240.367 90.961,240.678 91.678,241.620 92.806 C 242.309 93.631,242.928 94.431,242.996 94.584 C 243.355 95.395,247.868 97.247,249.475 97.243 C 251.570 97.237,254.759 95.716,256.771 93.762 L 258.165 92.409 258.270 73.722 C 258.387 52.677,258.428 53.067,255.841 50.519 C 253.520 48.233,250.278 47.530,246.049 48.397 M102.414 172.007 C 102.128 172.120,101.429 172.688,100.861 173.269 C 98.705 175.474,98.716 175.398,98.716 188.765 C 98.716 201.533,98.812 202.446,100.304 203.825 C 102.269 205.642,102.318 205.647,119.074 205.798 C 138.917 205.976,138.968 205.971,141.320 203.704 L 143.119 201.970 143.119 189.257 C 143.119 175.270,143.004 174.471,140.852 173.560 C 140.312 173.331,139.584 172.829,139.236 172.444 C 138.611 171.754,104.092 171.344,102.414 172.007 M237.339 172.006 C 236.748 172.096,236.330 172.390,236.330 172.717 C 236.330 173.024,235.868 173.449,235.302 173.663 C 234.310 174.037,233.394 175.860,233.394 177.462 C 233.394 177.788,233.140 178.590,232.830 179.245 C 231.682 181.664,232.630 200.684,234.017 203.072 C 235.643 205.869,242.175 206.827,244.765 204.648 C 245.405 204.110,246.139 203.670,246.397 203.670 C 246.654 203.670,247.295 203.272,247.820 202.785 C 248.345 202.299,249.319 201.782,249.984 201.637 C 250.649 201.492,251.659 200.981,252.230 200.503 C 252.801 200.024,253.700 199.633,254.229 199.633 C 254.757 199.633,255.795 199.214,256.534 198.702 C 257.273 198.189,258.686 197.637,259.673 197.474 C 260.660 197.312,262.158 196.812,263.002 196.363 C 263.846 195.915,265.498 195.456,266.672 195.342 C 267.846 195.229,269.351 194.810,270.014 194.410 C 270.752 193.967,272.245 193.592,273.852 193.447 C 277.127 193.153,276.980 193.577,277.028 184.317 C 277.065 177.143,276.657 173.945,275.704 173.945 C 275.443 173.945,274.892 173.608,274.481 173.196 C 274.069 172.785,273.315 172.289,272.805 172.095 C 271.915 171.757,239.524 171.675,237.339 172.006 M169.541 172.464 C 169.541 172.694,169.053 173.053,168.455 173.261 C 167.858 173.469,167.276 173.934,167.162 174.294 C 167.047 174.654,166.628 175.244,166.229 175.605 C 165.535 176.233,165.505 176.780,165.505 188.719 L 165.505 201.178 166.428 202.332 C 169.390 206.035,167.117 205.688,188.378 205.688 L 207.031 205.688 207.766 204.679 C 208.171 204.124,208.732 203.670,209.014 203.670 C 209.297 203.670,209.654 203.216,209.810 202.661 C 210.174 201.358,210.179 177.106,209.815 175.404 C 209.089 172.003,205.069 171.674,181.651 173.096 C 178.926 173.262,176.833 173.096,170.917 172.244 C 170.016 172.114,169.541 172.190,169.541 172.464 M284.037 203.531 C 283.330 203.622,282.257 203.936,281.651 204.230 C 281.046 204.523,278.640 204.911,276.306 205.092 C 273.222 205.331,271.650 205.631,270.559 206.187 C 269.734 206.608,268.341 207.054,267.465 207.177 C 266.589 207.300,265.128 207.782,264.220 208.249 C 263.312 208.715,261.826 209.218,260.919 209.367 C 259.999 209.517,259.066 209.926,258.811 210.290 C 258.559 210.650,257.650 211.062,256.791 211.207 C 255.893 211.358,254.895 211.830,254.444 212.316 C 254.011 212.782,253.070 213.273,252.351 213.408 C 251.562 213.556,250.816 214.002,250.468 214.533 C 250.151 215.017,249.677 215.413,249.415 215.413 C 249.153 215.413,248.289 215.904,247.497 216.504 C 246.704 217.103,245.885 217.599,245.678 217.604 C 245.471 217.610,244.864 218.069,244.329 218.624 C 243.795 219.179,242.851 220.046,242.233 220.550 C 239.754 222.571,231.989 230.418,231.763 231.130 C 231.631 231.547,231.200 231.991,230.807 232.116 C 230.414 232.241,230.092 232.557,230.092 232.818 C 230.092 233.080,229.596 233.917,228.991 234.679 C 228.385 235.441,227.890 236.291,227.890 236.568 C 227.890 236.844,227.394 237.589,226.789 238.223 C 226.183 238.857,225.688 239.541,225.688 239.745 C 225.688 239.948,225.301 240.625,224.829 241.250 C 224.356 241.874,223.852 242.861,223.709 243.442 C 223.566 244.023,223.044 245.093,222.550 245.820 C 222.056 246.548,221.649 247.394,221.647 247.700 C 221.645 248.006,221.231 248.977,220.727 249.858 C 220.224 250.739,219.706 252.123,219.576 252.934 C 219.446 253.744,218.952 255.138,218.478 256.031 C 218.003 256.923,217.614 258.181,217.614 258.827 C 217.613 259.472,217.171 261.569,216.630 263.486 C 215.501 267.495,215.025 289.841,216.043 291.068 C 216.614 291.756,217.602 295.921,217.609 297.669 C 217.612 298.413,218.020 299.717,218.527 300.605 C 219.029 301.483,219.546 302.986,219.676 303.945 C 219.805 304.904,220.024 305.688,220.163 305.688 C 220.526 305.688,221.651 308.160,221.651 308.958 C 221.651 309.330,221.890 309.833,222.183 310.076 C 222.475 310.318,222.998 311.288,223.345 312.231 C 223.692 313.174,224.275 314.282,224.641 314.695 C 225.007 315.107,225.496 315.987,225.727 316.651 C 225.958 317.314,226.539 318.249,227.019 318.728 C 227.498 319.208,227.890 319.790,227.890 320.022 C 227.890 320.255,228.303 320.770,228.807 321.166 C 229.312 321.563,229.725 322.108,229.725 322.377 C 229.725 322.883,231.603 325.361,233.211 326.976 C 233.716 327.483,234.128 328.102,234.128 328.353 C 234.128 328.603,234.384 328.807,234.696 328.807 C 235.008 328.807,235.543 329.294,235.884 329.888 C 236.225 330.483,236.808 331.048,237.178 331.145 C 237.549 331.242,237.937 331.644,238.040 332.038 C 238.143 332.432,238.631 332.938,239.124 333.163 C 239.617 333.388,240.121 333.833,240.244 334.153 C 240.367 334.473,240.873 334.890,241.370 335.078 C 241.867 335.267,242.355 335.736,242.456 336.120 C 242.556 336.504,243.008 336.911,243.460 337.025 C 243.912 337.138,244.902 337.724,245.659 338.326 C 246.417 338.928,247.344 339.518,247.720 339.637 C 248.095 339.757,248.499 340.156,248.616 340.526 C 248.733 340.895,249.297 341.290,249.868 341.405 C 250.439 341.519,251.408 342.034,252.020 342.549 C 252.632 343.065,253.373 343.486,253.666 343.486 C 253.959 343.486,254.498 343.817,254.864 344.222 C 255.230 344.626,256.187 345.134,256.991 345.351 C 257.795 345.567,259.086 346.144,259.861 346.634 C 260.636 347.123,261.609 347.523,262.023 347.523 C 263.031 347.523,265.321 348.499,265.321 348.929 C 265.321 349.118,266.425 349.390,267.773 349.535 C 269.122 349.679,271.062 350.186,272.085 350.660 C 273.234 351.192,274.927 351.593,276.514 351.707 C 291.332 352.772,291.934 352.785,296.945 352.162 C 299.634 351.827,302.599 351.555,303.534 351.556 C 304.551 351.558,306.023 351.203,307.203 350.670 C 308.287 350.180,310.146 349.663,311.333 349.520 C 312.644 349.363,313.752 349.000,314.156 348.596 C 314.522 348.230,315.450 347.826,316.218 347.698 C 317.748 347.444,320.000 346.418,320.000 345.976 C 320.000 345.822,320.639 345.595,321.420 345.470 C 322.202 345.345,323.301 344.847,323.863 344.364 C 324.425 343.881,325.094 343.486,325.350 343.486 C 325.606 343.486,326.293 343.084,326.877 342.593 C 327.461 342.101,328.424 341.578,329.015 341.430 C 329.607 341.282,330.543 340.735,331.094 340.214 C 333.000 338.413,333.972 337.615,334.259 337.615 C 334.417 337.615,335.222 337.037,336.047 336.330 C 336.873 335.624,337.697 335.046,337.879 335.046 C 338.061 335.046,338.577 334.550,339.025 333.945 C 339.472 333.339,340.055 332.844,340.319 332.844 C 340.583 332.844,340.988 332.431,341.218 331.927 C 341.448 331.422,341.883 331.009,342.185 331.009 C 342.486 331.009,342.990 330.514,343.303 329.908 C 343.616 329.303,344.074 328.806,344.321 328.805 C 344.568 328.804,345.052 328.308,345.396 327.704 C 345.740 327.100,346.276 326.606,346.588 326.606 C 346.901 326.606,347.157 326.317,347.158 325.963 C 347.159 325.610,347.737 324.693,348.442 323.925 C 349.148 323.156,349.725 322.293,349.725 322.006 C 349.725 321.720,350.138 321.214,350.642 320.884 C 351.147 320.553,351.560 320.046,351.560 319.757 C 351.560 319.468,351.951 318.867,352.429 318.423 C 352.907 317.978,353.416 317.078,353.559 316.422 C 353.702 315.767,354.137 315.008,354.525 314.736 C 354.913 314.465,355.466 313.459,355.754 312.502 C 356.042 311.545,356.534 310.570,356.848 310.335 C 357.576 309.790,358.269 305.002,357.945 302.762 C 357.617 300.498,357.281 299.961,355.489 298.839 C 354.640 298.307,353.836 297.705,353.704 297.501 C 352.734 296.012,348.650 297.036,346.322 299.351 C 345.246 300.422,344.220 301.749,344.220 302.072 C 344.220 302.283,343.919 302.894,343.550 303.430 C 343.182 303.965,342.661 304.982,342.393 305.688 C 342.125 306.394,341.689 307.152,341.424 307.370 C 341.160 307.589,340.613 308.539,340.210 309.480 C 339.806 310.422,339.321 311.193,339.132 311.193 C 338.943 311.193,338.444 311.729,338.023 312.385 C 335.192 316.801,330.029 322.419,326.551 324.869 C 325.471 325.629,324.174 326.590,323.670 327.004 C 321.195 329.033,319.744 329.978,318.824 330.162 C 318.269 330.273,317.618 330.601,317.377 330.891 C 316.898 331.468,314.696 332.477,313.916 332.477 C 313.647 332.477,312.840 332.876,312.121 333.363 C 311.403 333.850,310.116 334.361,309.261 334.498 C 308.406 334.634,306.881 335.124,305.872 335.586 C 304.862 336.049,302.881 336.540,301.468 336.680 C 300.055 336.819,297.555 337.251,295.913 337.641 C 292.057 338.555,287.552 338.555,283.812 337.641 C 282.220 337.252,279.761 336.827,278.349 336.695 C 275.485 336.430,273.488 335.916,272.661 335.232 C 272.358 334.982,271.341 334.678,270.401 334.557 C 269.461 334.435,268.140 334.001,267.466 333.593 C 265.959 332.681,265.754 332.593,264.524 332.324 C 263.984 332.207,263.052 331.697,262.452 331.193 C 261.853 330.688,261.130 330.275,260.846 330.275 C 260.386 330.275,258.987 329.402,254.679 326.426 C 252.479 324.906,250.630 323.506,250.168 323.010 C 249.924 322.748,249.511 322.335,249.249 322.093 C 246.935 319.948,245.138 318.074,245.138 317.805 C 245.138 317.627,244.816 317.379,244.422 317.254 C 244.029 317.129,243.610 316.720,243.491 316.345 C 243.372 315.970,242.787 315.112,242.191 314.437 C 241.595 313.763,241.002 312.887,240.872 312.491 C 240.741 312.095,240.244 311.464,239.767 311.088 C 239.290 310.713,238.894 310.128,238.889 309.790 C 238.883 309.451,238.388 308.526,237.788 307.733 C 237.188 306.940,236.697 306.070,236.697 305.799 C 236.697 305.528,236.296 304.671,235.805 303.894 C 235.315 303.117,234.799 301.869,234.658 301.120 C 234.518 300.371,234.103 299.479,233.736 299.137 C 233.334 298.763,232.916 297.564,232.687 296.128 C 232.477 294.815,231.992 293.085,231.609 292.283 C 229.920 288.748,229.843 267.228,231.509 264.406 C 231.985 263.600,232.523 261.890,232.705 260.606 C 232.893 259.274,233.345 257.877,233.756 257.355 C 234.152 256.851,234.584 255.837,234.715 255.100 C 234.846 254.364,235.346 253.236,235.825 252.593 C 236.305 251.951,236.697 251.205,236.697 250.935 C 236.697 250.666,237.148 249.788,237.699 248.984 C 238.250 248.181,238.952 247.083,239.259 246.545 C 240.382 244.575,242.515 241.615,243.809 240.229 C 244.540 239.447,245.138 238.726,245.138 238.628 C 245.138 238.279,250.565 233.028,250.926 233.028 C 251.127 233.028,251.554 232.627,251.875 232.138 C 252.195 231.649,252.798 231.140,253.213 231.009 C 253.629 230.877,254.395 230.374,254.915 229.892 C 255.436 229.409,256.179 228.914,256.566 228.791 C 256.954 228.668,257.671 228.167,258.160 227.678 C 258.649 227.189,259.282 226.789,259.566 226.789 C 259.850 226.789,260.706 226.294,261.468 225.688 C 262.230 225.083,263.122 224.587,263.452 224.587 C 263.781 224.587,264.625 224.196,265.328 223.719 C 266.030 223.241,267.160 222.729,267.837 222.580 C 268.514 222.432,269.866 221.896,270.841 221.390 C 271.902 220.840,273.626 220.360,275.136 220.194 C 276.524 220.041,278.019 219.724,278.458 219.489 C 280.854 218.207,296.034 218.083,298.954 219.322 C 299.731 219.651,301.716 220.047,303.365 220.202 C 305.362 220.389,306.959 220.782,308.146 221.378 C 309.126 221.870,310.522 222.384,311.247 222.520 C 311.973 222.657,312.944 223.095,313.405 223.495 C 313.866 223.896,314.872 224.392,315.639 224.599 C 316.406 224.805,317.144 225.153,317.279 225.372 C 317.414 225.591,318.412 226.162,319.497 226.642 C 320.627 227.142,321.468 227.750,321.468 228.069 C 321.468 228.374,321.652 228.624,321.877 228.624 C 322.462 228.624,327.339 231.917,327.339 232.312 C 327.339 232.493,327.835 232.898,328.440 233.211 C 329.046 233.524,329.541 233.997,329.541 234.262 C 329.541 234.528,329.957 234.934,330.464 235.165 C 330.972 235.396,331.576 236.001,331.807 236.508 C 332.039 237.016,332.453 237.431,332.727 237.431 C 333.002 237.431,333.413 237.841,333.642 238.342 C 333.870 238.842,334.357 239.347,334.725 239.464 C 335.093 239.581,335.604 240.053,335.862 240.512 C 336.954 242.462,339.130 245.505,339.432 245.505 C 339.612 245.505,339.942 246.056,340.164 246.730 C 340.386 247.404,340.977 248.509,341.477 249.186 C 343.554 252.001,342.148 254.544,338.165 255.177 C 337.358 255.306,335.776 255.881,334.650 256.455 L 332.603 257.499 333.983 258.658 C 334.742 259.295,335.617 259.817,335.926 259.817 C 336.235 259.817,337.031 260.271,337.695 260.826 C 338.996 261.914,339.377 262.168,342.261 263.870 C 343.302 264.484,344.246 265.227,344.359 265.521 C 344.472 265.815,344.788 266.055,345.062 266.055 C 345.335 266.055,346.372 266.633,347.365 267.339 C 348.359 268.046,349.375 268.624,349.623 268.624 C 349.872 268.624,350.338 269.026,350.661 269.518 C 350.983 270.010,351.718 270.516,352.295 270.643 C 352.872 270.769,353.551 271.122,353.803 271.427 C 354.056 271.731,354.873 272.291,355.618 272.672 C 356.364 273.052,357.070 273.614,357.188 273.921 C 357.597 274.988,359.559 273.449,359.830 271.849 C 359.957 271.096,360.405 270.042,360.826 269.507 C 361.247 268.972,361.722 267.708,361.882 266.698 C 362.042 265.688,362.438 264.568,362.762 264.210 C 363.086 263.852,363.595 262.514,363.893 261.236 C 364.191 259.959,364.758 258.569,365.153 258.149 C 365.548 257.728,365.872 256.895,365.872 256.297 C 365.872 255.698,366.343 254.301,366.918 253.191 C 367.494 252.081,368.082 250.397,368.224 249.448 C 368.366 248.500,368.638 247.627,368.829 247.510 C 370.504 246.474,368.466 245.014,366.603 245.916 C 365.696 246.355,364.211 246.796,363.303 246.895 C 362.394 246.995,361.326 247.301,360.928 247.575 C 360.008 248.208,359.088 248.210,358.459 247.581 C 358.188 247.310,357.604 246.894,357.161 246.657 C 356.691 246.406,356.169 245.580,355.907 244.673 C 355.659 243.818,355.076 242.652,354.609 242.082 C 354.143 241.511,353.651 240.605,353.516 240.068 C 353.381 239.531,352.886 238.788,352.415 238.418 C 351.945 238.048,351.560 237.508,351.560 237.217 C 351.560 236.927,351.218 236.403,350.799 236.051 C 350.381 235.700,349.823 234.904,349.559 234.281 C 349.295 233.658,348.646 232.716,348.118 232.188 C 347.589 231.659,347.156 230.990,347.156 230.702 C 347.156 230.413,346.828 230.091,346.426 229.987 C 346.025 229.882,345.542 229.390,345.354 228.893 C 345.165 228.396,344.655 227.897,344.221 227.784 C 343.787 227.670,343.347 227.255,343.244 226.861 C 343.141 226.467,342.673 225.969,342.203 225.755 C 341.733 225.541,341.246 225.043,341.121 224.649 C 340.995 224.255,340.556 223.844,340.144 223.737 C 339.732 223.629,339.309 223.212,339.204 222.810 C 339.099 222.407,338.533 221.880,337.947 221.637 C 337.360 221.394,336.881 220.964,336.881 220.680 C 336.881 220.397,336.464 220.007,335.954 219.813 C 335.444 219.619,334.660 219.108,334.211 218.678 C 333.762 218.248,332.858 217.665,332.202 217.383 C 331.546 217.101,331.009 216.711,331.009 216.516 C 331.009 216.321,330.369 215.835,329.587 215.436 C 328.804 215.037,328.074 214.476,327.964 214.190 C 327.855 213.905,327.181 213.561,326.467 213.427 C 325.753 213.293,324.869 212.802,324.503 212.336 C 324.136 211.870,323.244 211.378,322.519 211.242 C 321.794 211.106,320.903 210.665,320.539 210.262 C 320.174 209.860,319.228 209.427,318.436 209.300 C 317.644 209.173,316.557 208.703,316.021 208.255 C 315.401 207.737,314.285 207.346,312.955 207.182 C 311.747 207.033,310.466 206.612,309.923 206.185 C 309.201 205.617,308.068 205.363,305.042 205.093 C 302.874 204.900,300.543 204.493,299.860 204.189 C 298.611 203.632,287.000 203.149,284.037 203.531 M106.239 232.279 C 100.402 232.588,100.917 232.500,100.917 233.190 C 100.917 233.482,100.573 233.961,100.153 234.255 C 98.907 235.128,98.734 237.008,98.724 249.725 L 98.716 261.835 100.162 263.303 C 103.149 266.335,101.020 266.055,121.056 266.055 C 136.552 266.055,139.055 265.980,139.450 265.505 C 139.701 265.202,140.093 264.948,140.320 264.941 C 140.548 264.934,141.229 264.523,141.835 264.028 L 142.936 263.129 142.936 249.087 L 142.936 235.046 141.503 233.670 L 140.071 232.294 131.962 232.292 C 127.502 232.292,121.046 232.227,117.615 232.149 C 114.183 232.071,109.064 232.129,106.239 232.279 M175.780 232.276 C 169.130 232.497,169.148 232.491,167.089 235.175 L 166.145 236.404 166.203 247.835 C 166.235 254.122,166.105 259.793,165.915 260.436 C 165.586 261.548,165.680 261.719,167.772 263.831 L 169.976 266.055 186.731 266.054 L 203.486 266.052 204.474 264.127 C 205.181 262.749,205.514 261.441,205.647 259.526 C 205.769 257.756,206.148 256.159,206.769 254.803 C 207.285 253.677,207.706 252.383,207.706 251.928 C 207.706 250.890,208.714 247.991,209.173 247.707 C 210.578 246.839,210.492 235.044,209.076 234.534 C 208.855 234.455,208.305 233.991,207.853 233.503 C 206.490 232.033,195.635 231.617,175.780 232.276 M287.361 233.773 C 286.666 234.157,285.937 234.766,285.742 235.126 C 285.546 235.486,285.181 235.903,284.931 236.053 C 284.414 236.363,284.111 238.605,283.611 245.801 C 283.419 248.565,283.105 252.477,282.913 254.495 C 282.721 256.514,282.441 260.508,282.291 263.372 C 282.029 268.381,281.980 268.619,281.009 269.631 C 280.454 270.209,280.000 270.815,280.000 270.976 C 280.000 271.138,279.587 271.595,279.083 271.992 C 278.578 272.389,278.165 272.867,278.165 273.053 C 278.165 273.240,277.670 274.441,277.064 275.723 C 275.559 278.909,275.482 283.265,276.882 286.025 C 277.386 287.018,277.798 288.013,277.798 288.236 C 277.798 288.885,282.067 293.120,283.002 293.399 C 283.470 293.539,284.431 293.986,285.138 294.393 C 286.109 294.952,287.340 295.179,290.195 295.326 C 293.682 295.505,294.057 295.598,295.149 296.561 C 295.799 297.134,296.451 297.606,296.599 297.609 C 296.747 297.612,297.386 298.069,298.019 298.624 C 300.248 300.579,301.843 302.003,302.569 302.686 C 302.972 303.066,303.663 303.566,304.104 303.798 C 304.544 304.030,305.009 304.550,305.137 304.954 C 305.266 305.358,305.554 305.688,305.778 305.688 C 306.229 305.688,309.803 308.004,311.115 309.147 C 312.766 310.586,317.052 310.227,318.721 308.509 C 320.398 306.783,320.748 301.973,319.270 300.964 C 318.864 300.688,318.532 300.311,318.532 300.128 C 318.532 299.667,312.492 292.364,310.734 290.700 C 310.179 290.175,309.725 289.545,309.725 289.301 C 309.725 289.057,309.394 288.752,308.990 288.624 C 308.587 288.496,308.065 288.033,307.831 287.597 C 307.598 287.160,307.020 286.499,306.547 286.127 C 306.075 285.755,305.688 285.248,305.688 284.999 C 305.688 284.750,305.296 284.015,304.817 283.366 C 304.143 282.453,303.889 281.503,303.692 279.166 C 303.505 276.947,303.215 275.805,302.597 274.858 C 302.134 274.148,301.643 273.214,301.506 272.780 C 301.368 272.347,300.849 271.726,300.353 271.401 C 299.856 271.075,299.450 270.630,299.450 270.411 C 299.450 270.193,299.054 269.703,298.571 269.323 C 297.730 268.661,297.683 268.382,297.466 262.848 C 296.796 245.675,296.410 240.161,295.732 238.026 C 295.354 236.839,295.046 235.645,295.046 235.372 C 295.046 233.771,289.464 232.609,287.361 233.773 " stroke="none" fill="#e04b3b" fill-rule="evenodd"></path><path id="path1" d="M123.486 47.460 C 118.233 49.754,116.953 51.979,116.693 59.266 C 116.390 67.769,118.052 67.078,97.431 67.274 L 81.284 67.428 77.982 68.526 C 73.402 70.047,67.008 73.497,66.549 74.695 C 66.436 74.989,66.141 75.229,65.892 75.229 C 65.644 75.229,64.795 76.072,64.005 77.101 C 63.215 78.131,62.222 79.328,61.797 79.762 C 61.373 80.196,60.830 81.150,60.591 81.882 C 60.352 82.615,59.848 83.492,59.472 83.833 C 59.096 84.173,58.679 85.033,58.546 85.744 C 58.412 86.455,57.942 87.724,57.500 88.564 L 56.697 90.092 56.697 189.374 C 56.697 279.960,56.749 288.735,57.287 289.557 C 57.612 290.053,58.159 291.430,58.504 292.616 C 58.849 293.803,59.424 295.206,59.782 295.735 C 60.140 296.264,61.024 297.579,61.747 298.657 C 63.460 301.211,65.762 303.647,67.628 304.882 C 69.847 306.351,72.356 307.834,73.394 308.291 C 73.899 308.513,75.159 309.080,76.193 309.551 C 79.845 311.212,81.493 311.248,146.422 311.082 C 215.799 310.905,211.105 311.133,209.507 308.013 C 209.111 307.239,208.544 305.567,208.248 304.297 C 207.952 303.028,207.456 301.497,207.144 300.895 C 206.833 300.293,206.362 298.125,206.098 296.076 C 205.673 292.787,205.501 292.253,204.623 291.497 L 203.629 290.642 145.700 290.642 C 77.011 290.642,81.987 290.992,78.433 285.914 L 77.248 284.220 77.153 210.316 C 77.084 155.806,77.168 136.281,77.473 135.912 C 78.067 135.197,296.935 135.173,298.349 135.888 L 299.266 136.352 299.450 163.880 C 299.645 193.224,299.654 193.366,301.385 193.404 C 303.628 193.454,308.765 194.156,309.136 194.464 C 309.393 194.677,311.234 195.275,313.227 195.793 C 315.220 196.311,317.057 196.906,317.309 197.115 C 318.302 197.939,319.894 197.124,320.135 195.669 C 320.667 192.449,320.387 95.614,319.840 93.736 C 319.550 92.741,319.134 90.921,318.917 89.691 C 318.549 87.615,317.137 84.421,315.044 80.931 C 313.064 77.630,307.630 72.777,303.992 71.060 C 302.958 70.573,302.007 70.003,301.878 69.794 C 301.749 69.585,301.108 69.305,300.455 69.171 C 299.801 69.037,298.193 68.593,296.881 68.184 C 294.122 67.325,276.308 66.752,275.229 67.487 C 274.402 68.051,274.205 84.246,275.007 85.795 L 275.556 86.857 283.191 87.113 C 298.322 87.619,299.234 88.795,299.256 107.828 C 299.265 116.613,299.227 117.152,298.554 117.644 C 297.221 118.619,77.952 118.404,77.429 117.428 C 77.165 116.934,77.070 112.840,77.141 105.021 L 77.248 93.350 78.243 92.088 C 80.576 89.132,82.160 87.972,84.404 87.577 C 86.885 87.141,115.055 87.220,115.887 87.665 C 116.371 87.925,116.758 88.601,116.910 89.454 C 117.045 90.208,117.444 91.156,117.798 91.560 C 118.152 91.963,118.632 92.889,118.865 93.617 C 120.038 97.285,128.039 99.399,131.415 96.934 C 133.069 95.726,135.780 92.891,135.780 92.369 C 135.780 92.074,136.028 91.627,136.330 91.376 C 136.806 90.981,136.881 88.436,136.881 72.599 L 136.881 54.278 135.995 52.614 C 134.710 50.201,132.568 48.530,129.642 47.658 C 126.052 46.588,125.522 46.571,123.486 47.460 M245.872 47.586 C 240.753 49.512,239.927 51.111,239.658 59.623 C 239.450 66.199,239.447 66.220,238.532 66.682 C 237.810 67.047,228.879 67.146,196.589 67.151 L 155.563 67.156 154.662 68.057 C 153.890 68.829,153.761 69.299,153.761 71.352 C 153.761 72.683,153.503 74.393,153.179 75.202 C 152.220 77.599,152.563 84.782,153.694 85.985 L 154.544 86.889 195.713 87.072 C 242.753 87.282,239.338 86.997,239.825 90.766 C 240.227 93.879,243.733 97.062,247.410 97.654 C 250.241 98.110,252.903 97.784,253.982 96.849 C 254.427 96.463,254.944 96.147,255.131 96.147 C 255.683 96.147,258.716 92.950,258.716 92.367 C 258.716 92.074,258.963 91.627,259.266 91.376 C 260.245 90.564,260.074 55.892,259.083 54.041 C 258.679 53.288,258.349 52.465,258.349 52.214 C 258.349 51.271,255.169 48.438,253.457 47.854 C 252.515 47.533,251.651 47.121,251.538 46.938 C 251.170 46.342,248.310 46.669,245.872 47.586 M131.376 49.183 C 131.881 49.587,132.810 50.185,133.442 50.511 C 135.360 51.500,135.413 52.092,135.411 72.336 C 135.409 90.948,135.247 93.578,134.103 93.578 C 133.806 93.578,133.387 93.950,133.173 94.404 C 131.054 98.895,120.619 97.501,119.285 92.549 C 119.062 91.720,118.636 90.798,118.338 90.500 C 118.039 90.202,117.590 89.328,117.338 88.557 C 116.822 86.975,113.666 86.098,108.807 86.188 C 87.516 86.580,81.795 86.961,80.996 88.037 C 80.751 88.367,80.096 88.927,79.541 89.281 C 78.986 89.635,78.532 90.122,78.532 90.362 C 78.532 90.602,78.078 91.160,77.523 91.603 L 76.514 92.407 76.386 104.928 C 76.272 116.000,76.326 117.554,76.853 118.357 L 77.448 119.266 188.041 119.266 C 296.357 119.266,298.652 119.252,299.501 118.565 C 301.148 117.232,300.927 96.891,299.235 94.128 C 298.988 93.725,298.678 92.719,298.545 91.894 C 298.064 88.897,293.911 86.658,288.762 86.618 C 287.828 86.611,286.363 86.358,285.505 86.055 C 284.486 85.696,282.564 85.505,279.967 85.505 C 276.410 85.505,275.949 85.430,275.609 84.795 C 275.091 83.827,275.111 70.542,275.632 69.046 L 276.035 67.890 282.416 67.890 C 285.925 67.890,289.501 68.048,290.362 68.242 C 291.222 68.436,293.826 68.865,296.147 69.197 C 298.994 69.604,300.606 70.011,301.101 70.451 C 301.505 70.809,302.434 71.294,303.167 71.528 C 303.899 71.763,304.792 72.278,305.150 72.674 C 305.509 73.070,306.018 73.394,306.283 73.394 C 306.847 73.394,309.447 75.673,311.662 78.108 C 311.908 78.379,312.459 78.957,312.885 79.392 C 313.311 79.827,314.021 80.844,314.462 81.651 C 314.904 82.459,315.493 83.532,315.772 84.037 C 317.311 86.822,318.183 89.303,318.520 91.861 C 319.144 96.590,319.035 195.027,318.405 195.549 C 317.749 196.094,314.047 195.457,312.262 194.493 C 311.504 194.084,309.560 193.624,307.675 193.408 C 305.876 193.202,303.578 192.719,302.569 192.334 L 300.734 191.633 300.550 163.737 C 300.450 148.394,300.284 135.767,300.183 135.677 C 299.106 134.712,295.415 134.679,187.940 134.679 C 88.014 134.679,77.429 134.734,76.907 135.256 C 76.256 135.907,76.020 281.340,76.665 284.119 C 76.938 285.292,77.952 286.904,79.267 288.257 C 82.710 291.796,77.473 291.525,144.561 291.644 C 207.869 291.756,204.399 291.646,204.406 293.543 C 204.407 293.865,204.632 294.558,204.907 295.084 C 205.181 295.609,205.514 296.848,205.648 297.836 C 206.188 301.830,206.321 302.368,206.939 303.081 C 207.294 303.490,207.791 304.986,208.045 306.406 C 208.299 307.826,208.685 309.099,208.903 309.234 C 210.441 310.184,205.431 310.276,146.239 310.385 C 85.851 310.495,79.603 310.399,78.323 309.336 C 78.098 309.150,76.863 308.662,75.579 308.251 C 74.294 307.841,73.154 307.367,73.044 307.198 C 72.779 306.791,70.608 305.688,70.071 305.688 C 69.838 305.688,69.322 305.275,68.925 304.771 C 68.528 304.266,68.022 303.853,67.801 303.853 C 67.283 303.853,63.592 299.930,62.924 298.668 C 62.642 298.138,62.199 297.622,61.939 297.522 C 61.678 297.422,61.240 296.700,60.964 295.918 C 60.688 295.135,60.170 294.165,59.811 293.761 C 59.453 293.358,59.046 292.284,58.906 291.376 C 58.767 290.468,58.295 288.982,57.859 288.073 L 57.064 286.422 57.064 189.358 C 57.064 100.685,57.115 92.198,57.657 91.193 C 57.983 90.587,58.455 89.183,58.706 88.073 C 58.957 86.963,59.538 85.477,59.998 84.771 C 60.457 84.064,60.938 83.032,61.066 82.477 C 61.194 81.922,61.447 81.468,61.628 81.468 C 61.810 81.468,62.334 80.849,62.793 80.092 C 63.252 79.335,64.008 78.352,64.474 77.907 C 64.940 77.463,65.321 76.844,65.321 76.531 C 65.321 76.219,65.576 75.963,65.888 75.963 C 66.200 75.963,66.869 75.549,67.375 75.044 C 67.881 74.538,68.947 73.791,69.744 73.385 C 70.541 72.978,71.193 72.490,71.193 72.300 C 71.193 72.110,71.894 71.769,72.752 71.541 C 73.610 71.313,74.642 70.827,75.046 70.461 C 75.736 69.835,77.557 69.428,83.670 68.532 C 84.982 68.340,92.661 68.072,100.734 67.936 C 108.807 67.801,115.689 67.557,116.027 67.395 C 117.013 66.920,117.147 66.191,117.387 59.989 C 117.594 54.634,117.689 54.013,118.440 53.059 C 118.894 52.483,119.266 51.813,119.266 51.572 C 119.266 48.802,128.600 46.961,131.376 49.183 M252.621 48.422 C 254.497 48.857,257.496 51.776,258.004 53.660 C 258.237 54.526,258.335 61.958,258.270 73.722 L 258.165 92.409 256.771 93.762 C 254.759 95.716,251.570 97.237,249.475 97.243 C 247.868 97.247,243.355 95.395,242.996 94.584 C 242.928 94.431,242.309 93.631,241.620 92.806 C 240.678 91.678,240.367 90.961,240.367 89.914 C 240.367 87.166,239.782 86.891,233.551 86.714 C 230.539 86.628,227.072 86.321,225.848 86.031 C 223.998 85.593,217.835 85.505,189.288 85.505 C 158.819 85.505,154.899 85.441,154.483 84.939 C 154.004 84.362,154.219 70.872,154.728 69.545 C 155.295 68.069,155.012 68.080,197.739 67.890 L 238.964 67.706 239.666 66.840 C 240.289 66.070,240.368 65.333,240.372 60.235 C 240.376 55.886,240.507 54.273,240.911 53.578 C 241.205 53.073,241.628 52.216,241.852 51.673 C 243.025 48.826,247.950 47.339,252.621 48.422 M102.237 171.272 C 98.375 171.864,97.791 174.820,98.042 192.489 L 98.191 202.951 99.743 204.503 L 101.295 206.055 120.904 206.055 L 140.512 206.055 142.091 204.461 L 143.670 202.867 143.772 193.085 C 143.828 187.705,143.745 181.263,143.588 178.770 L 143.303 174.237 141.142 172.715 L 138.981 171.193 121.142 171.151 C 111.330 171.128,102.823 171.183,102.237 171.272 M167.669 172.661 C 164.746 175.020,164.771 174.884,164.771 188.780 C 164.771 202.493,164.776 202.527,167.330 204.954 L 168.488 206.055 187.826 206.156 L 207.165 206.257 208.683 204.872 C 210.056 203.619,210.265 203.187,210.867 200.367 C 212.215 194.054,211.224 173.833,209.539 173.271 C 209.314 173.196,208.700 172.736,208.174 172.249 L 207.217 171.362 188.125 171.461 L 169.032 171.560 167.669 172.661 M235.698 172.255 C 235.278 172.739,234.711 173.276,234.439 173.448 C 231.929 175.039,231.410 178.310,231.653 191.009 C 231.865 202.106,232.004 202.740,234.757 205.157 L 236.056 206.298 240.385 206.176 C 244.184 206.070,244.818 205.960,245.568 205.277 C 246.488 204.439,246.622 204.363,251.834 201.743 C 253.742 200.784,255.534 199.999,255.816 199.999 C 256.099 199.998,256.908 199.641,257.615 199.207 C 258.321 198.772,259.949 198.193,261.231 197.921 C 262.514 197.649,264.000 197.121,264.534 196.748 C 265.084 196.363,266.500 195.969,267.803 195.838 C 269.067 195.711,270.718 195.294,271.472 194.911 C 272.227 194.529,273.712 194.098,274.773 193.954 C 278.373 193.465,278.349 193.529,278.349 184.711 C 278.349 176.403,277.876 174.229,275.836 173.147 C 275.401 172.916,274.830 172.423,274.566 172.052 C 274.111 171.411,273.128 171.376,255.275 171.376 L 236.463 171.376 235.698 172.255 M139.236 172.444 C 139.584 172.829,140.312 173.331,140.852 173.560 C 143.004 174.471,143.119 175.270,143.119 189.257 L 143.119 201.970 141.320 203.704 C 138.968 205.971,138.917 205.976,119.074 205.798 C 96.995 205.599,98.716 207.039,98.716 188.765 C 98.716 175.398,98.705 175.474,100.861 173.269 C 102.360 171.735,101.455 171.803,120.769 171.772 C 137.871 171.744,138.628 171.772,139.236 172.444 M272.805 172.095 C 273.315 172.289,274.069 172.785,274.481 173.196 C 274.892 173.608,275.443 173.945,275.704 173.945 C 276.657 173.945,277.065 177.143,277.028 184.317 C 276.980 193.577,277.127 193.153,273.852 193.447 C 272.245 193.592,270.752 193.967,270.014 194.410 C 269.351 194.810,267.846 195.229,266.672 195.342 C 265.498 195.456,263.846 195.915,263.002 196.363 C 262.158 196.812,260.660 197.312,259.673 197.474 C 258.686 197.637,257.273 198.189,256.534 198.702 C 255.795 199.214,254.757 199.633,254.229 199.633 C 253.700 199.633,252.801 200.024,252.230 200.503 C 251.659 200.981,250.649 201.492,249.984 201.637 C 249.319 201.782,248.345 202.299,247.820 202.785 C 247.295 203.272,246.654 203.670,246.397 203.670 C 246.139 203.670,245.405 204.110,244.765 204.648 C 242.175 206.827,235.643 205.869,234.017 203.072 C 232.630 200.684,231.682 181.664,232.830 179.245 C 233.140 178.590,233.394 177.788,233.394 177.462 C 233.394 175.860,234.310 174.037,235.302 173.663 C 235.868 173.449,236.330 173.024,236.330 172.717 C 236.330 172.390,236.748 172.096,237.339 172.006 C 239.524 171.675,271.915 171.757,272.805 172.095 M175.413 172.864 C 177.128 173.096,179.936 173.201,181.651 173.096 C 205.069 171.674,209.089 172.003,209.815 175.404 C 210.179 177.106,210.174 201.358,209.810 202.661 C 209.654 203.216,209.297 203.670,209.014 203.670 C 208.732 203.670,208.171 204.124,207.766 204.679 L 207.031 205.688 188.378 205.688 C 167.117 205.688,169.390 206.035,166.428 202.332 L 165.505 201.178 165.505 188.719 C 165.505 176.780,165.535 176.233,166.229 175.605 C 166.628 175.244,167.047 174.654,167.162 174.294 C 167.276 173.934,167.858 173.469,168.455 173.261 C 169.053 173.053,169.541 172.694,169.541 172.464 C 169.541 172.190,170.016 172.114,170.917 172.244 C 171.674 172.353,173.697 172.632,175.413 172.864 M282.936 202.937 C 282.028 203.111,279.881 203.587,278.165 203.994 C 276.450 204.401,274.135 204.742,273.022 204.752 C 271.773 204.764,270.505 205.035,269.709 205.462 C 269.000 205.842,267.453 206.353,266.272 206.599 C 265.090 206.844,263.377 207.441,262.466 207.926 C 261.554 208.411,260.526 208.807,260.180 208.807 C 259.630 208.807,255.843 210.498,254.312 211.427 C 254.009 211.611,252.936 212.174,251.927 212.679 C 250.917 213.185,249.514 214.001,248.807 214.494 C 248.101 214.987,246.970 215.767,246.295 216.227 C 245.033 217.088,244.794 217.279,240.734 220.673 C 236.520 224.195,228.745 232.825,227.387 235.489 C 227.057 236.136,226.044 237.728,225.136 239.026 C 224.229 240.324,223.486 241.565,223.486 241.782 C 223.486 242.388,222.285 244.771,221.979 244.771 C 221.830 244.771,221.512 245.390,221.273 246.147 C 221.033 246.904,220.518 248.081,220.128 248.762 C 219.738 249.444,219.189 250.988,218.908 252.193 C 218.627 253.398,218.121 254.689,217.784 255.061 C 217.406 255.479,217.051 256.812,216.858 258.535 C 216.685 260.073,216.277 261.857,215.951 262.500 C 214.352 265.654,214.166 289.457,215.712 293.157 C 216.164 294.238,216.632 296.137,216.753 297.377 C 216.877 298.643,217.352 300.358,217.836 301.284 C 218.311 302.193,218.877 303.759,219.095 304.765 C 219.313 305.771,219.709 306.844,219.974 307.150 C 220.240 307.456,220.669 308.364,220.927 309.167 C 221.186 309.971,222.198 312.101,223.176 313.901 C 224.154 315.701,224.954 317.292,224.954 317.436 C 224.954 317.580,225.332 318.092,225.794 318.574 C 226.256 319.055,227.365 320.589,228.258 321.981 C 229.151 323.373,230.264 324.942,230.732 325.467 C 231.708 326.563,240.295 335.228,241.498 336.330 C 243.856 338.492,252.427 344.114,255.780 345.697 C 256.284 345.936,257.688 346.609,258.899 347.194 C 260.110 347.779,261.365 348.257,261.688 348.257 C 262.012 348.257,263.002 348.642,263.890 349.113 C 264.778 349.584,266.292 350.077,267.254 350.208 C 268.217 350.339,269.786 350.815,270.741 351.265 C 271.892 351.808,273.590 352.174,275.780 352.353 C 277.596 352.501,280.321 352.803,281.835 353.024 C 287.629 353.870,293.464 353.883,297.489 353.058 C 299.539 352.637,302.346 352.292,303.727 352.290 C 305.609 352.287,306.717 352.064,308.147 351.398 C 309.197 350.909,310.848 350.396,311.817 350.257 C 312.786 350.119,314.073 349.710,314.679 349.348 C 315.284 348.987,316.523 348.498,317.431 348.262 C 318.339 348.026,319.661 347.444,320.367 346.967 C 321.073 346.491,322.147 345.987,322.752 345.847 C 323.358 345.706,324.183 345.311,324.587 344.969 C 324.991 344.626,326.275 343.876,327.441 343.301 C 328.607 342.726,330.202 341.707,330.986 341.036 C 331.769 340.365,332.518 339.817,332.649 339.817 C 333.364 339.817,337.515 336.406,343.211 331.136 C 343.463 330.902,344.578 329.678,345.688 328.416 C 346.798 327.153,348.161 325.697,348.716 325.180 C 349.271 324.663,349.728 324.071,349.733 323.863 C 349.737 323.656,350.076 323.073,350.485 322.569 C 352.386 320.225,354.547 316.770,355.994 313.761 C 356.430 312.853,357.017 311.847,357.298 311.525 C 358.805 309.798,359.421 302.480,358.241 300.319 C 355.623 295.522,348.693 295.003,344.999 299.327 C 344.369 300.065,343.853 300.877,343.853 301.132 C 343.853 301.387,343.464 302.062,342.989 302.632 C 342.514 303.203,341.929 304.269,341.691 305.001 C 341.452 305.734,340.942 306.618,340.557 306.966 C 340.173 307.314,339.753 308.075,339.626 308.658 C 339.498 309.240,339.227 309.819,339.025 309.944 C 338.822 310.069,338.360 310.659,337.998 311.254 C 337.636 311.849,336.590 313.193,335.673 314.241 C 332.999 317.298,331.064 319.604,330.750 320.109 C 330.360 320.737,326.819 323.670,326.451 323.670 C 326.291 323.670,325.836 324.083,325.439 324.587 C 325.042 325.092,324.476 325.505,324.182 325.505 C 323.888 325.505,323.549 325.758,323.430 326.069 C 323.311 326.379,322.697 326.894,322.066 327.212 C 321.434 327.531,320.587 328.083,320.183 328.438 C 319.780 328.793,318.841 329.279,318.096 329.517 C 317.352 329.755,316.359 330.252,315.889 330.622 C 315.419 330.992,314.422 331.463,313.674 331.670 C 312.927 331.876,311.819 332.398,311.214 332.829 C 310.608 333.260,309.233 333.756,308.158 333.931 C 307.083 334.106,305.633 334.580,304.936 334.984 C 304.062 335.491,302.647 335.795,300.367 335.965 C 298.550 336.101,296.132 336.446,294.993 336.730 C 292.299 337.403,287.592 337.390,284.892 336.703 C 283.715 336.403,281.009 336.008,278.879 335.824 C 276.136 335.588,274.585 335.265,273.563 334.718 C 272.770 334.293,271.643 333.945,271.059 333.945 C 270.475 333.945,269.152 333.467,268.118 332.883 C 267.084 332.299,265.722 331.712,265.091 331.579 C 264.460 331.446,263.396 330.934,262.726 330.439 C 262.057 329.945,261.334 329.537,261.121 329.531 C 260.908 329.525,260.085 329.030,259.292 328.430 C 258.500 327.830,257.642 327.339,257.387 327.339 C 257.131 327.339,256.707 327.035,256.443 326.664 C 256.179 326.292,255.550 325.772,255.046 325.508 C 253.090 324.486,243.670 315.693,243.670 314.890 C 243.670 314.694,242.834 313.529,241.812 312.301 C 240.790 311.073,239.776 309.537,239.559 308.887 C 239.342 308.238,238.868 307.376,238.506 306.972 C 238.144 306.569,237.501 305.495,237.076 304.587 C 236.652 303.679,236.066 302.523,235.773 302.018 C 235.480 301.514,235.238 300.827,235.235 300.493 C 235.232 300.158,234.806 299.067,234.288 298.069 C 233.770 297.070,233.222 295.363,233.072 294.274 C 232.921 293.185,232.615 291.957,232.391 291.546 C 230.432 287.945,230.464 268.927,232.435 265.008 C 232.704 264.474,233.031 263.226,233.160 262.235 C 233.290 261.244,233.809 259.562,234.313 258.496 C 234.817 257.431,235.229 256.388,235.229 256.179 C 235.229 255.682,238.191 249.782,238.565 249.534 C 238.723 249.429,239.196 248.603,239.616 247.699 C 240.449 245.904,240.886 245.280,244.356 240.933 C 247.158 237.424,250.621 234.042,253.202 232.294 C 254.244 231.587,255.446 230.638,255.872 230.183 C 256.298 229.729,256.864 229.358,257.130 229.358 C 257.397 229.358,257.941 229.031,258.340 228.632 C 258.739 228.233,259.686 227.647,260.445 227.330 C 261.204 227.013,262.157 226.444,262.564 226.065 C 262.970 225.686,263.798 225.256,264.404 225.109 C 265.009 224.962,265.942 224.480,266.477 224.036 C 267.011 223.592,268.222 223.123,269.168 222.993 C 270.114 222.864,271.389 222.401,272.000 221.966 C 272.794 221.401,273.967 221.092,276.097 220.886 C 277.739 220.728,279.991 220.301,281.101 219.938 C 284.248 218.907,295.229 219.004,298.007 220.087 C 299.174 220.542,301.160 220.927,302.799 221.016 C 304.829 221.127,305.949 221.386,306.879 221.961 C 307.585 222.397,308.943 222.860,309.898 222.991 C 310.853 223.122,312.071 223.586,312.606 224.022 C 313.141 224.458,314.289 225.021,315.157 225.272 C 316.025 225.523,316.824 225.960,316.933 226.241 C 317.041 226.523,317.734 226.951,318.473 227.191 C 319.212 227.432,320.265 227.977,320.814 228.402 C 321.362 228.827,322.486 229.670,323.311 230.275 C 325.543 231.914,330.370 236.034,331.072 236.899 C 331.409 237.315,332.606 238.607,333.732 239.770 C 334.858 240.933,335.780 242.062,335.780 242.280 C 335.780 242.497,336.120 243.023,336.535 243.448 C 338.149 245.097,339.817 247.439,339.817 248.055 C 339.817 248.410,340.229 249.146,340.734 249.690 C 342.794 251.913,340.818 254.132,336.147 254.838 C 335.020 255.009,334.038 255.490,333.053 256.356 L 331.610 257.624 333.053 258.951 C 333.846 259.681,334.991 260.448,335.596 260.656 C 336.581 260.994,337.918 261.929,339.940 263.696 C 340.311 264.019,341.217 264.536,341.953 264.844 C 342.689 265.151,343.509 265.715,343.776 266.096 C 344.043 266.477,344.476 266.789,344.738 266.789 C 345.000 266.789,345.643 267.186,346.167 267.672 C 346.691 268.158,347.704 268.748,348.419 268.984 C 349.134 269.220,349.844 269.618,349.997 269.869 C 350.367 270.476,354.268 273.028,354.826 273.028 C 355.067 273.028,355.657 273.451,356.137 273.969 C 357.520 275.461,359.664 275.143,360.174 273.369 C 360.381 272.648,360.829 271.637,361.171 271.122 C 361.512 270.607,362.061 269.142,362.391 267.867 C 362.722 266.592,363.310 265.145,363.698 264.652 C 364.086 264.158,364.410 263.240,364.418 262.611 C 364.426 261.982,364.922 260.560,365.519 259.450 C 366.117 258.339,366.605 257.084,366.605 256.660 C 366.605 256.236,366.992 255.161,367.465 254.272 C 367.938 253.382,368.448 251.995,368.598 251.190 C 368.747 250.384,369.199 249.137,369.601 248.418 C 371.452 245.111,369.301 243.293,365.754 245.167 C 363.863 246.166,359.681 247.019,358.847 246.575 C 357.892 246.068,356.353 244.072,356.088 242.999 C 355.956 242.460,355.460 241.507,354.988 240.883 C 354.515 240.258,354.128 239.586,354.128 239.389 C 354.128 239.192,353.633 238.476,353.028 237.798 C 352.422 237.120,351.927 236.446,351.927 236.301 C 351.927 235.942,349.470 232.315,348.600 231.389 C 340.585 222.857,331.876 215.046,330.379 215.046 C 330.274 215.046,329.624 214.550,328.935 213.945 C 328.245 213.339,327.452 212.844,327.171 212.844 C 326.891 212.844,326.195 212.455,325.624 211.980 C 325.054 211.504,323.981 210.918,323.240 210.677 C 322.500 210.435,321.701 210.006,321.467 209.723 C 321.232 209.440,320.167 208.955,319.100 208.645 C 318.033 208.335,316.971 207.852,316.739 207.573 C 316.507 207.294,315.288 206.865,314.030 206.620 C 312.772 206.374,311.228 205.858,310.599 205.472 C 309.970 205.086,308.841 204.771,308.090 204.771 C 306.748 204.771,302.892 203.967,300.734 203.237 C 299.321 202.760,285.109 202.519,282.936 202.937 M299.860 204.189 C 300.543 204.493,302.874 204.900,305.042 205.093 C 308.068 205.363,309.201 205.617,309.923 206.185 C 310.466 206.612,311.747 207.033,312.955 207.182 C 314.285 207.346,315.401 207.737,316.021 208.255 C 316.557 208.703,317.644 209.173,318.436 209.300 C 319.228 209.427,320.174 209.860,320.539 210.262 C 320.903 210.665,321.794 211.106,322.519 211.242 C 323.244 211.378,324.136 211.870,324.503 212.336 C 324.869 212.802,325.753 213.293,326.467 213.427 C 327.181 213.561,327.855 213.905,327.964 214.190 C 328.074 214.476,328.804 215.037,329.587 215.436 C 330.369 215.835,331.009 216.321,331.009 216.516 C 331.009 216.711,331.546 217.101,332.202 217.383 C 332.858 217.665,333.762 218.248,334.211 218.678 C 334.660 219.108,335.444 219.619,335.954 219.813 C 336.464 220.007,336.881 220.397,336.881 220.680 C 336.881 220.964,337.360 221.394,337.947 221.637 C 338.533 221.880,339.099 222.407,339.204 222.810 C 339.309 223.212,339.732 223.629,340.144 223.737 C 340.556 223.844,340.995 224.255,341.121 224.649 C 341.246 225.043,341.733 225.541,342.203 225.755 C 342.673 225.969,343.141 226.467,343.244 226.861 C 343.347 227.255,343.787 227.670,344.221 227.784 C 344.655 227.897,345.165 228.396,345.354 228.893 C 345.542 229.390,346.025 229.882,346.426 229.987 C 346.828 230.091,347.156 230.413,347.156 230.702 C 347.156 230.990,347.589 231.659,348.118 232.188 C 348.646 232.716,349.295 233.658,349.559 234.281 C 349.823 234.904,350.381 235.700,350.799 236.051 C 351.218 236.403,351.560 236.927,351.560 237.217 C 351.560 237.508,351.945 238.048,352.415 238.418 C 352.886 238.788,353.381 239.531,353.516 240.068 C 353.651 240.605,354.143 241.511,354.609 242.082 C 355.076 242.652,355.659 243.818,355.907 244.673 C 356.169 245.580,356.691 246.406,357.161 246.657 C 357.604 246.894,358.188 247.310,358.459 247.581 C 359.088 248.210,360.008 248.208,360.928 247.575 C 361.326 247.301,362.394 246.995,363.303 246.895 C 364.211 246.796,365.696 246.355,366.603 245.916 C 368.466 245.014,370.504 246.474,368.829 247.510 C 368.638 247.627,368.366 248.500,368.224 249.448 C 368.082 250.397,367.494 252.081,366.918 253.191 C 366.343 254.301,365.872 255.698,365.872 256.297 C 365.872 256.895,365.548 257.728,365.153 258.149 C 364.758 258.569,364.191 259.959,363.893 261.236 C 363.595 262.514,363.086 263.852,362.762 264.210 C 362.438 264.568,362.042 265.688,361.882 266.698 C 361.722 267.708,361.247 268.972,360.826 269.507 C 360.405 270.042,359.957 271.096,359.830 271.849 C 359.559 273.449,357.597 274.988,357.188 273.921 C 357.070 273.614,356.364 273.052,355.618 272.672 C 354.873 272.291,354.056 271.731,353.803 271.427 C 353.551 271.122,352.872 270.769,352.295 270.643 C 351.718 270.516,350.983 270.010,350.661 269.518 C 350.338 269.026,349.872 268.624,349.623 268.624 C 349.375 268.624,348.359 268.046,347.365 267.339 C 346.372 266.633,345.335 266.055,345.062 266.055 C 344.788 266.055,344.472 265.815,344.359 265.521 C 344.246 265.227,343.302 264.484,342.261 263.870 C 339.377 262.168,338.996 261.914,337.695 260.826 C 337.031 260.271,336.235 259.817,335.926 259.817 C 335.617 259.817,334.742 259.295,333.983 258.658 L 332.603 257.499 334.650 256.455 C 335.776 255.881,337.358 255.306,338.165 255.177 C 342.148 254.544,343.554 252.001,341.477 249.186 C 340.977 248.509,340.386 247.404,340.164 246.730 C 339.942 246.056,339.612 245.505,339.432 245.505 C 339.130 245.505,336.954 242.462,335.862 240.512 C 335.604 240.053,335.093 239.581,334.725 239.464 C 334.357 239.347,333.870 238.842,333.642 238.342 C 333.413 237.841,333.002 237.431,332.727 237.431 C 332.453 237.431,332.039 237.016,331.807 236.508 C 331.576 236.001,330.972 235.396,330.464 235.165 C 329.957 234.934,329.541 234.528,329.541 234.262 C 329.541 233.997,329.046 233.524,328.440 233.211 C 327.835 232.898,327.339 232.493,327.339 232.312 C 327.339 231.917,322.462 228.624,321.877 228.624 C 321.652 228.624,321.468 228.374,321.468 228.069 C 321.468 227.750,320.627 227.142,319.497 226.642 C 318.412 226.162,317.414 225.591,317.279 225.372 C 317.144 225.153,316.406 224.805,315.639 224.599 C 314.872 224.392,313.866 223.896,313.405 223.495 C 312.944 223.095,311.973 222.657,311.247 222.520 C 310.522 222.384,309.126 221.870,308.146 221.378 C 306.959 220.782,305.362 220.389,303.365 220.202 C 301.716 220.047,299.731 219.651,298.954 219.322 C 296.034 218.083,280.854 218.207,278.458 219.489 C 278.019 219.724,276.524 220.041,275.136 220.194 C 273.626 220.360,271.902 220.840,270.841 221.390 C 269.866 221.896,268.514 222.432,267.837 222.580 C 267.160 222.729,266.030 223.241,265.328 223.719 C 264.625 224.196,263.781 224.587,263.452 224.587 C 263.122 224.587,262.230 225.083,261.468 225.688 C 260.706 226.294,259.850 226.789,259.566 226.789 C 259.282 226.789,258.649 227.189,258.160 227.678 C 257.671 228.167,256.954 228.668,256.566 228.791 C 256.179 228.914,255.436 229.409,254.915 229.892 C 254.395 230.374,253.629 230.877,253.213 231.009 C 252.798 231.140,252.195 231.649,251.875 232.138 C 251.554 232.627,251.127 233.028,250.926 233.028 C 250.565 233.028,245.138 238.279,245.138 238.628 C 245.138 238.726,244.540 239.447,243.809 240.229 C 242.515 241.615,240.382 244.575,239.259 246.545 C 238.952 247.083,238.250 248.181,237.699 248.984 C 237.148 249.788,236.697 250.666,236.697 250.935 C 236.697 251.205,236.305 251.951,235.825 252.593 C 235.346 253.236,234.846 254.364,234.715 255.100 C 234.584 255.837,234.152 256.851,233.756 257.355 C 233.345 257.877,232.893 259.274,232.705 260.606 C 232.523 261.890,231.985 263.600,231.509 264.406 C 229.843 267.228,229.920 288.748,231.609 292.283 C 231.992 293.085,232.477 294.815,232.687 296.128 C 232.916 297.564,233.334 298.763,233.736 299.137 C 234.103 299.479,234.518 300.371,234.658 301.120 C 234.799 301.869,235.315 303.117,235.805 303.894 C 236.296 304.671,236.697 305.528,236.697 305.799 C 236.697 306.070,237.188 306.940,237.788 307.733 C 238.388 308.526,238.883 309.451,238.889 309.790 C 238.894 310.128,239.290 310.713,239.767 311.088 C 240.244 311.464,240.741 312.095,240.872 312.491 C 241.002 312.887,241.595 313.763,242.191 314.437 C 242.787 315.112,243.372 315.970,243.491 316.345 C 243.610 316.720,244.029 317.129,244.422 317.254 C 244.816 317.379,245.138 317.627,245.138 317.805 C 245.138 318.074,246.935 319.948,249.249 322.093 C 249.511 322.335,249.924 322.748,250.168 323.010 C 250.630 323.506,252.479 324.906,254.679 326.426 C 258.987 329.402,260.386 330.275,260.846 330.275 C 261.130 330.275,261.853 330.688,262.452 331.193 C 263.052 331.697,263.984 332.207,264.524 332.324 C 265.754 332.593,265.959 332.681,267.466 333.593 C 268.140 334.001,269.461 334.435,270.401 334.557 C 271.341 334.678,272.358 334.982,272.661 335.232 C 273.488 335.916,275.485 336.430,278.349 336.695 C 279.761 336.827,282.220 337.252,283.812 337.641 C 287.552 338.555,292.057 338.555,295.913 337.641 C 297.555 337.251,300.055 336.819,301.468 336.680 C 302.881 336.540,304.862 336.049,305.872 335.586 C 306.881 335.124,308.406 334.634,309.261 334.498 C 310.116 334.361,311.403 333.850,312.121 333.363 C 312.840 332.876,313.647 332.477,313.916 332.477 C 314.696 332.477,316.898 331.468,317.377 330.891 C 317.618 330.601,318.269 330.273,318.824 330.162 C 319.744 329.978,321.195 329.033,323.670 327.004 C 324.174 326.590,325.471 325.629,326.551 324.869 C 330.029 322.419,335.192 316.801,338.023 312.385 C 338.444 311.729,338.943 311.193,339.132 311.193 C 339.321 311.193,339.806 310.422,340.210 309.480 C 340.613 308.539,341.160 307.589,341.424 307.370 C 341.689 307.152,342.125 306.394,342.393 305.688 C 342.661 304.982,343.182 303.965,343.550 303.430 C 343.919 302.894,344.220 302.283,344.220 302.072 C 344.220 301.749,345.246 300.422,346.322 299.351 C 348.650 297.036,352.734 296.012,353.704 297.501 C 353.836 297.705,354.640 298.307,355.489 298.839 C 357.281 299.961,357.617 300.498,357.945 302.762 C 358.269 305.002,357.576 309.790,356.848 310.335 C 356.534 310.570,356.042 311.545,355.754 312.502 C 355.466 313.459,354.913 314.465,354.525 314.736 C 354.137 315.008,353.702 315.767,353.559 316.422 C 353.416 317.078,352.907 317.978,352.429 318.423 C 351.951 318.867,351.560 319.468,351.560 319.757 C 351.560 320.046,351.147 320.553,350.642 320.884 C 350.138 321.214,349.725 321.720,349.725 322.006 C 349.725 322.293,349.148 323.156,348.442 323.925 C 347.737 324.693,347.159 325.610,347.158 325.963 C 347.157 326.317,346.901 326.606,346.588 326.606 C 346.276 326.606,345.740 327.100,345.396 327.704 C 345.052 328.308,344.568 328.804,344.321 328.805 C 344.074 328.806,343.616 329.303,343.303 329.908 C 342.990 330.514,342.486 331.009,342.185 331.009 C 341.883 331.009,341.448 331.422,341.218 331.927 C 340.988 332.431,340.583 332.844,340.319 332.844 C 340.055 332.844,339.472 333.339,339.025 333.945 C 338.577 334.550,338.061 335.046,337.879 335.046 C 337.697 335.046,336.873 335.624,336.047 336.330 C 335.222 337.037,334.417 337.615,334.259 337.615 C 333.972 337.615,333.000 338.413,331.094 340.214 C 330.543 340.735,329.607 341.282,329.015 341.430 C 328.424 341.578,327.461 342.101,326.877 342.593 C 326.293 343.084,325.606 343.486,325.350 343.486 C 325.094 343.486,324.425 343.881,323.863 344.364 C 323.301 344.847,322.202 345.345,321.420 345.470 C 320.639 345.595,320.000 345.822,320.000 345.976 C 320.000 346.418,317.748 347.444,316.218 347.698 C 315.450 347.826,314.522 348.230,314.156 348.596 C 313.752 349.000,312.644 349.363,311.333 349.520 C 310.146 349.663,308.287 350.180,307.203 350.670 C 306.023 351.203,304.551 351.558,303.534 351.556 C 302.599 351.555,299.634 351.827,296.945 352.162 C 291.934 352.785,291.332 352.772,276.514 351.707 C 274.927 351.593,273.234 351.192,272.085 350.660 C 271.062 350.186,269.122 349.679,267.773 349.535 C 266.425 349.390,265.321 349.118,265.321 348.929 C 265.321 348.499,263.031 347.523,262.023 347.523 C 261.609 347.523,260.636 347.123,259.861 346.634 C 259.086 346.144,257.795 345.567,256.991 345.351 C 256.187 345.134,255.230 344.626,254.864 344.222 C 254.498 343.817,253.959 343.486,253.666 343.486 C 253.373 343.486,252.632 343.065,252.020 342.549 C 251.408 342.034,250.439 341.519,249.868 341.405 C 249.297 341.290,248.733 340.895,248.616 340.526 C 248.499 340.156,248.095 339.757,247.720 339.637 C 247.344 339.518,246.417 338.928,245.659 338.326 C 244.902 337.724,243.912 337.138,243.460 337.025 C 243.008 336.911,242.556 336.504,242.456 336.120 C 242.355 335.736,241.867 335.267,241.370 335.078 C 240.873 334.890,240.367 334.473,240.244 334.153 C 240.121 333.833,239.617 333.388,239.124 333.163 C 238.631 332.938,238.143 332.432,238.040 332.038 C 237.937 331.644,237.549 331.242,237.178 331.145 C 236.808 331.048,236.225 330.483,235.884 329.888 C 235.543 329.294,235.008 328.807,234.696 328.807 C 234.384 328.807,234.128 328.603,234.128 328.353 C 234.128 328.102,233.716 327.483,233.211 326.976 C 231.603 325.361,229.725 322.883,229.725 322.377 C 229.725 322.108,229.312 321.563,228.807 321.166 C 228.303 320.770,227.890 320.255,227.890 320.022 C 227.890 319.790,227.498 319.208,227.019 318.728 C 226.539 318.249,225.958 317.314,225.727 316.651 C 225.496 315.987,225.007 315.107,224.641 314.695 C 224.275 314.282,223.692 313.174,223.345 312.231 C 222.998 311.288,222.475 310.318,222.183 310.076 C 221.890 309.833,221.651 309.330,221.651 308.958 C 221.651 308.160,220.526 305.688,220.163 305.688 C 220.024 305.688,219.805 304.904,219.676 303.945 C 219.546 302.986,219.029 301.483,218.527 300.605 C 218.020 299.717,217.612 298.413,217.609 297.669 C 217.602 295.921,216.614 291.756,216.043 291.068 C 215.025 289.841,215.501 267.495,216.630 263.486 C 217.171 261.569,217.613 259.472,217.614 258.827 C 217.614 258.181,218.003 256.923,218.478 256.031 C 218.952 255.138,219.446 253.744,219.576 252.934 C 219.706 252.123,220.224 250.739,220.727 249.858 C 221.231 248.977,221.645 248.006,221.647 247.700 C 221.649 247.394,222.056 246.548,222.550 245.820 C 223.044 245.093,223.566 244.023,223.709 243.442 C 223.852 242.861,224.356 241.874,224.829 241.250 C 225.301 240.625,225.688 239.948,225.688 239.745 C 225.688 239.541,226.183 238.857,226.789 238.223 C 227.394 237.589,227.890 236.844,227.890 236.568 C 227.890 236.291,228.385 235.441,228.991 234.679 C 229.596 233.917,230.092 233.080,230.092 232.818 C 230.092 232.557,230.414 232.241,230.807 232.116 C 231.200 231.991,231.631 231.547,231.763 231.130 C 231.989 230.418,239.754 222.571,242.233 220.550 C 242.851 220.046,243.795 219.179,244.329 218.624 C 244.864 218.069,245.471 217.610,245.678 217.604 C 245.885 217.599,246.704 217.103,247.497 216.504 C 248.289 215.904,249.153 215.413,249.415 215.413 C 249.677 215.413,250.151 215.017,250.468 214.533 C 250.816 214.002,251.562 213.556,252.351 213.408 C 253.070 213.273,254.011 212.782,254.444 212.316 C 254.895 211.830,255.893 211.358,256.791 211.207 C 257.650 211.062,258.559 210.650,258.811 210.290 C 259.066 209.926,259.999 209.517,260.919 209.367 C 261.826 209.218,263.312 208.715,264.220 208.249 C 265.128 207.782,266.589 207.300,267.465 207.177 C 268.341 207.054,269.734 206.608,270.559 206.187 C 271.650 205.631,273.222 205.331,276.306 205.092 C 278.640 204.911,281.046 204.523,281.651 204.230 C 283.865 203.157,297.476 203.126,299.860 204.189 M111.927 231.198 C 111.018 231.367,108.334 231.517,105.962 231.532 L 101.649 231.560 99.907 233.205 L 98.165 234.850 98.165 248.159 C 98.165 262.526,98.197 262.862,99.717 264.399 C 102.209 266.919,101.017 266.786,121.103 266.788 L 139.270 266.789 141.197 265.596 C 143.758 264.011,143.670 264.620,143.670 248.580 L 143.670 234.592 142.186 233.109 L 140.703 231.626 129.526 231.413 C 123.378 231.296,117.275 231.131,115.963 231.045 C 114.651 230.960,112.835 231.029,111.927 231.198 M181.835 231.183 C 181.431 231.362,178.593 231.520,175.528 231.534 C 169.273 231.563,168.880 231.659,166.697 233.692 L 165.138 235.145 165.138 248.789 L 165.138 262.434 166.068 263.654 C 166.580 264.325,167.649 265.305,168.445 265.831 L 169.893 266.789 186.809 266.789 L 203.726 266.789 204.799 265.716 C 205.389 265.126,205.873 264.424,205.874 264.157 C 205.886 262.109,206.674 257.484,207.130 256.789 C 207.437 256.319,207.937 254.637,208.241 253.050 C 208.545 251.464,209.044 249.888,209.352 249.548 C 209.659 249.209,210.090 247.957,210.310 246.766 C 210.531 245.576,210.957 244.126,211.257 243.544 C 211.960 242.187,211.958 239.646,211.255 238.285 C 210.952 237.701,210.594 236.628,210.457 235.901 C 209.944 233.167,207.971 231.890,203.607 231.471 C 198.537 230.983,182.758 230.775,181.835 231.183 M131.962 232.292 L 140.071 232.294 141.503 233.670 L 142.936 235.046 142.936 249.087 L 142.936 263.129 141.835 264.028 C 141.229 264.523,140.548 264.934,140.320 264.941 C 140.093 264.948,139.701 265.202,139.450 265.505 C 139.055 265.980,136.552 266.055,121.056 266.055 C 101.020 266.055,103.149 266.335,100.162 263.303 L 98.716 261.835 98.724 249.725 C 98.734 237.008,98.907 235.128,100.153 234.255 C 100.573 233.961,100.917 233.482,100.917 233.190 C 100.917 232.899,100.959 232.636,101.009 232.606 C 101.447 232.344,112.655 232.036,117.615 232.149 C 121.046 232.227,127.502 232.292,131.962 232.292 M202.690 232.280 C 206.580 232.581,207.116 232.708,207.853 233.503 C 208.305 233.991,208.855 234.455,209.076 234.534 C 210.492 235.044,210.578 246.839,209.173 247.707 C 208.714 247.991,207.706 250.890,207.706 251.928 C 207.706 252.383,207.285 253.677,206.769 254.803 C 206.148 256.159,205.769 257.756,205.647 259.526 C 205.514 261.441,205.181 262.749,204.474 264.127 L 203.486 266.052 186.731 266.054 L 169.976 266.055 167.772 263.831 C 165.680 261.719,165.586 261.548,165.915 260.436 C 166.105 259.793,166.235 254.122,166.203 247.835 L 166.145 236.404 167.089 235.175 C 169.148 232.491,169.130 232.497,175.780 232.276 C 186.237 231.929,198.180 231.931,202.690 232.280 M287.718 232.463 C 287.438 232.800,286.759 233.309,286.209 233.593 C 284.115 234.676,282.936 238.763,282.936 244.935 C 282.936 246.173,282.693 248.117,282.397 249.256 C 282.047 250.597,281.768 254.308,281.605 259.794 L 281.352 268.263 279.387 270.324 C 278.306 271.458,277.316 272.819,277.186 273.349 C 277.056 273.879,276.563 274.887,276.090 275.590 C 274.817 277.480,274.796 284.753,276.058 286.646 C 276.514 287.330,277.092 288.350,277.342 288.913 C 277.885 290.138,281.031 293.577,281.610 293.580 C 281.835 293.580,282.761 294.075,283.670 294.679 C 285.223 295.712,285.535 295.777,288.938 295.778 L 292.556 295.780 296.094 298.400 C 298.041 299.841,299.881 301.301,300.183 301.645 C 301.092 302.675,307.762 308.164,308.685 308.640 C 309.156 308.883,309.909 309.417,310.358 309.826 C 311.044 310.451,311.705 310.576,314.481 310.606 L 317.787 310.642 319.352 309.076 L 320.917 307.510 320.891 304.428 C 320.866 301.578,320.783 301.249,319.790 300.056 C 319.199 299.346,318.138 297.999,317.431 297.062 C 315.565 294.587,311.001 289.445,307.691 286.086 C 306.213 284.586,305.168 282.008,304.408 277.982 C 304.066 276.165,303.470 274.231,303.085 273.685 C 302.700 273.138,302.385 272.582,302.385 272.450 C 302.385 272.318,301.575 271.275,300.585 270.132 C 298.892 268.177,298.773 267.903,298.566 265.495 C 297.936 258.167,297.682 253.095,297.629 246.789 C 297.558 238.401,296.628 235.127,293.761 233.167 C 291.902 231.895,288.516 231.501,287.718 232.463 M293.553 234.116 C 294.374 234.535,295.046 235.100,295.046 235.372 C 295.046 235.645,295.354 236.839,295.732 238.026 C 296.410 240.161,296.796 245.675,297.466 262.848 C 297.683 268.382,297.730 268.661,298.571 269.323 C 299.054 269.703,299.450 270.193,299.450 270.411 C 299.450 270.630,299.856 271.075,300.353 271.401 C 300.849 271.726,301.368 272.347,301.506 272.780 C 301.643 273.214,302.134 274.148,302.597 274.858 C 303.215 275.805,303.505 276.947,303.692 279.166 C 303.889 281.503,304.143 282.453,304.817 283.366 C 305.296 284.015,305.688 284.750,305.688 284.999 C 305.688 285.248,306.075 285.755,306.547 286.127 C 307.020 286.499,307.598 287.160,307.831 287.597 C 308.065 288.033,308.587 288.496,308.990 288.624 C 309.394 288.752,309.725 289.057,309.725 289.301 C 309.725 289.545,310.179 290.175,310.734 290.700 C 312.492 292.364,318.532 299.667,318.532 300.128 C 318.532 300.311,318.864 300.688,319.270 300.964 C 320.748 301.973,320.398 306.783,318.721 308.509 C 317.052 310.227,312.766 310.586,311.115 309.147 C 309.803 308.004,306.229 305.688,305.778 305.688 C 305.554 305.688,305.266 305.358,305.137 304.954 C 305.009 304.550,304.544 304.030,304.104 303.798 C 303.663 303.566,302.972 303.066,302.569 302.686 C 301.843 302.003,300.248 300.579,298.019 298.624 C 297.386 298.069,296.747 297.612,296.599 297.609 C 296.451 297.606,295.799 297.134,295.149 296.561 C 294.057 295.598,293.682 295.505,290.195 295.326 C 287.340 295.179,286.109 294.952,285.138 294.393 C 284.431 293.986,283.470 293.539,283.002 293.399 C 282.067 293.120,277.798 288.885,277.798 288.236 C 277.798 288.013,277.386 287.018,276.882 286.025 C 275.482 283.265,275.559 278.909,277.064 275.723 C 277.670 274.441,278.165 273.240,278.165 273.053 C 278.165 272.867,278.578 272.389,279.083 271.992 C 279.587 271.595,280.000 271.138,280.000 270.976 C 280.000 270.815,280.454 270.209,281.009 269.631 C 281.980 268.619,282.029 268.381,282.291 263.372 C 282.441 260.508,282.721 256.514,282.913 254.495 C 283.105 252.477,283.419 248.565,283.611 245.801 C 284.111 238.605,284.414 236.363,284.931 236.053 C 285.181 235.903,285.546 235.486,285.742 235.126 C 286.840 233.106,290.616 232.617,293.553 234.116 " stroke="none" fill="#9e3b34" fill-rule="evenodd"></path></g></svg>