<svg id="svg" version="1.1" xmlns="http://www.w3.org/2000/svg" xmlns:xlink="http://www.w3.org/1999/xlink" width="400" height="389.247311827957" viewBox="0, 0, 400,389.247311827957"><g id="svgg"><path id="path0" d="M100.954 28.534 C 100.247 28.760,98.713 29.901,97.546 31.068 L 95.424 33.191 95.424 52.584 L 95.424 71.976 96.822 74.060 C 98.497 76.558,99.249 77.001,102.627 77.479 C 104.050 77.681,105.449 78.041,105.737 78.280 C 106.610 79.004,117.592 78.557,121.548 77.636 C 125.665 76.678,125.479 76.798,127.044 74.092 L 128.335 71.860 128.335 52.663 C 128.335 39.019,128.210 33.387,127.902 33.189 C 127.665 33.036,127.199 32.386,126.868 31.743 C 125.966 29.989,124.645 28.979,122.612 28.486 C 120.281 27.921,102.748 27.960,100.954 28.534 M229.559 28.561 C 224.155 30.099,223.975 30.900,223.963 53.362 C 223.951 75.616,223.993 75.781,230.055 77.616 C 233.156 78.554,243.053 79.012,245.382 78.324 C 246.136 78.102,248.043 77.737,249.620 77.513 C 253.531 76.958,255.324 75.248,255.857 71.565 C 256.051 70.228,256.400 68.640,256.634 68.037 C 257.322 66.262,257.209 39.163,256.504 36.973 C 256.199 36.024,255.837 34.412,255.700 33.390 C 255.563 32.368,255.191 31.317,254.873 31.053 C 254.556 30.790,253.948 30.229,253.523 29.806 C 251.795 28.088,234.396 27.184,229.559 28.561 M67.950 56.477 C 62.845 56.689,61.944 56.826,60.939 57.543 C 60.305 57.996,58.791 58.564,57.576 58.805 C 56.361 59.047,55.157 59.496,54.902 59.804 C 54.646 60.112,53.716 60.558,52.836 60.796 C 51.955 61.033,50.844 61.647,50.368 62.162 C 49.892 62.676,49.269 63.096,48.986 63.096 C 47.563 63.096,39.627 70.457,37.438 73.807 C 36.878 74.664,36.113 75.594,35.737 75.874 C 35.361 76.154,35.054 76.710,35.054 77.110 C 35.054 77.510,34.641 78.332,34.136 78.938 C 33.631 79.544,33.101 80.678,32.957 81.460 C 32.814 82.242,32.341 83.332,31.908 83.884 C 31.468 84.442,30.950 85.969,30.737 87.331 C 30.526 88.676,30.053 90.740,29.685 91.918 C 28.649 95.237,28.651 277.721,29.687 280.428 C 30.056 281.392,30.552 283.310,30.789 284.690 C 31.026 286.071,31.542 287.609,31.936 288.110 C 32.330 288.610,32.767 289.700,32.907 290.532 C 33.048 291.363,33.494 292.343,33.899 292.710 C 34.304 293.076,34.831 293.969,35.070 294.695 C 35.310 295.420,35.842 296.194,36.253 296.414 C 36.664 296.634,37.001 297.063,37.001 297.366 C 37.001 298.433,44.150 305.835,46.835 307.549 C 47.639 308.062,48.296 308.632,48.296 308.817 C 48.296 309.002,48.778 309.254,49.367 309.379 C 49.956 309.503,50.947 310.050,51.570 310.596 C 52.192 311.141,53.036 311.587,53.445 311.587 C 54.273 311.587,55.613 312.227,56.370 312.984 C 56.642 313.256,57.832 313.599,59.014 313.747 C 60.197 313.895,61.818 314.389,62.617 314.846 L 64.070 315.677 135.901 315.783 C 175.409 315.842,207.876 315.746,208.052 315.570 C 208.524 315.099,207.585 304.555,206.962 303.330 C 206.600 302.620,206.426 300.832,206.426 297.827 C 206.426 294.635,206.282 293.257,205.917 292.954 C 205.136 292.306,192.520 292.123,127.167 291.812 C 92.376 291.647,67.251 291.380,66.796 291.170 C 66.368 290.973,65.522 290.404,64.917 289.905 C 64.311 289.405,63.581 288.997,63.294 288.997 C 61.595 288.997,56.863 283.679,54.647 279.279 L 53.362 276.728 53.360 202.300 C 53.359 130.689,53.386 127.847,54.072 127.227 C 55.134 126.265,296.496 126.227,297.869 127.189 L 298.734 127.795 298.734 162.423 L 298.734 197.051 299.611 197.550 C 300.194 197.882,303.029 198.128,308.082 198.285 C 312.259 198.416,317.051 198.742,318.731 199.011 C 321.007 199.375,321.898 199.387,322.227 199.058 C 323.250 198.035,323.425 190.486,323.393 148.783 C 323.356 98.905,322.938 87.950,320.980 85.461 C 320.527 84.885,320.156 84.168,320.156 83.869 C 320.156 83.222,319.371 81.541,317.825 78.870 C 317.204 77.799,316.379 76.310,315.992 75.560 C 315.604 74.810,314.893 73.877,314.411 73.487 C 313.929 73.096,313.535 72.592,313.535 72.366 C 313.535 71.771,306.659 65.139,305.740 64.848 C 305.314 64.712,304.966 64.429,304.966 64.219 C 304.966 64.008,304.394 63.597,303.696 63.305 C 302.998 63.013,301.937 62.321,301.339 61.767 C 300.741 61.213,299.938 60.759,299.553 60.759 C 299.169 60.759,298.545 60.417,298.167 59.999 C 297.782 59.573,296.512 59.047,295.283 58.803 C 294.075 58.563,292.609 58.027,292.026 57.612 C 290.334 56.407,272.563 55.473,270.666 56.489 C 269.968 56.862,269.912 57.370,269.902 63.402 C 269.888 72.019,269.402 76.952,268.440 78.255 C 268.032 78.808,267.481 79.919,267.216 80.724 C 266.951 81.528,266.398 82.367,265.986 82.587 C 265.575 82.807,265.239 83.238,265.239 83.544 C 265.239 83.851,264.888 84.289,264.460 84.518 C 264.032 84.747,263.287 85.283,262.805 85.710 C 262.322 86.136,261.351 86.988,260.647 87.603 C 259.942 88.218,258.715 88.842,257.920 88.990 C 257.125 89.137,256.151 89.549,255.754 89.905 C 254.030 91.453,226.594 91.454,224.870 89.906 C 224.473 89.550,223.497 89.137,222.702 88.989 C 221.907 88.842,220.768 88.302,220.170 87.789 C 216.093 84.291,214.823 83.011,214.378 81.955 C 214.099 81.296,213.610 80.539,213.290 80.273 C 212.970 80.008,212.587 79.240,212.440 78.567 C 212.292 77.894,211.817 76.665,211.384 75.835 C 210.688 74.499,210.571 73.316,210.362 65.498 L 210.127 56.670 200.584 56.431 C 181.918 55.965,142.746 56.046,142.240 56.553 C 141.910 56.882,141.772 59.118,141.772 64.123 C 141.772 68.029,141.609 71.654,141.410 72.178 C 141.210 72.702,140.859 74.486,140.629 76.142 C 140.342 78.206,139.935 79.500,139.336 80.259 C 138.855 80.867,137.848 82.193,137.098 83.205 C 136.349 84.218,135.385 85.356,134.956 85.734 C 132.361 88.027,131.304 88.734,130.088 88.992 C 129.338 89.152,128.510 89.454,128.249 89.665 C 127.158 90.543,124.181 90.743,111.977 90.758 L 99.124 90.774 95.813 89.612 C 93.869 88.930,92.282 88.121,91.968 87.653 C 91.674 87.214,91.221 86.855,90.960 86.855 C 90.198 86.855,85.297 81.723,85.297 80.925 C 85.297 80.679,84.924 80.082,84.468 79.596 C 83.476 78.540,83.013 74.964,82.981 68.107 C 82.966 64.879,82.793 63.254,82.378 62.459 C 82.058 61.846,81.795 60.339,81.794 59.112 C 81.792 57.110,81.701 56.861,80.915 56.702 C 79.108 56.337,73.616 56.241,67.950 56.477 M98.029 153.234 C 95.081 154.027,95.229 153.297,95.229 167.023 L 95.229 179.383 96.676 180.831 L 98.124 182.278 109.724 182.264 L 121.324 182.249 122.762 180.998 C 125.235 178.846,125.964 163.770,124.032 154.736 C 123.612 152.768,103.981 151.634,98.029 153.234 M140.426 153.202 C 137.812 153.811,137.732 154.244,137.705 167.868 C 137.682 179.257,137.857 180.721,139.241 180.721 C 139.547 180.721,139.985 181.071,140.214 181.500 C 140.840 182.668,164.558 182.725,164.928 181.559 C 165.053 181.163,165.574 180.648,166.084 180.416 C 167.309 179.858,167.634 175.836,167.412 163.958 L 167.253 155.391 166.258 154.397 C 165.711 153.850,164.579 153.243,163.742 153.049 C 161.526 152.535,142.762 152.658,140.426 153.202 M182.803 153.152 C 180.844 153.783,180.663 155.135,180.798 168.154 L 180.915 179.540 182.278 180.885 L 183.642 182.230 191.626 182.290 C 196.018 182.322,201.217 182.333,203.181 182.314 L 206.752 182.278 208.439 180.658 L 210.127 179.037 210.127 167.318 L 210.127 155.599 209.074 154.491 C 208.495 153.882,207.356 153.229,206.542 153.040 C 204.500 152.566,184.329 152.661,182.803 153.152 M98.412 194.328 C 95.170 194.983,95.229 194.720,95.229 208.571 L 95.229 220.822 96.448 222.042 C 98.275 223.869,118.022 224.726,122.148 223.157 C 125.488 221.887,126.213 198.469,123.009 195.336 L 121.805 194.158 110.854 194.092 C 104.831 194.056,99.232 194.162,98.412 194.328 M139.945 194.442 C 139.261 194.662,138.604 195.097,138.484 195.408 C 137.398 198.237,137.193 218.487,138.223 221.098 C 139.176 223.512,140.323 223.741,151.509 223.750 C 163.679 223.760,164.578 223.634,166.123 221.703 L 167.283 220.253 167.283 208.509 L 167.283 196.764 166.127 195.693 C 165.491 195.104,164.352 194.478,163.596 194.302 C 161.616 193.841,141.442 193.961,139.945 194.442 M183.755 194.323 C 182.747 194.464,181.858 194.660,181.781 194.758 C 180.485 196.402,180.205 219.667,181.456 221.800 C 182.417 223.438,182.811 223.487,194.937 223.479 C 207.356 223.471,207.487 223.453,209.005 221.640 L 210.127 220.300 210.260 210.748 C 210.411 199.958,210.170 196.300,209.307 196.300 C 208.997 196.300,208.587 195.887,208.396 195.383 C 208.121 194.661,207.657 194.414,206.209 194.215 C 203.882 193.896,186.203 193.981,183.755 194.323 M226.095 194.385 C 225.255 194.637,224.572 195.347,223.661 196.912 L 222.395 199.088 222.395 208.802 C 222.395 218.332,222.413 218.544,223.312 219.969 C 223.816 220.768,224.347 221.795,224.492 222.252 C 224.874 223.457,225.948 223.564,237.537 223.559 C 251.022 223.554,250.439 223.667,251.757 220.797 L 252.811 218.501 252.696 208.082 L 252.580 197.663 251.484 196.105 C 250.849 195.202,249.949 194.444,249.342 194.301 C 247.712 193.918,227.405 193.991,226.095 194.385 M186.578 235.539 C 185.194 235.616,183.817 235.882,183.518 236.130 C 183.219 236.378,182.612 236.763,182.169 236.986 C 180.310 237.920,179.568 242.270,179.559 252.283 L 179.552 261.333 180.622 262.837 C 182.627 265.653,184.297 266.020,195.043 266.005 C 205.425 265.992,206.650 265.719,209.020 262.896 L 210.127 261.578 210.079 250.822 L 210.032 240.065 209.056 238.533 C 206.900 235.150,202.959 234.625,186.578 235.539 M140.559 236.350 C 140.048 236.742,139.336 237.170,138.976 237.301 C 137.932 237.682,137.682 240.468,137.692 251.607 C 137.707 266.517,137.191 266.018,152.590 266.018 L 162.359 266.018 164.688 264.630 L 167.017 263.243 167.295 259.156 C 167.604 254.634,167.344 239.286,166.943 238.363 C 166.804 238.040,165.833 237.295,164.787 236.707 L 162.884 235.638 152.186 235.638 C 142.418 235.638,141.407 235.700,140.559 236.350 " stroke="none" fill="#14baea" fill-rule="evenodd"></path><path id="path1" d="M296.592 220.075 C 294.878 220.237,291.986 220.736,290.166 221.185 C 288.345 221.633,286.414 222.002,285.875 222.003 C 285.337 222.005,284.268 222.342,283.500 222.754 C 282.733 223.165,281.333 223.697,280.390 223.934 C 277.428 224.682,269.306 228.435,266.018 230.576 C 265.054 231.203,263.651 232.054,262.902 232.467 C 262.152 232.880,261.205 233.587,260.796 234.038 C 260.388 234.490,259.829 234.859,259.553 234.859 C 259.277 234.859,258.822 235.179,258.542 235.570 C 258.262 235.962,257.732 236.447,257.365 236.649 C 255.958 237.423,246.354 247.206,244.401 249.856 C 243.973 250.437,243.165 251.463,242.605 252.136 C 242.046 252.809,241.276 253.973,240.895 254.722 C 240.515 255.472,240.077 256.173,239.923 256.280 C 239.769 256.388,239.262 257.264,238.796 258.228 C 238.330 259.192,237.334 261.120,236.582 262.512 C 235.830 263.905,234.941 265.833,234.607 266.796 C 234.272 267.760,233.774 268.812,233.499 269.133 C 233.224 269.455,232.804 270.647,232.566 271.782 C 232.327 272.917,231.873 274.347,231.556 274.960 C 231.239 275.573,230.723 277.536,230.409 279.322 C 230.095 281.109,229.522 283.710,229.135 285.102 C 228.019 289.124,228.109 304.987,229.276 309.834 C 229.741 311.762,230.326 314.479,230.577 315.871 C 230.828 317.264,231.177 318.578,231.353 318.793 C 231.529 319.007,231.950 320.253,232.289 321.562 C 233.116 324.760,236.384 331.982,238.966 336.319 C 239.476 337.176,240.249 338.526,240.684 339.318 C 241.119 340.110,241.871 341.190,242.354 341.718 C 242.837 342.245,244.284 344.046,245.570 345.719 C 248.067 348.969,253.062 354.143,255.862 356.378 C 256.802 357.128,257.835 358.004,258.158 358.325 C 258.482 358.647,259.141 359.172,259.624 359.494 C 260.106 359.815,261.764 360.938,263.308 361.990 C 264.852 363.042,267.188 364.448,268.500 365.116 C 269.812 365.783,271.324 366.620,271.860 366.975 C 272.395 367.330,273.359 367.746,274.002 367.901 C 274.645 368.055,275.567 368.488,276.051 368.863 C 276.536 369.238,277.850 369.757,278.972 370.016 C 280.095 370.275,281.407 370.734,281.888 371.036 C 282.370 371.338,283.947 371.825,285.394 372.118 C 286.840 372.411,289.477 373.035,291.254 373.505 C 296.041 374.770,318.576 374.564,322.346 373.221 C 323.658 372.754,325.498 372.255,326.436 372.113 C 327.373 371.970,329.143 371.439,330.368 370.932 C 331.593 370.425,332.806 370.010,333.064 370.010 C 333.782 370.010,341.258 366.448,344.888 364.377 C 347.969 362.618,352.766 359.315,354.669 357.640 C 355.337 357.053,356.343 356.222,356.905 355.794 C 357.846 355.077,362.131 350.850,363.973 348.822 C 364.401 348.350,365.926 346.396,367.362 344.479 C 368.797 342.562,370.329 340.529,370.766 339.963 C 371.203 339.396,372.287 337.555,373.175 335.873 C 374.063 334.191,374.919 332.726,375.076 332.619 C 375.425 332.381,377.284 328.006,378.055 325.609 C 378.365 324.645,378.946 323.231,379.347 322.468 C 379.748 321.705,380.272 319.997,380.512 318.672 C 380.753 317.347,381.214 315.517,381.537 314.606 C 383.600 308.794,383.466 285.149,381.336 279.102 C 380.890 277.836,380.524 276.259,380.522 275.596 C 380.520 274.934,380.101 273.495,379.591 272.400 C 379.081 271.305,378.538 269.815,378.384 269.089 C 378.230 268.364,377.780 267.157,377.384 266.407 C 376.988 265.657,376.384 264.430,376.042 263.681 C 375.700 262.931,374.948 261.514,374.370 260.532 C 373.793 259.550,372.932 258.035,372.457 257.165 C 371.982 256.295,371.317 255.306,370.978 254.968 C 370.640 254.629,370.134 253.911,369.854 253.370 C 369.573 252.830,368.223 251.059,366.853 249.435 C 365.483 247.810,363.993 245.982,363.543 245.371 C 361.959 243.224,355.342 237.067,352.035 234.665 C 348.708 232.247,346.068 230.574,345.579 230.574 C 345.339 230.574,344.647 230.162,344.042 229.657 C 343.436 229.153,342.297 228.530,341.511 228.274 C 340.725 228.018,339.878 227.563,339.630 227.264 C 339.382 226.964,338.535 226.516,337.749 226.267 C 336.963 226.018,335.898 225.549,335.382 225.224 C 334.867 224.900,333.378 224.386,332.074 224.082 C 330.769 223.777,329.326 223.282,328.867 222.981 C 328.408 222.681,326.430 222.156,324.472 221.817 C 322.514 221.477,320.476 221.033,319.942 220.830 C 317.568 219.928,303.106 219.460,296.592 220.075 M339.997 269.253 C 345.072 271.013,346.007 279.698,341.556 283.739 C 341.320 283.953,340.396 284.900,339.502 285.844 C 338.609 286.787,337.646 287.751,337.363 287.986 C 337.079 288.221,336.554 288.707,336.194 289.067 C 335.835 289.426,335.348 289.952,335.113 290.235 C 334.878 290.518,333.915 291.477,332.971 292.366 C 332.028 293.255,331.063 294.219,330.827 294.509 C 330.591 294.798,329.715 295.670,328.880 296.447 C 328.045 297.225,327.067 298.189,326.707 298.590 C 326.347 298.990,325.821 299.512,325.539 299.748 C 325.256 299.984,324.292 300.948,323.396 301.890 C 322.500 302.832,318.119 307.243,313.659 311.693 C 309.199 316.142,305.352 319.998,305.109 320.261 C 302.478 323.116,299.917 325.128,298.004 325.844 L 295.813 326.664 293.475 325.786 C 290.149 324.538,268.764 303.340,267.970 300.505 C 266.566 295.489,271.070 288.608,275.758 288.608 C 276.646 288.608,281.318 290.900,281.543 291.446 C 281.620 291.634,282.233 292.121,282.906 292.528 C 283.578 292.935,286.324 295.452,289.008 298.120 C 296.211 305.282,293.756 306.176,309.469 290.667 C 321.515 278.777,328.101 272.417,331.179 269.706 C 332.425 268.607,337.398 268.352,339.997 269.253 " stroke="none" fill="#c1f853" fill-rule="evenodd"></path></g></svg>