<svg id="svg"  fill="#c7f954" version="1.1" xmlns="http://www.w3.org/2000/svg" xmlns:xlink="http://www.w3.org/1999/xlink" width="400" height="371.89189189189193" viewBox="0, 0, 400,371.89189189189193"><g id="svgg"><path id="path0" d="M101.209 16.305 C 99.287 17.176,95.628 20.267,95.628 21.020 C 95.628 21.242,95.261 22.087,94.812 22.898 C 94.100 24.186,93.970 25.129,93.789 30.362 C 93.531 37.807,93.678 37.576,89.164 37.598 C 87.185 37.607,85.146 37.838,84.279 38.150 C 83.095 38.577,80.205 38.688,70.140 38.693 C 55.727 38.701,48.372 39.325,48.372 40.542 C 48.372 40.894,46.808 41.533,45.147 41.860 C 44.499 41.988,43.874 42.340,43.757 42.644 C 43.641 42.948,42.957 43.442,42.238 43.743 C 41.519 44.043,40.930 44.441,40.930 44.626 C 40.930 44.811,40.302 45.343,39.535 45.808 C 38.767 46.273,37.612 47.256,36.968 47.993 C 35.055 50.180,33.116 52.816,33.116 53.229 C 33.116 53.442,32.725 54.007,32.247 54.485 C 31.768 54.963,31.163 56.170,30.901 57.166 C 30.639 58.162,30.138 59.395,29.788 59.907 C 29.437 60.419,29.014 61.256,28.848 61.767 C 27.495 65.924,27.493 275.508,28.846 280.744 C 29.004 281.358,29.428 282.239,29.787 282.702 C 30.146 283.165,30.637 284.366,30.878 285.372 C 31.119 286.377,31.549 287.289,31.833 287.398 C 32.116 287.506,32.601 288.199,32.909 288.937 C 33.529 290.420,34.545 291.837,36.372 293.768 C 37.037 294.470,37.581 295.218,37.581 295.429 C 37.581 295.641,37.807 295.814,38.082 295.814 C 38.357 295.814,38.901 296.166,39.290 296.596 C 39.680 297.026,40.501 297.636,41.115 297.951 C 41.730 298.266,42.706 298.918,43.284 299.401 C 43.863 299.884,44.635 300.279,45.000 300.279 C 45.365 300.279,46.235 300.667,46.933 301.140 C 47.631 301.614,49.287 302.226,50.613 302.500 C 51.939 302.774,53.859 303.321,54.881 303.715 C 57.137 304.586,192.677 304.827,193.720 303.962 C 194.624 303.212,194.353 299.977,193.177 297.488 C 192.597 296.260,192.008 294.283,191.869 293.094 C 191.730 291.905,191.362 290.544,191.050 290.069 C 190.739 289.594,190.317 288.139,190.112 286.835 C 189.907 285.532,189.651 284.172,189.542 283.814 C 189.356 283.197,185.939 283.163,124.608 283.163 C 70.616 283.163,59.703 283.078,58.865 282.654 C 58.313 282.375,57.274 282.037,56.558 281.904 C 52.831 281.210,49.824 277.068,49.368 272.000 C 48.596 263.416,48.670 113.662,49.447 112.703 L 50.167 111.814 171.535 111.814 L 292.903 111.814 293.614 112.692 C 294.285 113.521,294.329 114.391,294.379 127.948 C 294.408 135.856,294.534 149.517,294.658 158.308 L 294.884 174.290 298.605 174.951 C 300.651 175.315,302.912 175.859,303.628 176.159 C 304.344 176.460,305.851 176.812,306.977 176.942 C 308.102 177.072,309.785 177.566,310.715 178.041 C 311.646 178.516,312.985 178.963,313.692 179.034 L 314.977 179.163 315.192 138.047 C 315.470 84.908,315.228 63.067,314.345 61.767 C 313.997 61.256,313.454 59.845,313.138 58.632 C 312.823 57.419,312.248 56.080,311.860 55.655 C 311.472 55.231,311.030 54.465,310.876 53.953 C 310.722 53.442,310.289 52.688,309.913 52.279 C 307.489 49.641,306.977 49.027,306.977 48.759 C 306.977 48.594,306.300 47.895,305.472 47.206 C 304.645 46.517,303.460 45.493,302.839 44.930 C 302.218 44.367,301.579 43.907,301.419 43.907 C 301.258 43.907,300.535 43.505,299.811 43.014 C 299.087 42.523,298.101 42.009,297.620 41.872 C 297.138 41.735,295.944 41.203,294.966 40.689 C 291.343 38.787,269.899 37.679,267.618 39.277 C 266.622 39.974,266.286 57.304,267.256 57.932 C 267.512 58.097,271.405 58.332,275.907 58.453 C 287.591 58.767,291.868 60.481,292.659 65.164 C 292.803 66.014,293.233 67.397,293.615 68.238 C 294.590 70.387,294.701 91.851,293.741 92.811 C 293.212 93.340,281.602 93.395,171.517 93.395 L 49.878 93.395 49.276 92.477 C 48.753 91.679,48.705 90.640,48.906 84.570 C 49.440 68.439,49.621 66.088,50.419 64.911 C 50.828 64.308,51.247 63.637,51.349 63.420 C 51.859 62.341,54.779 60.287,56.930 59.495 C 59.326 58.613,59.505 58.604,75.770 58.494 C 93.786 58.372,93.116 58.294,93.609 60.584 C 93.727 61.133,94.230 62.421,94.726 63.447 C 95.222 64.473,95.628 65.486,95.628 65.697 C 95.628 66.313,98.331 68.731,99.349 69.025 C 99.860 69.173,100.801 69.610,101.439 69.996 C 102.938 70.902,105.496 70.899,107.195 69.988 C 107.923 69.598,109.218 69.069,110.073 68.813 C 110.928 68.557,111.628 68.172,111.628 67.959 C 111.628 67.745,112.143 67.039,112.773 66.389 C 113.403 65.739,114.069 64.559,114.253 63.766 C 114.785 61.470,114.666 23.093,114.123 21.901 C 112.259 17.814,104.908 14.629,101.209 16.305 M235.163 16.548 C 234.651 16.843,233.823 17.267,233.322 17.491 C 230.052 18.952,228.838 22.529,228.838 30.708 C 228.837 35.822,228.659 36.465,226.802 38.034 C 226.097 38.630,222.994 38.674,180.580 38.685 C 144.627 38.695,135.051 38.795,134.813 39.163 C 134.220 40.079,134.199 57.478,134.791 57.969 C 135.192 58.302,146.369 58.434,180.498 58.507 L 225.674 58.605 226.846 59.484 C 228.007 60.356,228.742 61.699,229.611 64.541 C 230.749 68.261,239.016 72.087,241.556 70.069 C 241.826 69.855,242.926 69.393,244.000 69.043 C 245.074 68.692,245.953 68.250,245.953 68.061 C 245.953 67.871,246.387 67.340,246.916 66.881 C 249.127 64.964,249.104 65.192,249.224 44.329 C 249.346 23.171,249.171 21.372,246.849 19.850 C 246.356 19.527,245.953 19.045,245.953 18.779 C 245.953 16.910,237.547 15.172,235.163 16.548 M76.230 153.293 C 75.582 153.912,74.939 154.419,74.800 154.419 C 73.721 154.419,73.164 178.963,74.117 184.518 L 74.559 187.097 77.008 188.246 L 79.458 189.395 98.903 189.395 C 116.265 189.395,118.373 189.332,118.574 188.809 C 118.698 188.486,119.198 188.070,119.685 187.885 C 120.173 187.700,120.723 187.149,120.908 186.662 C 121.094 186.175,121.509 185.675,121.832 185.551 C 122.431 185.321,122.774 157.265,122.196 155.760 C 122.074 155.441,121.111 154.548,120.057 153.776 L 118.140 152.372 97.774 152.270 L 77.408 152.168 76.230 153.293 M150.594 152.489 C 150.261 152.553,149.894 152.905,149.778 153.270 C 149.662 153.635,149.167 154.116,148.678 154.339 C 147.886 154.699,147.762 155.063,147.547 157.651 C 147.415 159.250,147.148 161.362,146.955 162.344 C 146.166 166.361,146.794 181.293,147.944 185.875 C 148.107 186.523,148.873 187.299,150.171 188.129 L 152.150 189.395 171.885 189.395 C 193.916 189.395,191.792 189.650,194.627 186.665 L 195.983 185.237 196.160 179.595 C 196.257 176.492,196.239 169.767,196.119 164.651 L 195.902 155.349 194.568 153.990 L 193.235 152.631 172.217 152.501 C 160.657 152.430,150.927 152.425,150.594 152.489 M244.093 152.550 L 224.186 152.744 222.984 153.910 C 221.055 155.780,221.023 156.060,221.025 170.908 C 221.027 184.719,221.246 187.535,222.316 187.535 C 222.599 187.535,223.052 187.751,223.322 188.014 C 225.179 189.824,231.639 190.411,232.764 188.873 C 232.992 188.561,233.918 187.960,234.822 187.539 C 236.498 186.757,237.395 186.274,240.398 184.539 C 241.333 183.998,242.564 183.439,243.133 183.297 C 243.702 183.154,244.611 182.711,245.154 182.313 C 245.696 181.916,247.020 181.425,248.096 181.223 C 249.172 181.021,250.514 180.514,251.078 180.097 C 251.642 179.680,253.032 179.187,254.167 179.003 C 255.302 178.818,256.934 178.300,257.795 177.851 C 258.905 177.272,260.410 176.952,262.982 176.748 C 266.040 176.505,266.851 176.298,268.186 175.420 L 269.767 174.379 269.767 165.775 L 269.767 157.170 268.661 155.666 C 267.528 154.125,264.982 152.119,264.352 152.271 C 264.158 152.318,255.042 152.444,244.093 152.550 M273.674 187.143 C 272.242 187.302,270.375 187.700,269.527 188.027 C 268.678 188.354,266.453 188.775,264.583 188.962 C 262.334 189.188,260.954 189.511,260.504 189.919 C 260.130 190.257,258.863 190.690,257.688 190.881 C 256.514 191.073,254.858 191.632,254.009 192.124 C 253.160 192.616,251.673 193.134,250.704 193.275 C 249.735 193.417,248.814 193.735,248.657 193.983 C 248.318 194.520,246.529 195.349,245.710 195.349 C 245.391 195.349,244.496 195.851,243.721 196.465 C 242.946 197.079,242.041 197.581,241.711 197.581 C 241.381 197.581,240.755 197.992,240.318 198.493 C 239.882 198.995,239.046 199.510,238.461 199.639 C 237.875 199.768,237.187 200.170,236.931 200.532 C 236.675 200.895,235.929 201.468,235.274 201.805 C 234.619 202.142,233.950 202.645,233.786 202.922 C 233.622 203.200,233.139 203.610,232.711 203.834 C 230.987 204.737,222.524 212.847,220.093 215.925 C 219.479 216.702,218.516 217.896,217.953 218.579 C 217.391 219.261,216.930 219.994,216.930 220.208 C 216.930 220.422,216.526 220.915,216.032 221.304 C 215.538 221.692,214.883 222.611,214.576 223.345 C 214.270 224.078,213.669 225.029,213.242 225.456 C 212.815 225.883,212.465 226.495,212.465 226.816 C 212.465 227.136,212.070 227.932,211.586 228.583 C 211.103 229.234,210.523 230.319,210.297 230.994 C 210.072 231.669,209.546 232.654,209.130 233.184 C 208.713 233.714,208.372 234.387,208.372 234.682 C 208.372 234.976,207.965 235.916,207.466 236.771 C 206.968 237.626,206.360 239.163,206.114 240.186 C 205.868 241.209,205.369 242.549,205.004 243.163 C 204.639 243.777,204.165 245.540,203.952 247.081 C 203.739 248.623,203.191 250.716,202.735 251.733 C 201.763 253.897,201.364 282.070,202.289 283.198 C 202.885 283.925,203.479 286.301,203.906 289.665 C 204.133 291.454,204.532 292.855,204.975 293.418 C 205.363 293.912,205.800 295.103,205.944 296.065 C 206.088 297.026,206.693 298.726,207.289 299.843 C 207.885 300.959,208.372 302.171,208.372 302.535 C 208.372 302.900,208.759 303.672,209.232 304.251 C 209.705 304.829,210.289 305.987,210.531 306.823 C 210.773 307.660,211.307 308.648,211.718 309.020 C 212.129 309.392,212.465 309.892,212.465 310.131 C 212.465 310.370,212.963 311.223,213.571 312.027 C 214.179 312.831,214.682 313.714,214.687 313.990 C 214.693 314.266,215.158 314.975,215.721 315.565 C 217.556 317.490,218.385 318.498,218.832 319.349 C 219.230 320.109,220.119 321.215,222.726 324.192 C 223.222 324.759,223.628 325.347,223.628 325.500 C 223.628 325.652,224.005 325.942,224.465 326.144 C 224.926 326.346,225.464 326.879,225.661 327.328 C 225.858 327.778,226.391 328.239,226.845 328.353 C 227.300 328.467,227.777 328.894,227.907 329.303 C 228.037 329.712,228.299 330.047,228.489 330.047 C 228.679 330.047,229.463 330.610,230.231 331.299 C 231.000 331.989,231.990 332.665,232.432 332.802 C 232.874 332.940,233.506 333.464,233.836 333.968 C 234.166 334.472,234.671 334.884,234.958 334.884 C 235.246 334.884,235.790 335.277,236.168 335.757 C 236.546 336.238,237.480 336.837,238.244 337.090 C 239.009 337.342,239.798 337.856,240.000 338.232 C 240.201 338.608,240.871 339.027,241.488 339.163 C 242.106 339.298,242.770 339.707,242.965 340.071 C 243.159 340.434,244.086 340.947,245.024 341.210 C 245.962 341.472,246.932 341.975,247.179 342.328 C 247.426 342.680,248.545 343.165,249.665 343.405 C 250.786 343.646,252.042 344.144,252.456 344.513 C 252.870 344.882,254.214 345.398,255.442 345.660 C 256.670 345.922,258.093 346.419,258.605 346.766 C 259.116 347.112,260.892 347.584,262.551 347.815 C 264.211 348.047,266.264 348.599,267.115 349.042 C 269.576 350.325,294.383 350.336,298.047 349.056 C 299.377 348.591,301.847 348.022,303.535 347.791 C 305.223 347.559,306.605 347.252,306.605 347.107 C 306.605 346.720,310.573 345.302,311.657 345.302 C 312.170 345.302,312.946 344.970,313.383 344.563 C 313.820 344.156,314.775 343.722,315.507 343.598 C 316.239 343.474,317.275 343.065,317.810 342.689 C 318.345 342.313,319.432 341.735,320.224 341.404 C 321.016 341.073,322.001 340.487,322.414 340.103 C 322.826 339.718,323.665 339.282,324.279 339.133 C 324.893 338.983,325.751 338.510,326.187 338.082 C 326.870 337.409,328.970 335.964,331.107 334.698 C 331.876 334.242,333.050 333.225,334.653 331.628 C 335.321 330.963,335.995 330.419,336.152 330.419 C 336.308 330.419,338.511 328.284,341.047 325.674 C 347.664 318.867,347.535 319.008,347.535 318.566 C 347.535 318.344,348.025 317.800,348.623 317.357 C 349.222 316.915,349.804 316.185,349.917 315.736 C 350.029 315.286,350.544 314.463,351.061 313.905 C 351.577 313.348,352.000 312.679,352.000 312.418 C 352.000 312.157,352.416 311.553,352.925 311.075 C 353.433 310.597,353.953 309.652,354.080 308.975 C 354.207 308.298,354.688 307.362,355.149 306.895 C 355.610 306.428,356.096 305.448,356.230 304.716 C 356.365 303.985,356.849 302.984,357.307 302.493 C 358.696 301.001,358.561 293.810,357.116 292.389 C 356.553 291.836,356.093 291.248,356.093 291.084 C 356.093 290.920,355.381 290.554,354.512 290.271 C 352.519 289.622,346.791 289.250,346.791 289.769 C 346.791 289.974,346.288 290.350,345.674 290.605 C 345.060 290.859,344.558 291.234,344.558 291.438 C 344.558 291.642,344.056 292.381,343.442 293.080 C 342.828 293.779,342.326 294.668,342.326 295.054 C 342.326 295.441,341.923 296.235,341.432 296.819 C 340.941 297.403,340.346 298.596,340.110 299.471 C 339.875 300.346,339.439 301.155,339.143 301.268 C 338.847 301.382,338.294 302.169,337.914 303.017 C 337.535 303.864,336.865 304.877,336.426 305.267 C 335.987 305.657,335.628 306.189,335.628 306.449 C 335.628 306.710,335.251 307.228,334.791 307.601 C 334.330 307.974,333.716 308.740,333.425 309.302 C 333.135 309.865,332.686 310.326,332.427 310.326 C 332.169 310.326,331.859 310.634,331.739 311.012 C 331.619 311.389,329.808 313.319,327.714 315.300 C 325.620 317.281,323.482 319.317,322.963 319.823 C 322.443 320.330,321.819 320.744,321.576 320.744 C 321.333 320.744,320.867 321.150,320.542 321.647 C 320.217 322.143,319.460 322.720,318.860 322.929 C 318.260 323.138,317.209 323.737,316.524 324.259 C 315.839 324.782,315.110 325.209,314.903 325.209 C 314.696 325.209,314.099 325.607,313.575 326.092 C 313.051 326.578,312.013 327.089,311.268 327.229 C 310.524 327.369,309.137 327.976,308.187 328.579 C 307.162 329.229,305.953 329.674,305.214 329.674 C 304.530 329.674,303.501 330.021,302.929 330.444 C 301.657 331.384,299.618 331.886,297.023 331.898 C 295.949 331.903,295.070 332.054,295.070 332.234 C 295.070 333.856,275.223 334.324,272.000 332.778 C 271.001 332.299,269.168 331.874,267.453 331.724 C 265.471 331.551,264.297 331.251,263.668 330.756 C 263.166 330.361,261.901 329.876,260.856 329.678 C 258.849 329.297,257.545 328.734,256.930 327.981 C 256.726 327.730,255.953 327.419,255.214 327.290 C 254.475 327.161,253.569 326.723,253.201 326.317 C 252.834 325.911,251.881 325.403,251.084 325.188 C 250.287 324.974,249.318 324.481,248.930 324.093 C 248.543 323.706,247.723 323.128,247.108 322.810 C 246.493 322.493,245.857 322.023,245.693 321.767 C 245.529 321.512,244.780 320.967,244.027 320.558 C 241.081 318.956,232.518 310.638,230.912 307.819 C 230.692 307.432,230.051 306.525,229.488 305.802 C 228.926 305.079,228.465 304.304,228.465 304.079 C 228.465 303.854,228.149 303.448,227.762 303.177 C 227.375 302.907,226.841 301.959,226.575 301.071 C 226.309 300.184,225.872 299.373,225.603 299.270 C 225.334 299.167,224.851 298.179,224.530 297.076 C 224.210 295.973,223.796 295.070,223.611 295.070 C 223.095 295.070,222.271 293.204,221.997 291.415 C 221.861 290.531,221.420 289.358,221.016 288.810 C 220.561 288.193,220.146 286.753,219.926 285.023 C 219.731 283.488,219.130 280.893,218.590 279.256 C 217.107 274.752,217.308 259.988,218.898 256.708 C 219.456 255.557,219.911 253.977,219.916 253.173 C 219.929 251.048,220.519 248.848,221.173 248.481 C 221.504 248.296,221.850 247.374,221.993 246.290 C 222.130 245.261,222.657 243.806,223.165 243.058 C 223.673 242.309,224.321 240.914,224.605 239.957 C 224.890 239.000,225.350 238.129,225.629 238.022 C 225.908 237.915,226.255 237.354,226.400 236.774 C 226.544 236.195,227.044 235.219,227.510 234.605 C 227.977 233.991,228.479 233.107,228.626 232.641 C 228.773 232.175,229.300 231.528,229.796 231.203 C 230.292 230.878,230.698 230.422,230.698 230.190 C 230.698 229.957,231.342 229.062,232.130 228.200 C 232.918 227.338,234.118 225.832,234.797 224.852 C 235.476 223.872,237.109 222.149,238.427 221.023 C 239.745 219.898,241.166 218.684,241.585 218.326 C 242.004 217.967,242.506 217.674,242.701 217.674 C 242.896 217.674,243.385 217.256,243.787 216.744 C 244.190 216.233,244.752 215.814,245.037 215.814 C 245.322 215.814,245.723 215.500,245.929 215.116 C 246.134 214.733,247.103 214.044,248.081 213.587 C 249.060 213.129,249.984 212.541,250.135 212.279 C 250.286 212.018,250.872 211.688,251.437 211.546 C 252.003 211.404,252.759 210.974,253.117 210.589 C 253.476 210.205,254.480 209.683,255.350 209.429 C 256.219 209.176,257.516 208.595,258.233 208.139 C 258.949 207.682,260.371 207.188,261.393 207.040 C 262.415 206.893,263.683 206.452,264.212 206.062 C 264.901 205.552,266.373 205.220,269.424 204.886 C 271.762 204.630,274.093 204.180,274.605 203.885 C 275.922 203.126,288.877 203.117,290.220 203.874 C 290.724 204.158,293.225 204.608,295.777 204.874 C 299.255 205.236,300.663 205.540,301.402 206.086 C 301.945 206.487,303.313 206.930,304.444 207.072 C 305.807 207.242,306.851 207.630,307.541 208.222 C 308.113 208.714,308.898 209.116,309.286 209.116 C 310.148 209.116,311.893 209.990,312.505 210.727 C 312.754 211.026,313.521 211.377,314.210 211.506 C 314.955 211.646,315.707 212.114,316.065 212.661 C 316.397 213.167,316.926 213.581,317.240 213.581 C 317.989 213.581,322.198 216.635,324.429 218.797 C 324.960 219.313,325.856 220.028,326.419 220.387 C 326.981 220.747,327.442 221.288,327.442 221.590 C 327.442 221.892,327.624 222.140,327.847 222.140 C 328.252 222.140,331.535 225.331,331.535 225.725 C 331.535 225.916,331.997 226.425,334.712 229.223 C 335.216 229.743,335.628 230.332,335.628 230.534 C 335.628 230.735,336.107 231.483,336.692 232.194 C 337.277 232.906,337.876 233.870,338.023 234.338 C 338.170 234.805,338.696 235.592,339.192 236.088 C 341.757 238.653,340.227 242.385,336.355 243.008 C 335.036 243.221,333.833 243.617,333.681 243.888 C 333.529 244.160,332.991 244.486,332.486 244.613 C 331.981 244.739,331.155 245.000,330.651 245.192 L 329.734 245.540 330.913 246.784 C 331.562 247.467,332.625 248.245,333.275 248.513 C 333.926 248.780,334.747 249.318,335.101 249.708 C 335.454 250.099,335.976 250.419,336.261 250.419 C 336.545 250.419,337.158 250.795,337.622 251.256 C 338.086 251.716,339.042 252.390,339.745 252.753 C 341.403 253.608,343.429 255.001,344.387 255.944 C 344.804 256.355,345.583 256.800,346.117 256.935 C 346.652 257.069,347.415 257.482,347.812 257.852 C 348.210 258.222,349.072 258.803,349.729 259.143 C 350.385 259.482,351.006 259.978,351.108 260.245 C 351.211 260.512,351.968 260.953,352.790 261.225 C 353.613 261.496,354.483 261.980,354.724 262.301 C 355.690 263.584,357.718 264.172,359.015 263.544 C 360.179 262.980,360.302 262.730,360.733 260.038 C 360.852 259.291,361.259 258.286,361.637 257.805 C 362.014 257.324,362.446 256.202,362.596 255.313 C 362.746 254.423,363.353 252.774,363.946 251.647 C 364.538 250.521,365.023 249.126,365.023 248.549 C 365.023 247.971,365.418 247.026,365.900 246.447 C 366.433 245.807,366.851 244.718,366.966 243.662 C 367.071 242.708,367.512 241.430,367.945 240.821 C 368.379 240.212,368.924 238.816,369.158 237.717 C 369.391 236.619,369.896 235.276,370.279 234.733 C 372.086 232.174,369.110 231.165,366.169 233.339 C 365.254 234.016,364.414 234.189,361.326 234.338 C 357.113 234.541,356.625 234.345,356.242 232.303 C 356.108 231.589,355.601 230.577,355.115 230.053 C 354.630 229.529,354.233 228.899,354.233 228.653 C 354.233 228.406,353.730 227.511,353.116 226.664 C 352.502 225.816,352.000 224.954,352.000 224.747 C 352.000 224.541,351.657 224.030,351.239 223.611 C 350.820 223.192,350.192 222.381,349.843 221.809 C 348.389 219.422,346.925 217.446,346.140 216.810 C 345.679 216.437,345.302 216.001,345.302 215.842 C 345.302 215.424,337.928 208.000,337.514 208.000 C 337.323 208.000,337.060 207.665,336.930 207.256 C 336.800 206.847,336.481 206.512,336.221 206.512 C 335.960 206.512,335.214 205.926,334.562 205.209 C 333.911 204.493,333.156 203.907,332.886 203.907 C 332.616 203.907,332.076 203.555,331.686 203.125 C 331.297 202.694,330.476 202.086,329.861 201.772 C 329.247 201.458,328.602 200.957,328.427 200.659 C 328.253 200.360,327.541 199.879,326.846 199.588 C 326.150 199.298,325.581 198.908,325.581 198.723 C 325.581 198.538,324.819 198.096,323.887 197.740 C 322.956 197.384,321.989 196.801,321.739 196.444 C 321.489 196.087,320.577 195.604,319.713 195.372 C 318.849 195.139,317.849 194.640,317.490 194.262 C 317.131 193.884,316.258 193.451,315.549 193.299 C 314.841 193.147,313.669 192.640,312.944 192.172 C 312.220 191.705,310.919 191.209,310.051 191.071 C 309.184 190.933,307.920 190.443,307.241 189.982 C 306.346 189.375,305.208 189.077,303.107 188.900 C 301.510 188.765,299.437 188.313,298.489 187.894 C 296.584 187.052,279.228 186.526,273.674 187.143 M80.372 217.557 C 74.066 218.599,73.541 220.326,73.754 239.342 C 73.899 252.291,73.847 251.933,75.817 253.581 L 77.152 254.698 96.529 254.812 C 116.838 254.932,120.558 254.800,120.558 253.955 C 120.558 253.681,121.019 253.122,121.581 252.712 L 122.605 251.967 122.605 236.837 C 122.605 223.511,122.535 221.656,122.020 221.272 C 121.698 221.033,121.262 220.525,121.051 220.143 C 120.840 219.762,119.429 218.967,117.915 218.377 L 115.163 217.305 98.233 217.354 C 88.921 217.381,80.884 217.473,80.372 217.557 M153.674 217.637 C 147.553 219.310,147.721 218.772,147.721 236.757 L 147.721 252.018 148.946 253.208 C 150.833 255.040,153.305 255.256,172.435 255.256 C 190.809 255.256,189.541 255.458,189.955 252.465 C 190.096 251.442,190.504 250.019,190.862 249.302 C 191.219 248.586,191.628 246.851,191.770 245.447 C 191.922 243.953,192.395 242.172,192.912 241.153 C 193.397 240.196,193.977 238.414,194.202 237.194 C 194.426 235.975,194.979 234.474,195.432 233.860 C 196.792 232.015,196.684 222.477,195.290 221.288 C 194.759 220.835,194.231 220.188,194.118 219.849 C 194.004 219.510,193.397 219.120,192.769 218.982 C 192.142 218.844,191.628 218.596,191.628 218.431 C 191.628 217.605,156.484 216.870,153.674 217.637 M279.907 219.409 C 279.651 219.512,279.442 219.815,279.442 220.081 C 279.442 220.348,279.031 220.835,278.529 221.164 C 277.948 221.544,277.524 222.271,277.363 223.160 C 277.224 223.929,276.850 225.060,276.533 225.674 C 276.072 226.565,275.893 229.049,275.647 237.953 C 275.131 256.610,274.845 258.321,271.824 260.829 C 271.511 261.088,271.256 261.494,271.256 261.730 C 271.256 261.966,270.770 262.691,270.177 263.341 C 268.019 265.704,267.405 278.323,269.415 279.011 C 269.620 279.081,270.131 279.811,270.550 280.633 C 271.550 282.594,273.583 284.597,275.080 285.098 C 275.740 285.318,276.632 285.817,277.064 286.207 C 277.710 286.790,278.661 286.956,282.444 287.146 C 286.599 287.355,287.122 287.461,287.908 288.247 C 288.387 288.725,288.945 289.116,289.150 289.116 C 289.355 289.116,289.907 289.493,290.378 289.953 C 290.849 290.414,291.781 291.187,292.450 291.671 C 293.860 292.690,294.541 293.251,296.175 294.737 C 296.827 295.329,297.460 295.814,297.584 295.814 C 297.707 295.814,298.354 296.358,299.021 297.023 C 301.762 299.754,303.382 300.904,307.349 302.934 C 311.544 305.081,311.727 305.030,316.186 300.488 C 317.243 299.412,317.410 295.482,316.433 294.671 C 316.109 294.402,315.592 293.554,315.285 292.787 C 314.979 292.021,314.323 291.128,313.829 290.804 C 313.335 290.480,312.930 290.016,312.930 289.773 C 312.930 289.529,312.511 288.905,311.999 288.386 C 308.085 284.415,306.605 282.835,306.605 282.626 C 306.605 282.492,305.759 281.538,304.727 280.505 C 302.976 278.754,301.421 276.713,300.410 274.839 C 300.012 274.101,299.757 273.187,298.164 266.791 C 297.833 265.460,297.181 263.953,296.715 263.442 C 296.248 262.930,295.758 262.072,295.626 261.535 C 295.493 260.998,294.984 260.376,294.493 260.152 C 294.003 259.929,293.495 259.322,293.365 258.803 C 293.235 258.285,293.000 257.860,292.842 257.860 C 292.044 257.860,291.720 254.813,291.358 243.907 C 290.764 225.993,290.816 226.659,289.826 224.165 C 288.100 219.821,283.890 217.802,279.907 219.409 " stroke="none" fill="#71b84a" fill-rule="evenodd"></path><path id="path1" d="M101.231 15.528 C 99.652 15.824,94.884 19.884,94.884 20.932 C 94.884 21.155,94.595 21.656,94.242 22.045 C 93.714 22.629,93.553 23.878,93.327 29.141 C 93.177 32.653,92.865 35.880,92.634 36.311 C 92.118 37.276,86.218 37.578,67.906 37.580 C 57.794 37.581,56.071 37.667,53.952 38.271 C 52.623 38.650,50.740 39.079,49.767 39.224 C 48.795 39.369,48.000 39.633,48.000 39.810 C 48.000 39.987,47.037 40.492,45.860 40.930 C 44.684 41.369,43.386 42.017,42.977 42.369 C 42.567 42.722,41.792 43.230,41.254 43.498 C 39.388 44.427,35.490 48.310,33.691 51.032 C 32.697 52.536,31.593 54.102,31.238 54.512 C 30.883 54.921,30.472 55.842,30.326 56.558 C 30.179 57.274,29.734 58.397,29.336 59.053 C 27.391 62.256,27.129 75.506,27.118 171.349 C 27.106 266.091,27.422 282.302,29.299 283.479 C 29.511 283.612,29.909 284.474,30.183 285.395 C 30.661 287.001,32.240 289.753,33.813 291.721 C 37.384 296.189,38.159 296.940,41.272 298.943 C 44.259 300.864,47.728 302.517,50.020 303.110 C 51.262 303.431,52.514 303.889,52.801 304.126 C 53.934 305.064,193.559 305.133,194.839 304.197 C 195.589 303.649,194.657 298.075,193.477 296.050 C 193.103 295.409,192.612 293.795,192.385 292.465 C 192.159 291.135,191.651 289.042,191.257 287.814 C 190.863 286.586,190.325 284.828,190.061 283.907 L 189.581 282.233 123.721 282.047 C 52.681 281.846,56.645 281.957,54.626 280.104 C 54.341 279.842,53.780 279.443,53.380 279.218 C 52.979 278.993,51.981 277.653,51.163 276.241 L 49.674 273.674 49.565 193.625 C 49.464 120.322,49.506 113.524,50.057 112.973 C 50.832 112.198,290.564 112.030,292.262 112.804 L 293.209 113.236 293.209 128.408 C 293.209 139.408,293.332 143.867,293.657 144.627 C 293.972 145.362,294.147 149.946,294.247 160.000 C 294.399 175.394,294.379 175.256,296.414 175.256 C 297.103 175.256,298.539 175.587,299.605 175.992 C 300.671 176.398,302.876 176.911,304.505 177.134 C 306.134 177.358,308.152 177.859,308.989 178.248 C 311.356 179.350,314.525 180.071,315.070 179.632 C 315.435 179.338,315.541 172.262,315.562 146.652 C 315.580 125.507,315.727 113.327,315.981 112.000 C 316.686 108.311,316.784 92.781,316.112 91.103 C 315.627 89.890,315.535 87.474,315.533 75.992 C 315.531 64.183,315.449 62.174,314.935 61.209 C 314.608 60.595,314.017 59.124,313.622 57.940 C 312.990 56.047,312.135 54.534,309.687 50.977 C 307.003 47.078,301.506 42.551,297.674 41.084 C 296.753 40.731,295.749 40.238,295.442 39.987 C 293.684 38.551,288.059 37.833,277.498 37.694 L 267.182 37.559 266.614 38.918 C 265.904 40.618,265.779 56.308,266.464 57.811 C 267.038 59.072,267.552 59.152,275.075 59.158 C 281.511 59.163,283.141 59.366,287.628 60.721 C 289.315 61.231,291.457 63.508,291.979 65.345 C 293.088 69.251,293.209 70.818,293.209 81.295 C 293.209 91.748,293.176 92.271,292.490 92.638 C 291.175 93.342,50.436 93.159,49.851 92.453 C 49.477 92.003,49.435 89.366,49.648 79.912 L 49.917 67.941 50.970 65.689 C 53.688 59.876,57.246 59.036,78.362 59.227 C 93.511 59.364,92.748 59.207,93.395 62.326 C 93.622 63.420,94.050 64.516,94.346 64.761 C 94.642 65.007,94.884 65.438,94.884 65.720 C 94.884 66.352,97.590 69.103,98.713 69.612 C 99.165 69.817,99.953 70.227,100.465 70.522 C 101.668 71.216,106.993 71.253,108.279 70.575 C 115.534 66.755,115.349 67.484,115.349 42.769 C 115.349 20.960,115.414 21.574,112.822 18.884 C 112.082 18.116,111.286 17.488,111.052 17.488 C 110.818 17.488,110.333 17.164,109.974 16.767 C 108.896 15.576,104.382 14.936,101.231 15.528 M235.115 15.594 C 230.091 17.223,227.997 21.391,227.808 30.136 C 227.693 35.404,227.615 35.972,226.893 36.741 L 226.103 37.581 180.407 37.581 L 134.712 37.581 134.525 38.419 C 134.423 38.879,134.084 40.396,133.774 41.791 C 132.839 45.989,132.976 56.906,133.980 58.182 L 134.752 59.163 179.134 59.163 C 211.334 59.163,223.864 59.279,224.782 59.586 C 226.546 60.177,227.669 61.300,227.940 62.744 C 228.067 63.420,228.405 64.167,228.690 64.404 C 228.976 64.641,229.209 65.070,229.209 65.356 C 229.209 66.043,232.141 69.209,232.777 69.209 C 233.050 69.209,233.624 69.586,234.053 70.047 C 235.332 71.419,242.180 71.300,244.279 69.869 C 246.456 68.384,248.558 66.487,248.558 66.007 C 248.558 65.777,248.935 65.110,249.395 64.525 L 250.233 63.461 250.341 44.281 L 250.450 25.102 249.352 22.682 C 246.699 16.830,240.628 13.808,235.115 15.594 M109.104 17.209 C 111.494 18.453,113.335 20.173,114.123 21.901 C 114.666 23.093,114.785 61.470,114.253 63.766 C 114.069 64.559,113.403 65.739,112.773 66.389 C 112.143 67.039,111.628 67.745,111.628 67.959 C 111.628 68.172,110.928 68.557,110.073 68.813 C 109.218 69.069,107.923 69.598,107.195 69.988 C 105.496 70.899,102.938 70.902,101.439 69.996 C 100.801 69.610,99.860 69.173,99.349 69.025 C 98.331 68.731,95.628 66.313,95.628 65.697 C 95.628 65.486,95.222 64.473,94.726 63.447 C 94.230 62.421,93.727 61.133,93.609 60.584 C 93.116 58.294,93.786 58.372,75.770 58.494 C 59.505 58.604,59.326 58.613,56.930 59.495 C 54.779 60.287,51.859 62.341,51.349 63.420 C 51.247 63.637,50.828 64.308,50.419 64.911 C 49.621 66.088,49.440 68.439,48.906 84.570 C 48.705 90.640,48.753 91.679,49.276 92.477 L 49.878 93.395 171.517 93.395 C 281.602 93.395,293.212 93.340,293.741 92.811 C 294.701 91.851,294.590 70.387,293.615 68.238 C 293.233 67.397,292.803 66.014,292.659 65.164 C 291.868 60.481,287.591 58.767,275.907 58.453 C 271.405 58.332,267.512 58.097,267.256 57.932 C 266.286 57.304,266.622 39.974,267.618 39.277 C 269.899 37.679,291.343 38.787,294.966 40.689 C 295.944 41.203,297.138 41.735,297.620 41.872 C 298.101 42.009,299.087 42.523,299.811 43.014 C 300.535 43.505,301.258 43.907,301.419 43.907 C 301.579 43.907,302.218 44.367,302.839 44.930 C 303.460 45.493,304.645 46.517,305.472 47.206 C 306.300 47.895,306.977 48.594,306.977 48.759 C 306.977 49.027,307.489 49.641,309.913 52.279 C 310.289 52.688,310.722 53.442,310.876 53.953 C 311.030 54.465,311.472 55.231,311.860 55.655 C 312.248 56.080,312.823 57.419,313.138 58.632 C 313.454 59.845,313.997 61.256,314.345 61.767 C 315.228 63.067,315.470 84.908,315.192 138.047 L 314.977 179.163 313.692 179.034 C 312.985 178.963,311.646 178.516,310.715 178.041 C 309.785 177.566,308.102 177.072,306.977 176.942 C 305.851 176.812,304.344 176.460,303.628 176.159 C 302.912 175.859,300.651 175.315,298.605 174.951 L 294.884 174.290 294.658 158.308 C 294.534 149.517,294.408 135.856,294.379 127.948 C 294.329 114.391,294.285 113.521,293.614 112.692 L 292.903 111.814 171.535 111.814 L 50.167 111.814 49.447 112.703 C 48.670 113.662,48.596 263.416,49.368 272.000 C 49.824 277.068,52.831 281.210,56.558 281.904 C 57.274 282.037,58.313 282.375,58.865 282.654 C 59.703 283.078,70.616 283.163,124.608 283.163 C 185.939 283.163,189.356 283.197,189.542 283.814 C 189.651 284.172,189.907 285.532,190.112 286.835 C 190.317 288.139,190.739 289.594,191.050 290.069 C 191.362 290.544,191.730 291.905,191.869 293.094 C 192.008 294.283,192.597 296.260,193.177 297.488 C 194.353 299.977,194.624 303.212,193.720 303.962 C 192.677 304.827,57.137 304.586,54.881 303.715 C 53.859 303.321,51.939 302.774,50.613 302.500 C 49.287 302.226,47.631 301.614,46.933 301.140 C 46.235 300.667,45.365 300.279,45.000 300.279 C 44.635 300.279,43.863 299.884,43.284 299.401 C 42.706 298.918,41.730 298.266,41.115 297.951 C 40.501 297.636,39.680 297.026,39.290 296.596 C 38.901 296.166,38.357 295.814,38.082 295.814 C 37.807 295.814,37.581 295.641,37.581 295.429 C 37.581 295.218,37.037 294.470,36.372 293.768 C 34.545 291.837,33.529 290.420,32.909 288.937 C 32.601 288.199,32.116 287.506,31.833 287.398 C 31.549 287.289,31.119 286.377,30.878 285.372 C 30.637 284.366,30.146 283.165,29.787 282.702 C 29.428 282.239,29.004 281.358,28.846 280.744 C 27.493 275.508,27.495 65.924,28.848 61.767 C 29.014 61.256,29.437 60.419,29.788 59.907 C 30.138 59.395,30.639 58.162,30.901 57.166 C 31.163 56.170,31.768 54.963,32.247 54.485 C 32.725 54.007,33.116 53.442,33.116 53.229 C 33.116 52.816,35.055 50.180,36.968 47.993 C 37.612 47.256,38.767 46.273,39.535 45.808 C 40.302 45.343,40.930 44.811,40.930 44.626 C 40.930 44.441,41.519 44.043,42.238 43.743 C 42.957 43.442,43.641 42.948,43.757 42.644 C 43.874 42.340,44.499 41.988,45.147 41.860 C 46.808 41.533,48.372 40.894,48.372 40.542 C 48.372 39.325,55.727 38.701,70.140 38.693 C 80.205 38.688,83.095 38.577,84.279 38.150 C 85.146 37.838,87.185 37.607,89.164 37.598 C 93.678 37.576,93.531 37.807,93.789 30.362 C 93.970 25.129,94.100 24.186,94.812 22.898 C 95.261 22.087,95.628 21.242,95.628 21.020 C 95.628 20.267,99.287 17.176,101.209 16.305 C 102.872 15.552,106.779 15.999,109.104 17.209 M243.599 17.147 C 244.894 17.778,245.953 18.513,245.953 18.779 C 245.953 19.045,246.356 19.527,246.849 19.850 C 249.171 21.372,249.346 23.171,249.224 44.329 C 249.104 65.192,249.127 64.964,246.916 66.881 C 246.387 67.340,245.953 67.871,245.953 68.061 C 245.953 68.250,245.074 68.692,244.000 69.043 C 242.926 69.393,241.826 69.855,241.556 70.069 C 239.016 72.087,230.749 68.261,229.611 64.541 C 228.742 61.699,228.007 60.356,226.846 59.484 L 225.674 58.605 180.498 58.507 C 146.369 58.434,135.192 58.302,134.791 57.969 C 134.199 57.478,134.220 40.079,134.813 39.163 C 135.051 38.795,144.627 38.695,180.580 38.685 C 222.994 38.674,226.097 38.630,226.802 38.034 C 228.659 36.465,228.837 35.822,228.838 30.708 C 228.838 22.529,230.052 18.952,233.322 17.491 C 233.823 17.267,234.651 16.843,235.163 16.548 C 236.892 15.550,240.905 15.835,243.599 17.147 M77.395 151.704 C 75.741 152.026,73.953 154.203,73.556 156.377 C 73.052 159.134,72.799 182.197,73.254 183.814 C 73.456 184.530,73.761 185.687,73.931 186.384 C 74.185 187.424,74.640 187.873,76.469 188.891 L 78.698 190.131 98.483 190.135 L 118.268 190.140 120.622 187.933 L 122.977 185.727 122.977 170.418 L 122.977 155.109 121.674 154.009 C 118.677 151.478,120.173 151.633,98.233 151.575 C 87.284 151.546,77.907 151.604,77.395 151.704 M151.298 151.701 C 150.683 151.799,149.557 152.550,148.664 153.456 C 146.986 155.158,147.177 154.497,145.837 163.193 C 144.563 171.460,146.178 185.964,148.602 188.023 C 151.254 190.277,149.714 190.137,171.758 190.138 L 191.888 190.140 193.384 189.056 C 194.206 188.461,195.278 187.414,195.765 186.731 L 196.651 185.488 196.651 170.402 L 196.651 155.316 195.163 153.577 L 193.674 151.838 174.093 151.826 C 163.323 151.819,154.030 151.750,153.442 151.671 C 152.853 151.592,151.889 151.606,151.298 151.701 M222.437 153.581 C 219.969 156.116,219.906 156.547,219.945 170.791 C 219.987 186.273,220.058 186.700,222.929 188.716 L 225.021 190.185 228.796 190.172 C 232.280 190.160,232.646 190.088,233.557 189.243 C 234.100 188.740,234.976 188.221,235.505 188.090 C 236.033 187.959,236.805 187.535,237.220 187.148 C 237.635 186.761,238.689 186.192,239.561 185.884 C 240.434 185.576,241.399 185.073,241.707 184.765 C 242.014 184.458,242.970 184.000,243.831 183.749 C 244.691 183.498,245.814 182.993,246.326 182.627 C 246.837 182.261,248.136 181.797,249.212 181.595 C 250.288 181.393,251.628 180.897,252.189 180.494 C 252.750 180.090,254.260 179.576,255.544 179.350 C 256.828 179.125,258.421 178.621,259.082 178.231 C 259.885 177.757,261.338 177.446,263.445 177.295 C 267.649 176.995,267.927 176.923,269.116 175.811 L 270.140 174.854 270.140 165.734 C 270.140 155.500,270.122 155.417,267.478 153.154 L 265.913 151.814 245.035 151.814 L 224.158 151.814 222.437 153.581 M120.057 153.776 C 121.111 154.548,122.074 155.441,122.196 155.760 C 122.774 157.265,122.431 185.321,121.832 185.551 C 121.509 185.675,121.094 186.175,120.908 186.662 C 120.723 187.149,120.173 187.700,119.685 187.885 C 119.198 188.070,118.698 188.486,118.574 188.809 C 118.373 189.332,116.265 189.395,98.903 189.395 L 79.458 189.395 77.008 188.246 L 74.559 187.097 74.117 184.518 C 73.164 178.963,73.721 154.419,74.800 154.419 C 74.939 154.419,75.582 153.912,76.230 153.293 L 77.408 152.168 97.774 152.270 L 118.140 152.372 120.057 153.776 M194.568 153.990 L 195.902 155.349 196.119 164.651 C 196.239 169.767,196.257 176.492,196.160 179.595 L 195.983 185.237 194.627 186.665 C 191.792 189.650,193.916 189.395,171.885 189.395 L 152.150 189.395 150.171 188.129 C 148.873 187.299,148.107 186.523,147.944 185.875 C 146.794 181.293,146.166 166.361,146.955 162.344 C 147.148 161.362,147.415 159.250,147.547 157.651 C 147.762 155.063,147.886 154.699,148.678 154.339 C 149.167 154.116,149.662 153.635,149.778 153.270 C 150.077 152.328,149.165 152.360,172.217 152.501 L 193.235 152.631 194.568 153.990 M266.130 153.174 C 266.914 153.717,268.053 154.839,268.661 155.666 L 269.767 157.170 269.767 165.775 L 269.767 174.379 268.186 175.420 C 266.851 176.298,266.040 176.505,262.982 176.748 C 260.410 176.952,258.905 177.272,257.795 177.851 C 256.934 178.300,255.302 178.818,254.167 179.003 C 253.032 179.187,251.642 179.680,251.078 180.097 C 250.514 180.514,249.172 181.021,248.096 181.223 C 247.020 181.425,245.696 181.916,245.154 182.313 C 244.611 182.711,243.702 183.154,243.133 183.297 C 242.564 183.439,241.333 183.998,240.398 184.539 C 237.395 186.274,236.498 186.757,234.822 187.539 C 233.918 187.960,232.992 188.561,232.764 188.873 C 231.639 190.411,225.179 189.824,223.322 188.014 C 223.052 187.751,222.599 187.535,222.316 187.535 C 221.246 187.535,221.027 184.719,221.025 170.908 C 221.023 156.060,221.055 155.780,222.984 153.910 L 224.186 152.744 244.093 152.550 C 255.042 152.444,264.158 152.318,264.352 152.271 C 264.546 152.224,265.346 152.631,266.130 153.174 M274.605 186.401 C 271.825 186.570,269.478 186.944,267.907 187.467 C 266.577 187.910,264.400 188.374,263.070 188.498 C 261.572 188.638,260.255 189.002,259.611 189.455 C 259.040 189.857,257.535 190.353,256.267 190.557 C 255.000 190.761,253.683 191.181,253.342 191.490 C 253.000 191.800,251.742 192.304,250.546 192.611 C 249.351 192.918,247.786 193.557,247.070 194.030 C 246.353 194.504,245.290 195.001,244.707 195.136 C 244.124 195.271,243.203 195.680,242.660 196.044 C 242.118 196.409,240.894 197.239,239.939 197.888 C 238.985 198.538,238.025 199.070,237.806 199.070 C 237.587 199.070,236.945 199.482,236.379 199.986 C 235.242 200.997,232.557 202.999,230.993 204.002 C 228.074 205.872,220.388 213.959,216.981 218.743 C 216.088 219.997,215.229 221.023,215.073 221.023 C 214.916 221.023,214.568 221.567,214.298 222.233 C 213.804 223.453,213.551 223.879,211.436 227.054 C 210.795 228.018,210.094 229.457,209.881 230.251 C 209.667 231.046,209.156 231.999,208.746 232.371 C 208.336 232.742,208.000 233.413,208.000 233.862 C 208.000 234.312,207.525 235.334,206.945 236.135 C 206.365 236.936,205.775 238.316,205.633 239.204 C 205.491 240.091,204.961 241.594,204.455 242.545 C 203.850 243.682,203.535 244.875,203.535 246.033 C 203.535 247.182,203.180 248.537,202.512 249.942 L 201.488 252.093 201.383 267.145 C 201.275 282.536,201.386 284.118,202.832 287.922 C 203.022 288.424,203.330 289.901,203.514 291.206 C 203.708 292.572,204.164 293.976,204.589 294.517 C 204.995 295.033,205.445 296.310,205.588 297.353 C 205.732 298.397,206.245 299.834,206.729 300.546 C 207.212 301.259,207.713 302.401,207.841 303.083 C 207.969 303.765,208.393 304.612,208.783 304.965 C 209.173 305.318,209.673 306.292,209.895 307.129 C 210.117 307.966,210.599 308.986,210.966 309.395 C 211.334 309.805,211.904 310.675,212.235 311.330 C 212.882 312.610,214.323 314.718,216.381 317.395 C 217.089 318.316,217.955 319.488,218.306 320.000 C 220.831 323.681,228.427 331.228,232.000 333.606 C 232.819 334.151,234.230 335.199,235.137 335.937 C 236.785 337.276,237.667 337.823,240.662 339.366 C 241.538 339.817,242.465 340.485,242.722 340.852 C 242.978 341.218,243.796 341.632,244.539 341.771 C 245.282 341.910,246.269 342.427,246.731 342.919 C 247.274 343.497,247.987 343.814,248.745 343.814 C 249.409 343.814,250.633 344.279,251.564 344.885 C 252.469 345.474,253.879 346.074,254.698 346.218 C 255.516 346.363,256.716 346.807,257.364 347.205 C 258.071 347.640,259.559 348.018,261.085 348.152 C 262.670 348.290,264.114 348.667,264.918 349.151 C 266.003 349.805,267.337 350.008,273.290 350.428 C 277.185 350.702,281.666 351.019,283.248 351.131 C 284.856 351.244,286.612 351.164,287.231 350.948 C 287.840 350.736,290.564 350.447,293.285 350.306 C 297.025 350.113,298.862 349.834,300.809 349.165 C 302.226 348.678,304.003 348.279,304.757 348.279 C 305.567 348.279,306.983 347.823,308.220 347.163 C 309.370 346.549,310.821 346.047,311.443 346.047 C 312.065 346.047,313.198 345.640,313.961 345.144 C 314.725 344.648,316.039 344.061,316.882 343.840 C 317.725 343.620,318.826 343.115,319.330 342.719 C 319.833 342.324,320.685 341.889,321.223 341.754 C 321.762 341.619,322.404 341.265,322.650 340.968 C 322.897 340.671,323.797 340.110,324.651 339.721 C 325.505 339.332,326.421 338.752,326.686 338.433 C 326.951 338.113,327.858 337.539,328.700 337.156 C 330.119 336.511,333.054 334.135,339.494 328.416 C 340.904 327.164,343.485 324.465,345.230 322.419 C 346.975 320.372,348.714 318.363,349.095 317.953 C 349.941 317.045,351.379 314.992,352.223 313.488 C 352.567 312.874,353.244 311.899,353.727 311.320 C 354.210 310.742,354.605 309.979,354.605 309.625 C 354.605 309.271,355.019 308.420,355.526 307.733 C 356.032 307.046,356.645 305.884,356.887 305.149 C 357.129 304.415,357.630 303.395,358.001 302.884 C 359.738 300.485,359.343 293.666,357.348 291.612 C 354.400 288.577,348.504 287.303,346.225 289.209 C 343.714 291.310,341.963 293.439,341.711 294.700 C 341.593 295.292,341.180 296.062,340.793 296.412 C 340.406 296.762,339.906 297.731,339.682 298.565 C 339.457 299.398,338.830 300.603,338.288 301.241 C 337.746 301.879,336.967 302.965,336.558 303.653 C 335.796 304.935,335.259 305.737,333.953 307.543 C 332.779 309.168,322.540 319.416,321.302 320.206 C 320.688 320.597,319.977 321.200,319.720 321.545 C 319.464 321.891,318.774 322.279,318.186 322.408 C 317.598 322.538,316.744 323.040,316.289 323.524 C 315.834 324.009,314.934 324.617,314.289 324.875 C 313.644 325.134,312.723 325.645,312.241 326.012 C 311.760 326.378,310.755 326.790,310.009 326.928 C 309.262 327.065,308.178 327.572,307.599 328.054 C 306.931 328.611,306.068 328.930,305.233 328.930 C 304.510 328.930,302.974 329.418,301.820 330.013 C 300.381 330.756,298.911 331.171,297.145 331.333 C 295.728 331.463,294.138 331.794,293.610 332.068 C 290.133 333.879,277.102 333.867,272.890 332.049 C 272.254 331.775,270.495 331.439,268.983 331.304 C 267.240 331.148,265.581 330.732,264.455 330.168 C 263.477 329.679,261.863 329.125,260.869 328.936 C 259.875 328.748,258.433 328.167,257.665 327.646 C 256.897 327.124,256.037 326.698,255.754 326.698 C 255.471 326.698,254.616 326.290,253.852 325.792 C 253.089 325.294,251.753 324.606,250.884 324.263 C 250.014 323.920,249.302 323.518,249.302 323.368 C 249.302 323.219,248.897 322.912,248.403 322.686 C 246.586 321.858,236.366 313.746,235.959 312.809 C 235.886 312.639,235.340 311.970,234.745 311.320 C 232.568 308.941,232.241 308.538,231.343 307.114 C 230.839 306.316,230.153 305.436,229.818 305.158 C 229.483 304.880,229.209 304.495,229.209 304.302 C 229.209 304.108,228.791 303.402,228.281 302.733 C 227.770 302.063,227.161 300.944,226.927 300.246 C 226.693 299.548,226.205 298.642,225.842 298.233 C 225.480 297.823,224.999 296.794,224.773 295.945 C 224.548 295.097,224.136 294.315,223.857 294.208 C 223.579 294.101,223.051 292.786,222.684 291.286 C 222.318 289.786,221.709 288.138,221.331 287.624 C 220.857 286.981,220.544 285.617,220.325 283.244 C 220.092 280.713,219.821 279.591,219.306 279.022 C 218.167 277.763,218.237 259.164,219.387 257.609 C 219.963 256.830,220.217 255.810,220.349 253.755 C 220.488 251.596,220.745 250.623,221.479 249.480 C 222.001 248.666,222.535 247.273,222.666 246.384 C 222.797 245.496,223.318 244.159,223.824 243.414 C 224.330 242.669,224.744 241.803,224.744 241.488 C 224.744 241.174,225.139 240.334,225.622 239.621 C 226.105 238.909,226.626 237.907,226.781 237.395 C 226.936 236.884,227.369 236.129,227.744 235.718 C 228.118 235.308,228.655 234.424,228.937 233.754 C 229.479 232.464,230.360 231.286,232.689 228.734 C 233.478 227.870,234.751 226.326,235.519 225.302 C 236.829 223.557,238.447 221.994,241.682 219.349 C 242.433 218.735,243.492 217.858,244.035 217.400 C 246.272 215.517,247.941 214.326,248.344 214.326 C 248.580 214.326,249.352 213.830,250.061 213.224 C 250.769 212.619,251.535 212.116,251.762 212.108 C 251.989 212.100,252.781 211.682,253.522 211.179 C 254.262 210.677,255.500 210.093,256.271 209.881 C 257.043 209.670,258.180 209.187,258.798 208.806 C 259.416 208.426,260.839 207.903,261.961 207.644 C 263.082 207.385,264.578 206.842,265.285 206.438 C 266.202 205.914,267.697 205.617,270.494 205.402 C 272.653 205.236,274.890 204.916,275.466 204.690 C 276.863 204.142,288.166 204.143,289.190 204.691 C 289.613 204.917,291.904 205.226,294.282 205.379 C 297.480 205.583,298.992 205.852,300.093 206.413 C 300.912 206.829,302.559 207.371,303.753 207.618 C 304.948 207.864,306.520 208.470,307.247 208.963 C 307.974 209.457,308.951 209.860,309.419 209.860 C 309.886 209.860,310.742 210.252,311.320 210.731 C 311.899 211.210,312.925 211.790,313.600 212.021 C 314.275 212.251,315.280 212.789,315.833 213.216 C 318.766 215.485,319.760 216.186,320.044 216.186 C 320.459 216.186,327.636 222.416,329.324 224.242 C 332.293 227.454,335.256 231.119,335.256 231.580 C 335.256 231.850,335.609 232.390,336.040 232.780 C 336.471 233.169,337.128 234.086,337.501 234.816 C 337.873 235.546,338.437 236.358,338.754 236.620 C 341.102 238.570,338.732 242.600,335.235 242.603 C 334.417 242.604,333.441 242.953,332.678 243.515 C 331.999 244.016,330.975 244.529,330.404 244.654 C 329.832 244.780,329.277 245.111,329.169 245.391 C 328.975 245.898,331.928 248.930,332.616 248.930 C 332.811 248.930,333.202 249.162,333.485 249.445 C 333.768 249.729,334.659 250.297,335.465 250.708 C 336.271 251.119,337.249 251.808,337.639 252.239 C 338.029 252.671,338.493 253.023,338.671 253.023 C 338.963 253.023,340.917 254.256,344.000 256.386 C 346.502 258.113,349.210 259.721,349.619 259.721 C 349.858 259.721,350.328 260.140,350.663 260.651 C 350.999 261.163,351.454 261.581,351.676 261.581 C 351.897 261.581,352.798 262.067,353.679 262.662 C 354.559 263.256,355.629 263.853,356.056 263.988 C 356.483 264.124,357.092 264.494,357.409 264.811 C 357.930 265.332,358.050 265.330,358.650 264.787 C 359.016 264.457,359.505 264.186,359.737 264.186 C 360.330 264.186,360.795 263.151,361.029 261.315 C 361.138 260.453,361.570 259.312,361.988 258.781 C 362.405 258.250,362.934 256.915,363.163 255.814 C 363.391 254.713,363.881 253.426,364.252 252.953 C 364.622 252.480,365.121 251.179,365.359 250.062 C 365.598 248.944,366.063 247.732,366.393 247.367 C 366.724 247.002,367.130 245.841,367.297 244.787 C 367.463 243.734,368.012 242.267,368.517 241.529 C 369.021 240.790,369.549 239.389,369.690 238.414 C 369.831 237.440,370.286 236.211,370.701 235.683 C 371.118 235.152,371.474 234.114,371.495 233.362 L 371.535 232.000 368.921 232.020 C 366.828 232.036,366.086 232.204,365.194 232.863 C 362.384 234.941,357.520 234.289,356.796 231.738 C 356.546 230.859,355.951 229.756,355.473 229.287 C 354.996 228.819,354.605 228.120,354.605 227.734 C 354.605 227.349,354.217 226.561,353.743 225.982 C 353.269 225.404,352.502 224.302,352.038 223.535 C 351.575 222.767,351.059 222.140,350.894 222.140 C 350.728 222.140,350.495 221.753,350.377 221.280 C 350.020 219.858,347.276 216.709,340.837 210.327 C 334.346 203.894,334.314 203.865,331.907 202.305 C 330.781 201.576,329.508 200.633,329.077 200.210 C 328.646 199.788,328.127 199.442,327.922 199.442 C 327.718 199.442,327.079 199.004,326.502 198.470 C 325.925 197.935,324.938 197.326,324.308 197.117 C 323.678 196.907,322.744 196.362,322.233 195.904 C 321.721 195.447,320.819 194.958,320.228 194.819 C 319.637 194.679,318.633 194.168,317.996 193.684 C 317.359 193.199,316.335 192.681,315.721 192.533 C 315.107 192.385,314.180 191.967,313.662 191.606 C 313.143 191.244,312.055 190.827,311.243 190.679 C 310.432 190.532,309.083 190.015,308.246 189.531 C 307.410 189.047,306.209 188.651,305.579 188.651 C 304.195 188.651,300.081 187.635,298.791 186.974 C 297.661 186.396,281.118 186.004,274.605 186.401 M298.489 187.894 C 299.437 188.313,301.510 188.765,303.107 188.900 C 305.208 189.077,306.346 189.375,307.241 189.982 C 307.920 190.443,309.184 190.933,310.051 191.071 C 310.919 191.209,312.220 191.705,312.944 192.172 C 313.669 192.640,314.841 193.147,315.549 193.299 C 316.258 193.451,317.131 193.884,317.490 194.262 C 317.849 194.640,318.849 195.139,319.713 195.372 C 320.577 195.604,321.489 196.087,321.739 196.444 C 321.989 196.801,322.956 197.384,323.887 197.740 C 324.819 198.096,325.581 198.538,325.581 198.723 C 325.581 198.908,326.150 199.298,326.846 199.588 C 327.541 199.879,328.253 200.360,328.427 200.659 C 328.602 200.957,329.247 201.458,329.861 201.772 C 330.476 202.086,331.297 202.694,331.686 203.125 C 332.076 203.555,332.616 203.907,332.886 203.907 C 333.156 203.907,333.911 204.493,334.562 205.209 C 335.214 205.926,335.960 206.512,336.221 206.512 C 336.481 206.512,336.800 206.847,336.930 207.256 C 337.060 207.665,337.323 208.000,337.514 208.000 C 337.928 208.000,345.302 215.424,345.302 215.842 C 345.302 216.001,345.679 216.437,346.140 216.810 C 346.925 217.446,348.389 219.422,349.843 221.809 C 350.192 222.381,350.820 223.192,351.239 223.611 C 351.657 224.030,352.000 224.541,352.000 224.747 C 352.000 224.954,352.502 225.816,353.116 226.664 C 353.730 227.511,354.233 228.406,354.233 228.653 C 354.233 228.899,354.630 229.529,355.115 230.053 C 355.601 230.577,356.108 231.589,356.242 232.303 C 356.625 234.345,357.113 234.541,361.326 234.338 C 364.414 234.189,365.254 234.016,366.169 233.339 C 369.110 231.165,372.086 232.174,370.279 234.733 C 369.896 235.276,369.391 236.619,369.158 237.717 C 368.924 238.816,368.379 240.212,367.945 240.821 C 367.512 241.430,367.071 242.708,366.966 243.662 C 366.851 244.718,366.433 245.807,365.900 246.447 C 365.418 247.026,365.023 247.971,365.023 248.549 C 365.023 249.126,364.538 250.521,363.946 251.647 C 363.353 252.774,362.746 254.423,362.596 255.313 C 362.446 256.202,362.014 257.324,361.637 257.805 C 361.259 258.286,360.852 259.291,360.733 260.038 C 360.302 262.730,360.179 262.980,359.015 263.544 C 357.718 264.172,355.690 263.584,354.724 262.301 C 354.483 261.980,353.613 261.496,352.790 261.225 C 351.968 260.953,351.211 260.512,351.108 260.245 C 351.006 259.978,350.385 259.482,349.729 259.143 C 349.072 258.803,348.210 258.222,347.812 257.852 C 347.415 257.482,346.652 257.069,346.117 256.935 C 345.583 256.800,344.804 256.355,344.387 255.944 C 343.429 255.001,341.403 253.608,339.745 252.753 C 339.042 252.390,338.086 251.716,337.622 251.256 C 337.158 250.795,336.545 250.419,336.261 250.419 C 335.976 250.419,335.454 250.099,335.101 249.708 C 334.747 249.318,333.926 248.780,333.275 248.513 C 332.625 248.245,331.562 247.467,330.913 246.784 L 329.734 245.540 330.651 245.192 C 331.155 245.000,331.981 244.739,332.486 244.613 C 332.991 244.486,333.529 244.160,333.681 243.888 C 333.833 243.617,335.036 243.221,336.355 243.008 C 340.227 242.385,341.757 238.653,339.192 236.088 C 338.696 235.592,338.170 234.805,338.023 234.338 C 337.876 233.870,337.277 232.906,336.692 232.194 C 336.107 231.483,335.628 230.735,335.628 230.534 C 335.628 230.332,335.216 229.743,334.712 229.223 C 331.997 226.425,331.535 225.916,331.535 225.725 C 331.535 225.331,328.252 222.140,327.847 222.140 C 327.624 222.140,327.442 221.892,327.442 221.590 C 327.442 221.288,326.981 220.747,326.419 220.387 C 325.856 220.028,324.960 219.313,324.429 218.797 C 322.198 216.635,317.989 213.581,317.240 213.581 C 316.926 213.581,316.397 213.167,316.065 212.661 C 315.707 212.114,314.955 211.646,314.210 211.506 C 313.521 211.377,312.754 211.026,312.505 210.727 C 311.893 209.990,310.148 209.116,309.286 209.116 C 308.898 209.116,308.113 208.714,307.541 208.222 C 306.851 207.630,305.807 207.242,304.444 207.072 C 303.313 206.930,301.945 206.487,301.402 206.086 C 300.663 205.540,299.255 205.236,295.777 204.874 C 293.225 204.608,290.724 204.158,290.220 203.874 C 288.877 203.117,275.922 203.126,274.605 203.885 C 274.093 204.180,271.762 204.630,269.424 204.886 C 266.373 205.220,264.901 205.552,264.212 206.062 C 263.683 206.452,262.415 206.893,261.393 207.040 C 260.371 207.188,258.949 207.682,258.233 208.139 C 257.516 208.595,256.219 209.176,255.350 209.429 C 254.480 209.683,253.476 210.205,253.117 210.589 C 252.759 210.974,252.003 211.404,251.437 211.546 C 250.872 211.688,250.286 212.018,250.135 212.279 C 249.984 212.541,249.060 213.129,248.081 213.587 C 247.103 214.044,246.134 214.733,245.929 215.116 C 245.723 215.500,245.322 215.814,245.037 215.814 C 244.752 215.814,244.190 216.233,243.787 216.744 C 243.385 217.256,242.896 217.674,242.701 217.674 C 242.506 217.674,242.004 217.967,241.585 218.326 C 241.166 218.684,239.745 219.898,238.427 221.023 C 237.109 222.149,235.476 223.872,234.797 224.852 C 234.118 225.832,232.918 227.338,232.130 228.200 C 231.342 229.062,230.698 229.957,230.698 230.190 C 230.698 230.422,230.292 230.878,229.796 231.203 C 229.300 231.528,228.773 232.175,228.626 232.641 C 228.479 233.107,227.977 233.991,227.510 234.605 C 227.044 235.219,226.544 236.195,226.400 236.774 C 226.255 237.354,225.908 237.915,225.629 238.022 C 225.350 238.129,224.890 239.000,224.605 239.957 C 224.321 240.914,223.673 242.309,223.165 243.058 C 222.657 243.806,222.130 245.261,221.993 246.290 C 221.850 247.374,221.504 248.296,221.173 248.481 C 220.519 248.848,219.929 251.048,219.916 253.173 C 219.911 253.977,219.456 255.557,218.898 256.708 C 217.308 259.988,217.107 274.752,218.590 279.256 C 219.130 280.893,219.731 283.488,219.926 285.023 C 220.146 286.753,220.561 288.193,221.016 288.810 C 221.420 289.358,221.861 290.531,221.997 291.415 C 222.271 293.204,223.095 295.070,223.611 295.070 C 223.796 295.070,224.210 295.973,224.530 297.076 C 224.851 298.179,225.334 299.167,225.603 299.270 C 225.872 299.373,226.309 300.184,226.575 301.071 C 226.841 301.959,227.375 302.907,227.762 303.177 C 228.149 303.448,228.465 303.854,228.465 304.079 C 228.465 304.304,228.926 305.079,229.488 305.802 C 230.051 306.525,230.692 307.432,230.912 307.819 C 232.518 310.638,241.081 318.956,244.027 320.558 C 244.780 320.967,245.529 321.512,245.693 321.767 C 245.857 322.023,246.493 322.493,247.108 322.810 C 247.723 323.128,248.543 323.706,248.930 324.093 C 249.318 324.481,250.287 324.974,251.084 325.188 C 251.881 325.403,252.834 325.911,253.201 326.317 C 253.569 326.723,254.475 327.161,255.214 327.290 C 255.953 327.419,256.726 327.730,256.930 327.981 C 257.545 328.734,258.849 329.297,260.856 329.678 C 261.901 329.876,263.166 330.361,263.668 330.756 C 264.297 331.251,265.471 331.551,267.453 331.724 C 269.168 331.874,271.001 332.299,272.000 332.778 C 275.223 334.324,295.070 333.856,295.070 332.234 C 295.070 332.054,295.949 331.903,297.023 331.898 C 299.618 331.886,301.657 331.384,302.929 330.444 C 303.501 330.021,304.530 329.674,305.214 329.674 C 305.953 329.674,307.162 329.229,308.187 328.579 C 309.137 327.976,310.524 327.369,311.268 327.229 C 312.013 327.089,313.051 326.578,313.575 326.092 C 314.099 325.607,314.696 325.209,314.903 325.209 C 315.110 325.209,315.839 324.782,316.524 324.259 C 317.209 323.737,318.260 323.138,318.860 322.929 C 319.460 322.720,320.217 322.143,320.542 321.647 C 320.867 321.150,321.333 320.744,321.576 320.744 C 321.819 320.744,322.443 320.330,322.963 319.823 C 323.482 319.317,325.620 317.281,327.714 315.300 C 329.808 313.319,331.619 311.389,331.739 311.012 C 331.859 310.634,332.169 310.326,332.427 310.326 C 332.686 310.326,333.135 309.865,333.425 309.302 C 333.716 308.740,334.330 307.974,334.791 307.601 C 335.251 307.228,335.628 306.710,335.628 306.449 C 335.628 306.189,335.987 305.657,336.426 305.267 C 336.865 304.877,337.535 303.864,337.914 303.017 C 338.294 302.169,338.847 301.382,339.143 301.268 C 339.439 301.155,339.875 300.346,340.110 299.471 C 340.346 298.596,340.941 297.403,341.432 296.819 C 341.923 296.235,342.326 295.441,342.326 295.054 C 342.326 294.668,342.828 293.779,343.442 293.080 C 344.056 292.381,344.558 291.642,344.558 291.438 C 344.558 291.234,345.060 290.859,345.674 290.605 C 346.288 290.350,346.791 289.974,346.791 289.769 C 346.791 289.250,352.519 289.622,354.512 290.271 C 355.381 290.554,356.093 290.920,356.093 291.084 C 356.093 291.248,356.553 291.836,357.116 292.389 C 358.561 293.810,358.696 301.001,357.307 302.493 C 356.849 302.984,356.365 303.985,356.230 304.716 C 356.096 305.448,355.610 306.428,355.149 306.895 C 354.688 307.362,354.207 308.298,354.080 308.975 C 353.953 309.652,353.433 310.597,352.925 311.075 C 352.416 311.553,352.000 312.157,352.000 312.418 C 352.000 312.679,351.577 313.348,351.061 313.905 C 350.544 314.463,350.029 315.286,349.917 315.736 C 349.804 316.185,349.222 316.915,348.623 317.357 C 348.025 317.800,347.535 318.344,347.535 318.566 C 347.535 319.008,347.664 318.867,341.047 325.674 C 338.511 328.284,336.308 330.419,336.152 330.419 C 335.995 330.419,335.321 330.963,334.653 331.628 C 333.050 333.225,331.876 334.242,331.107 334.698 C 328.970 335.964,326.870 337.409,326.187 338.082 C 325.751 338.510,324.893 338.983,324.279 339.133 C 323.665 339.282,322.826 339.718,322.414 340.103 C 322.001 340.487,321.016 341.073,320.224 341.404 C 319.432 341.735,318.345 342.313,317.810 342.689 C 317.275 343.065,316.239 343.474,315.507 343.598 C 314.775 343.722,313.820 344.156,313.383 344.563 C 312.946 344.970,312.170 345.302,311.657 345.302 C 310.573 345.302,306.605 346.720,306.605 347.107 C 306.605 347.252,305.223 347.559,303.535 347.791 C 301.847 348.022,299.377 348.591,298.047 349.056 C 294.383 350.336,269.576 350.325,267.115 349.042 C 266.264 348.599,264.211 348.047,262.551 347.815 C 260.892 347.584,259.116 347.112,258.605 346.766 C 258.093 346.419,256.670 345.922,255.442 345.660 C 254.214 345.398,252.870 344.882,252.456 344.513 C 252.042 344.144,250.786 343.646,249.665 343.405 C 248.545 343.165,247.426 342.680,247.179 342.328 C 246.932 341.975,245.962 341.472,245.024 341.210 C 244.086 340.947,243.159 340.434,242.965 340.071 C 242.770 339.707,242.106 339.298,241.488 339.163 C 240.871 339.027,240.201 338.608,240.000 338.232 C 239.798 337.856,239.009 337.342,238.244 337.090 C 237.480 336.837,236.546 336.238,236.168 335.757 C 235.790 335.277,235.246 334.884,234.958 334.884 C 234.671 334.884,234.166 334.472,233.836 333.968 C 233.506 333.464,232.874 332.940,232.432 332.802 C 231.990 332.665,231.000 331.989,230.231 331.299 C 229.463 330.610,228.679 330.047,228.489 330.047 C 228.299 330.047,228.037 329.712,227.907 329.303 C 227.777 328.894,227.300 328.467,226.845 328.353 C 226.391 328.239,225.858 327.778,225.661 327.328 C 225.464 326.879,224.926 326.346,224.465 326.144 C 224.005 325.942,223.628 325.652,223.628 325.500 C 223.628 325.347,223.222 324.759,222.726 324.192 C 220.119 321.215,219.230 320.109,218.832 319.349 C 218.385 318.498,217.556 317.490,215.721 315.565 C 215.158 314.975,214.693 314.266,214.687 313.990 C 214.682 313.714,214.179 312.831,213.571 312.027 C 212.963 311.223,212.465 310.370,212.465 310.131 C 212.465 309.892,212.129 309.392,211.718 309.020 C 211.307 308.648,210.773 307.660,210.531 306.823 C 210.289 305.987,209.705 304.829,209.232 304.251 C 208.759 303.672,208.372 302.900,208.372 302.535 C 208.372 302.171,207.885 300.959,207.289 299.843 C 206.693 298.726,206.088 297.026,205.944 296.065 C 205.800 295.103,205.363 293.912,204.975 293.418 C 204.532 292.855,204.133 291.454,203.906 289.665 C 203.479 286.301,202.885 283.925,202.289 283.198 C 201.364 282.070,201.763 253.897,202.735 251.733 C 203.191 250.716,203.739 248.623,203.952 247.081 C 204.165 245.540,204.639 243.777,205.004 243.163 C 205.369 242.549,205.868 241.209,206.114 240.186 C 206.360 239.163,206.968 237.626,207.466 236.771 C 207.965 235.916,208.372 234.976,208.372 234.682 C 208.372 234.387,208.713 233.714,209.130 233.184 C 209.546 232.654,210.072 231.669,210.297 230.994 C 210.523 230.319,211.103 229.234,211.586 228.583 C 212.070 227.932,212.465 227.136,212.465 226.816 C 212.465 226.495,212.815 225.883,213.242 225.456 C 213.669 225.029,214.270 224.078,214.576 223.345 C 214.883 222.611,215.538 221.692,216.032 221.304 C 216.526 220.915,216.930 220.422,216.930 220.208 C 216.930 219.994,217.391 219.261,217.953 218.579 C 218.516 217.896,219.479 216.702,220.093 215.925 C 222.524 212.847,230.987 204.737,232.711 203.834 C 233.139 203.610,233.622 203.200,233.786 202.922 C 233.950 202.645,234.619 202.142,235.274 201.805 C 235.929 201.468,236.675 200.895,236.931 200.532 C 237.187 200.170,237.875 199.768,238.461 199.639 C 239.046 199.510,239.882 198.995,240.318 198.493 C 240.755 197.992,241.381 197.581,241.711 197.581 C 242.041 197.581,242.946 197.079,243.721 196.465 C 244.496 195.851,245.391 195.349,245.710 195.349 C 246.529 195.349,248.318 194.520,248.657 193.983 C 248.814 193.735,249.735 193.417,250.704 193.275 C 251.673 193.134,253.160 192.616,254.009 192.124 C 254.858 191.632,256.514 191.073,257.688 190.881 C 258.863 190.690,260.130 190.257,260.504 189.919 C 260.954 189.511,262.334 189.188,264.583 188.962 C 266.453 188.775,268.678 188.354,269.527 188.027 C 273.333 186.560,295.247 186.460,298.489 187.894 M79.179 216.921 C 76.051 217.880,74.096 219.498,73.867 221.318 C 73.746 222.281,73.485 223.675,73.288 224.415 C 73.091 225.155,72.930 231.205,72.930 237.858 C 72.930 257.220,71.388 256.138,98.605 255.882 C 119.236 255.689,119.857 255.627,121.777 253.571 L 123.158 252.093 123.067 236.582 L 122.977 221.071 121.860 219.892 C 121.247 219.243,119.823 218.270,118.698 217.728 L 116.651 216.744 98.419 216.678 C 88.391 216.642,79.733 216.751,79.179 216.921 M153.116 216.904 C 147.048 218.473,146.845 219.077,146.689 235.976 C 146.526 253.604,146.784 254.575,151.848 255.391 C 155.979 256.056,189.437 255.937,189.788 255.256 C 190.566 253.746,192.033 248.417,192.397 245.782 C 192.634 244.063,193.098 242.409,193.501 241.842 C 193.884 241.305,194.367 239.811,194.574 238.523 C 194.782 237.234,195.216 235.887,195.540 235.529 C 196.781 234.158,197.801 227.308,197.092 225.111 C 196.747 224.044,196.465 222.846,196.465 222.449 C 196.465 221.377,194.665 219.295,192.567 217.940 L 190.716 216.744 172.474 216.680 C 162.441 216.644,153.730 216.745,153.116 216.904 M117.915 218.377 C 119.429 218.967,120.840 219.762,121.051 220.143 C 121.262 220.525,121.698 221.033,122.020 221.272 C 122.535 221.656,122.605 223.511,122.605 236.837 L 122.605 251.967 121.581 252.712 C 121.019 253.122,120.558 253.681,120.558 253.955 C 120.558 254.800,116.838 254.932,96.529 254.812 L 77.152 254.698 75.817 253.581 C 73.847 251.933,73.899 252.291,73.754 239.342 C 73.558 221.816,73.819 220.317,77.358 218.677 C 80.214 217.353,79.322 217.409,98.233 217.354 L 115.163 217.305 117.915 218.377 M190.419 217.841 C 191.084 218.001,191.628 218.266,191.628 218.431 C 191.628 218.596,192.142 218.844,192.769 218.982 C 193.397 219.120,194.004 219.510,194.118 219.849 C 194.231 220.188,194.759 220.835,195.290 221.288 C 196.684 222.477,196.792 232.015,195.432 233.860 C 194.979 234.474,194.426 235.975,194.202 237.194 C 193.977 238.414,193.397 240.196,192.912 241.153 C 192.395 242.172,191.922 243.953,191.770 245.447 C 191.628 246.851,191.219 248.586,190.862 249.302 C 190.504 250.019,190.096 251.442,189.955 252.465 C 189.541 255.458,190.809 255.256,172.435 255.256 C 153.305 255.256,150.833 255.040,148.946 253.208 L 147.721 252.018 147.721 236.757 C 147.721 218.772,147.553 219.310,153.674 217.637 C 154.944 217.291,188.907 217.479,190.419 217.841 M278.631 220.007 C 277.762 220.803,276.919 222.187,276.195 224.007 L 275.088 226.791 274.859 238.512 C 274.566 253.451,273.919 257.974,271.823 259.714 C 270.571 260.753,268.613 264.176,268.064 266.286 C 267.752 267.485,267.338 268.624,267.144 268.819 C 266.592 269.371,266.746 271.574,267.535 274.419 C 267.932 275.851,268.262 277.367,268.268 277.786 C 268.282 278.761,270.832 282.631,272.441 284.117 C 275.360 286.815,276.991 287.423,281.890 287.640 C 286.684 287.852,286.890 287.928,289.742 290.534 C 290.260 291.006,291.968 292.373,293.539 293.571 C 295.109 294.769,297.729 296.899,299.360 298.304 C 303.342 301.734,304.895 302.884,305.544 302.884 C 305.843 302.884,306.655 303.302,307.349 303.814 C 309.907 305.701,312.341 305.224,315.293 302.257 L 317.767 299.771 317.767 297.470 C 317.767 295.795,317.580 294.929,317.076 294.283 C 316.696 293.795,316.109 292.858,315.772 292.201 C 315.435 291.544,314.239 290.049,313.115 288.879 C 311.990 287.708,311.070 286.647,311.070 286.521 C 311.070 286.395,310.253 285.462,309.255 284.448 C 308.256 283.434,306.373 281.309,305.069 279.726 C 300.212 273.830,300.279 273.939,300.279 271.939 C 300.279 270.915,299.961 269.401,299.562 268.525 C 299.168 267.659,298.736 266.454,298.603 265.848 C 298.284 264.396,297.641 263.052,296.837 262.162 C 296.479 261.766,296.186 261.312,296.186 261.154 C 296.186 260.996,295.769 260.481,295.260 260.008 C 293.744 258.603,292.839 256.429,292.821 254.154 C 292.812 253.020,292.622 251.340,292.399 250.419 C 292.176 249.498,291.883 243.470,291.748 237.023 L 291.502 225.302 290.402 223.269 C 288.368 219.509,287.265 218.813,283.329 218.801 C 280.036 218.791,279.929 218.818,278.631 220.007 M287.590 220.537 C 288.327 221.293,289.333 222.926,289.826 224.165 C 290.816 226.659,290.764 225.993,291.358 243.907 C 291.720 254.813,292.044 257.860,292.842 257.860 C 293.000 257.860,293.235 258.285,293.365 258.803 C 293.495 259.322,294.003 259.929,294.493 260.152 C 294.984 260.376,295.493 260.998,295.626 261.535 C 295.758 262.072,296.248 262.930,296.715 263.442 C 297.181 263.953,297.833 265.460,298.164 266.791 C 299.757 273.187,300.012 274.101,300.410 274.839 C 301.421 276.713,302.976 278.754,304.727 280.505 C 305.759 281.538,306.605 282.492,306.605 282.626 C 306.605 282.835,308.085 284.415,311.999 288.386 C 312.511 288.905,312.930 289.529,312.930 289.773 C 312.930 290.016,313.335 290.480,313.829 290.804 C 314.323 291.128,314.979 292.021,315.285 292.787 C 315.592 293.554,316.109 294.402,316.433 294.671 C 317.410 295.482,317.243 299.412,316.186 300.488 C 311.727 305.030,311.544 305.081,307.349 302.934 C 303.382 300.904,301.762 299.754,299.021 297.023 C 298.354 296.358,297.707 295.814,297.584 295.814 C 297.460 295.814,296.827 295.329,296.175 294.737 C 294.541 293.251,293.860 292.690,292.450 291.671 C 291.781 291.187,290.849 290.414,290.378 289.953 C 289.907 289.493,289.355 289.116,289.150 289.116 C 288.945 289.116,288.387 288.725,287.908 288.247 C 287.122 287.461,286.599 287.355,282.444 287.146 C 278.661 286.956,277.710 286.790,277.064 286.207 C 276.632 285.817,275.740 285.318,275.080 285.098 C 273.583 284.597,271.550 282.594,270.550 280.633 C 270.131 279.811,269.620 279.081,269.415 279.011 C 267.405 278.323,268.019 265.704,270.177 263.341 C 270.770 262.691,271.256 261.966,271.256 261.730 C 271.256 261.494,271.511 261.088,271.824 260.829 C 274.845 258.321,275.131 256.610,275.647 237.953 C 275.893 229.049,276.072 226.565,276.533 225.674 C 276.850 225.060,277.224 223.929,277.363 223.160 C 277.524 222.271,277.948 221.544,278.529 221.164 C 279.031 220.835,279.442 220.348,279.442 220.081 C 279.442 218.433,285.890 218.793,287.590 220.537 " stroke="none" fill="#c7f954" fill-rule="evenodd"></path></g></svg>