<svg id="svg" version="1.1" xmlns="http://www.w3.org/2000/svg" xmlns:xlink="http://www.w3.org/1999/xlink" width="400" height="243.20000000000002" viewBox="0, 0, 400,243.20000000000002"><g id="svgg"><path id="path0" d="M116.780 14.100 C 115.638 14.196,114.215 14.447,113.617 14.657 C 111.155 15.524,108.642 16.106,106.480 16.311 C 105.219 16.430,103.218 16.761,102.033 17.047 C 100.045 17.526,99.135 17.867,96.837 18.992 C 96.369 19.221,95.145 19.577,94.118 19.782 C 92.366 20.133,90.962 20.658,89.538 21.497 C 88.398 22.168,86.206 23.114,85.791 23.114 C 85.096 23.114,83.734 23.917,82.594 25.000 C 82.417 25.167,82.167 25.304,82.037 25.304 C 81.907 25.304,81.214 25.577,80.499 25.910 C 79.783 26.243,79.007 26.517,78.774 26.518 C 78.340 26.521,77.605 27.032,76.912 27.813 C 76.697 28.055,75.620 28.695,74.518 29.235 C 73.358 29.804,72.194 30.583,71.750 31.089 C 71.329 31.569,70.314 32.278,69.494 32.664 C 68.675 33.051,67.655 33.737,67.227 34.189 C 66.799 34.641,66.092 35.195,65.656 35.421 C 65.220 35.646,64.457 36.254,63.959 36.772 C 63.462 37.289,62.977 37.713,62.882 37.713 C 62.786 37.713,62.462 37.959,62.162 38.260 C 61.862 38.561,59.210 41.191,56.270 44.103 C 49.262 51.045,49.054 51.275,47.960 53.285 C 47.705 53.753,47.047 54.497,46.498 54.938 C 45.948 55.380,45.499 55.904,45.499 56.103 C 45.499 56.556,44.861 57.564,43.971 58.516 C 43.324 59.208,41.119 62.867,41.119 63.249 C 41.119 63.348,40.887 63.637,40.603 63.892 C 40.120 64.326,38.686 66.987,38.686 67.450 C 38.686 67.700,37.814 68.980,37.064 69.830 C 36.564 70.397,35.280 73.843,35.280 74.618 C 35.280 75.024,34.271 76.969,33.997 77.090 C 33.624 77.255,33.154 78.513,32.620 80.779 C 32.321 82.050,31.904 83.418,31.693 83.820 C 30.271 86.533,29.924 87.596,29.350 90.998 C 28.730 94.662,28.466 95.917,28.092 96.959 C 27.900 97.494,27.451 99.246,27.094 100.852 L 26.446 103.771 26.435 116.788 C 26.425 128.639,26.463 129.925,26.858 131.144 C 27.518 133.177,28.458 136.930,28.717 138.564 C 28.845 139.367,29.110 140.791,29.307 141.727 C 29.504 142.664,29.671 143.923,29.676 144.526 C 29.684 145.326,29.979 146.198,30.776 147.769 C 31.730 149.651,32.376 151.629,33.064 154.774 C 33.170 155.259,33.475 155.890,33.741 156.176 C 34.277 156.751,34.888 158.070,35.896 160.827 C 36.262 161.831,36.804 162.926,37.099 163.260 C 37.851 164.113,38.686 165.558,38.686 166.006 C 38.686 166.791,39.665 168.618,40.603 169.585 C 41.139 170.137,41.705 170.993,41.861 171.487 C 42.016 171.981,42.406 172.793,42.726 173.292 C 43.047 173.791,43.309 174.259,43.309 174.333 C 43.309 174.407,43.679 174.793,44.132 175.190 C 44.585 175.588,45.228 176.489,45.562 177.194 C 45.911 177.932,46.441 178.620,46.813 178.819 C 47.376 179.120,48.892 181.197,48.913 181.695 C 48.917 181.793,49.409 182.242,50.008 182.693 C 50.606 183.143,51.095 183.640,51.095 183.797 C 51.095 184.088,53.921 187.404,54.295 187.551 C 54.408 187.595,54.501 187.734,54.501 187.859 C 54.501 188.202,57.391 191.022,58.895 192.146 C 59.623 192.691,60.707 193.640,61.304 194.257 C 61.900 194.873,62.510 195.377,62.659 195.377 C 62.876 195.377,63.908 196.453,64.715 197.520 C 64.785 197.613,65.444 197.990,66.180 198.358 C 66.986 198.761,67.683 199.318,67.933 199.757 C 68.161 200.158,68.653 200.612,69.028 200.764 C 71.173 201.639,71.781 202.003,73.289 203.318 C 73.924 203.872,74.729 204.396,75.076 204.483 C 75.933 204.698,77.513 205.768,77.942 206.424 C 78.151 206.742,78.871 207.141,79.718 207.407 C 82.176 208.179,82.540 208.346,83.681 209.221 C 84.870 210.133,87.451 211.192,88.485 211.192 C 89.093 211.192,91.576 212.453,91.854 212.903 C 92.056 213.230,95.612 214.306,97.473 214.603 C 98.363 214.745,99.535 215.076,100.078 215.338 C 100.621 215.601,101.208 215.815,101.384 215.815 C 101.559 215.815,101.703 215.907,101.703 216.019 C 101.703 216.454,109.655 218.005,111.885 218.005 C 112.376 218.005,113.762 218.277,114.965 218.610 C 116.212 218.955,117.834 219.220,118.735 219.227 C 119.605 219.233,121.028 219.404,121.898 219.606 C 124.407 220.188,132.404 220.356,134.872 219.878 C 137.724 219.326,140.214 218.978,141.318 218.978 C 141.844 218.978,142.751 218.810,143.334 218.604 C 143.917 218.399,145.108 218.124,145.980 217.994 C 148.060 217.684,152.568 217.043,154.258 216.817 C 155.561 216.643,156.221 216.405,158.783 215.188 C 159.466 214.864,160.246 214.599,160.516 214.599 C 161.206 214.599,165.905 213.225,166.280 212.914 C 166.983 212.330,169.287 211.250,170.177 211.086 C 171.238 210.891,173.224 210.029,173.601 209.599 C 174.053 209.084,176.403 207.786,176.882 207.786 C 177.601 207.786,179.865 206.710,180.391 206.118 C 180.645 205.831,181.001 205.596,181.181 205.596 C 181.361 205.596,181.509 205.512,181.509 205.408 C 181.509 205.163,182.903 204.440,183.764 204.239 C 184.134 204.152,184.796 203.663,185.234 203.151 C 185.922 202.347,188.098 200.984,188.721 200.968 C 188.836 200.965,189.735 200.259,190.719 199.400 C 191.703 198.541,192.798 197.772,193.152 197.691 C 193.550 197.600,194.025 197.174,194.398 196.573 C 194.806 195.914,195.423 195.390,196.314 194.942 C 197.269 194.463,197.735 194.050,198.019 193.431 C 198.235 192.962,198.774 192.143,199.217 191.610 C 199.660 191.076,199.908 190.602,199.768 190.555 C 199.628 190.509,199.513 190.375,199.513 190.258 C 199.513 190.142,199.267 189.787,198.966 189.469 C 198.288 188.755,197.080 187.321,197.080 187.232 C 197.080 187.196,196.685 186.741,196.201 186.223 C 195.717 185.704,195.171 184.930,194.987 184.504 C 194.803 184.077,194.266 183.432,193.794 183.072 C 192.998 182.465,191.484 180.506,191.484 180.083 C 191.484 179.982,191.053 179.577,190.527 179.183 C 190.000 178.789,189.396 178.084,189.185 177.616 C 188.620 176.360,188.229 175.748,187.571 175.089 C 186.624 174.138,186.460 173.883,185.548 171.935 C 185.071 170.916,184.460 169.945,184.190 169.776 C 183.919 169.607,183.698 169.345,183.698 169.193 C 183.698 169.041,183.540 168.784,183.346 168.623 C 183.152 168.463,182.869 167.929,182.716 167.438 C 182.335 166.207,181.287 164.032,180.986 163.846 C 180.687 163.661,179.320 160.761,179.316 160.301 C 179.314 160.122,179.040 159.499,178.708 158.917 C 178.375 158.334,178.102 157.749,178.102 157.616 C 178.102 157.483,177.892 157.080,177.636 156.720 C 177.078 155.936,176.220 153.601,175.911 152.025 C 175.698 150.935,175.316 149.970,174.055 147.337 C 173.739 146.675,173.477 145.799,173.475 145.390 C 173.470 144.604,172.670 140.980,171.830 137.947 C 170.920 134.655,170.316 131.013,170.316 128.808 C 170.316 127.617,170.152 125.784,169.951 124.735 C 169.458 122.159,169.460 112.048,169.954 108.637 C 170.148 107.299,170.309 105.204,170.312 103.981 C 170.317 101.262,170.831 98.327,171.754 95.742 C 172.136 94.672,172.693 92.318,172.992 90.511 C 173.291 88.704,173.781 86.679,174.081 86.010 C 174.381 85.341,174.824 84.358,175.064 83.826 C 175.304 83.295,175.689 82.145,175.920 81.272 C 176.516 79.019,176.807 78.282,178.139 75.639 C 178.788 74.351,179.322 73.092,179.327 72.841 C 179.332 72.590,179.547 71.946,179.805 71.411 C 180.064 70.876,180.279 70.307,180.284 70.148 C 180.288 69.988,180.491 69.714,180.735 69.539 C 180.979 69.364,181.342 68.893,181.542 68.491 C 181.742 68.090,182.018 67.543,182.154 67.275 C 182.291 67.007,182.720 66.131,183.108 65.328 C 183.495 64.526,183.995 63.704,184.218 63.504 C 184.441 63.303,185.041 62.337,185.552 61.357 C 186.063 60.378,186.895 59.128,187.401 58.580 C 187.907 58.032,188.321 57.506,188.321 57.411 C 188.321 56.930,189.632 55.001,190.499 54.205 C 191.041 53.707,191.484 53.207,191.484 53.093 C 191.484 52.827,193.061 50.734,194.161 49.542 C 194.629 49.034,195.100 48.464,195.207 48.275 C 195.314 48.086,195.501 47.932,195.623 47.932 C 195.745 47.932,196.369 47.364,197.010 46.671 C 197.651 45.977,198.628 44.931,199.181 44.345 L 200.188 43.280 199.668 42.363 C 198.545 40.380,197.818 39.474,197.040 39.090 C 195.943 38.548,194.891 37.578,194.891 37.109 C 194.891 36.897,194.699 36.654,194.465 36.567 C 194.231 36.481,193.984 36.344,193.917 36.264 C 193.850 36.184,193.343 35.919,192.790 35.675 C 192.237 35.431,191.471 34.807,191.087 34.288 C 190.703 33.769,190.235 33.342,190.047 33.339 C 189.859 33.336,189.346 33.060,188.908 32.725 C 188.469 32.391,187.958 32.117,187.772 32.117 C 187.586 32.117,186.871 31.591,186.183 30.949 C 185.465 30.277,184.334 29.541,183.525 29.216 C 182.750 28.906,181.928 28.438,181.698 28.176 C 181.207 27.619,179.635 26.521,179.328 26.521 C 179.211 26.521,178.570 26.247,177.904 25.912 C 177.238 25.578,176.600 25.304,176.485 25.303 C 176.371 25.302,175.876 24.933,175.385 24.482 C 174.498 23.668,173.323 23.114,172.479 23.114 C 171.714 23.114,169.366 22.129,168.606 21.489 C 167.738 20.759,164.927 19.720,163.800 19.713 C 162.864 19.707,159.214 18.353,158.944 17.912 C 158.701 17.513,154.461 16.574,151.700 16.306 C 150.497 16.190,148.802 15.879,147.932 15.615 C 147.062 15.352,145.675 15.073,144.850 14.995 C 144.025 14.917,142.875 14.667,142.295 14.439 C 141.143 13.987,121.265 13.722,116.780 14.100 " stroke="none" fill="#db2473" fill-rule="evenodd"></path><path id="path1" d="M262.182 14.572 C 262.109 14.691,261.801 14.843,261.499 14.909 C 261.196 14.976,259.690 15.311,258.151 15.655 C 256.612 15.998,253.875 16.454,252.068 16.668 C 247.968 17.154,245.499 17.575,245.499 17.788 C 245.499 18.253,241.926 19.542,239.781 19.849 C 238.283 20.064,235.446 21.035,235.334 21.371 C 235.214 21.729,233.114 22.779,232.117 22.980 C 230.526 23.300,229.078 23.921,228.345 24.597 C 227.423 25.448,225.472 26.411,224.218 26.634 C 222.913 26.866,221.964 27.387,221.778 27.975 C 221.630 28.440,218.857 29.927,218.136 29.927 C 217.877 29.927,215.573 31.784,215.085 32.385 C 214.860 32.664,213.409 33.333,213.033 33.333 C 212.827 33.333,212.375 33.763,212.027 34.288 C 211.610 34.918,210.942 35.464,210.060 35.896 C 209.325 36.255,208.657 36.729,208.575 36.949 C 208.397 37.427,206.814 38.929,206.487 38.929 C 206.361 38.929,205.935 39.285,205.541 39.720 C 205.147 40.155,204.564 40.790,204.246 41.131 C 203.927 41.472,202.929 42.129,202.028 42.591 C 200.275 43.489,195.423 47.948,193.382 50.536 C 192.806 51.266,192.144 52.090,191.910 52.367 C 191.676 52.645,191.484 52.967,191.484 53.083 C 191.484 53.198,191.006 53.756,190.422 54.323 C 189.838 54.889,189.099 55.928,188.781 56.630 C 188.463 57.333,188.123 57.908,188.026 57.908 C 187.738 57.908,185.888 60.531,185.888 60.939 C 185.888 61.145,185.790 61.314,185.671 61.314 C 185.552 61.314,185.388 61.576,185.308 61.897 C 185.227 62.218,184.768 62.952,184.286 63.528 C 183.805 64.104,183.196 65.073,182.933 65.682 C 182.107 67.592,181.168 69.343,180.970 69.343 C 180.695 69.343,179.598 71.702,179.412 72.692 C 179.325 73.155,178.900 74.206,178.467 75.027 C 177.118 77.589,176.950 77.947,176.517 79.197 C 176.285 79.866,176.020 80.856,175.928 81.397 C 175.767 82.346,175.172 83.809,174.178 85.696 C 173.916 86.193,173.539 87.616,173.341 88.859 C 172.751 92.545,172.301 94.517,171.765 95.768 C 170.451 98.834,169.986 104.362,169.997 116.788 C 170.007 128.955,170.346 132.736,171.900 138.078 C 172.212 139.148,172.537 140.353,172.622 140.754 C 172.707 141.156,172.931 142.196,173.119 143.066 C 173.307 143.936,173.465 144.965,173.470 145.353 C 173.479 146.003,173.713 146.585,175.338 149.987 C 175.654 150.649,175.912 151.442,175.912 151.750 C 175.912 152.370,176.756 155.078,177.187 155.839 C 177.921 157.137,179.319 160.089,179.319 160.342 C 179.319 160.909,180.777 163.762,181.138 163.900 C 181.342 163.978,181.512 164.222,181.516 164.442 C 181.521 164.662,181.682 165.051,181.875 165.306 C 182.068 165.561,182.392 166.340,182.595 167.038 C 182.798 167.735,183.129 168.443,183.331 168.611 C 183.533 168.779,183.698 169.041,183.698 169.194 C 183.698 169.346,183.942 169.579,184.240 169.711 C 184.598 169.870,185.049 170.592,185.568 171.836 C 186.402 173.835,186.593 174.139,187.652 175.143 C 188.020 175.492,188.321 175.917,188.321 176.088 C 188.321 176.259,188.422 176.399,188.544 176.399 C 188.667 176.399,188.947 176.864,189.167 177.433 C 189.397 178.030,189.918 178.724,190.397 179.075 C 190.854 179.410,191.605 180.288,192.066 181.026 C 192.526 181.764,193.351 182.727,193.897 183.166 C 194.443 183.605,194.891 184.096,194.891 184.257 C 194.891 184.553,195.675 185.592,196.586 186.505 C 196.858 186.777,197.084 187.106,197.089 187.235 C 197.094 187.364,197.859 188.072,198.790 188.808 C 199.720 189.544,200.483 190.234,200.484 190.342 C 200.485 190.450,201.034 190.765,201.703 191.043 C 202.372 191.322,202.920 191.644,202.920 191.760 C 202.920 191.876,203.132 191.971,203.392 191.971 C 203.657 191.971,204.296 192.483,204.848 193.138 C 205.401 193.793,206.365 194.566,207.050 194.901 C 207.721 195.230,208.337 195.718,208.420 195.985 C 208.666 196.781,209.781 197.810,210.396 197.810 C 210.947 197.810,212.895 199.466,212.895 199.934 C 212.895 200.053,213.361 200.350,213.929 200.594 C 214.498 200.839,215.292 201.279,215.693 201.571 C 216.095 201.864,216.625 202.179,216.872 202.270 C 217.119 202.361,217.372 202.630,217.434 202.868 C 217.548 203.303,219.227 204.179,220.529 204.484 C 220.914 204.574,221.642 205.090,222.147 205.632 C 223.062 206.613,225.658 207.782,226.927 207.785 C 227.233 207.785,227.899 208.245,228.509 208.877 C 229.088 209.477,229.672 209.966,229.805 209.964 C 230.947 209.948,235.472 211.742,236.650 212.678 C 237.202 213.117,237.882 213.363,238.851 213.477 C 241.104 213.742,244.697 214.766,246.167 215.563 C 246.916 215.968,248.139 216.405,248.886 216.534 C 251.371 216.964,259.206 217.819,262.165 217.985 C 263.881 218.081,265.637 218.328,266.423 218.585 C 267.159 218.825,268.098 219.121,268.509 219.243 C 269.450 219.522,277.719 219.536,278.288 219.259 C 278.520 219.146,278.956 218.927,279.256 218.772 C 279.994 218.390,282.716 218.016,284.793 218.010 C 285.730 218.007,287.263 217.842,288.200 217.643 C 289.136 217.444,291.162 217.166,292.701 217.026 C 297.390 216.600,299.000 216.186,300.403 215.048 C 300.558 214.922,301.215 214.719,301.863 214.596 C 302.511 214.474,303.753 214.202,304.623 213.993 C 305.493 213.784,306.801 213.508,307.530 213.381 C 308.259 213.253,308.944 212.991,309.052 212.798 C 309.324 212.312,310.820 211.417,311.754 211.182 C 314.800 210.417,316.192 209.870,316.936 209.146 C 317.915 208.196,318.351 207.982,320.681 207.307 C 321.685 207.016,322.643 206.735,322.810 206.681 C 322.977 206.628,323.114 206.426,323.114 206.233 C 323.114 205.897,325.303 204.380,325.787 204.380 C 326.387 204.380,328.710 203.150,328.710 202.833 C 328.710 202.298,330.065 201.264,331.150 200.972 C 331.792 200.799,332.362 200.396,332.882 199.749 C 333.309 199.218,333.768 198.783,333.902 198.783 C 334.037 198.783,334.319 198.631,334.531 198.446 C 334.742 198.260,335.493 197.809,336.199 197.443 C 336.906 197.078,337.603 196.545,337.750 196.260 C 338.137 195.505,339.170 194.654,339.888 194.498 C 340.230 194.424,340.631 194.328,340.778 194.284 C 340.924 194.240,341.316 193.686,341.647 193.053 C 342.070 192.246,342.560 191.737,343.286 191.348 C 343.970 190.982,344.510 190.442,344.876 189.758 C 345.261 189.038,345.774 188.542,346.559 188.131 C 347.180 187.806,347.689 187.412,347.689 187.257 C 347.689 186.651,348.968 185.136,349.866 184.678 C 350.555 184.326,350.855 183.993,350.975 183.446 C 351.147 182.663,352.113 181.519,353.005 181.041 C 353.291 180.888,353.897 179.968,354.352 178.997 C 354.920 177.783,355.606 176.819,356.543 175.916 C 357.414 175.077,357.908 174.402,357.908 174.049 C 357.908 173.440,359.238 171.776,359.725 171.776 C 359.980 171.776,360.814 169.808,361.425 167.762 C 361.630 167.077,362.349 166.270,362.916 166.091 C 363.250 165.984,363.530 165.477,363.840 164.417 C 364.486 162.202,365.633 159.905,366.316 159.457 C 366.706 159.202,366.910 158.840,366.910 158.404 C 366.910 158.039,367.129 157.104,367.397 156.326 C 367.664 155.548,367.883 154.706,367.883 154.455 C 367.883 154.034,368.374 153.102,368.975 152.381 C 369.111 152.218,369.339 151.943,369.482 151.769 C 369.908 151.251,370.316 149.867,370.319 148.930 C 370.323 147.643,371.382 143.669,372.205 141.849 C 373.062 139.954,373.373 138.382,373.723 134.185 C 373.868 132.445,374.112 130.201,374.265 129.197 C 374.737 126.101,374.809 107.869,374.360 105.231 C 373.935 102.736,373.479 98.225,373.479 96.508 C 373.479 94.913,373.042 93.312,372.173 91.727 C 371.769 90.991,371.364 89.951,371.273 89.416 C 370.577 85.317,370.017 82.802,369.705 82.375 C 368.620 80.892,368.111 79.976,367.909 79.147 C 366.929 75.110,366.684 74.470,365.768 73.549 C 365.020 72.798,364.705 72.165,364.132 70.266 C 363.605 68.520,363.260 67.793,362.794 67.443 C 362.448 67.183,361.990 66.602,361.775 66.150 C 360.936 64.386,360.584 63.469,360.584 63.051 C 360.584 62.812,360.356 62.405,360.077 62.147 C 358.536 60.722,358.135 60.213,357.917 59.402 C 357.647 58.401,357.310 57.918,355.693 56.222 C 355.078 55.576,354.366 54.544,354.112 53.928 C 353.809 53.194,353.428 52.716,353.009 52.542 C 352.142 52.182,351.289 51.157,351.106 50.256 C 350.997 49.717,350.701 49.380,350.025 49.027 C 349.358 48.678,348.877 48.138,348.327 47.119 C 347.785 46.116,347.332 45.602,346.787 45.373 C 346.362 45.194,345.738 44.629,345.401 44.117 C 344.475 42.714,344.137 42.336,343.806 42.336 C 343.295 42.336,342.103 41.359,341.728 40.633 C 341.501 40.195,340.878 39.709,340.028 39.307 C 339.290 38.958,338.686 38.533,338.686 38.363 C 338.686 37.665,338.040 36.717,337.470 36.577 C 336.360 36.305,335.472 35.734,334.284 34.527 C 333.638 33.871,332.993 33.333,332.851 33.333 C 332.710 33.333,332.160 33.060,331.630 32.725 C 331.100 32.391,330.519 32.117,330.338 32.117 C 330.157 32.117,329.656 31.624,329.223 31.022 C 328.677 30.261,328.263 29.927,327.868 29.927 C 327.168 29.927,324.585 28.604,324.088 27.990 C 323.591 27.377,322.122 26.523,321.562 26.522 C 320.917 26.520,318.491 25.089,318.491 24.710 C 318.491 24.351,314.972 23.116,313.938 23.112 C 313.195 23.110,310.706 21.791,310.706 21.400 C 310.706 20.944,306.577 19.734,304.961 19.716 C 304.545 19.712,303.801 19.434,303.308 19.100 C 302.815 18.765,302.269 18.491,302.095 18.491 C 301.921 18.491,301.580 18.273,301.338 18.005 C 301.082 17.722,300.583 17.516,300.145 17.512 C 299.731 17.509,298.954 17.406,298.418 17.282 C 297.317 17.029,295.088 16.731,290.146 16.176 C 286.903 15.812,285.259 15.381,284.409 14.675 C 283.955 14.297,262.414 14.197,262.182 14.572 " stroke="none" fill="#facb0c" fill-rule="evenodd"></path></g></svg>