<svg id="svg" version="1.1" xmlns="http://www.w3.org/2000/svg" xmlns:xlink="http://www.w3.org/1999/xlink" width="400" height="321.34831460674155" viewBox="0, 0, 400,321.34831460674155"><g id="svgg"><path id="path0" d="M259.206 32.375 C 257.419 33.105,256.592 34.790,256.592 37.706 C 256.592 42.264,255.673 44.525,253.485 45.358 C 253.013 45.537,241.341 45.659,224.679 45.659 C 197.467 45.659,196.629 45.677,195.358 46.293 C 194.172 46.867,193.177 46.939,184.726 47.063 C 177.125 47.175,172.079 47.385,165.052 47.883 C 164.842 47.898,164.149 48.453,163.512 49.116 L 162.354 50.322 162.447 54.396 C 162.532 58.133,162.601 58.536,163.277 59.254 C 163.682 59.685,164.158 60.560,164.334 61.199 C 164.511 61.837,165.022 62.796,165.471 63.329 C 165.920 63.863,166.425 64.799,166.594 65.410 C 166.787 66.111,167.758 67.389,169.222 68.872 C 171.418 71.095,172.509 71.832,176.413 73.729 C 177.322 74.171,178.200 74.771,178.363 75.062 C 178.531 75.363,179.526 75.794,180.663 76.059 C 181.765 76.317,183.275 76.821,184.018 77.180 C 184.762 77.540,186.763 78.118,188.465 78.465 C 190.168 78.812,192.194 79.383,192.967 79.734 C 194.337 80.355,195.147 80.372,224.228 80.379 C 256.654 80.386,256.062 80.355,256.415 82.112 C 256.490 82.489,256.640 90.466,256.747 99.839 C 256.868 110.340,257.075 117.375,257.288 118.167 C 257.479 118.875,257.747 120.828,257.885 122.508 C 258.024 124.188,258.292 126.141,258.482 126.849 C 258.685 127.607,258.830 131.610,258.835 136.606 C 258.844 146.773,258.757 147.077,255.788 147.294 C 253.439 147.466,253.377 147.142,253.374 134.823 L 253.371 124.277 252.228 120.917 C 251.094 117.584,249.420 115.114,248.294 115.113 C 248.063 115.113,247.459 114.659,246.952 114.104 C 246.283 113.371,245.607 113.023,244.479 112.832 C 243.625 112.687,242.058 112.418,240.997 112.235 C 238.332 111.774,217.535 111.790,216.075 112.254 C 215.457 112.451,211.262 112.714,206.752 112.840 C 198.899 113.059,196.785 113.342,196.785 114.175 C 196.785 114.733,194.378 115.072,189.068 115.261 C 185.779 115.379,182.839 115.647,181.994 115.906 C 181.198 116.151,179.317 116.515,177.814 116.717 C 176.310 116.918,174.212 117.204,173.151 117.353 C 172.090 117.501,170.354 118.026,169.293 118.518 C 167.668 119.272,166.780 119.445,163.666 119.610 C 160.126 119.797,159.026 120.082,157.834 121.119 C 157.527 121.387,155.990 121.712,154.143 121.901 C 152.074 122.113,150.639 122.435,149.997 122.831 C 149.458 123.165,148.069 123.589,146.911 123.774 C 144.265 124.197,142.783 124.689,141.961 125.419 C 141.608 125.733,140.631 126.075,139.791 126.178 C 138.951 126.282,137.613 126.448,136.818 126.547 C 135.994 126.650,134.992 127.046,134.487 127.470 C 134.000 127.878,133.095 128.322,132.476 128.456 C 131.857 128.590,130.772 129.108,130.064 129.607 C 129.137 130.261,128.213 130.575,126.755 130.734 C 125.103 130.914,124.572 131.123,123.862 131.876 C 123.357 132.411,122.519 132.874,121.866 132.978 C 119.462 133.362,117.685 133.838,117.685 134.099 C 117.685 134.249,116.925 134.751,115.997 135.216 C 115.068 135.681,114.019 136.325,113.666 136.648 C 113.312 136.970,112.154 137.408,111.093 137.620 C 109.958 137.847,108.833 138.308,108.360 138.741 C 107.918 139.145,107.112 139.700,106.568 139.974 C 106.025 140.248,105.383 140.709,105.143 140.999 C 104.902 141.289,104.161 141.804,103.495 142.144 C 102.829 142.484,101.947 143.099,101.535 143.511 C 101.122 143.923,100.102 144.462,99.267 144.708 C 98.406 144.963,97.673 145.393,97.575 145.703 C 97.479 146.003,96.984 146.394,96.474 146.572 C 95.963 146.750,95.311 147.254,95.024 147.692 C 94.737 148.130,94.082 148.662,93.569 148.875 C 93.056 149.087,92.427 149.579,92.173 149.968 C 91.918 150.357,91.087 150.955,90.326 151.299 C 89.565 151.642,88.616 152.249,88.216 152.649 C 87.816 153.049,87.319 153.376,87.110 153.376 C 86.902 153.376,85.072 155.040,83.044 157.074 C 81.016 159.108,79.226 160.772,79.067 160.772 C 78.908 160.772,78.778 160.958,78.778 161.185 C 78.778 161.412,78.380 161.834,77.894 162.122 C 77.408 162.411,76.431 163.258,75.723 164.005 C 75.016 164.751,73.967 165.803,73.392 166.342 C 72.818 166.880,72.347 167.438,72.347 167.582 C 72.347 167.726,71.401 168.818,70.245 170.009 C 69.088 171.200,68.054 172.539,67.947 172.984 C 67.766 173.733,66.697 175.123,64.299 177.724 C 63.774 178.294,63.344 178.971,63.344 179.229 C 63.344 179.488,62.910 180.008,62.380 180.386 C 61.686 180.879,61.358 181.432,61.211 182.354 C 61.060 183.297,60.720 183.853,59.924 184.460 C 59.329 184.914,58.842 185.538,58.842 185.846 C 58.842 186.154,58.418 186.941,57.900 187.593 C 57.381 188.245,56.864 189.202,56.751 189.719 C 56.637 190.235,56.128 191.008,55.619 191.437 C 54.907 192.035,54.643 192.597,54.474 193.867 C 54.324 195.004,54.036 195.691,53.553 196.071 C 52.812 196.655,52.090 198.345,52.090 199.496 C 52.090 199.874,51.584 200.969,50.965 201.929 C 50.346 202.890,49.839 204.080,49.839 204.574 C 49.839 205.133,49.475 205.853,48.875 206.481 C 48.344 207.037,47.910 207.654,47.910 207.854 C 47.910 209.879,47.109 213.875,46.487 214.952 C 46.078 215.659,45.645 216.916,45.524 217.745 C 45.403 218.574,44.923 219.804,44.458 220.478 C 43.681 221.603,43.591 222.075,43.370 226.206 C 43.051 232.157,42.857 233.357,41.962 234.900 C 41.349 235.958,41.172 236.854,41.005 239.723 C 40.893 241.662,40.585 244.550,40.322 246.141 C 39.561 250.733,39.816 279.314,40.657 283.697 C 41.186 286.450,41.376 286.929,42.174 287.497 C 42.676 287.854,43.087 288.301,43.087 288.489 C 43.087 288.916,46.151 291.961,46.581 291.961 C 46.754 291.961,47.322 292.320,47.843 292.758 C 48.364 293.197,49.627 293.773,50.650 294.040 C 51.673 294.306,52.863 294.780,53.294 295.092 C 53.725 295.404,54.495 295.892,55.004 296.177 C 56.017 296.743,58.842 299.742,58.842 300.251 C 58.842 300.806,61.492 303.165,62.355 303.379 C 62.810 303.492,63.473 303.849,63.826 304.172 C 66.233 306.368,74.068 306.364,76.057 304.167 C 76.371 303.820,76.820 303.537,77.056 303.537 C 77.616 303.537,78.778 302.535,78.778 302.053 C 78.778 301.846,78.999 301.592,79.269 301.488 C 79.539 301.385,80.056 300.609,80.417 299.766 C 80.779 298.922,81.273 298.121,81.514 297.986 C 81.756 297.851,82.274 297.097,82.666 296.312 C 83.724 294.193,82.692 294.275,111.161 294.039 C 128.386 293.895,137.572 293.704,138.424 293.469 C 139.226 293.249,145.893 293.033,156.109 292.895 C 165.129 292.773,180.938 292.498,191.242 292.284 C 213.092 291.829,210.826 291.540,214.640 295.267 C 220.206 300.708,220.763 300.946,227.974 300.955 C 233.882 300.963,236.321 300.253,237.839 298.086 C 238.076 297.748,238.702 297.038,239.231 296.509 C 239.760 295.981,240.193 295.342,240.193 295.091 C 240.193 294.839,240.498 294.358,240.870 294.021 C 241.243 293.684,241.818 292.878,242.149 292.230 C 242.779 290.995,244.292 289.711,245.116 289.711 C 245.906 289.711,250.796 285.119,252.492 282.785 L 253.376 281.568 253.376 244.847 L 253.376 208.125 254.047 207.273 L 254.717 206.421 284.298 206.506 C 318.889 206.606,314.783 205.926,314.806 211.557 C 314.829 217.129,315.315 219.303,316.641 219.749 C 317.216 219.942,318.140 220.528,318.694 221.051 C 319.505 221.816,320.089 222.042,321.697 222.208 C 322.871 222.329,324.475 222.794,325.592 223.335 L 327.492 224.256 336.465 224.370 C 344.965 224.477,345.484 224.450,346.289 223.855 C 346.757 223.509,347.783 223.148,348.570 223.052 C 351.318 222.718,354.182 221.892,354.669 221.292 C 354.937 220.962,355.538 220.441,356.004 220.136 C 356.471 219.830,356.944 219.214,357.056 218.767 C 357.168 218.320,357.606 217.423,358.028 216.775 L 358.797 215.595 359.002 190.193 C 359.162 170.478,359.311 164.161,359.668 161.977 C 359.922 160.430,360.133 158.549,360.139 157.797 C 360.144 157.046,360.362 156.150,360.621 155.807 C 361.550 154.579,361.283 143.534,360.266 141.071 C 359.810 139.969,359.304 138.157,359.140 137.044 C 358.975 135.931,358.558 134.629,358.212 134.150 C 357.866 133.671,357.344 132.556,357.052 131.672 C 356.369 129.601,356.233 129.452,354.417 128.786 C 353.579 128.478,352.659 127.960,352.372 127.633 C 351.320 126.436,349.548 126.315,334.643 126.423 L 320.299 126.527 319.376 127.412 C 318.869 127.898,318.317 128.297,318.150 128.298 C 317.982 128.299,317.501 128.806,317.081 129.423 C 316.660 130.041,316.188 130.547,316.032 130.547 C 315.578 130.547,314.148 134.063,314.148 135.177 C 314.148 135.735,313.946 136.479,313.700 136.831 C 313.391 137.272,313.214 138.767,313.130 141.645 C 312.960 147.468,312.527 147.910,306.996 147.910 C 302.320 147.910,300.688 146.727,301.103 143.639 C 301.228 142.717,301.453 140.851,301.605 139.494 C 301.757 138.138,302.109 136.257,302.388 135.314 C 302.808 133.894,302.952 130.138,303.230 113.344 C 303.848 75.949,303.374 78.393,310.062 78.127 C 312.398 78.034,314.598 77.800,314.952 77.608 C 315.305 77.415,316.391 77.163,317.363 77.046 C 322.024 76.487,325.065 75.728,325.577 74.997 C 325.856 74.599,326.537 74.039,327.090 73.752 C 328.263 73.146,332.154 69.198,332.154 68.614 C 332.154 68.396,332.572 67.799,333.083 67.288 C 333.792 66.579,334.132 65.775,334.523 63.886 C 334.804 62.525,335.351 60.798,335.737 60.047 C 337.565 56.494,336.592 47.350,334.180 45.422 C 333.685 45.026,332.931 44.411,332.505 44.055 C 331.758 43.431,331.285 43.408,319.081 43.408 C 303.877 43.408,305.145 43.820,305.145 38.886 C 305.145 35.616,304.845 34.405,304.037 34.405 C 303.793 34.405,303.199 33.935,302.715 33.360 L 301.836 32.315 280.741 32.255 C 269.139 32.223,259.448 32.277,259.206 32.375 M291.603 40.537 C 294.072 41.066,294.272 41.570,292.657 43.187 L 291.312 44.534 287.537 44.750 C 285.461 44.868,280.885 45.136,277.368 45.344 C 266.999 45.958,263.452 44.780,266.943 41.883 C 268.869 40.284,286.052 39.346,291.603 40.537 M325.476 54.260 C 326.450 55.367,326.120 60.450,325.074 60.450 C 324.908 60.450,324.488 61.007,324.141 61.687 C 323.794 62.368,323.151 63.160,322.712 63.447 C 322.273 63.735,321.820 64.265,321.706 64.625 C 321.591 64.986,321.056 65.509,320.515 65.788 C 319.975 66.068,319.202 66.681,318.798 67.151 L 318.063 68.006 304.224 68.167 C 293.760 68.289,290.287 68.426,289.983 68.730 C 289.673 69.041,285.986 69.132,273.746 69.132 C 260.706 69.132,257.582 69.217,256.057 69.614 C 254.602 69.993,251.865 70.104,243.260 70.131 C 225.351 70.187,213.597 70.518,213.135 70.981 C 212.624 71.492,207.352 71.532,206.849 71.029 C 206.653 70.833,204.401 70.552,201.801 70.399 C 196.258 70.072,193.525 69.626,191.898 68.783 C 191.244 68.444,190.059 68.167,189.266 68.167 C 187.586 68.167,186.281 67.732,185.353 66.863 C 184.990 66.524,184.016 66.042,183.188 65.792 C 182.360 65.543,181.235 64.963,180.688 64.503 C 180.141 64.042,179.519 63.666,179.305 63.666 C 178.699 63.666,175.024 60.004,174.759 59.136 C 174.629 58.709,174.321 58.130,174.075 57.850 C 173.374 57.049,174.580 56.186,176.786 55.910 C 177.793 55.784,192.581 55.669,209.648 55.654 C 233.392 55.633,240.943 55.534,241.803 55.230 C 242.634 54.936,249.036 54.781,266.399 54.634 C 280.435 54.515,290.453 54.303,291.318 54.107 C 294.158 53.462,324.895 53.601,325.476 54.260 M293.308 79.690 C 294.589 81.063,294.606 81.113,294.406 82.906 C 294.295 83.907,294.122 86.608,294.021 88.907 C 293.910 91.471,293.661 93.482,293.378 94.109 C 292.999 94.951,292.854 100.000,292.563 122.566 C 292.237 147.805,292.164 150.039,291.657 150.490 C 291.354 150.759,290.849 151.653,290.534 152.476 C 289.433 155.360,287.824 155.953,281.190 155.919 C 272.861 155.877,269.614 154.751,268.957 151.678 C 268.836 151.109,268.572 150.441,268.371 150.193 C 267.717 149.387,266.458 85.153,267.036 82.074 C 267.430 79.971,268.459 79.421,271.994 79.421 C 273.694 79.421,275.590 79.267,276.208 79.078 C 277.537 78.672,285.148 78.186,289.171 78.251 L 292.008 78.296 293.308 79.690 M236.977 120.259 C 237.243 120.388,238.034 120.598,238.735 120.725 C 243.055 121.506,243.130 121.797,243.017 137.257 L 242.926 149.774 241.882 150.852 C 239.599 153.210,237.271 155.529,235.973 156.739 C 234.815 157.820,234.566 158.282,234.330 159.794 C 234.177 160.774,233.841 161.865,233.583 162.219 C 231.887 164.546,231.994 163.747,231.994 174.129 L 231.994 183.817 232.860 185.076 C 233.947 186.656,234.404 187.859,234.411 189.169 C 234.414 189.773,234.820 190.787,235.399 191.640 C 235.939 192.436,236.459 193.479,236.556 193.959 C 236.652 194.438,237.073 195.055,237.491 195.328 C 237.909 195.602,238.465 196.240,238.726 196.747 C 238.988 197.253,239.472 197.738,239.800 197.824 C 240.129 197.910,240.641 198.491,240.937 199.116 C 241.234 199.741,241.700 200.338,241.974 200.443 C 242.897 200.797,243.408 202.736,243.408 205.877 C 243.408 208.020,243.544 209.059,243.880 209.504 C 244.284 210.038,244.355 213.205,244.368 231.350 C 244.380 248.991,244.461 252.789,244.846 253.859 C 245.403 255.406,245.530 269.687,245.014 272.864 C 244.596 275.438,243.269 278.010,241.360 279.947 L 239.818 281.511 203.751 281.672 C 170.297 281.821,167.595 281.874,166.440 282.395 C 165.330 282.897,163.965 282.958,153.840 282.958 C 146.705 282.958,142.156 283.083,141.600 283.295 C 141.037 283.509,133.267 283.702,120.277 283.824 C 103.116 283.985,99.607 284.095,98.392 284.509 C 95.848 285.376,55.996 286.171,54.662 285.381 C 54.220 285.119,53.380 284.678,52.796 284.402 C 52.211 284.126,51.437 283.398,51.076 282.786 C 50.714 282.173,50.306 281.672,50.168 281.672 C 48.198 281.672,48.524 246.865,50.530 243.092 C 51.028 242.155,51.126 241.231,51.127 237.465 C 51.130 232.010,51.498 229.534,52.534 228.004 C 53.012 227.298,53.463 225.949,53.694 224.534 C 53.902 223.261,54.352 221.670,54.694 220.999 C 55.036 220.327,55.449 218.620,55.610 217.204 C 55.952 214.212,56.128 213.650,57.089 212.483 C 57.527 211.950,57.883 210.941,58.020 209.843 C 58.154 208.771,58.564 207.591,59.052 206.872 C 59.497 206.216,60.139 204.780,60.478 203.682 C 60.818 202.583,61.315 201.503,61.583 201.280 C 61.852 201.057,62.231 200.240,62.426 199.464 C 62.622 198.689,63.094 197.805,63.475 197.500 C 63.856 197.195,64.355 196.313,64.584 195.541 C 64.813 194.769,65.359 193.804,65.799 193.397 C 66.238 192.990,66.745 192.120,66.926 191.464 C 67.107 190.808,67.598 189.929,68.017 189.510 C 68.437 189.090,69.059 188.115,69.402 187.341 C 69.744 186.568,70.187 185.834,70.386 185.711 C 70.586 185.587,70.972 184.954,71.244 184.303 C 71.516 183.652,72.147 182.685,72.648 182.154 C 73.148 181.624,74.005 180.711,74.554 180.126 C 75.102 179.541,75.784 178.570,76.070 177.968 C 76.356 177.365,76.849 176.790,77.167 176.689 C 77.484 176.588,77.818 176.223,77.909 175.876 C 77.999 175.530,78.520 174.992,79.067 174.681 C 79.613 174.370,80.061 173.880,80.062 173.592 C 80.065 172.915,86.061 166.798,87.492 166.013 C 88.093 165.683,89.107 164.911,89.745 164.298 C 92.973 161.197,94.887 159.486,95.128 159.486 C 95.275 159.486,95.839 159.015,96.383 158.441 C 98.198 156.519,99.983 155.276,101.623 154.789 C 102.517 154.523,103.328 154.099,103.425 153.846 C 103.523 153.593,104.383 152.939,105.338 152.393 C 106.293 151.847,107.074 151.283,107.074 151.141 C 107.074 150.998,107.544 150.687,108.119 150.450 C 108.694 150.212,109.467 149.691,109.838 149.291 C 110.209 148.892,111.249 148.377,112.149 148.146 C 113.090 147.905,114.110 147.377,114.551 146.900 C 115.016 146.399,115.984 145.913,117.009 145.667 C 117.938 145.444,118.778 145.055,118.875 144.802 C 118.973 144.548,119.922 143.878,120.985 143.312 C 122.048 142.746,123.257 142.096,123.671 141.867 C 124.085 141.638,125.165 141.363,126.072 141.255 C 127.131 141.130,128.049 140.783,128.642 140.283 C 129.150 139.856,130.401 139.277,131.423 138.996 C 132.444 138.715,133.569 138.235,133.923 137.929 C 134.277 137.623,135.709 137.144,137.106 136.865 C 138.522 136.581,139.945 136.088,140.321 135.750 C 141.312 134.861,141.965 134.686,145.265 134.425 C 147.681 134.233,148.365 134.062,148.870 133.519 C 149.213 133.151,150.331 132.617,151.355 132.333 C 152.378 132.049,153.650 131.571,154.180 131.272 C 154.758 130.945,156.927 130.509,159.590 130.183 C 162.726 129.800,164.146 129.493,164.413 129.143 C 165.027 128.336,166.517 127.943,170.037 127.660 C 172.322 127.477,173.529 127.234,173.920 126.880 C 174.255 126.577,175.071 126.362,175.910 126.356 C 177.147 126.347,180.309 125.940,184.727 125.220 C 185.434 125.105,186.592 124.748,187.299 124.427 C 188.925 123.688,191.668 123.482,203.765 123.188 C 212.428 122.978,213.547 122.891,214.112 122.380 C 215.137 121.452,217.083 121.198,225.255 120.925 C 231.295 120.724,233.196 120.557,233.938 120.162 C 234.837 119.683,235.860 119.716,236.977 120.259 M345.235 135.618 C 345.788 136.012,346.452 136.334,346.710 136.334 C 347.418 136.334,348.874 137.593,348.876 138.207 C 348.876 138.503,349.148 139.191,349.479 139.734 C 350.482 141.377,350.889 144.721,350.671 149.518 C 350.562 151.905,350.354 158.850,350.207 164.952 C 349.992 173.969,349.845 176.286,349.422 177.331 C 348.975 178.439,348.901 180.408,348.889 191.524 C 348.871 207.806,349.579 206.518,341.763 204.483 C 339.813 203.975,332.293 204.119,329.508 204.717 L 327.007 205.255 326.205 204.501 L 325.402 203.746 325.402 195.842 C 325.402 191.206,325.261 187.473,325.062 186.815 C 323.846 182.799,323.452 180.782,323.276 177.653 C 323.141 175.272,322.884 173.695,322.488 172.830 C 321.035 169.647,321.080 144.389,322.544 141.989 C 322.877 141.443,323.149 140.464,323.150 139.812 C 323.152 138.083,323.661 137.016,324.672 136.625 C 325.162 136.435,325.972 136.075,326.473 135.825 C 327.016 135.553,328.443 135.358,330.010 135.342 C 331.455 135.326,333.360 135.193,334.244 135.045 C 337.615 134.484,344.118 134.823,345.235 135.618 M258.089 157.254 C 258.583 157.442,259.207 157.795,259.477 158.040 C 261.947 160.281,263.106 161.161,264.168 161.605 C 264.852 161.891,265.570 162.340,265.763 162.605 C 265.956 162.869,266.880 163.354,267.815 163.684 C 268.751 164.013,269.845 164.638,270.247 165.071 C 271.268 166.173,273.044 166.331,282.778 166.191 L 290.980 166.073 292.034 165.041 C 293.818 163.290,297.850 159.567,299.035 158.574 C 301.715 156.328,309.221 156.192,311.448 158.349 C 312.715 159.576,312.794 160.157,313.024 169.936 C 313.197 177.322,313.356 179.749,313.699 180.294 C 314.344 181.318,314.271 183.700,313.567 184.568 L 312.987 185.285 307.255 184.880 C 294.033 183.945,292.397 184.660,292.754 191.223 C 293.033 196.341,294.918 195.874,274.718 195.690 C 256.604 195.524,253.396 195.386,251.929 194.702 C 251.399 194.455,250.709 194.175,250.396 194.080 C 250.083 193.984,249.524 193.392,249.153 192.765 C 248.783 192.137,248.197 191.472,247.852 191.287 C 247.507 191.103,246.965 190.345,246.647 189.603 C 246.329 188.861,245.839 188.064,245.559 187.831 C 245.278 187.599,244.879 186.877,244.671 186.228 C 244.464 185.579,243.891 184.671,243.399 184.210 C 241.369 182.307,241.700 163.987,243.765 163.987 C 243.895 163.987,244.159 163.511,244.351 162.930 C 244.548 162.332,245.118 161.625,245.662 161.304 C 246.191 160.991,246.624 160.542,246.624 160.306 C 246.624 160.070,247.190 159.650,247.882 159.373 C 248.574 159.097,249.345 158.577,249.596 158.219 C 250.393 157.082,255.970 156.448,258.089 157.254 M144.051 166.240 C 143.609 166.360,141.162 166.561,138.613 166.686 C 133.982 166.914,133.116 167.113,132.092 168.178 C 131.771 168.512,130.581 168.911,129.198 169.148 C 127.627 169.417,126.582 169.791,126.045 170.276 C 125.603 170.675,124.590 171.184,123.794 171.407 C 122.998 171.630,121.986 172.139,121.543 172.539 C 121.101 172.939,120.342 173.349,119.855 173.450 C 119.369 173.551,118.619 173.706,118.190 173.795 C 117.760 173.883,117.167 174.197,116.872 174.492 C 115.530 175.834,112.732 177.776,111.415 178.279 C 110.619 178.583,109.968 178.972,109.968 179.144 C 109.968 179.316,109.179 179.818,108.214 180.260 C 107.192 180.728,105.575 181.927,104.336 183.136 C 103.167 184.276,102.055 185.209,101.864 185.209 C 101.363 185.209,94.534 192.292,94.534 192.812 C 94.534 193.051,94.411 193.248,94.261 193.248 C 93.770 193.248,92.701 194.357,92.462 195.116 C 92.333 195.525,91.903 196.007,91.506 196.188 C 91.110 196.368,90.609 197.003,90.394 197.598 C 90.179 198.193,89.749 198.760,89.439 198.859 C 89.128 198.957,88.688 199.553,88.460 200.183 C 88.232 200.813,87.651 201.789,87.168 202.352 C 86.685 202.916,86.106 203.836,85.881 204.398 C 85.656 204.960,85.261 205.501,85.004 205.599 C 84.337 205.855,83.700 207.568,83.439 209.807 C 83.296 211.031,82.925 212.165,82.423 212.908 C 81.988 213.552,81.443 214.794,81.213 215.666 C 80.983 216.539,80.565 217.603,80.284 218.032 C 79.330 219.488,79.028 223.232,79.147 232.144 L 79.260 240.702 80.131 242.379 C 80.609 243.302,81.096 244.565,81.213 245.187 C 81.330 245.809,81.837 246.707,82.340 247.182 C 82.872 247.684,83.417 248.678,83.643 249.558 C 83.913 250.611,84.260 251.176,84.785 251.415 C 85.200 251.604,85.706 252.123,85.908 252.568 C 86.111 253.012,86.482 253.376,86.732 253.376 C 86.983 253.376,87.645 253.833,88.203 254.391 C 88.761 254.950,89.914 255.652,90.766 255.951 C 91.617 256.251,92.679 256.791,93.126 257.150 C 93.572 257.509,94.779 257.969,95.806 258.171 C 97.052 258.416,97.982 258.830,98.596 259.414 L 99.518 260.289 106.419 260.398 C 114.306 260.523,116.370 260.347,117.388 259.464 C 118.276 258.694,119.704 258.317,122.830 258.026 C 124.430 257.878,125.674 257.554,126.527 257.065 C 127.235 256.659,128.812 256.176,130.032 255.991 C 131.641 255.747,132.481 255.437,133.087 254.864 C 133.646 254.334,134.614 253.943,136.013 253.681 C 137.300 253.440,138.412 253.012,138.907 252.566 C 139.349 252.168,140.210 251.590,140.820 251.281 C 141.431 250.973,142.123 250.528,142.359 250.292 C 142.595 250.056,143.729 249.581,144.879 249.236 C 146.227 248.831,147.197 248.319,147.609 247.796 C 147.961 247.349,148.570 246.883,148.963 246.760 C 149.357 246.637,150.010 246.208,150.416 245.807 C 150.821 245.405,151.617 244.852,152.184 244.577 C 152.751 244.302,153.631 243.714,154.139 243.270 C 154.647 242.826,155.368 242.365,155.740 242.247 C 156.113 242.129,156.814 241.654,157.298 241.193 C 157.782 240.731,158.784 239.847,159.525 239.228 C 161.815 237.314,165.473 233.553,166.221 232.342 C 166.613 231.708,167.063 231.190,167.221 231.190 C 167.378 231.190,167.735 230.749,168.014 230.211 C 168.292 229.673,168.838 229.110,169.228 228.961 C 169.689 228.783,170.136 228.117,170.512 227.045 C 170.828 226.141,171.209 225.402,171.357 225.402 C 172.001 225.402,174.689 221.763,174.971 220.511 C 175.134 219.782,175.675 218.723,176.171 218.157 C 176.692 217.564,177.165 216.564,177.288 215.795 C 177.405 215.061,177.802 214.159,178.171 213.791 C 178.571 213.391,179.092 212.068,179.464 210.512 C 179.806 209.077,180.335 207.630,180.638 207.295 C 181.570 206.267,181.643 192.028,180.724 190.541 C 180.361 189.954,180.062 189.202,180.059 188.869 C 180.048 187.474,178.756 183.258,178.156 182.658 C 177.799 182.301,177.284 181.476,177.012 180.824 C 176.386 179.325,171.359 174.466,169.505 173.568 C 168.737 173.197,168.041 172.713,167.957 172.495 C 167.873 172.276,167.126 171.845,166.298 171.537 C 165.469 171.229,164.429 170.646,163.987 170.242 C 163.518 169.813,162.550 169.414,161.665 169.284 C 160.755 169.151,159.819 168.758,159.329 168.304 C 158.167 167.227,156.737 166.936,151.447 166.704 C 148.883 166.591,146.350 166.392,145.820 166.260 C 145.289 166.129,144.494 166.120,144.051 166.240 M151.434 176.036 C 152.274 176.618,153.471 177.021,155.192 177.300 C 157.828 177.728,159.522 178.613,162.139 180.927 C 162.803 181.513,163.526 182.000,163.747 182.007 C 164.394 182.029,166.502 184.051,166.860 184.993 C 167.041 185.470,167.554 186.026,168.000 186.229 C 168.446 186.432,168.810 186.704,168.810 186.832 C 168.810 186.961,169.321 187.809,169.945 188.716 L 171.081 190.366 171.272 194.942 C 171.503 200.469,171.052 204.768,170.099 206.106 C 169.736 206.615,169.286 207.874,169.099 208.902 C 168.857 210.232,168.488 211.055,167.820 211.752 C 167.304 212.291,166.881 213.041,166.881 213.419 C 166.881 214.523,166.283 215.788,165.452 216.442 C 165.027 216.776,164.585 217.482,164.469 218.010 C 164.353 218.539,164.130 218.971,163.975 218.971 C 163.820 218.971,163.300 219.658,162.819 220.498 C 161.991 221.948,161.610 222.411,159.057 225.080 C 158.465 225.699,157.888 226.462,157.776 226.776 C 157.663 227.089,157.314 227.438,157.001 227.551 C 156.687 227.663,155.965 228.203,155.396 228.749 C 154.341 229.762,153.065 230.881,150.482 233.061 C 147.341 235.712,146.054 236.656,145.584 236.656 C 145.314 236.656,144.706 237.162,144.234 237.781 C 143.762 238.400,143.129 238.907,142.828 238.907 C 142.527 238.907,141.569 239.413,140.698 240.032 C 139.827 240.651,138.856 241.158,138.540 241.158 C 138.223 241.158,137.477 241.586,136.881 242.109 C 136.278 242.638,135.126 243.211,134.284 243.400 C 133.451 243.586,132.221 244.102,131.550 244.547 C 130.878 244.991,129.487 245.491,128.458 245.659 C 127.354 245.839,126.299 246.234,125.885 246.623 C 125.030 247.426,123.443 247.910,121.663 247.910 C 120.438 247.910,119.397 248.159,115.457 249.393 C 114.427 249.716,112.162 249.836,107.258 249.829 L 100.482 249.819 98.561 248.865 C 97.505 248.340,96.473 247.910,96.269 247.910 C 96.065 247.910,95.301 247.331,94.572 246.624 C 93.843 245.916,93.105 245.338,92.931 245.338 C 92.757 245.338,92.234 244.578,91.768 243.650 C 91.302 242.721,90.773 241.778,90.592 241.553 C 90.412 241.328,89.932 240.194,89.526 239.031 C 89.120 237.869,88.539 236.736,88.236 236.515 C 86.882 235.524,87.108 226.777,88.532 225.085 C 88.993 224.537,89.444 223.377,89.677 222.139 C 89.888 221.016,90.184 219.735,90.334 219.293 C 90.484 218.850,90.926 217.331,91.315 215.916 C 91.704 214.502,92.422 212.765,92.911 212.058 C 93.399 211.350,93.975 210.231,94.190 209.570 C 94.405 208.910,94.718 208.284,94.885 208.181 C 95.052 208.078,95.568 207.244,96.032 206.328 C 96.496 205.412,97.145 204.473,97.475 204.241 C 97.805 204.009,98.291 203.400,98.556 202.888 C 98.821 202.375,99.415 201.552,99.875 201.058 C 101.423 199.397,102.136 198.559,103.080 197.290 C 103.597 196.596,104.598 195.655,105.305 195.200 C 106.013 194.745,106.953 194.049,107.395 193.652 C 107.838 193.256,108.681 192.496,109.269 191.964 C 109.857 191.432,110.540 190.997,110.787 190.997 C 111.033 190.997,111.565 190.548,111.968 189.999 C 112.371 189.451,113.380 188.657,114.210 188.235 C 115.040 187.813,115.836 187.268,115.979 187.025 C 116.121 186.781,116.683 186.355,117.226 186.078 C 117.769 185.800,118.403 185.345,118.635 185.066 C 118.867 184.787,119.722 184.264,120.537 183.903 C 121.351 183.543,122.309 182.985,122.665 182.663 C 123.021 182.341,123.707 181.985,124.190 181.870 C 124.673 181.756,125.542 181.251,126.120 180.749 C 126.698 180.246,127.706 179.736,128.360 179.616 C 129.043 179.491,129.917 179.009,130.413 178.483 C 131.175 177.676,131.586 177.540,133.880 177.340 C 136.565 177.106,137.321 176.861,138.424 175.868 C 139.883 174.555,149.476 174.679,151.434 176.036 M134.887 184.794 C 132.644 185.102,131.610 185.540,131.247 186.337 C 131.044 186.783,130.521 187.310,130.085 187.509 C 129.649 187.707,129.157 188.248,128.991 188.710 C 128.826 189.172,127.706 190.532,126.503 191.733 L 124.316 193.916 123.808 198.682 C 123.528 201.303,123.397 203.794,123.515 204.216 C 123.633 204.638,123.745 205.607,123.762 206.369 C 123.807 208.296,124.440 210.632,124.973 210.837 C 125.218 210.931,125.807 211.678,126.281 212.497 C 127.381 214.397,130.382 217.234,131.801 217.717 C 132.403 217.921,133.488 218.506,134.213 219.016 C 136.540 220.655,145.205 220.633,147.246 218.985 C 148.236 218.185,149.047 217.796,150.272 217.533 C 150.775 217.424,151.571 216.926,152.040 216.425 C 152.510 215.924,153.200 215.357,153.574 215.165 C 154.022 214.934,154.325 214.378,154.458 213.541 C 154.582 212.771,155.020 211.909,155.569 211.359 C 156.067 210.859,156.650 209.948,156.863 209.334 C 157.076 208.720,157.626 207.826,158.084 207.348 C 158.901 206.496,158.919 206.378,158.961 201.679 L 159.003 196.881 157.958 196.000 C 157.383 195.516,156.913 194.924,156.913 194.684 C 156.913 194.444,156.410 193.699,155.795 193.027 C 155.179 192.355,154.518 191.426,154.326 190.961 C 154.133 190.496,153.622 189.954,153.189 189.757 C 152.756 189.560,152.241 189.044,152.044 188.612 C 151.846 188.179,151.270 187.653,150.762 187.443 C 150.255 187.232,149.412 186.623,148.889 186.088 C 147.652 184.823,139.905 184.107,134.887 184.794 M314.256 191.696 C 315.005 192.882,313.439 193.849,312.535 192.759 C 312.203 192.359,312.236 192.154,312.714 191.626 C 313.355 190.917,313.777 190.936,314.256 191.696 M142.041 194.032 C 142.553 194.464,143.541 194.997,144.236 195.217 C 147.946 196.394,149.807 201.912,147.594 205.177 C 147.067 205.955,146.628 206.736,146.619 206.913 C 146.414 210.886,134.405 210.734,134.405 206.759 C 134.405 206.229,134.040 205.403,133.545 204.814 C 132.483 203.553,132.174 200.935,132.937 199.678 C 133.206 199.236,133.755 198.193,134.157 197.360 C 134.704 196.225,135.251 195.654,136.334 195.082 C 137.130 194.663,138.215 194.079,138.746 193.786 C 140.078 193.048,140.949 193.113,142.041 194.032 M105.788 215.974 C 104.815 216.232,103.658 216.526,103.215 216.628 C 102.773 216.730,102.294 217.014,102.149 217.259 C 102.005 217.503,101.330 218.055,100.651 218.484 C 99.773 219.038,99.349 219.572,99.190 220.324 C 99.067 220.906,98.656 221.889,98.277 222.508 C 97.370 223.990,97.245 230.403,98.103 231.397 C 98.387 231.725,98.965 232.645,99.390 233.441 C 99.814 234.236,100.429 235.087,100.757 235.331 C 101.086 235.576,101.558 236.263,101.807 236.859 C 102.176 237.742,102.435 237.942,103.209 237.942 C 103.731 237.942,104.838 238.173,105.669 238.455 C 109.892 239.889,118.971 237.394,118.971 234.799 C 118.971 234.608,119.338 234.164,119.785 233.811 C 120.415 233.316,120.702 232.635,121.052 230.808 C 121.301 229.509,121.729 228.014,122.004 227.486 C 122.650 226.247,122.636 225.793,121.910 224.433 C 121.581 223.816,121.205 222.950,121.074 222.508 C 119.691 217.841,111.674 214.414,105.788 215.974 M110.218 225.259 C 111.120 225.891,111.113 226.018,110.113 227.096 C 109.154 228.130,108.188 227.877,107.843 226.502 C 107.493 225.108,108.929 224.357,110.218 225.259 M233.678 250.524 C 233.062 250.757,232.537 251.394,231.966 252.602 C 231.512 253.560,230.863 254.493,230.523 254.675 C 230.182 254.857,229.902 255.327,229.900 255.719 C 229.898 256.110,229.681 257.141,229.418 258.009 C 228.363 261.488,229.316 264.594,231.463 264.673 C 234.087 264.770,235.541 264.554,236.075 263.987 C 236.375 263.670,236.772 263.359,236.958 263.296 C 237.144 263.234,237.573 262.426,237.911 261.501 C 238.249 260.576,238.843 259.305,239.231 258.677 L 239.937 257.535 239.112 255.857 C 238.659 254.935,238.055 253.348,237.770 252.331 C 237.479 251.290,237.070 250.482,236.834 250.482 C 236.603 250.482,235.999 250.416,235.490 250.335 C 234.982 250.254,234.166 250.339,233.678 250.524 M207.395 263.655 L 195.016 263.826 192.199 264.750 C 188.169 266.070,187.313 267.170,187.305 271.041 L 187.299 273.794 189.068 274.025 C 193.314 274.578,196.705 274.770,198.214 274.541 C 199.108 274.406,203.423 274.169,207.804 274.014 C 215.299 273.749,215.813 273.692,216.503 273.044 C 217.303 272.292,219.796 271.704,222.186 271.704 C 223.758 271.704,225.521 270.667,226.624 269.092 C 227.172 268.309,226.886 263.991,226.259 263.592 C 226.053 263.461,224.510 263.383,222.830 263.419 C 221.150 263.454,214.204 263.560,207.395 263.655 " stroke="none" fill="#c7d74c" fill-rule="evenodd"></path></g></svg>