<svg id="svg" version="1.1" xmlns="http://www.w3.org/2000/svg" xmlns:xlink="http://www.w3.org/1999/xlink" width="400" height="384.9624060150376" viewBox="0, 0, 400,384.9624060150376"><g id="svgg"><path id="path0" d="M54.668 27.584 C 54.139 27.664,52.970 27.824,52.071 27.940 C 51.154 28.058,49.950 28.560,49.326 29.085 C 48.715 29.599,47.198 30.402,45.956 30.870 C 44.713 31.337,43.314 32.119,42.848 32.607 C 42.382 33.095,41.812 33.494,41.582 33.494 C 40.709 33.494,33.494 40.799,33.494 41.683 C 33.494 41.969,33.166 42.555,32.765 42.986 C 31.786 44.036,30.971 45.665,30.444 47.624 C 30.205 48.515,29.553 49.784,28.997 50.446 C 27.455 52.278,27.385 54.219,27.358 96.011 C 27.335 131.835,27.374 134.113,28.008 134.594 C 29.260 135.545,61.840 135.347,62.354 134.385 C 62.620 133.888,62.753 122.091,62.753 98.834 C 62.753 65.602,62.785 63.998,63.457 63.390 C 64.101 62.807,67.112 62.753,98.857 62.753 C 124.368 62.753,133.813 62.634,134.534 62.306 L 135.515 61.859 135.515 45.234 C 135.515 29.616,135.472 28.570,134.811 27.971 C 134.157 27.379,58.451 27.013,54.668 27.584 M247.779 27.943 C 247.474 28.738,247.474 61.348,247.779 62.144 C 247.990 62.693,251.481 62.753,283.339 62.753 C 318.494 62.753,318.669 62.756,319.679 63.551 L 320.693 64.348 320.693 99.181 L 320.693 134.014 322.028 134.572 C 323.999 135.396,352.809 135.394,354.780 134.571 L 356.119 134.011 356.019 96.168 C 355.929 61.957,355.856 58.048,355.256 55.438 C 354.891 53.850,354.488 51.707,354.359 50.675 C 354.197 49.371,353.833 48.529,353.166 47.910 C 352.627 47.411,351.973 46.137,351.675 45.008 C 351.358 43.807,350.710 42.580,350.067 41.965 C 349.474 41.398,347.628 39.430,345.965 37.591 C 344.301 35.752,342.179 33.802,341.249 33.257 C 340.318 32.712,339.557 32.130,339.557 31.964 C 339.557 31.663,338.804 31.343,335.900 30.413 C 335.053 30.142,333.898 29.534,333.333 29.063 C 331.373 27.429,328.834 27.334,287.225 27.334 C 251.824 27.334,247.990 27.393,247.779 27.943 M183.061 118.875 C 182.315 119.338,180.133 119.831,176.901 120.264 C 169.597 121.245,169.440 121.282,168.242 122.289 C 167.518 122.899,166.078 123.426,164.003 123.842 C 161.536 124.337,160.735 124.666,160.269 125.377 C 159.870 125.986,158.802 126.547,156.998 127.095 C 155.525 127.542,154.225 128.155,154.109 128.456 C 153.994 128.757,153.184 129.367,152.311 129.812 C 151.437 130.257,150.493 130.946,150.214 131.343 C 149.934 131.739,148.895 132.482,147.904 132.993 C 146.913 133.503,145.611 134.453,145.011 135.103 C 144.410 135.753,143.734 136.285,143.508 136.285 C 143.282 136.285,142.452 136.935,141.665 137.729 C 139.513 139.899,139.305 140.105,137.536 141.837 C 136.636 142.718,135.900 143.649,135.900 143.906 C 135.900 144.164,135.450 144.763,134.899 145.238 C 134.349 145.713,133.486 146.913,132.981 147.904 C 132.477 148.895,131.731 149.939,131.324 150.224 C 130.585 150.742,129.854 152.023,127.193 157.457 C 126.416 159.044,125.538 160.520,125.241 160.736 C 124.945 160.953,124.355 162.513,123.929 164.203 C 123.504 165.893,122.798 167.773,122.361 168.380 C 121.860 169.075,121.378 170.718,121.060 172.808 C 120.388 177.239,119.733 181.478,119.358 183.831 C 119.189 184.889,118.857 186.361,118.621 187.100 C 118.022 188.971,118.113 193.916,118.779 195.765 C 119.084 196.612,119.337 197.880,119.340 198.582 C 119.343 199.284,119.510 200.166,119.711 200.541 C 119.912 200.917,120.262 203.115,120.488 205.425 C 121.137 212.054,121.310 212.884,122.273 214.029 C 122.820 214.680,123.470 216.351,123.910 218.245 C 124.423 220.445,124.921 221.643,125.576 222.250 C 126.090 222.727,126.747 223.979,127.035 225.033 C 127.324 226.087,128.050 227.518,128.650 228.214 C 129.250 228.909,129.740 229.710,129.740 229.994 C 129.740 230.278,130.361 231.181,131.120 232.002 C 131.879 232.822,132.832 234.138,133.239 234.925 C 133.645 235.712,134.310 236.533,134.715 236.750 C 135.121 236.967,135.648 237.735,135.886 238.456 C 136.167 239.307,136.700 239.925,137.407 240.217 C 138.005 240.465,138.683 241.081,138.913 241.586 C 139.143 242.091,139.846 242.770,140.476 243.096 C 141.105 243.421,141.733 244.042,141.871 244.476 C 142.008 244.910,142.795 245.711,143.618 246.256 C 144.441 246.801,145.219 247.574,145.346 247.974 C 145.473 248.374,145.898 248.701,146.291 248.701 C 146.683 248.701,147.754 249.302,148.671 250.037 C 149.587 250.772,150.984 251.727,151.775 252.159 C 152.566 252.592,153.486 253.361,153.819 253.870 C 154.222 254.485,155.075 254.950,156.369 255.261 C 157.438 255.517,158.880 256.225,159.573 256.834 C 160.266 257.442,161.169 257.940,161.579 257.940 C 162.957 257.940,166.352 259.132,166.566 259.691 C 166.819 260.350,170.155 261.405,171.986 261.405 C 173.948 261.405,178.613 262.559,179.951 263.375 C 181.028 264.032,182.030 264.097,190.995 264.099 L 200.855 264.100 204.925 262.753 C 207.163 262.012,209.517 261.405,210.157 261.405 C 212.249 261.405,215.382 260.567,216.244 259.777 C 216.708 259.351,218.181 258.753,219.516 258.448 C 220.969 258.116,222.501 257.451,223.330 256.790 C 224.092 256.183,225.373 255.564,226.177 255.413 C 227.039 255.251,228.205 254.604,229.023 253.832 C 229.785 253.113,231.057 252.331,231.849 252.094 C 232.642 251.856,233.554 251.259,233.877 250.767 C 234.200 250.274,234.985 249.602,235.623 249.272 C 236.932 248.595,238.354 247.321,243.353 242.348 C 248.350 237.379,248.969 236.692,249.482 235.557 C 249.734 234.998,250.321 234.368,250.787 234.155 C 251.286 233.928,251.819 233.152,252.084 232.267 C 252.331 231.441,253.129 230.096,253.856 229.278 C 254.584 228.461,255.390 227.039,255.647 226.119 C 255.905 225.199,256.229 224.447,256.367 224.447 C 256.866 224.447,257.937 222.192,258.347 220.276 C 258.578 219.201,259.251 217.713,259.842 216.968 C 260.646 215.957,260.986 215.002,261.186 213.197 C 261.562 209.807,262.145 207.602,263.216 205.526 L 264.139 203.738 264.023 190.705 L 263.908 177.671 262.873 175.938 C 262.127 174.690,261.712 173.238,261.385 170.741 C 260.914 167.139,260.629 166.303,259.433 165.019 C 259.041 164.598,258.616 163.635,258.489 162.878 C 258.115 160.649,257.960 160.279,257.001 159.320 C 256.499 158.818,255.801 157.418,255.450 156.209 C 255.008 154.689,254.480 153.776,253.739 153.248 C 253.149 152.828,252.366 151.696,251.998 150.733 C 251.630 149.769,250.982 148.795,250.559 148.569 C 250.137 148.343,249.552 147.587,249.261 146.890 C 248.970 146.193,246.429 143.346,243.615 140.564 C 236.448 133.478,236.328 133.369,234.984 132.688 C 234.322 132.353,233.677 131.813,233.553 131.487 C 233.428 131.162,232.411 130.462,231.292 129.932 C 230.174 129.401,228.670 128.535,227.951 128.006 C 227.231 127.478,226.313 127.045,225.910 127.045 C 224.943 127.045,223.272 126.162,222.385 125.182 C 221.993 124.748,221.170 124.298,220.557 124.180 C 219.944 124.062,218.918 123.864,218.278 123.740 C 217.637 123.616,216.624 123.103,216.025 122.599 C 214.789 121.559,213.074 121.108,208.010 120.490 C 206.064 120.253,203.552 119.688,202.428 119.237 C 199.431 118.031,184.855 117.759,183.061 118.875 M199.083 154.485 C 200.245 155.035,202.388 155.693,203.843 155.946 C 205.716 156.272,206.763 156.680,207.424 157.341 C 207.937 157.854,209.249 158.700,210.338 159.220 C 213.351 160.657,214.672 161.641,217.534 164.581 C 218.977 166.064,220.668 167.796,221.293 168.431 C 222.456 169.614,223.677 171.697,223.677 172.500 C 223.677 172.747,224.185 173.528,224.806 174.235 C 225.559 175.093,226.022 176.135,226.198 177.366 C 226.344 178.381,226.951 179.960,227.548 180.877 C 228.942 183.016,229.195 185.125,229.005 193.001 L 228.854 199.272 227.647 201.094 C 226.911 202.205,226.335 203.675,226.173 204.860 C 225.999 206.122,225.545 207.230,224.877 208.021 C 224.311 208.691,223.617 209.933,223.335 210.780 C 222.882 212.137,222.239 212.951,219.319 215.858 C 218.935 216.241,218.023 217.161,217.293 217.902 C 216.563 218.643,215.777 219.423,215.545 219.634 C 215.314 219.846,214.493 220.649,213.722 221.419 C 212.951 222.189,211.627 223.036,210.780 223.303 C 209.933 223.569,208.699 224.257,208.038 224.831 C 207.138 225.614,206.246 225.943,204.485 226.142 C 202.789 226.334,201.808 226.682,200.966 227.390 C 198.531 229.439,186.314 229.630,182.954 227.672 C 182.049 227.144,180.229 226.480,178.912 226.197 C 176.017 225.575,175.168 225.251,175.168 224.769 C 175.168 224.568,174.172 223.964,172.955 223.426 C 169.587 221.938,162.332 215.421,161.341 212.993 C 161.060 212.305,160.697 211.742,160.535 211.742 C 160.372 211.742,159.857 210.919,159.390 209.913 C 158.923 208.908,158.122 207.640,157.610 207.096 C 156.916 206.359,156.492 205.135,155.943 202.284 C 155.537 200.181,154.946 197.940,154.628 197.305 C 152.906 193.864,153.081 187.707,155.003 184.092 C 155.507 183.144,155.919 181.743,155.919 180.980 C 155.919 178.986,156.501 177.236,157.595 175.935 C 158.119 175.312,158.757 174.149,159.012 173.350 C 159.268 172.550,159.869 171.463,160.349 170.934 C 160.829 170.404,161.485 169.451,161.807 168.816 C 162.942 166.578,170.104 160.237,172.739 159.137 C 173.546 158.800,174.775 158.024,175.471 157.414 C 176.166 156.804,176.946 156.298,177.203 156.291 C 179.083 156.237,183.786 155.097,184.154 154.606 C 185.443 152.888,195.533 152.806,199.083 154.485 M27.987 247.712 C 27.323 248.215,27.298 250.063,27.431 288.797 C 27.574 330.714,27.611 331.690,29.101 332.808 C 29.392 333.026,30.084 334.326,30.638 335.697 C 31.192 337.068,32.061 338.683,32.569 339.288 C 33.078 339.892,33.494 340.625,33.494 340.916 C 33.494 341.477,36.384 344.485,38.090 345.701 C 38.648 346.097,39.346 346.874,39.642 347.427 C 39.938 347.980,40.584 348.534,41.078 348.658 C 41.572 348.782,42.323 349.325,42.748 349.865 C 43.185 350.421,44.450 351.161,45.662 351.570 C 46.840 351.968,48.150 352.616,48.574 353.010 C 48.997 353.404,50.411 353.917,51.717 354.149 C 53.022 354.381,55.736 354.870,57.748 355.235 C 61.011 355.828,65.311 355.911,97.643 356.009 L 133.881 356.119 134.602 355.057 C 135.711 353.421,135.714 323.387,134.604 321.752 L 133.886 320.693 99.117 320.693 L 64.348 320.693 63.551 319.679 C 62.757 318.669,62.753 318.490,62.753 283.657 C 62.753 260.262,62.620 248.403,62.354 247.905 C 61.832 246.931,29.259 246.747,27.987 247.712 M321.944 247.735 L 320.693 248.279 320.693 282.902 C 320.693 320.300,320.762 319.025,318.689 320.175 C 317.992 320.562,310.433 320.669,282.916 320.679 L 248.027 320.693 247.786 321.896 C 247.471 323.473,247.473 353.343,247.789 354.921 L 248.032 356.137 285.229 356.016 C 312.418 355.927,322.788 355.773,323.773 355.442 C 324.514 355.193,326.910 354.810,329.098 354.589 C 332.548 354.242,333.290 354.036,334.681 353.040 C 335.563 352.408,336.856 351.778,337.553 351.640 C 338.251 351.502,339.357 350.821,340.011 350.128 C 340.665 349.435,341.840 348.579,342.623 348.226 C 343.405 347.873,344.341 347.084,344.702 346.472 C 345.064 345.860,345.845 345.073,346.438 344.722 C 347.031 344.372,347.844 343.477,348.244 342.734 C 348.644 341.990,349.457 340.928,350.049 340.373 C 350.641 339.819,351.375 338.531,351.680 337.511 C 351.985 336.492,352.667 335.144,353.196 334.516 C 353.724 333.889,354.248 332.730,354.360 331.942 C 354.473 331.155,354.917 328.604,355.347 326.275 C 356.100 322.204,356.130 320.614,356.121 285.158 L 356.112 248.276 354.777 247.719 C 352.839 246.909,323.811 246.923,321.944 247.735 " stroke="none" fill="#24b9e7" fill-rule="evenodd"></path></g></svg>