<svg id="svg" version="1.1" xmlns="http://www.w3.org/2000/svg" xmlns:xlink="http://www.w3.org/1999/xlink" width="400" height="354.54545454545456" viewBox="0, 0, 400,354.54545454545456"><g id="svgg"><path id="path0" d="M198.404 19.691 C 197.624 19.972,196.617 20.204,196.166 20.207 C 195.272 20.213,192.037 21.130,191.051 21.657 C 190.712 21.838,190.262 21.986,190.051 21.986 C 189.406 21.986,182.365 25.522,181.904 26.076 C 181.667 26.362,181.308 26.596,181.106 26.596 C 180.814 26.596,177.374 29.025,176.589 29.786 C 176.488 29.884,174.780 31.536,172.792 33.456 L 169.180 36.947 167.657 36.696 C 166.820 36.558,165.975 36.322,165.780 36.171 C 163.583 34.476,147.824 34.464,143.794 36.154 C 136.942 39.029,126.596 46.882,126.596 49.208 C 126.596 49.355,126.237 49.881,125.798 50.376 C 124.876 51.416,124.519 52.013,123.004 55.050 C 121.843 57.379,121.744 57.611,120.706 60.461 C 119.902 62.668,119.722 77.311,120.490 78.078 C 120.727 78.316,120.922 78.734,120.922 79.007 C 120.922 79.712,123.320 84.989,124.575 87.044 C 126.558 90.294,133.414 97.872,134.369 97.872 C 134.552 97.872,134.919 98.072,135.185 98.316 C 135.891 98.963,136.967 99.636,137.677 99.874 C 138.019 99.989,138.298 100.224,138.298 100.396 C 138.298 100.568,138.597 100.709,138.964 100.709 C 139.330 100.709,139.828 100.949,140.071 101.241 C 140.314 101.534,140.734 101.773,141.006 101.773 C 141.277 101.773,141.776 101.913,142.115 102.084 C 143.768 102.920,145.491 103.549,146.200 103.575 C 146.632 103.590,147.624 103.951,148.404 104.375 L 149.823 105.147 150.101 116.951 L 150.379 128.755 152.046 130.901 C 153.976 133.386,154.985 134.013,158.156 134.698 C 161.228 135.362,243.918 135.724,249.057 135.096 C 250.844 134.878,253.097 134.608,254.065 134.496 C 255.594 134.319,256.068 134.049,257.677 132.440 C 261.164 128.954,260.990 129.762,260.992 117.000 C 260.993 108.280,261.096 105.668,261.462 105.168 C 261.939 104.515,264.219 103.561,265.325 103.551 C 266.148 103.544,272.013 100.898,275.020 99.176 C 276.043 98.591,281.558 93.961,281.573 93.675 C 281.580 93.546,282.378 92.576,283.346 91.521 C 284.314 90.465,285.106 89.479,285.106 89.330 C 285.106 89.180,285.306 88.847,285.551 88.589 C 285.795 88.331,286.310 87.522,286.695 86.791 C 287.080 86.059,287.519 85.461,287.669 85.461 C 287.820 85.461,287.943 85.161,287.943 84.795 C 287.943 84.429,288.183 83.931,288.475 83.688 C 288.768 83.445,289.007 82.956,289.007 82.602 C 289.007 82.247,289.167 81.858,289.362 81.738 C 289.557 81.617,289.716 81.193,289.716 80.795 C 289.716 80.397,289.935 79.569,290.202 78.954 C 291.784 75.312,291.784 64.050,290.202 60.407 C 289.935 59.793,289.716 59.033,289.716 58.718 C 289.716 58.404,289.573 57.869,289.398 57.531 C 289.223 57.192,288.792 56.197,288.440 55.319 C 285.499 47.991,277.575 40.512,268.883 36.860 C 268.444 36.676,267.726 36.368,267.287 36.177 C 263.038 34.322,247.777 34.319,245.213 36.172 C 243.405 37.478,242.041 36.969,238.791 33.770 C 237.057 32.065,234.601 29.880,233.333 28.915 C 232.066 27.950,230.949 27.062,230.851 26.941 C 230.754 26.820,230.434 26.618,230.142 26.493 C 229.849 26.367,228.812 25.788,227.837 25.205 C 226.862 24.623,225.505 23.886,224.823 23.568 C 224.140 23.250,223.285 22.831,222.922 22.638 C 221.781 22.029,216.914 20.477,215.248 20.191 C 214.371 20.041,213.014 19.748,212.234 19.542 C 210.056 18.965,200.123 19.072,198.404 19.691 M214.543 29.554 C 220.696 31.172,226.690 34.834,231.516 39.924 C 233.296 41.801,234.754 43.519,234.757 43.743 C 234.759 43.966,235.719 45.088,236.889 46.237 C 239.126 48.433,240.897 48.805,243.147 47.551 C 243.503 47.353,245.230 46.521,246.986 45.702 L 250.177 44.213 256.028 44.194 C 262.593 44.172,263.482 44.364,268.794 46.942 C 273.230 49.094,277.709 53.676,279.583 57.979 C 279.923 58.759,280.427 59.921,280.703 60.562 C 280.980 61.202,281.206 62.168,281.206 62.707 C 281.206 63.247,281.374 63.856,281.579 64.061 C 282.034 64.517,281.823 73.731,281.292 76.596 C 280.969 78.337,279.975 80.767,278.540 83.323 C 277.029 86.014,271.285 91.151,268.262 92.514 C 267.677 92.778,266.775 93.214,266.257 93.483 C 265.740 93.752,265.014 93.972,264.644 93.972 C 264.274 93.972,263.820 94.119,263.635 94.299 C 263.156 94.763,259.179 95.040,250.009 95.248 C 240.717 95.459,241.502 95.003,241.495 100.195 C 241.488 105.153,241.283 104.965,246.690 104.965 C 252.211 104.965,251.773 104.034,251.773 115.766 L 251.773 125.195 250.860 125.542 C 250.277 125.764,233.701 125.857,205.027 125.799 L 160.106 125.709 160.106 115.426 L 160.106 105.142 164.894 104.965 L 169.681 104.787 169.780 100.266 C 169.879 95.776,169.874 95.744,169.071 95.709 C 168.626 95.690,165.709 95.523,162.589 95.338 C 159.468 95.154,154.840 94.921,152.305 94.822 C 149.770 94.723,147.543 94.490,147.358 94.306 C 147.173 94.122,146.685 93.972,146.273 93.972 C 145.862 93.972,145.216 93.737,144.837 93.451 C 144.459 93.165,143.946 92.925,143.697 92.919 C 142.977 92.901,138.622 90.051,136.923 88.486 C 133.335 85.183,130.570 80.030,129.685 75.000 C 128.917 70.634,129.380 61.967,130.439 60.909 C 130.666 60.682,130.851 60.234,130.851 59.913 C 130.851 56.928,139.395 47.163,142.006 47.163 C 142.307 47.163,142.553 47.014,142.553 46.832 C 142.553 46.651,142.912 46.401,143.351 46.278 C 143.790 46.155,144.468 45.929,144.858 45.775 C 147.332 44.801,148.394 44.548,151.330 44.234 C 157.644 43.558,161.394 44.307,168.405 47.644 C 171.577 49.155,172.660 48.488,178.112 41.667 C 180.422 38.775,183.640 35.851,186.602 33.951 C 188.644 32.640,190.763 31.560,191.292 31.560 C 191.595 31.560,191.844 31.401,191.844 31.206 C 191.844 31.011,192.207 30.851,192.652 30.851 C 193.096 30.851,193.774 30.634,194.159 30.368 C 196.368 28.842,209.792 28.306,214.543 29.554 M180.388 95.617 C 180.086 95.919,180.058 103.625,180.357 104.404 C 180.538 104.875,181.302 104.965,185.138 104.965 C 190.538 104.965,190.154 105.400,189.997 99.468 L 189.894 95.567 185.264 95.469 C 182.718 95.415,180.523 95.481,180.388 95.617 M201.142 100.078 L 201.241 104.787 205.355 104.887 C 210.529 105.012,210.336 105.215,210.207 99.772 L 210.106 95.567 205.575 95.468 L 201.043 95.369 201.142 100.078 M221.277 100.177 L 221.277 104.985 225.975 104.886 L 230.674 104.787 230.674 100.177 L 230.674 95.567 225.975 95.468 L 221.277 95.369 221.277 100.177 M144.693 140.691 C 144.703 144.249,144.843 145.807,145.213 146.454 C 145.491 146.941,145.725 147.618,145.732 147.957 C 145.744 148.556,146.300 149.384,147.636 150.792 C 147.993 151.169,148.652 152.222,149.100 153.132 C 149.836 154.626,150.146 156.067,151.097 162.411 C 151.615 165.864,152.299 169.084,152.571 169.356 C 152.717 169.502,152.837 170.068,152.837 170.614 C 152.837 171.160,153.057 172.131,153.327 172.772 C 153.596 173.412,154.099 174.814,154.443 175.887 C 154.788 176.959,155.176 177.996,155.307 178.191 C 155.437 178.387,155.846 179.464,156.214 180.585 C 156.583 181.707,157.011 182.624,157.166 182.624 C 157.320 182.624,157.447 183.014,157.447 183.490 C 157.447 183.966,157.607 184.454,157.802 184.575 C 157.998 184.696,158.488 185.463,158.892 186.280 C 159.295 187.097,159.980 188.425,160.413 189.231 C 161.342 190.958,167.042 198.917,168.182 200.080 C 170.098 202.033,170.213 202.480,170.213 207.971 C 170.213 210.809,170.068 213.407,169.891 213.746 C 169.714 214.085,168.675 216.163,167.582 218.364 C 164.865 223.839,164.061 225.074,161.883 227.128 C 159.705 229.182,155.027 231.633,146.631 235.119 C 144.657 235.938,142.979 236.648,142.021 237.069 C 141.436 237.326,140.319 237.798,139.539 238.118 C 137.118 239.112,134.297 240.288,132.979 240.854 C 131.541 241.471,130.026 242.100,129.078 242.473 C 127.716 243.010,125.081 244.026,124.291 244.320 C 123.901 244.464,122.978 244.844,122.240 245.164 C 121.502 245.483,120.609 245.745,120.255 245.745 C 119.669 245.745,118.155 246.339,116.583 247.186 C 116.244 247.368,115.723 247.518,115.426 247.518 C 115.128 247.518,114.607 247.670,114.268 247.855 C 113.930 248.041,113.014 248.456,112.234 248.778 C 105.382 251.605,101.931 253.121,98.460 254.829 C 97.516 255.294,96.518 255.674,96.244 255.674 C 95.969 255.674,95.745 255.803,95.745 255.962 C 95.745 256.120,94.987 256.606,94.060 257.040 C 93.134 257.475,91.578 258.298,90.603 258.869 C 89.628 259.440,88.590 260.020,88.298 260.158 C 88.005 260.296,87.272 260.780,86.669 261.233 C 86.065 261.686,85.465 262.057,85.336 262.057 C 84.975 262.057,78.813 266.552,76.418 268.562 C 73.719 270.827,70.431 274.136,68.612 276.418 C 67.835 277.394,67.113 278.271,67.008 278.369 C 66.553 278.793,63.179 284.365,62.960 285.055 C 62.827 285.473,62.569 285.816,62.387 285.816 C 62.206 285.816,62.057 286.056,62.057 286.349 C 62.057 286.643,61.658 287.710,61.170 288.721 C 60.683 289.731,60.284 290.938,60.284 291.402 C 60.284 291.866,60.088 292.594,59.849 293.020 C 59.008 294.520,58.805 299.327,58.641 321.553 L 58.476 343.992 63.192 343.893 L 67.908 343.794 68.098 321.454 C 68.284 299.576,68.529 294.869,69.537 293.812 C 69.714 293.627,69.858 293.204,69.858 292.872 C 69.858 288.700,79.960 276.870,88.298 271.277 C 88.734 270.984,89.709 270.306,90.464 269.770 C 91.220 269.233,91.985 268.794,92.166 268.794 C 92.346 268.794,92.547 268.675,92.612 268.528 C 92.779 268.154,94.912 266.987,99.645 264.682 C 101.888 263.589,103.963 262.550,104.255 262.374 C 104.548 262.197,105.027 261.956,105.319 261.839 C 106.037 261.552,108.131 260.677,109.220 260.210 C 110.658 259.593,112.172 258.964,113.121 258.590 C 114.483 258.053,117.117 257.037,117.908 256.744 C 118.298 256.600,119.221 256.220,119.959 255.900 C 120.697 255.581,121.582 255.319,121.927 255.319 C 122.271 255.319,122.705 255.177,122.890 255.004 C 123.075 254.831,124.309 254.329,125.631 253.889 C 126.954 253.448,128.120 252.952,128.223 252.785 C 128.326 252.619,128.723 252.482,129.104 252.482 C 129.485 252.482,130.074 252.342,130.413 252.171 C 131.902 251.418,133.754 250.709,134.232 250.709 C 134.518 250.709,134.752 250.550,134.752 250.355 C 134.752 250.160,134.986 250.000,135.272 250.000 C 135.777 250.000,136.236 249.823,139.849 248.233 C 140.800 247.815,142.396 247.152,143.395 246.761 C 144.395 246.369,145.364 245.900,145.550 245.719 C 145.735 245.538,146.090 245.390,146.338 245.390 C 146.586 245.390,147.631 245.006,148.661 244.538 C 149.690 244.069,151.489 243.261,152.660 242.742 C 157.552 240.572,160.901 239.034,164.184 237.448 C 165.842 236.648,167.252 235.873,167.317 235.727 C 167.382 235.581,167.621 235.458,167.849 235.455 C 168.076 235.452,168.792 234.983,169.439 234.412 C 170.513 233.466,171.387 233.330,171.986 234.017 C 172.083 234.128,172.961 234.636,173.936 235.144 C 176.832 236.654,178.180 237.400,178.369 237.596 C 178.466 237.697,178.945 237.973,179.433 238.209 C 180.413 238.683,182.238 239.718,184.922 241.321 C 187.678 242.968,188.028 243.168,189.539 243.972 C 195.096 246.926,195.116 247.098,190.190 249.645 C 189.247 250.133,188.422 250.652,188.357 250.798 C 188.292 250.944,188.074 251.064,187.873 251.064 C 187.318 251.064,182.461 254.165,181.699 255.007 C 180.684 256.126,180.445 265.650,180.378 307.624 L 180.319 343.794 185.018 343.893 C 187.602 343.948,189.755 343.948,189.801 343.893 C 189.848 343.839,189.968 325.057,190.067 302.155 L 190.248 260.516 192.021 259.503 C 192.996 258.946,194.138 258.345,194.558 258.168 C 194.978 257.990,195.426 257.676,195.554 257.469 C 195.682 257.262,196.096 257.092,196.475 257.092 C 196.853 257.092,197.163 256.968,197.163 256.815 C 197.163 256.663,197.602 256.348,198.138 256.116 C 198.675 255.884,200.230 255.065,201.596 254.297 C 202.961 253.529,205.115 252.369,206.383 251.718 C 207.651 251.068,208.768 250.451,208.865 250.348 C 208.963 250.245,209.840 249.753,210.816 249.255 C 212.516 248.387,214.195 247.468,218.440 245.080 C 219.512 244.477,221.507 243.410,222.872 242.709 C 224.238 242.008,225.913 241.105,226.596 240.704 C 227.278 240.302,228.954 239.374,230.319 238.642 C 231.684 237.909,233.759 236.797,234.929 236.170 C 236.099 235.544,237.208 234.888,237.394 234.714 C 237.579 234.540,238.018 234.397,238.369 234.397 C 238.720 234.397,239.007 234.238,239.007 234.043 C 239.007 233.502,240.992 233.620,241.464 234.189 C 241.910 234.727,245.980 237.234,246.408 237.234 C 246.549 237.234,248.294 238.032,250.285 239.007 C 252.276 239.982,253.980 240.780,254.071 240.780 C 254.161 240.780,255.158 241.199,256.285 241.710 C 261.724 244.180,262.967 244.729,265.780 245.908 C 266.560 246.234,267.598 246.673,268.085 246.882 C 269.382 247.439,270.952 248.093,272.163 248.582 C 272.748 248.818,273.706 249.211,274.291 249.456 C 276.058 250.195,277.051 250.595,278.723 251.241 C 279.601 251.580,280.718 252.013,281.206 252.203 C 281.693 252.393,282.544 252.772,283.096 253.047 C 283.648 253.321,284.308 253.546,284.563 253.546 C 284.817 253.546,285.482 253.784,286.041 254.076 C 286.600 254.367,287.336 254.607,287.677 254.608 C 288.019 254.609,288.298 254.770,288.298 254.965 C 288.298 255.160,288.612 255.319,288.995 255.319 C 289.624 255.319,291.347 255.949,292.992 256.781 C 293.330 256.952,293.809 257.092,294.055 257.091 C 294.521 257.091,300.153 259.351,303.546 260.901 C 304.619 261.391,306.374 262.189,307.447 262.674 C 310.714 264.151,311.871 264.708,312.057 264.894 C 312.154 264.991,313.351 265.629,314.716 266.312 C 316.082 266.995,317.278 267.635,317.376 267.734 C 317.473 267.833,318.152 268.229,318.883 268.612 C 319.614 268.996,320.213 269.434,320.213 269.584 C 320.213 269.735,320.354 269.858,320.527 269.858 C 320.966 269.858,324.829 272.469,326.010 273.563 C 326.547 274.061,327.082 274.468,327.198 274.468 C 327.314 274.468,329.003 276.024,330.950 277.926 C 337.328 284.154,340.632 289.383,342.319 295.922 C 342.541 296.784,342.763 306.447,342.885 320.567 L 343.085 343.794 347.774 343.893 L 352.464 343.992 352.694 343.075 C 353.081 341.531,352.624 298.936,352.201 297.163 C 351.992 296.285,351.641 294.849,351.421 293.972 C 351.201 293.094,350.939 291.977,350.839 291.489 C 350.738 291.002,350.491 290.204,350.291 289.716 C 349.080 286.777,347.779 283.949,347.518 283.688 C 347.185 283.355,345.700 280.675,345.503 280.053 C 345.396 279.712,345.179 279.433,345.023 279.433 C 344.867 279.433,344.372 278.834,343.925 278.103 C 342.687 276.080,336.347 269.686,333.157 267.243 C 329.098 264.135,328.620 263.804,324.295 261.113 C 319.383 258.057,319.087 257.879,318.440 257.600 C 317.393 257.149,315.771 256.358,315.248 256.043 C 314.669 255.695,308.881 252.999,307.447 252.410 C 306.959 252.209,306.321 251.903,306.028 251.730 C 305.736 251.556,305.257 251.321,304.965 251.207 C 304.672 251.093,304.113 250.870,303.723 250.711 C 299.726 249.085,295.597 247.466,294.149 246.958 C 293.174 246.616,292.224 246.203,292.039 246.041 C 291.854 245.878,291.420 245.745,291.076 245.745 C 290.731 245.745,289.846 245.483,289.108 245.164 C 288.370 244.844,287.447 244.464,287.057 244.320 C 285.218 243.638,281.794 242.296,280.319 241.679 C 279.734 241.434,278.777 241.037,278.191 240.797 C 277.606 240.557,276.676 240.135,276.124 239.861 C 275.572 239.586,274.944 239.362,274.729 239.362 C 274.513 239.362,273.649 239.043,272.807 238.652 C 270.941 237.788,268.219 236.587,267.021 236.101 C 266.534 235.903,265.656 235.536,265.071 235.285 C 264.100 234.868,262.279 234.102,260.461 233.345 C 255.592 231.316,250.417 228.399,248.775 226.757 C 247.919 225.901,247.345 225.062,245.140 221.445 C 244.264 220.008,242.553 216.419,242.553 216.018 C 242.553 215.790,242.420 215.603,242.257 215.603 C 241.587 215.603,240.780 211.272,240.780 207.682 C 240.780 203.341,241.135 202.079,242.894 200.177 C 243.615 199.397,244.750 198.041,245.415 197.163 C 246.081 196.285,246.747 195.514,246.895 195.449 C 247.042 195.384,247.163 195.192,247.163 195.022 C 247.163 194.766,249.239 191.564,250.257 190.248 C 251.043 189.233,254.943 180.870,255.880 178.191 C 256.221 177.216,256.633 176.267,256.796 176.082 C 256.959 175.896,257.098 175.338,257.105 174.840 C 257.112 174.343,257.345 173.537,257.624 173.050 C 257.903 172.562,258.137 171.734,258.143 171.209 C 258.150 170.684,258.316 170.156,258.511 170.035 C 258.706 169.915,258.865 169.278,258.865 168.619 C 258.865 167.961,259.050 166.973,259.276 166.424 C 259.692 165.413,259.910 164.072,260.586 158.367 C 260.792 156.631,261.127 155.043,261.331 154.839 C 261.535 154.635,261.702 154.164,261.702 153.791 C 261.702 153.419,262.460 152.135,263.387 150.937 C 266.321 147.142,266.312 147.173,266.312 141.169 L 266.312 135.816 261.525 135.816 L 256.738 135.816 256.738 139.219 C 256.738 143.141,256.354 144.227,254.244 146.288 C 253.470 147.044,252.837 147.917,252.837 148.228 C 252.837 148.539,252.693 148.946,252.516 149.131 C 252.207 149.456,251.635 153.460,251.048 159.397 C 250.675 163.174,250.014 166.765,249.614 167.181 C 249.436 167.366,249.291 167.895,249.291 168.355 C 249.291 169.329,248.265 172.716,247.821 173.209 C 247.654 173.395,247.518 173.828,247.518 174.172 C 247.518 174.517,247.256 175.402,246.937 176.140 C 246.617 176.878,246.200 177.881,246.009 178.369 C 245.818 178.856,245.526 179.495,245.359 179.787 C 245.192 180.080,244.798 180.878,244.484 181.560 C 244.170 182.243,243.775 183.041,243.606 183.333 C 243.437 183.626,242.956 184.504,242.536 185.284 C 242.116 186.064,241.230 187.460,240.567 188.387 C 239.904 189.314,239.362 190.166,239.362 190.281 C 239.362 190.562,237.148 193.002,234.686 195.434 C 230.970 199.106,227.851 201.155,221.277 204.246 C 220.780 204.479,218.676 205.126,214.894 206.208 C 212.344 206.937,206.358 207.561,204.061 207.336 C 198.746 206.816,195.966 206.391,195.622 206.047 C 195.416 205.842,194.951 205.674,194.588 205.674 C 193.680 205.674,190.459 204.596,190.222 204.213 C 190.116 204.041,189.742 203.901,189.391 203.901 C 187.982 203.901,181.730 200.104,178.466 197.265 C 175.511 194.695,171.649 190.568,171.637 189.967 C 171.634 189.812,171.232 189.255,170.745 188.729 C 170.257 188.203,169.858 187.655,169.858 187.510 C 169.858 187.365,169.257 186.246,168.523 185.024 C 166.987 182.465,166.587 181.636,164.888 177.482 C 164.648 176.897,164.233 175.995,163.964 175.477 C 163.695 174.960,163.475 174.211,163.475 173.814 C 163.475 173.417,163.329 173.001,163.151 172.891 C 162.973 172.781,162.720 172.055,162.589 171.277 C 162.457 170.498,162.204 169.772,162.026 169.662 C 161.848 169.552,161.702 168.865,161.702 168.135 C 161.702 167.405,161.540 166.646,161.342 166.448 C 160.876 165.983,160.302 162.200,159.949 157.270 C 159.491 150.890,158.835 148.419,157.088 146.507 C 154.646 143.832,154.454 143.345,154.310 139.457 L 154.175 135.816 149.428 135.816 L 144.681 135.816 144.693 140.691 M231.270 212.057 C 231.816 214.756,232.190 216.181,232.619 217.199 C 232.865 217.784,233.225 218.661,233.419 219.149 C 233.612 219.637,233.912 220.313,234.084 220.652 C 236.126 224.665,236.015 224.826,228.546 228.692 C 227.571 229.197,226.693 229.708,226.596 229.827 C 226.498 229.947,225.461 230.521,224.291 231.104 C 223.121 231.686,221.605 232.480,220.922 232.868 C 219.185 233.854,215.943 235.652,214.124 236.638 C 213.279 237.096,212.030 237.815,211.348 238.236 C 210.665 238.657,209.867 239.097,209.574 239.215 C 208.686 239.574,208.393 239.718,206.791 240.585 C 205.070 241.516,203.998 241.403,202.163 240.096 C 201.596 239.692,200.877 239.362,200.566 239.362 C 200.255 239.362,200.000 239.218,200.000 239.042 C 200.000 238.866,199.561 238.553,199.025 238.346 C 198.488 238.140,196.933 237.318,195.567 236.520 C 194.202 235.722,192.806 234.979,192.465 234.869 C 192.123 234.759,191.844 234.528,191.844 234.356 C 191.844 234.184,191.642 234.043,191.394 234.043 C 191.147 234.043,190.389 233.668,189.710 233.211 C 189.031 232.753,187.677 231.937,186.702 231.396 C 175.077 224.956,175.153 225.040,177.094 220.745 C 178.422 217.805,179.338 215.017,179.680 212.867 C 180.023 210.714,180.893 210.599,184.574 212.222 C 186.445 213.047,187.363 213.379,189.539 214.016 C 190.709 214.358,191.986 214.753,192.376 214.894 C 198.458 217.082,213.504 217.073,218.972 214.877 C 219.362 214.721,220.080 214.517,220.567 214.424 C 221.055 214.332,222.012 214.057,222.695 213.813 C 223.378 213.569,224.255 213.258,224.645 213.122 C 225.035 212.985,226.312 212.386,227.482 211.789 C 230.220 210.392,230.944 210.444,231.270 212.057 M201.218 273.868 C 201.120 274.123,201.085 276.238,201.141 278.567 L 201.241 282.801 205.674 282.801 L 210.106 282.801 210.207 278.596 C 210.273 275.799,210.170 274.226,209.897 273.898 C 209.327 273.210,201.481 273.183,201.218 273.868 M201.064 298.769 L 201.064 303.567 205.585 303.468 L 210.106 303.369 210.205 298.670 L 210.304 293.972 205.684 293.972 L 201.064 293.972 201.064 298.769 M201.223 314.282 C 201.123 314.542,201.086 316.741,201.141 319.169 L 201.241 323.582 204.965 323.685 C 210.735 323.845,210.322 324.238,210.205 318.696 L 210.106 314.007 205.755 313.907 C 202.381 313.830,201.364 313.914,201.223 314.282 M109.380 324.917 C 109.285 325.164,109.250 329.513,109.302 334.580 L 109.397 343.794 114.096 343.893 L 118.794 343.992 118.794 334.230 L 118.794 324.468 114.173 324.468 C 110.772 324.468,109.507 324.587,109.380 324.917 M292.717 324.906 C 292.620 325.159,292.584 329.513,292.636 334.580 L 292.730 343.794 297.163 343.794 L 301.596 343.794 301.596 334.220 L 301.596 324.645 297.245 324.546 C 293.933 324.470,292.852 324.556,292.717 324.906 M201.222 334.850 C 201.122 335.111,201.085 337.231,201.141 339.560 L 201.241 343.794 205.674 343.794 L 210.106 343.794 210.106 339.184 L 210.106 334.574 205.755 334.475 C 202.377 334.397,201.364 334.481,201.222 334.850 " stroke="none" fill="#24bae9" fill-rule="evenodd"></path></g></svg>