<svg id="svg" fill="#10bfec" version="1.1" xmlns="http://www.w3.org/2000/svg" xmlns:xlink="http://www.w3.org/1999/xlink" width="400" height="423.81786339754814" viewBox="0, 0, 400,423.81786339754814"><g id="svgg"><path id="path0" d="M179.861 0.272 C 179.711 0.422,178.736 0.678,177.694 0.841 C 162.786 3.168,149.073 8.442,137.166 16.428 C 126.498 23.584,117.351 33.236,111.575 43.430 C 109.585 46.944,107.327 51.517,106.653 53.400 C 106.260 54.500,105.790 55.760,105.609 56.200 C 103.392 61.598,100.565 74.968,99.434 85.400 C 99.339 86.280,98.958 88.530,98.588 90.400 C 97.604 95.379,97.231 98.445,96.983 103.600 C 96.709 109.309,96.568 110.000,95.684 110.000 C 93.973 110.000,91.372 113.177,90.005 116.937 C 84.041 133.337,93.346 168.662,104.469 171.848 C 105.687 172.197,105.928 172.550,107.305 176.014 C 108.133 178.096,109.062 180.340,109.370 181.000 C 109.678 181.660,110.502 183.460,111.201 185.000 C 113.349 189.732,115.999 194.896,119.205 200.600 C 125.222 211.302,135.770 225.004,144.465 233.412 C 166.280 254.508,191.257 262.854,213.800 256.582 C 215.120 256.215,216.740 255.776,217.400 255.608 C 230.350 252.304,249.476 238.464,261.613 223.614 C 262.596 222.411,263.733 221.061,264.140 220.614 C 265.463 219.160,272.253 209.502,274.762 205.505 C 277.178 201.658,277.494 201.122,279.888 196.800 C 282.223 192.586,287.200 182.377,287.200 181.801 C 287.200 181.702,287.630 180.672,288.155 179.511 C 288.681 178.350,289.602 176.198,290.203 174.729 C 291.060 172.634,291.553 171.951,292.488 171.564 C 306.130 165.913,313.687 120.443,302.515 111.234 L 301.007 109.991 301.000 99.696 C 300.992 89.475,300.713 84.040,299.999 80.200 C 299.794 79.100,299.333 76.400,298.973 74.200 C 298.035 68.460,295.609 59.476,294.003 55.800 C 293.619 54.920,293.166 53.750,292.997 53.200 C 289.911 43.141,277.723 27.016,267.200 19.070 C 265.110 17.491,263.340 16.065,263.267 15.900 C 263.193 15.735,262.970 15.600,262.771 15.600 C 262.571 15.600,261.191 14.822,259.704 13.871 C 255.733 11.331,247.413 7.200,246.269 7.200 C 245.989 7.200,245.589 7.038,245.380 6.839 C 244.350 5.861,232.465 2.500,225.400 1.189 C 224.080 0.944,222.349 0.576,221.554 0.372 C 219.908 -0.051,180.279 -0.146,179.861 0.272 M159.800 83.188 C 160.680 83.383,163.110 84.024,165.200 84.614 C 169.270 85.762,170.691 86.080,176.000 87.029 C 183.077 88.295,186.470 88.560,195.600 88.564 C 207.330 88.569,212.920 87.812,222.000 84.990 C 223.841 84.418,225.277 84.341,230.800 84.518 C 237.177 84.723,238.876 84.996,244.838 86.774 C 245.629 87.010,249.852 88.994,254.224 91.182 C 258.596 93.370,262.244 95.090,262.331 95.003 C 262.514 94.820,261.204 90.395,260.791 89.800 C 260.468 89.334,259.200 85.613,259.200 85.129 C 259.200 84.542,260.793 84.780,262.419 85.610 C 265.176 87.016,270.636 94.742,273.719 101.600 C 276.021 106.720,276.401 107.620,277.200 109.853 C 279.140 115.271,280.400 119.261,280.400 119.982 C 280.400 120.406,280.580 120.864,280.800 121.000 C 281.020 121.136,281.200 121.708,281.200 122.270 C 281.200 123.151,281.325 123.253,282.100 123.001 C 286.511 121.570,288.777 123.202,290.430 129.000 C 291.170 131.597,291.190 142.902,290.459 146.000 C 289.626 149.533,288.762 152.546,288.367 153.295 C 288.165 153.677,288.000 154.167,288.000 154.384 C 288.000 155.052,285.901 159.322,284.845 160.800 C 282.094 164.652,280.198 165.845,277.429 165.466 C 275.805 165.243,275.658 165.301,275.280 166.314 C 271.257 177.081,270.467 178.925,266.568 186.633 C 259.439 200.727,249.483 213.931,238.984 223.217 C 237.029 224.945,236.208 225.600,232.400 228.466 C 229.580 230.589,225.715 232.898,221.856 234.766 C 218.506 236.387,217.453 236.799,214.600 237.605 C 213.940 237.792,212.410 238.248,211.200 238.619 C 206.630 240.019,195.445 240.827,191.643 240.031 C 190.409 239.773,188.500 239.376,187.400 239.148 C 184.842 238.620,181.598 237.665,180.705 237.179 C 180.323 236.970,179.826 236.800,179.601 236.800 C 177.021 236.800,164.311 228.832,158.200 223.384 C 152.255 218.083,143.538 208.584,142.840 206.644 C 142.752 206.400,142.554 206.110,142.399 206.000 C 141.439 205.316,136.475 197.678,132.911 191.400 C 130.020 186.306,125.220 176.078,123.620 171.600 C 123.344 170.830,122.971 169.840,122.791 169.400 C 122.610 168.960,122.153 167.744,121.776 166.697 C 121.232 165.190,120.978 164.886,120.555 165.237 C 117.539 167.740,112.000 162.545,108.789 154.200 C 106.578 148.457,106.261 145.999,106.508 136.539 C 106.832 124.094,109.056 120.449,114.801 122.948 C 115.288 123.160,115.545 122.449,116.162 119.190 C 116.581 116.980,117.075 115.077,117.262 114.962 C 117.448 114.847,117.600 114.452,117.600 114.085 C 117.600 108.468,127.518 93.341,133.800 89.376 C 134.460 88.959,135.090 88.506,135.200 88.370 C 137.807 85.125,153.556 81.808,159.800 83.188 M121.400 257.632 C 119.746 258.132,113.360 258.795,106.200 259.209 C 86.112 260.373,79.636 261.241,64.800 264.760 C 62.309 265.351,58.287 266.864,54.455 268.652 C 52.395 269.614,50.638 270.400,50.551 270.400 C 50.464 270.400,48.819 271.415,46.896 272.655 C 37.268 278.864,28.882 287.168,21.985 297.327 C 20.463 299.567,19.034 301.617,18.809 301.883 C 18.584 302.149,18.400 302.481,18.400 302.621 C 18.400 302.762,18.066 303.354,17.657 303.938 C 15.752 306.661,8.400 321.164,8.400 322.199 C 8.400 322.298,7.974 323.328,7.454 324.489 C 6.933 325.650,6.192 327.410,5.806 328.400 C 5.420 329.390,4.961 330.560,4.786 331.000 C 4.610 331.440,4.378 332.160,4.270 332.600 C 4.162 333.040,3.339 335.470,2.441 338.000 C 1.543 340.530,0.807 342.915,0.804 343.300 C 0.802 343.685,0.620 344.000,0.400 344.000 C -0.106 344.000,-0.151 371.313,0.353 372.305 C 0.548 372.687,0.885 373.450,1.104 374.000 C 1.322 374.550,1.718 375.540,1.984 376.200 C 4.316 381.988,13.105 390.840,20.800 395.151 C 23.658 396.753,30.813 400.349,32.283 400.923 C 33.209 401.284,34.739 401.927,35.683 402.351 C 39.411 404.024,51.214 408.000,52.455 408.000 C 52.839 408.000,53.252 408.160,53.373 408.356 C 53.494 408.551,54.179 408.807,54.896 408.923 C 55.613 409.040,57.280 409.433,58.600 409.797 C 63.773 411.226,74.707 413.725,78.800 414.415 C 79.790 414.582,82.220 415.017,84.200 415.383 C 86.180 415.749,88.880 416.200,90.200 416.385 C 91.520 416.571,96.290 417.256,100.800 417.908 C 105.310 418.560,110.800 419.301,113.000 419.555 C 115.200 419.808,118.440 420.187,120.200 420.397 C 124.155 420.867,132.176 421.574,138.800 422.035 C 141.550 422.227,146.860 422.600,150.600 422.866 C 160.071 423.538,239.957 423.537,249.400 422.864 C 253.140 422.598,258.540 422.226,261.400 422.037 C 269.463 421.506,275.918 420.882,286.400 419.622 C 297.331 418.307,300.282 417.932,301.000 417.767 C 301.440 417.666,303.150 417.392,304.800 417.157 C 311.140 416.254,315.233 415.578,321.200 414.446 C 324.327 413.853,331.307 412.350,333.800 411.733 C 335.120 411.407,336.830 410.989,337.600 410.806 C 345.582 408.907,357.625 405.170,363.500 402.768 C 363.995 402.566,364.805 402.241,365.300 402.046 C 366.892 401.420,376.933 396.456,379.025 395.262 C 388.352 389.934,396.211 381.653,398.729 374.499 C 399.136 373.343,399.589 372.278,399.735 372.132 C 400.137 371.729,400.052 344.891,399.646 344.095 C 399.451 343.713,398.608 341.240,397.772 338.600 C 396.936 335.960,395.907 332.900,395.486 331.800 C 395.064 330.700,394.443 329.080,394.106 328.200 C 393.769 327.320,393.067 325.650,392.546 324.489 C 392.026 323.328,391.600 322.201,391.600 321.984 C 391.600 321.767,391.429 321.277,391.220 320.895 C 391.010 320.513,389.712 317.860,388.334 315.000 C 379.193 296.028,366.948 281.320,353.000 272.558 C 350.209 270.805,347.657 269.485,343.000 267.383 C 341.438 266.678,336.983 265.179,335.200 264.758 C 327.652 262.978,319.371 261.393,314.600 260.815 C 310.594 260.331,302.870 259.734,293.800 259.210 C 286.512 258.788,280.408 258.151,278.453 257.608 C 276.297 257.009,274.800 257.090,274.800 257.805 C 274.800 258.138,274.635 258.723,274.432 259.105 C 274.230 259.487,273.488 260.970,272.784 262.400 C 272.080 263.830,270.806 266.056,269.952 267.346 C 269.098 268.636,268.400 269.768,268.400 269.863 C 268.400 270.137,261.556 279.454,259.608 281.831 C 259.054 282.507,258.060 283.761,257.400 284.616 C 255.344 287.280,248.728 295.312,247.025 297.212 C 246.131 298.209,244.500 300.096,243.400 301.406 C 241.607 303.541,238.524 307.077,237.999 307.600 C 237.889 307.710,237.187 308.520,236.440 309.400 C 235.357 310.674,231.501 315.014,229.000 317.772 C 225.885 321.207,221.500 326.080,220.607 327.100 C 218.437 329.576,218.481 329.644,215.951 319.710 C 214.843 315.359,213.602 310.540,213.192 309.000 C 212.783 307.460,211.879 303.860,211.183 301.000 C 210.486 298.140,209.755 295.487,209.558 295.105 C 208.741 293.520,209.161 292.357,211.222 290.504 C 214.842 287.249,217.600 279.831,217.600 273.348 L 217.600 272.000 200.000 272.000 L 182.400 272.000 182.401 273.300 C 182.408 279.903,185.255 287.420,188.998 290.715 C 190.922 292.408,191.017 292.667,190.406 294.572 C 190.027 295.755,188.663 301.104,188.001 304.000 C 187.826 304.770,187.017 307.920,186.204 311.000 C 185.391 314.080,184.575 317.230,184.390 318.000 C 184.206 318.770,183.767 320.570,183.415 322.000 C 183.063 323.430,182.630 325.244,182.454 326.031 C 181.648 329.620,181.539 329.543,171.574 318.400 C 169.508 316.090,167.720 314.110,167.601 314.000 C 167.482 313.890,166.218 312.450,164.792 310.800 C 163.367 309.150,162.110 307.710,162.000 307.600 C 161.548 307.148,158.476 303.642,156.738 301.594 C 155.714 300.387,153.489 297.780,151.794 295.800 C 137.899 279.571,125.200 261.412,125.200 257.773 C 125.200 257.117,123.330 257.048,121.400 257.632 " stroke="none" fill="#10bfec" fill-rule="evenodd"></path></g></svg>