<svg xmlns="http://www.w3.org/2000/svg" xmlns:xlink="http://www.w3.org/1999/xlink" width="175" height="249" viewBox="0 0 175 249">
  <defs>
    <clipPath id="clip-Artboard_1">
      <rect width="175" height="249"/>
    </clipPath>
  </defs>
  <g id="Artboard_1" data-name="Artboard – 1" clip-path="url(#clip-Artboard_1)">
    <rect width="175" height="249" fill="#fff"/>
    <g id="closed-filled-rectangular-door" transform="translate(-71.553)">
      <path id="Path_35" data-name="Path 35" d="M71.553,0V250.753l176,.3V0ZM88.1,234.23V16.552H231v29.8h-5.655V22.074H93.76v206.9H225.346V204.695H231v29.783ZM225.345,72.1H231V178.947h-5.655ZM120.978,125.522a8.69,8.69,0,1,1-8.69-8.69A8.69,8.69,0,0,1,120.978,125.522Z" fill="#151b25"/>
    </g>
    <rect id="Rectangle_18" data-name="Rectangle 18" width="26" height="38" transform="translate(26 103)" fill="#151b25"/>
    <g id="snowflake" transform="translate(67 63)">
      <g id="Group_9" data-name="Group 9" transform="translate(0 0)">
        <g id="Group_8" data-name="Group 8">
          <path id="Path_15" data-name="Path 15" d="M44.146,21.631H40.415l.909-.909a.883.883,0,0,0-1.249-1.249l-2.158,2.158h-3.86l2.665-2.665a.883.883,0,0,0-1.249-1.249L31.56,21.632H24.646l4.889-4.889H35.07a.883.883,0,0,0,0-1.766H31.3l2.729-2.729h5.535a.883.883,0,1,0,0-1.766H35.8l2.638-2.638a.883.883,0,0,0-1.249-1.249L34.548,9.233V5.463a.883.883,0,0,0-1.766,0V11l-2.729,2.729V9.958a.883.883,0,1,0-1.766,0v5.535L23.4,20.383V13.468l3.914-3.914a.883.883,0,0,0-1.249-1.249L23.4,10.971V7.111L27.312,3.2a.883.883,0,1,0-1.249-1.249L23.4,4.614V.883a.883.883,0,0,0-1.766,0V4.614L18.966,1.949A.883.883,0,0,0,17.717,3.2l3.914,3.914v3.86L18.966,8.306a.883.883,0,0,0-1.249,1.249l3.914,3.914v6.914l-4.889-4.889V9.958a.883.883,0,0,0-1.766,0v3.769L12.247,11V5.463a.883.883,0,0,0-1.766,0V9.232L7.843,6.594A.883.883,0,0,0,6.594,7.843l2.638,2.638H5.463a.883.883,0,0,0,0,1.766H11l2.729,2.729H9.958a.883.883,0,1,0,0,1.766h5.535l4.889,4.889H13.468L9.555,17.717a.883.883,0,0,0-1.249,1.249l2.665,2.665H7.111L3.2,17.717a.883.883,0,1,0-1.249,1.249l2.665,2.665H.883a.883.883,0,0,0,0,1.766H4.614L1.949,26.063A.883.883,0,0,0,3.2,27.311L7.111,23.4h3.86L8.306,26.062a.883.883,0,0,0,1.249,1.249L13.468,23.4h6.914l-4.889,4.889H9.959a.883.883,0,1,0,0,1.766h3.769L11,32.781H5.463a.883.883,0,1,0,0,1.766H9.232L6.594,37.186a.883.883,0,0,0,1.249,1.249L10.481,35.8v3.769a.883.883,0,0,0,1.766,0V34.03L14.976,31.3V35.07a.883.883,0,0,0,1.766,0V29.535l4.889-4.889V31.56l-3.914,3.914a.883.883,0,0,0,1.249,1.249l2.665-2.665v3.86l-3.914,3.914a.883.883,0,0,0,1.249,1.249l2.665-2.665v3.731a.883.883,0,1,0,1.766,0V40.415l2.665,2.665a.883.883,0,0,0,1.249-1.249L23.4,37.917v-3.86l2.665,2.665a.883.883,0,1,0,1.249-1.249L23.4,31.56V24.646l4.889,4.889V35.07a.883.883,0,0,0,1.766,0V31.3l2.729,2.729v5.535a.883.883,0,0,0,1.766,0V35.8l2.638,2.638a.883.883,0,0,0,1.249-1.249L35.8,34.548h3.769a.883.883,0,0,0,0-1.766H34.03L31.3,30.052H35.07a.883.883,0,1,0,0-1.766H29.535L24.646,23.4H31.56l3.914,3.914a.883.883,0,0,0,1.249-1.249L34.058,23.4h3.86l3.914,3.914a.883.883,0,0,0,1.249-1.249L40.415,23.4h3.731a.883.883,0,0,0,0-1.766Z" transform="translate(0 0)" fill="#fff"/>
        </g>
      </g>
      <g id="Group_11" data-name="Group 11" transform="translate(41.603 21.631)">
        <g id="Group_10" data-name="Group 10">
          <path id="Path_16" data-name="Path 16" d="M473.9,245.961a.883.883,0,0,0,0,1.766A.883.883,0,0,0,473.9,245.961Z" transform="translate(-473.048 -245.961)" fill="#fff"/>
        </g>
      </g>
    </g>
    <g id="Group_13" data-name="Group 13" transform="translate(-2416 -651)">
      <path id="Path_17" data-name="Path 17" d="M38.661,42.479V7.586A6.586,6.586,0,0,0,32.075,1h0a6.586,6.586,0,0,0-6.586,6.586V42.479a12.075,12.075,0,1,0,13.172,0Z" transform="translate(2443.428 742.195)" fill="#fff"/>
      <path id="Path_18" data-name="Path 18" d="M32.586,43.795V37.1a1.1,1.1,0,0,0-2.2,0v6.7a5.489,5.489,0,1,0,2.2,0Z" transform="translate(2444.014 744.517)" fill="#0096e6"/>
      <g id="Group_12" data-name="Group 12" transform="translate(2467.819 747.586)">
        <path id="Path_19" data-name="Path 19" d="M27.293,6H25.1a1.1,1.1,0,0,0,0,2.2h2.2a1.1,1.1,0,0,0,0-2.2Z" transform="translate(-24 -6)" fill="#fff"/>
        <path id="Path_20" data-name="Path 20" d="M27.293,11H25.1a1.1,1.1,0,0,0,0,2.2h2.2a1.1,1.1,0,0,0,0-2.2Z" transform="translate(-24 -5.511)" fill="#fff"/>
        <path id="Path_21" data-name="Path 21" d="M27.293,16H25.1a1.1,1.1,0,0,0,0,2.2h2.2a1.1,1.1,0,0,0,0-2.2Z" transform="translate(-24 -5.023)" fill="#fff"/>
        <path id="Path_22" data-name="Path 22" d="M27.293,21H25.1a1.1,1.1,0,0,0,0,2.2h2.2a1.1,1.1,0,0,0,0-2.2Z" transform="translate(-24 -4.534)" fill="#fff"/>
        <path id="Path_23" data-name="Path 23" d="M27.293,26H25.1a1.1,1.1,0,0,0,0,2.2h2.2a1.1,1.1,0,0,0,0-2.2Z" transform="translate(-24 -4.046)" fill="#fff"/>
        <path id="Path_24" data-name="Path 24" d="M27.293,31H25.1a1.1,1.1,0,1,0,0,2.2h2.2a1.1,1.1,0,1,0,0-2.2Z" transform="translate(-24 -3.557)" fill="#fff"/>
        <path id="Path_25" data-name="Path 25" d="M27.293,36H25.1a1.1,1.1,0,1,0,0,2.2h2.2a1.1,1.1,0,1,0,0-2.2Z" transform="translate(-24 -3.069)" fill="#fff"/>
        <path id="Path_26" data-name="Path 26" d="M35.1,10.2h2.2a1.1,1.1,0,1,0,0-2.2H35.1a1.1,1.1,0,0,0,0,2.2Z" transform="translate(-23.023 -5.805)" fill="#fff"/>
        <path id="Path_27" data-name="Path 27" d="M37.293,13H35.1a1.1,1.1,0,0,0,0,2.2h2.2a1.1,1.1,0,1,0,0-2.2Z" transform="translate(-23.023 -5.316)" fill="#fff"/>
        <path id="Path_28" data-name="Path 28" d="M37.293,18H35.1a1.1,1.1,0,0,0,0,2.2h2.2a1.1,1.1,0,1,0,0-2.2Z" transform="translate(-23.023 -4.828)" fill="#fff"/>
        <path id="Path_29" data-name="Path 29" d="M37.293,23H35.1a1.1,1.1,0,0,0,0,2.2h2.2a1.1,1.1,0,1,0,0-2.2Z" transform="translate(-23.023 -4.339)" fill="#fff"/>
        <path id="Path_30" data-name="Path 30" d="M37.293,28H35.1a1.1,1.1,0,0,0,0,2.2h2.2a1.1,1.1,0,1,0,0-2.2Z" transform="translate(-23.023 -3.85)" fill="#fff"/>
        <path id="Path_31" data-name="Path 31" d="M37.293,33H35.1a1.1,1.1,0,0,0,0,2.2h2.2a1.1,1.1,0,1,0,0-2.2Z" transform="translate(-23.023 -3.362)" fill="#fff"/>
      </g>
      <path id="Path_34" data-name="Path 34" d="M32.172,65.862h0a13.8,13.8,0,0,1-1.5-.083A13.167,13.167,0,0,1,24.488,42V7.684a7.684,7.684,0,1,1,15.368,0V42a13.168,13.168,0,0,1-7.684,23.863Zm0-63.667a5.5,5.5,0,0,0-5.489,5.489V43.171l-.5.325a10.978,10.978,0,1,0,11.972,0l-.5-.325V7.684A5.5,5.5,0,0,0,32.172,2.2Z" transform="translate(2443.331 741)" fill="#fff"/>
    </g>
  </g>
</svg>
