<svg width="640" height="480" xmlns="http://www.w3.org/2000/svg" xmlns:svg="http://www.w3.org/2000/svg" xmlns:xlink="http://www.w3.org/1999/xlink">
 <!-- Created with SVG-edit - http://svg-edit.googlecode.com/ -->
 <defs>
  <symbol viewBox="0 0 92.957 92.957" height="92.957px" width="92.957px" y="0px" x="0px" id="svg_3" xmlns:xlink="http://www.w3.org/1999/xlink" xmlns="http://www.w3.org/2000/svg">
   <g>
    <g>
     <path d="m87.663,65.35c0,-0.035 -0.004,-0.146 -0.007,-0.182c0,-0.081 -0.004,-0.162 -0.014,-0.243l-7.636,-62.339c-0.179,-1.475 -1.436,-2.586 -2.922,-2.586l-61.21,0c-1.486,0 -2.742,1.111 -2.922,2.585l-7.634,62.339c-0.01,0.081 -0.01,0.115 -0.01,0.197l-0.017,0.182c-0.006,0.061 -0.009,0.121 -0.009,0.182l0,24.529c0,1.623 1.32,2.943 2.942,2.943l76.507,0c1.623,0 2.942,-1.32 2.942,-2.943l-0.01,-24.664zm-5.872,21.72l-70.623,0l0,-18.737l70.622,0l0.001,18.737l0,0z"/>
     <rect height="9.346" width="9.344" y="72.998" x="50.144"/>
     <rect height="9.346" width="9.344" y="72.998" x="67.804"/>
    </g>
   </g>
   <g/>
   <g/>
   <g/>
   <g/>
   <g/>
   <g/>
   <g/>
   <g/>
   <g/>
   <g/>
   <g/>
   <g/>
   <g/>
   <g/>
   <g/>
  </symbol>
 </defs>
 <g>
  <title>Layer 1</title>
  <line id="svg_14" y2="177" x2="751" y1="177" x1="748" stroke-linecap="null" stroke-linejoin="null" stroke-dasharray="null" stroke-width="5" stroke="#000000" fill="none"/>
  <ellipse fill="#ffffff" stroke="#000000" stroke-width="0" cx="288" cy="223" id="svg_1" rx="149" ry="149"/>
  <use x="-3061.03983" y="-2001.32577" transform="rotate(-31.38941192626953 -917.8133544921874,182.0127563476562) matrix(0.3295412841748614,0,0,0.3295412841748614,994.1644468543697,1422.3317100685206) " xlink:href="#svg_3" id="svg_4"/>
  <g id="svg_5"/>
 </g>
</svg>