<?xml version="1.0" encoding="iso-8859-1"?>
<!-- Generator: Adobe Illustrator 16.0.0, SVG Export Plug-In . SVG Version: 6.00 Build 0)  -->
<!DOCTYPE svg PUBLIC "-//W3C//DTD SVG 1.1//EN" "http://www.w3.org/Graphics/SVG/1.1/DTD/svg11.dtd">
<svg version="1.1" id="Capa_1" fill="#c7f954" xmlns="http://www.w3.org/2000/svg" xmlns:xlink="http://www.w3.org/1999/xlink" x="0px" y="0px"
	 width="92.957px" height="92.957px" viewBox="0 0 92.957 92.957" style="enable-background:new 0 0 92.957 92.957;"
	 xml:space="preserve">
<g>
	<g>
		<path d="M87.663,65.35c0-0.035-0.004-0.146-0.007-0.182c0-0.081-0.004-0.162-0.014-0.243L80.006,2.586
			C79.827,1.111,78.57,0,77.084,0h-61.21c-1.486,0-2.742,1.111-2.922,2.585L5.318,64.924c-0.01,0.081-0.01,0.115-0.01,0.197
			l-0.017,0.182c-0.006,0.061-0.009,0.121-0.009,0.182v24.529c0,1.623,1.32,2.943,2.942,2.943h76.507
			c1.623,0,2.942-1.32,2.942-2.943L87.663,65.35z M81.791,87.07H11.168V68.333H81.79L81.791,87.07L81.791,87.07z"/>
		<rect x="50.144" y="72.998" width="9.344" height="9.346"/>
		<rect x="67.804" y="72.998" width="9.344" height="9.346"/>
	</g>
</g>
<g>
</g>
<g>
</g>
<g>
</g>
<g>
</g>
<g>
</g>
<g>
</g>
<g>
</g>
<g>
</g>
<g>
</g>
<g>
</g>
<g>
</g>
<g>
</g>
<g>
</g>
<g>
</g>
<g>
</g>
</svg>
