<svg xmlns="http://www.w3.org/2000/svg" xmlns:xlink="http://www.w3.org/1999/xlink" width="119" height="142" viewBox="0 0 119 142">
  <defs>
    <clipPath id="clip-path">
      <rect id="Rectangle_2" data-name="Rectangle 2" width="119" height="119"/>
    </clipPath>
    <clipPath id="clip-Color13">
      <rect width="119" height="142"/>
    </clipPath>
  </defs>
  <g id="Color13" clip-path="url(#clip-Color13)">
    <rect width="119" height="142" fill="#fff"/>
    <g id="Web_1920_1" data-name="Web 1920 – 1" clip-path="url(#clip-path)">
      <rect id="Rectangle_1" data-name="Rectangle 1" width="119" height="119" fill="#fff"/>
      <g id="snowflake">
        <g id="Group_2" data-name="Group 2">
          <g id="Group_1" data-name="Group 1">
            <path id="Path_1" data-name="Path 1" d="M116.109,56.893H106.3l2.391-2.391a2.322,2.322,0,1,0-3.284-3.284l-5.675,5.675H89.576l7.01-7.01A2.322,2.322,0,1,0,93.3,46.6L83.008,56.894H64.822L77.681,44.035H92.239a2.322,2.322,0,1,0,0-4.644H82.326L89.5,32.212h14.558a2.322,2.322,0,1,0,0-4.644H94.149l6.939-6.939A2.324,2.324,0,0,0,97.8,17.345l-6.939,6.939V14.369a2.322,2.322,0,1,0-4.644,0V28.927l-7.179,7.179V26.192a2.322,2.322,0,1,0-4.644,0V40.75L61.538,53.609V35.424l10.3-10.294a2.322,2.322,0,1,0-3.284-3.284l-7.01,7.01V18.7L71.833,8.409a2.322,2.322,0,0,0-3.284-3.284l-7.01,7.01V2.322a2.323,2.323,0,1,0-4.646,0v9.813l-7.01-7.01A2.322,2.322,0,0,0,46.6,8.409L56.894,18.7V28.855l-7.01-7.01A2.322,2.322,0,0,0,46.6,25.129L56.894,35.423V53.609L44.035,40.75V26.192a2.322,2.322,0,1,0-4.644,0v9.914l-7.179-7.179V14.369a2.322,2.322,0,1,0-4.644,0v9.913l-6.94-6.939a2.322,2.322,0,0,0-3.284,3.284l6.939,6.939H14.369a2.322,2.322,0,0,0,0,4.644H28.927l7.179,7.179H26.192a2.322,2.322,0,1,0,0,4.644H40.75l12.859,12.86H35.424L25.13,46.6a2.322,2.322,0,1,0-3.284,3.284l7.01,7.01H18.7L8.409,46.6a2.322,2.322,0,1,0-3.284,3.284l7.01,7.01H2.322a2.323,2.323,0,1,0,0,4.646h9.813l-7.01,7.01a2.322,2.322,0,0,0,3.284,3.284L18.7,61.538H28.856l-7.01,7.01a2.322,2.322,0,0,0,3.284,3.284L35.424,61.537H53.61L40.75,74.4H26.192a2.322,2.322,0,1,0,0,4.644h9.914L28.927,86.22H14.369a2.322,2.322,0,1,0,0,4.644h9.913L17.344,97.8a2.322,2.322,0,0,0,3.284,3.284l6.939-6.939v9.913a2.322,2.322,0,1,0,4.644,0V89.5l7.179-7.179v9.914a2.322,2.322,0,0,0,4.644,0V77.681l12.86-12.859V83.008L46.6,93.3a2.322,2.322,0,0,0,3.284,3.284l7.01-7.01V99.728L46.6,110.022a2.322,2.322,0,0,0,3.284,3.284l7.01-7.01v9.813a2.322,2.322,0,0,0,4.644,0V106.3l7.01,7.01a2.322,2.322,0,0,0,3.284-3.284l-10.295-10.3V89.576l7.01,7.01A2.323,2.323,0,1,0,71.831,93.3L61.537,83.008V64.822L74.4,77.681V92.239a2.322,2.322,0,1,0,4.644,0V82.326L86.219,89.5v14.558a2.322,2.322,0,0,0,4.644,0V94.149l6.939,6.939a2.322,2.322,0,1,0,3.284-3.284l-6.939-6.939h9.913a2.322,2.322,0,1,0,0-4.644H89.5l-7.179-7.179h9.914a2.322,2.322,0,0,0,0-4.644H77.681L64.822,61.538H83.008L93.3,71.832a2.322,2.322,0,1,0,3.284-3.284l-7.01-7.01H99.728l10.294,10.294a2.322,2.322,0,0,0,3.284-3.284l-7.01-7.01h9.813a2.323,2.323,0,1,0,0-4.646Z" fill="#2899d4"/>
          </g>
        </g>
        <g id="Group_4" data-name="Group 4" transform="translate(109.421 56.893)">
          <g id="Group_3" data-name="Group 3">
            <path id="Path_2" data-name="Path 2" d="M475.291,245.961c-2.989,0-2.994,4.644,0,4.644S478.284,245.961,475.291,245.961Z" transform="translate(-473.048 -245.961)" fill="#2899d4"/>
          </g>
        </g>
      </g>
    </g>
    <text id="ISR" transform="translate(45 137)" fill="#2a2929" font-size="20" font-family="Roboto-Medium, Roboto" font-weight="500"><tspan x="0" y="0">ISR</tspan></text>
  </g>
</svg>
