<svg id="svg" version="1.1" xmlns="http://www.w3.org/2000/svg" xmlns:xlink="http://www.w3.org/1999/xlink" width="400" height="366.41221374045807" viewBox="0, 0, 400,366.41221374045807"><g id="svgg"><path id="path0" d="M186.434 16.501 C 184.821 16.642,182.759 16.936,181.852 17.155 C 177.776 18.139,174.347 18.745,169.753 19.293 C 167.030 19.618,164.390 20.095,163.886 20.353 C 162.634 20.993,160.573 21.523,156.717 22.195 C 154.926 22.508,153.207 22.982,152.899 23.250 C 151.883 24.131,150.822 24.530,147.895 25.133 C 146.116 25.499,144.230 26.191,142.988 26.933 C 141.763 27.666,139.997 28.318,138.486 28.595 C 136.848 28.896,135.886 29.267,135.662 29.684 C 135.475 30.035,134.133 30.694,132.661 31.158 C 131.030 31.673,129.739 32.328,129.329 32.850 C 128.925 33.363,127.799 33.942,126.492 34.309 C 125.289 34.647,123.795 35.390,123.135 35.979 C 122.481 36.563,121.340 37.204,120.600 37.403 C 119.859 37.603,118.707 38.243,118.039 38.826 C 117.371 39.410,116.185 40.079,115.403 40.313 C 114.622 40.547,113.621 41.158,113.178 41.670 C 112.736 42.182,111.714 42.937,110.907 43.347 C 110.101 43.758,108.822 44.649,108.065 45.328 C 107.308 46.007,106.442 46.563,106.141 46.563 C 105.840 46.563,104.954 47.140,104.173 47.846 C 103.392 48.552,102.592 49.129,102.396 49.129 C 102.200 49.129,101.159 49.973,100.084 51.004 C 99.008 52.035,97.686 53.033,97.146 53.222 C 96.606 53.410,95.953 53.958,95.696 54.439 C 95.438 54.920,94.761 55.507,94.190 55.743 C 93.620 55.979,92.735 56.722,92.223 57.392 C 91.712 58.063,90.953 58.720,90.538 58.852 C 90.123 58.983,89.635 59.483,89.453 59.961 C 89.271 60.440,88.497 61.156,87.732 61.553 C 86.968 61.950,86.017 62.773,85.618 63.383 C 85.220 63.993,84.519 64.694,84.060 64.939 C 83.601 65.185,82.901 65.935,82.505 66.607 C 82.109 67.278,81.617 67.828,81.413 67.828 C 81.209 67.828,80.711 68.476,80.307 69.268 C 79.903 70.060,79.240 70.813,78.834 70.942 C 78.427 71.071,77.592 71.908,76.977 72.802 C 76.362 73.696,75.638 74.427,75.368 74.427 C 75.098 74.427,74.606 74.999,74.275 75.697 C 73.943 76.396,73.377 77.180,73.016 77.439 C 72.655 77.698,71.797 78.776,71.108 79.835 C 70.419 80.894,69.732 81.760,69.580 81.760 C 69.429 81.760,68.854 82.461,68.304 83.318 C 67.754 84.175,66.761 85.495,66.099 86.252 C 65.437 87.009,64.895 87.875,64.895 88.176 C 64.895 88.477,64.347 89.343,63.677 90.100 C 63.008 90.857,62.106 92.246,61.673 93.188 C 61.240 94.130,60.575 95.120,60.196 95.388 C 59.817 95.656,59.311 96.473,59.071 97.204 C 58.831 97.935,58.064 99.337,57.365 100.320 C 56.667 101.302,56.095 102.294,56.095 102.524 C 56.095 102.754,55.503 103.803,54.780 104.855 C 53.443 106.798,53.143 107.490,52.433 110.264 C 52.214 111.119,51.641 112.192,51.159 112.647 C 50.677 113.102,49.927 114.540,49.493 115.842 C 49.058 117.145,48.397 118.640,48.024 119.164 C 47.650 119.689,47.233 120.603,47.097 121.196 C 46.589 123.401,45.780 125.600,45.148 126.489 C 44.241 127.765,44.097 128.237,43.434 132.082 C 43.076 134.158,42.493 136.083,41.930 137.048 C 41.258 138.200,40.814 139.919,40.275 143.444 C 39.871 146.095,39.223 149.097,38.836 150.115 C 38.449 151.133,37.961 153.782,37.752 156.001 C 37.313 160.654,36.736 165.400,36.261 168.262 C 35.780 171.162,35.835 196.588,36.326 197.868 C 36.738 198.944,37.088 201.871,37.763 209.899 C 38.050 213.311,38.411 215.291,39.033 216.865 C 39.511 218.075,40.178 220.962,40.515 223.281 C 40.852 225.600,41.339 227.745,41.598 228.048 C 42.178 228.725,43.074 231.537,43.643 234.464 C 43.878 235.674,44.378 237.168,44.753 237.785 C 45.128 238.401,45.680 239.803,45.979 240.901 C 47.154 245.212,47.391 245.856,48.077 246.600 C 48.468 247.024,49.131 248.582,49.550 250.063 C 50.032 251.766,50.613 252.992,51.132 253.400 C 51.582 253.755,52.245 255.001,52.605 256.170 C 52.964 257.339,53.565 258.634,53.940 259.048 C 54.315 259.463,55.051 260.865,55.575 262.165 C 56.100 263.465,56.824 264.858,57.185 265.261 C 57.545 265.665,58.199 266.819,58.637 267.828 C 59.074 268.836,59.901 270.156,60.473 270.761 C 61.046 271.366,61.633 272.273,61.778 272.777 C 61.923 273.281,62.501 274.189,63.061 274.794 C 63.621 275.399,64.335 276.402,64.648 277.024 C 64.961 277.645,65.805 278.858,66.525 279.720 C 67.244 280.581,67.933 281.685,68.056 282.174 C 68.178 282.663,68.592 283.230,68.975 283.435 C 69.358 283.640,70.107 284.502,70.640 285.350 C 71.716 287.066,74.370 290.297,76.119 292.024 C 76.747 292.644,77.373 293.505,77.510 293.937 C 77.647 294.369,78.319 295.053,79.004 295.456 C 79.688 295.860,80.504 296.685,80.816 297.290 C 81.129 297.895,81.714 298.494,82.115 298.621 C 82.516 298.749,83.131 299.338,83.481 299.931 C 83.832 300.524,84.415 301.103,84.777 301.218 C 85.139 301.333,85.832 302.011,86.317 302.725 C 86.802 303.439,87.699 304.327,88.311 304.699 C 88.923 305.071,89.677 305.866,89.987 306.466 C 90.297 307.065,90.842 307.649,91.197 307.764 C 91.552 307.879,92.344 308.444,92.957 309.020 C 93.571 309.597,94.726 310.484,95.524 310.992 C 96.322 311.500,97.510 312.431,98.163 313.061 C 98.817 313.692,99.586 314.207,99.872 314.207 C 100.159 314.207,100.844 314.743,101.395 315.399 C 101.947 316.054,102.828 316.772,103.353 316.995 C 103.878 317.218,104.862 317.919,105.538 318.553 C 106.215 319.188,106.896 319.707,107.051 319.707 C 107.207 319.707,108.055 320.389,108.937 321.222 C 109.819 322.056,111.261 323.048,112.142 323.428 C 113.023 323.807,114.046 324.502,114.416 324.972 C 114.785 325.442,115.880 326.121,116.847 326.481 C 117.815 326.841,119.019 327.499,119.523 327.943 C 120.027 328.386,121.182 328.961,122.090 329.219 C 123.543 329.633,125.594 330.772,126.123 331.459 C 126.224 331.590,127.396 332.057,128.729 332.497 C 130.061 332.937,131.526 333.696,131.983 334.182 C 132.440 334.669,133.330 335.175,133.960 335.306 C 134.590 335.437,136.427 336.179,138.042 336.956 C 139.657 337.733,141.720 338.483,142.625 338.623 C 143.530 338.763,145.096 339.410,146.104 340.060 C 147.461 340.934,148.701 341.359,150.871 341.694 C 153.884 342.159,155.916 342.830,156.907 343.686 C 157.217 343.954,159.285 344.436,161.503 344.756 C 163.721 345.077,166.820 345.753,168.389 346.259 C 170.300 346.876,172.841 347.310,176.088 347.577 C 178.754 347.796,182.408 348.214,184.208 348.506 C 187.984 349.119,214.790 349.240,217.965 348.658 C 218.973 348.473,222.809 348.064,226.488 347.748 C 231.851 347.287,233.827 346.959,236.455 346.093 C 238.258 345.499,241.332 344.835,243.286 344.617 C 245.982 344.316,247.163 344.006,248.186 343.329 C 249.025 342.774,250.978 342.141,253.364 341.653 C 256.007 341.111,257.651 340.556,258.663 339.865 C 259.470 339.313,261.120 338.661,262.329 338.416 C 263.538 338.172,264.940 337.701,265.445 337.370 C 267.182 336.229,268.185 335.794,269.939 335.417 C 270.907 335.210,272.177 334.637,272.762 334.145 C 273.347 333.653,274.742 332.935,275.862 332.550 C 276.982 332.165,278.602 331.371,279.462 330.786 C 280.323 330.201,281.539 329.548,282.166 329.335 C 282.793 329.121,284.065 328.367,284.994 327.659 C 285.922 326.950,287.184 326.260,287.798 326.125 C 288.413 325.990,289.088 325.557,289.299 325.163 C 289.510 324.769,290.594 324.043,291.709 323.550 C 292.823 323.057,294.303 322.085,294.998 321.391 C 295.693 320.696,296.763 320.017,297.376 319.882 C 297.990 319.748,298.584 319.397,298.696 319.104 C 298.809 318.810,299.746 318.000,300.780 317.304 C 303.489 315.478,305.718 313.733,307.639 311.933 C 310.989 308.793,311.997 307.974,312.511 307.974 C 312.799 307.974,313.364 307.416,313.767 306.734 C 314.169 306.052,315.010 305.191,315.636 304.822 C 316.262 304.452,316.870 303.849,316.986 303.482 C 317.103 303.114,317.834 302.412,318.612 301.922 C 319.389 301.431,320.160 300.810,320.324 300.542 C 320.489 300.274,321.138 299.696,321.766 299.258 C 322.395 298.819,323.107 297.984,323.349 297.400 C 323.590 296.817,324.204 296.118,324.712 295.846 C 325.220 295.574,325.872 294.893,326.162 294.334 C 326.451 293.774,327.106 293.042,327.616 292.708 C 328.126 292.374,328.790 291.622,329.092 291.039 C 329.394 290.455,330.035 289.798,330.515 289.579 C 330.996 289.360,331.598 288.677,331.854 288.060 C 332.109 287.444,332.871 286.370,333.546 285.674 C 334.222 284.979,335.121 283.731,335.543 282.901 C 335.965 282.072,336.631 281.168,337.023 280.892 C 337.414 280.617,338.046 279.664,338.427 278.776 C 338.808 277.888,339.379 277.062,339.697 276.940 C 340.014 276.818,340.784 275.708,341.407 274.473 C 342.030 273.238,342.861 272.002,343.254 271.726 C 343.646 271.451,344.294 270.461,344.694 269.526 C 345.094 268.592,345.713 267.498,346.071 267.094 C 346.429 266.691,347.082 265.450,347.522 264.335 C 347.962 263.221,348.632 262.117,349.010 261.880 C 349.389 261.644,350.065 260.328,350.514 258.956 C 350.963 257.584,351.620 256.132,351.974 255.729 C 352.844 254.739,353.661 253.051,353.974 251.595 C 354.116 250.935,354.610 249.945,355.071 249.395 C 355.532 248.846,356.031 247.819,356.181 247.113 C 356.557 245.338,357.890 241.469,358.203 241.247 C 358.759 240.851,359.246 239.472,359.822 236.664 C 360.153 235.050,360.815 232.982,361.293 232.067 C 361.771 231.152,362.326 229.419,362.525 228.217 C 362.725 227.015,363.225 224.876,363.635 223.465 C 365.268 217.848,365.519 216.690,366.099 212.099 C 366.429 209.478,366.778 206.425,366.874 205.316 C 366.969 204.207,367.326 202.722,367.667 202.016 C 368.702 199.872,368.799 167.012,367.777 164.856 C 367.381 164.020,366.988 162.429,366.905 161.320 C 366.822 160.211,366.573 158.066,366.351 156.554 C 366.129 155.041,365.756 152.154,365.521 150.138 C 365.286 148.122,364.864 146.027,364.582 145.482 C 363.938 144.236,363.072 140.948,362.577 137.866 C 362.368 136.562,361.878 134.979,361.489 134.350 C 361.101 133.721,360.393 131.558,359.917 129.544 C 359.441 127.529,358.708 125.400,358.288 124.811 C 357.869 124.222,357.172 122.420,356.741 120.807 C 356.310 119.193,355.664 117.544,355.307 117.140 C 354.949 116.737,354.281 115.335,353.822 114.024 C 353.363 112.713,352.668 111.291,352.277 110.864 C 351.887 110.437,351.190 109.008,350.729 107.688 C 350.267 106.369,349.452 104.769,348.917 104.132 C 348.382 103.496,347.680 102.069,347.358 100.960 C 347.035 99.851,346.534 98.852,346.243 98.741 C 345.953 98.629,345.236 97.572,344.650 96.392 C 344.065 95.211,343.227 93.870,342.788 93.411 C 342.350 92.951,341.693 91.894,341.329 91.060 C 340.965 90.227,340.342 89.317,339.944 89.038 C 339.546 88.759,338.970 87.933,338.665 87.202 C 338.360 86.472,337.540 85.237,336.844 84.458 C 336.148 83.680,335.366 82.631,335.108 82.126 C 334.850 81.622,334.083 80.744,333.405 80.175 C 332.727 79.606,332.172 78.921,332.172 78.654 C 332.172 78.387,330.852 76.795,329.239 75.115 C 327.626 73.436,326.306 71.920,326.306 71.747 C 326.306 71.301,313.666 58.662,313.220 58.662 C 313.019 58.662,311.550 57.380,309.956 55.813 C 308.362 54.247,306.612 52.769,306.067 52.530 C 305.522 52.290,304.827 51.611,304.522 51.021 C 304.199 50.397,303.547 49.843,302.961 49.696 C 302.408 49.557,301.312 48.862,300.525 48.151 C 299.738 47.440,298.573 46.640,297.936 46.374 C 297.298 46.108,296.450 45.525,296.051 45.079 C 295.652 44.633,294.665 43.978,293.859 43.623 C 293.052 43.268,291.824 42.462,291.129 41.832 C 290.434 41.202,289.247 40.520,288.490 40.316 C 287.734 40.112,286.814 39.563,286.446 39.095 C 286.079 38.628,284.941 37.967,283.920 37.628 C 282.898 37.288,281.612 36.542,281.064 35.969 C 280.415 35.292,279.260 34.709,277.767 34.305 C 276.502 33.963,275.030 33.276,274.494 32.780 C 273.958 32.283,272.473 31.553,271.192 31.158 C 269.912 30.762,268.578 30.122,268.228 29.734 C 267.877 29.347,266.460 28.753,265.078 28.414 C 263.696 28.076,262.286 27.490,261.944 27.112 C 261.195 26.284,259.928 25.849,256.217 25.145 C 254.671 24.851,252.443 24.117,251.267 23.513 C 250.091 22.909,248.304 22.305,247.296 22.171 C 244.640 21.819,241.182 20.921,240.301 20.354 C 239.882 20.085,237.242 19.607,234.435 19.293 C 231.628 18.979,228.753 18.651,228.048 18.564 C 227.342 18.478,225.445 18.045,223.831 17.603 C 219.143 16.317,196.274 15.644,186.434 16.501 M209.349 31.103 C 213.995 31.270,216.408 31.504,217.008 31.846 C 217.523 32.139,220.538 32.565,224.340 32.881 C 229.391 33.301,231.476 33.642,233.914 34.442 C 235.628 35.006,238.515 35.674,240.330 35.928 C 242.471 36.228,244.346 36.749,245.669 37.414 C 246.791 37.977,249.058 38.758,250.707 39.148 C 252.355 39.539,254.325 40.276,255.083 40.787 C 255.841 41.299,257.369 41.922,258.478 42.173 C 260.599 42.653,263.036 43.729,263.425 44.358 C 263.551 44.562,264.016 44.731,264.458 44.733 C 265.521 44.738,268.953 46.351,269.349 47.031 C 269.520 47.327,270.624 47.846,271.801 48.185 C 273.218 48.593,274.367 49.228,275.204 50.065 C 275.899 50.760,276.751 51.330,277.097 51.330 C 277.719 51.332,280.122 52.633,280.477 53.160 C 280.577 53.310,281.515 53.864,282.559 54.391 C 283.604 54.917,284.676 55.640,284.942 55.997 C 285.208 56.354,286.038 56.928,286.785 57.273 C 287.532 57.619,288.770 58.462,289.535 59.148 C 290.300 59.834,291.421 60.649,292.026 60.960 C 292.631 61.271,293.526 61.953,294.014 62.477 C 294.503 63.000,295.096 63.428,295.331 63.428 C 295.754 63.428,297.775 65.135,300.284 67.610 C 300.995 68.312,302.159 69.280,302.870 69.763 C 304.861 71.114,315.167 81.636,315.656 82.817 C 315.895 83.393,316.485 84.045,316.968 84.265 C 317.451 84.485,318.245 85.290,318.732 86.054 C 319.220 86.818,320.051 87.813,320.579 88.265 C 321.107 88.718,321.540 89.308,321.540 89.576 C 321.540 89.845,321.968 90.465,322.492 90.954 C 323.016 91.442,323.765 92.468,324.158 93.233 C 324.550 93.998,325.264 94.966,325.745 95.384 C 326.226 95.802,326.964 96.946,327.385 97.925 C 327.807 98.904,328.443 99.862,328.799 100.052 C 329.155 100.243,329.838 101.196,330.318 102.170 C 330.797 103.144,331.635 104.519,332.179 105.225 C 332.723 105.930,333.377 107.168,333.631 107.974 C 333.886 108.781,334.468 109.853,334.924 110.357 C 335.992 111.535,336.939 113.416,336.939 114.358 C 336.939 114.763,337.248 115.390,337.627 115.751 C 338.510 116.592,339.872 119.287,339.872 120.192 C 339.872 120.575,340.354 121.496,340.944 122.238 C 341.675 123.158,342.250 124.582,342.753 126.716 C 343.271 128.912,343.753 130.088,344.371 130.661 C 345.044 131.284,345.410 132.294,345.922 134.941 C 346.291 136.846,346.889 138.818,347.252 139.322 C 348.009 140.373,348.585 142.483,349.069 145.973 C 349.255 147.312,349.819 149.502,350.322 150.839 C 351.016 152.682,351.417 155.019,351.980 160.490 C 352.455 165.117,352.916 168.005,353.263 168.534 C 354.177 169.930,354.046 193.603,353.104 197.273 C 352.718 198.773,352.302 201.402,352.178 203.116 C 351.802 208.310,351.217 211.999,350.452 213.994 C 350.053 215.036,349.500 217.345,349.224 219.127 C 348.656 222.798,347.896 225.481,347.065 226.749 C 346.753 227.225,346.340 228.593,346.148 229.790 C 345.595 233.224,345.073 234.820,344.157 235.886 C 343.684 236.437,343.030 238.027,342.683 239.471 C 342.341 240.897,341.715 242.551,341.292 243.144 C 340.869 243.738,340.126 245.321,339.639 246.662 C 339.153 248.003,338.429 249.447,338.031 249.871 C 337.632 250.295,337.063 251.456,336.765 252.452 C 336.468 253.448,335.810 254.706,335.303 255.249 C 334.796 255.792,333.991 257.112,333.513 258.182 C 333.036 259.253,332.291 260.443,331.859 260.827 C 331.426 261.211,331.072 261.708,331.072 261.932 C 331.072 262.576,329.613 265.172,328.686 266.178 C 328.221 266.682,327.593 267.697,327.290 268.434 C 326.987 269.171,326.403 269.880,325.992 270.011 C 325.580 270.141,325.135 270.611,325.001 271.055 C 324.868 271.498,324.142 272.603,323.389 273.511 C 322.635 274.418,321.749 275.684,321.418 276.323 C 321.088 276.963,320.317 277.842,319.704 278.278 C 319.092 278.714,318.355 279.636,318.067 280.326 C 317.769 281.039,317.143 281.733,316.618 281.932 C 316.091 282.133,315.467 282.827,315.165 283.551 C 314.874 284.247,314.294 285.000,313.875 285.224 C 313.457 285.448,312.880 286.086,312.592 286.642 C 312.305 287.197,311.643 287.880,311.122 288.160 C 310.600 288.439,309.855 289.206,309.466 289.865 C 309.077 290.524,308.264 291.319,307.659 291.632 C 307.055 291.945,306.460 292.515,306.338 292.899 C 306.216 293.283,305.623 293.801,305.020 294.051 C 304.416 294.301,303.584 294.981,303.170 295.563 C 302.756 296.144,301.970 296.851,301.425 297.133 C 300.879 297.415,300.206 298.070,299.928 298.588 C 299.651 299.106,299.096 299.634,298.695 299.761 C 298.294 299.888,297.266 300.675,296.410 301.509 C 294.541 303.330,290.871 305.971,289.466 306.505 C 288.909 306.717,288.133 307.296,287.744 307.791 C 287.354 308.286,286.304 309.015,285.410 309.410 C 284.516 309.806,283.247 310.634,282.589 311.251 C 281.931 311.868,280.823 312.562,280.125 312.794 C 279.428 313.025,278.603 313.508,278.292 313.866 C 277.981 314.225,276.819 314.892,275.710 315.350 C 274.601 315.807,273.339 316.553,272.906 317.007 C 272.472 317.460,271.183 318.103,270.039 318.436 C 268.896 318.768,267.433 319.503,266.788 320.069 C 266.143 320.636,264.927 321.284,264.085 321.511 C 263.243 321.738,261.645 322.401,260.534 322.986 C 259.423 323.570,257.232 324.334,255.666 324.682 C 254.099 325.031,252.571 325.562,252.271 325.862 C 251.436 326.697,249.653 327.338,246.972 327.766 C 245.633 327.980,243.567 328.648,242.381 329.251 C 240.706 330.102,239.129 330.501,235.327 331.037 C 232.634 331.416,229.755 331.982,228.929 332.295 C 221.659 335.046,182.371 334.972,174.804 332.192 C 173.740 331.801,170.907 331.216,168.509 330.890 C 165.470 330.478,163.453 329.984,161.850 329.257 C 160.586 328.684,158.836 328.101,157.961 327.961 C 155.300 327.537,152.621 326.674,151.687 325.940 C 151.200 325.557,149.694 324.965,148.339 324.624 C 146.984 324.284,145.292 323.610,144.578 323.126 C 143.865 322.642,142.184 321.993,140.843 321.685 C 139.247 321.317,138.026 320.776,137.305 320.116 C 136.700 319.561,135.233 318.814,134.045 318.456 C 132.858 318.097,131.521 317.438,131.074 316.992 C 130.628 316.546,129.538 315.900,128.651 315.557 C 127.765 315.214,126.484 314.442,125.804 313.842 C 125.125 313.242,124.021 312.600,123.352 312.415 C 122.683 312.230,121.671 311.645,121.104 311.115 C 120.537 310.585,119.200 309.656,118.132 309.051 C 117.065 308.445,116.096 307.701,115.979 307.396 C 115.862 307.092,115.138 306.522,114.369 306.130 C 113.601 305.738,112.745 305.093,112.467 304.697 C 112.190 304.300,111.500 303.800,110.936 303.585 C 109.914 303.197,107.778 301.503,104.565 298.533 C 103.638 297.676,102.730 296.975,102.547 296.975 C 102.160 296.975,88.342 283.098,86.709 281.070 C 86.104 280.319,84.831 278.836,83.879 277.775 C 82.927 276.714,81.937 275.344,81.679 274.731 C 81.421 274.118,80.674 273.166,80.018 272.615 C 79.363 272.063,78.827 271.291,78.827 270.899 C 78.827 270.507,78.257 269.616,77.560 268.920 C 76.864 268.223,76.000 266.826,75.641 265.816 C 75.282 264.805,74.805 263.978,74.581 263.978 C 73.955 263.978,73.098 262.835,72.630 261.374 C 72.397 260.647,71.800 259.671,71.304 259.205 C 70.808 258.739,70.078 257.493,69.683 256.436 C 69.287 255.380,68.556 254.107,68.056 253.608 C 67.557 253.108,66.889 251.824,66.571 250.754 C 66.253 249.684,65.669 248.463,65.273 248.042 C 64.515 247.235,63.428 244.531,63.428 243.451 C 63.428 243.100,62.944 242.205,62.353 241.461 C 61.762 240.717,61.169 239.581,61.036 238.936 C 60.652 237.069,59.789 234.613,58.817 232.615 C 58.322 231.598,57.668 229.371,57.364 227.665 C 57.060 225.960,56.398 223.714,55.893 222.675 C 55.280 221.412,54.746 219.222,54.284 216.076 C 53.903 213.485,53.348 210.788,53.049 210.082 C 50.200 203.355,49.919 166.149,52.652 157.654 C 53.138 156.141,53.791 152.924,54.103 150.504 C 54.732 145.617,55.157 143.977,56.147 142.621 C 56.515 142.117,57.062 140.407,57.363 138.820 C 57.664 137.233,58.409 134.910,59.019 133.658 C 59.629 132.406,60.132 131.064,60.137 130.677 C 60.152 129.495,61.565 125.654,62.278 124.857 C 62.647 124.444,63.222 122.951,63.555 121.540 C 63.975 119.761,64.433 118.748,65.047 118.240 C 65.568 117.808,66.182 116.639,66.541 115.394 C 66.875 114.233,67.527 112.830,67.988 112.278 C 68.450 111.726,69.262 110.351,69.794 109.223 C 70.325 108.095,71.090 106.873,71.494 106.508 C 71.897 106.143,72.227 105.563,72.227 105.219 C 72.227 104.552,73.831 102.001,74.641 101.381 C 74.908 101.176,75.454 100.236,75.853 99.293 C 76.252 98.349,76.906 97.401,77.307 97.187 C 77.707 96.973,78.217 96.246,78.439 95.572 C 78.662 94.898,79.340 93.871,79.947 93.289 C 80.554 92.708,81.442 91.567,81.920 90.754 C 82.397 89.941,83.299 88.900,83.924 88.440 C 84.548 87.980,85.060 87.355,85.060 87.051 C 85.060 86.746,85.678 85.867,86.434 85.096 C 87.191 84.326,88.057 83.367,88.359 82.965 C 88.662 82.563,89.269 82.045,89.709 81.814 C 90.149 81.583,90.624 81.023,90.763 80.569 C 90.982 79.857,92.839 77.737,94.859 75.894 C 95.191 75.591,95.802 74.955,96.219 74.480 C 96.635 74.005,97.267 73.345,97.624 73.014 C 97.981 72.682,98.923 71.792,99.718 71.036 C 100.512 70.280,101.422 69.661,101.739 69.661 C 102.057 69.661,102.653 69.091,103.064 68.394 C 103.475 67.697,104.134 67.024,104.529 66.899 C 104.923 66.774,105.970 65.983,106.855 65.141 C 108.992 63.109,110.539 61.925,112.678 60.684 C 113.652 60.120,114.642 59.342,114.878 58.957 C 115.114 58.572,115.978 57.958,116.798 57.593 C 117.619 57.228,118.729 56.489,119.267 55.952 C 119.804 55.415,121.020 54.642,121.969 54.235 C 122.917 53.829,123.911 53.186,124.176 52.807 C 124.441 52.428,125.277 51.920,126.032 51.677 C 126.788 51.434,128.374 50.597,129.556 49.816 C 130.738 49.035,131.984 48.396,132.325 48.396 C 132.665 48.396,133.937 47.750,135.152 46.961 C 136.367 46.171,138.079 45.332,138.957 45.096 C 139.836 44.859,141.061 44.283,141.680 43.816 C 142.298 43.348,143.960 42.679,145.371 42.328 C 146.783 41.978,148.433 41.327,149.038 40.881 C 150.385 39.890,150.927 39.691,154.130 39.017 C 155.519 38.725,157.664 38.014,158.896 37.438 C 160.128 36.862,162.456 36.190,164.070 35.944 C 165.683 35.698,167.745 35.171,168.653 34.772 C 170.432 33.989,175.797 33.168,181.668 32.780 C 183.685 32.646,185.995 32.310,186.801 32.032 C 187.608 31.755,190.412 31.350,193.032 31.134 C 195.652 30.917,197.880 30.655,197.982 30.550 C 198.083 30.446,199.157 30.473,200.367 30.610 C 201.577 30.747,205.619 30.969,209.349 31.103 M190.625 46.711 C 190.510 46.825,188.696 47.072,186.592 47.259 C 184.489 47.445,181.778 47.857,180.568 48.174 C 179.358 48.490,176.059 49.090,173.236 49.506 C 170.061 49.974,167.583 50.542,166.740 50.996 C 165.991 51.399,163.661 52.116,161.563 52.590 C 159.465 53.065,156.980 53.881,156.041 54.406 C 155.102 54.930,153.224 55.635,151.869 55.972 C 150.513 56.308,148.909 56.953,148.304 57.404 C 147.699 57.855,146.365 58.471,145.339 58.772 C 144.313 59.074,143.014 59.746,142.453 60.266 C 141.891 60.786,140.834 61.320,140.102 61.453 C 138.471 61.748,136.335 62.792,135.636 63.635 C 135.350 63.979,134.391 64.572,133.505 64.952 C 132.619 65.332,131.426 66.037,130.853 66.518 C 130.280 67.000,128.996 67.665,127.999 67.997 C 127.002 68.328,126.099 68.827,125.992 69.105 C 125.886 69.384,124.923 70.185,123.852 70.886 C 122.782 71.586,121.329 72.674,120.623 73.302 C 119.918 73.931,118.990 74.536,118.561 74.648 C 118.133 74.759,117.599 75.251,117.376 75.741 C 117.153 76.231,116.406 76.902,115.716 77.231 C 115.026 77.560,114.287 78.211,114.074 78.679 C 113.861 79.147,113.020 79.870,112.205 80.286 C 111.391 80.701,110.724 81.201,110.724 81.396 C 110.724 81.591,109.656 82.783,108.350 84.046 C 107.045 85.309,105.707 86.614,105.378 86.946 C 104.518 87.813,102.581 89.749,101.841 90.482 C 101.492 90.827,100.584 91.810,99.824 92.668 C 99.064 93.525,97.906 94.774,97.250 95.444 C 96.595 96.113,96.059 96.856,96.059 97.095 C 96.059 97.334,95.333 98.245,94.446 99.120 C 93.558 99.994,92.502 101.354,92.098 102.142 C 91.694 102.930,90.952 103.930,90.448 104.365 C 89.945 104.800,89.421 105.664,89.284 106.286 C 89.148 106.907,88.582 107.789,88.027 108.245 C 87.471 108.701,86.646 109.982,86.194 111.091 C 85.741 112.200,85.090 113.355,84.746 113.657 C 84.403 113.960,83.814 114.867,83.437 115.674 C 83.060 116.480,82.261 117.860,81.661 118.739 C 81.060 119.618,80.329 121.390,80.035 122.677 C 79.682 124.226,79.223 125.235,78.677 125.664 C 78.178 126.057,77.540 127.339,77.063 128.909 C 76.630 130.337,75.972 131.903,75.601 132.389 C 74.757 133.497,74.188 134.957,73.686 137.305 C 73.471 138.313,72.913 139.881,72.446 140.788 C 71.980 141.696,71.324 144.088,70.989 146.104 C 70.645 148.173,69.970 150.614,69.439 151.705 C 68.690 153.244,68.393 154.705,67.983 158.855 C 67.700 161.723,67.301 164.861,67.098 165.829 C 66.894 166.797,66.728 169.452,66.728 171.729 C 66.728 174.345,66.527 176.531,66.182 177.669 C 65.474 180.001,65.472 185.383,66.178 186.618 C 66.558 187.283,66.706 188.890,66.718 192.484 C 66.726 195.206,66.892 198.423,67.085 199.633 C 67.279 200.843,67.691 204.272,68.001 207.252 C 68.448 211.546,68.752 213.030,69.464 214.402 C 69.994 215.424,70.660 217.834,71.090 220.289 C 71.491 222.576,72.051 224.803,72.334 225.239 C 72.812 225.976,73.220 227.150,74.457 231.347 C 74.724 232.255,75.312 233.575,75.764 234.280 C 76.216 234.986,76.865 236.580,77.207 237.822 C 77.549 239.064,78.202 240.483,78.658 240.975 C 79.115 241.468,79.791 242.843,80.161 244.033 C 80.532 245.223,81.196 246.487,81.637 246.843 C 82.079 247.200,82.635 248.107,82.873 248.860 C 83.111 249.613,83.778 250.832,84.355 251.569 C 84.932 252.306,85.802 253.807,86.287 254.904 C 86.772 256.001,87.445 257.005,87.782 257.134 C 88.120 257.264,88.812 258.278,89.320 259.388 C 89.828 260.498,90.727 261.890,91.318 262.481 C 91.909 263.072,92.392 263.806,92.392 264.112 C 92.392 264.419,92.694 264.885,93.063 265.149 C 93.432 265.412,94.245 266.337,94.869 267.204 C 95.494 268.070,96.391 269.083,96.863 269.455 C 97.335 269.826,98.103 270.893,98.568 271.826 C 99.034 272.758,99.865 273.754,100.415 274.038 C 100.965 274.323,101.602 274.965,101.830 275.465 C 102.058 275.965,102.727 276.660,103.318 277.009 C 103.909 277.357,104.672 278.116,105.013 278.695 C 105.355 279.274,106.088 279.981,106.642 280.268 C 107.195 280.554,107.838 281.205,108.070 281.715 C 108.303 282.224,108.983 282.895,109.582 283.205 C 110.182 283.515,110.778 284.103,110.908 284.511 C 111.038 284.920,112.020 285.815,113.090 286.499 C 114.161 287.184,115.263 288.065,115.539 288.458 C 115.815 288.850,116.716 289.515,117.543 289.935 C 118.369 290.356,119.321 291.122,119.659 291.638 C 119.997 292.154,120.530 292.576,120.844 292.576 C 121.158 292.576,122.078 293.226,122.889 294.021 C 123.700 294.816,124.852 295.574,125.448 295.705 C 126.045 295.836,127.077 296.487,127.742 297.152 C 128.407 297.817,129.719 298.701,130.657 299.116 C 131.596 299.531,132.459 300.118,132.575 300.421 C 132.691 300.723,133.597 301.240,134.588 301.569 C 135.580 301.898,137.066 302.732,137.891 303.421 C 138.716 304.111,139.664 304.678,139.998 304.683 C 140.850 304.694,143.760 306.055,144.638 306.853 C 145.041 307.220,146.365 307.767,147.579 308.068 C 148.793 308.369,150.396 309.030,151.141 309.535 C 151.886 310.041,153.120 310.570,153.883 310.711 C 155.238 310.962,156.140 311.299,159.471 312.801 C 160.370 313.207,162.971 313.852,165.252 314.236 C 167.605 314.632,170.149 315.309,171.134 315.799 C 172.428 316.445,174.266 316.828,178.368 317.309 C 181.393 317.664,184.775 318.087,185.885 318.249 C 186.994 318.412,189.249 318.559,190.896 318.576 C 192.543 318.593,194.932 318.873,196.203 319.199 C 198.868 319.882,206.413 319.780,207.767 319.043 C 208.269 318.769,210.345 318.607,213.334 318.607 C 215.956 318.607,218.565 318.429,219.133 318.211 C 219.701 317.993,222.606 317.580,225.590 317.293 C 229.424 316.924,231.426 316.561,232.415 316.057 C 233.901 315.299,235.186 314.958,240.085 314.023 C 241.764 313.702,244.124 312.962,245.329 312.379 C 246.533 311.795,248.459 311.131,249.607 310.903 C 250.756 310.675,252.121 310.186,252.640 309.817 C 253.625 309.118,255.963 308.245,258.045 307.799 C 258.714 307.656,259.353 307.300,259.465 307.008 C 259.716 306.353,261.813 305.258,263.878 304.701 C 264.729 304.473,265.959 303.796,266.614 303.199 C 267.268 302.602,268.386 301.926,269.098 301.699 C 269.811 301.471,270.726 300.983,271.132 300.614 C 271.538 300.246,272.693 299.583,273.698 299.142 C 274.704 298.702,276.071 297.786,276.736 297.108 C 277.401 296.430,278.262 295.875,278.649 295.875 C 279.036 295.875,280.188 295.133,281.210 294.225 C 282.232 293.318,283.222 292.576,283.410 292.576 C 283.598 292.576,284.588 291.833,285.610 290.926 C 286.631 290.018,287.633 289.276,287.836 289.276 C 288.039 289.276,288.846 288.657,289.628 287.901 C 290.411 287.145,291.353 286.257,291.722 285.928 C 292.091 285.599,292.640 285.016,292.942 284.632 C 293.245 284.249,293.933 283.656,294.473 283.315 C 295.012 282.975,295.552 282.385,295.672 282.005 C 295.793 281.625,296.548 281.018,297.350 280.656 C 298.152 280.295,298.808 279.869,298.808 279.710 C 298.808 279.551,299.468 278.659,300.275 277.727 C 301.082 276.795,301.742 275.880,301.742 275.693 C 301.742 275.506,302.401 274.936,303.208 274.427 C 304.015 273.918,304.675 273.285,304.675 273.020 C 304.675 272.453,306.196 270.944,306.767 270.944 C 306.984 270.944,307.266 270.527,307.394 270.018 C 307.522 269.509,308.170 268.478,308.834 267.727 C 309.498 266.976,310.391 265.781,310.818 265.072 C 311.245 264.362,312.034 263.373,312.570 262.872 C 313.107 262.371,313.785 261.368,314.077 260.643 C 314.369 259.917,315.075 258.979,315.646 258.557 C 316.216 258.135,316.796 257.327,316.935 256.760 C 317.073 256.193,317.678 255.111,318.279 254.356 C 318.879 253.601,319.594 252.352,319.866 251.581 C 320.138 250.809,320.863 249.628,321.477 248.955 C 322.126 248.246,322.775 246.976,323.027 245.927 C 323.265 244.934,324.000 243.415,324.659 242.551 C 325.319 241.687,326.121 240.076,326.442 238.971 C 326.764 237.866,327.372 236.524,327.794 235.987 C 328.216 235.451,328.876 233.693,329.261 232.080 C 329.646 230.468,330.361 228.530,330.851 227.774 C 331.389 226.942,331.988 225.092,332.367 223.098 C 332.711 221.283,333.446 218.726,334.001 217.415 C 334.739 215.671,335.220 213.445,335.794 209.111 C 336.225 205.855,336.805 202.638,337.081 201.962 C 338.966 197.356,338.651 169.702,336.618 161.320 C 336.202 159.606,335.673 156.471,335.443 154.354 C 335.210 152.214,334.737 149.934,334.378 149.221 C 333.644 147.764,332.807 144.928,332.160 141.711 C 331.917 140.505,331.179 138.442,330.521 137.128 C 329.862 135.814,329.126 133.886,328.885 132.844 C 328.644 131.802,328.131 130.663,327.745 130.314 C 327.358 129.964,326.762 128.754,326.421 127.625 C 326.079 126.496,325.323 124.844,324.740 123.953 C 324.157 123.061,323.375 121.349,323.001 120.148 C 322.627 118.947,321.918 117.531,321.425 117.002 C 320.932 116.473,320.329 115.417,320.086 114.656 C 319.843 113.895,319.249 112.802,318.766 112.229 C 318.283 111.655,317.566 110.433,317.172 109.514 C 316.778 108.595,316.115 107.660,315.699 107.438 C 315.283 107.215,314.595 106.338,314.169 105.487 C 313.744 104.637,312.854 103.364,312.192 102.658 C 311.529 101.952,310.866 100.962,310.718 100.458 C 310.570 99.954,309.892 99.076,309.212 98.507 C 308.531 97.938,307.974 97.215,307.974 96.901 C 307.974 96.587,307.271 95.651,306.411 94.820 C 305.551 93.989,303.474 91.742,301.794 89.826 C 300.115 87.910,296.983 84.807,294.834 82.930 C 292.684 81.052,290.431 78.965,289.826 78.292 C 289.221 77.619,288.359 76.959,287.911 76.826 C 287.462 76.692,286.750 76.098,286.327 75.505 C 285.905 74.912,285.310 74.427,285.006 74.427 C 284.701 74.427,283.838 73.808,283.087 73.052 C 282.336 72.296,280.867 71.279,279.822 70.792 C 278.777 70.306,277.831 69.621,277.720 69.272 C 277.609 68.922,276.629 68.275,275.543 67.834 C 274.457 67.393,273.288 66.723,272.945 66.343 C 272.602 65.964,271.557 65.370,270.624 65.023 C 269.691 64.675,268.515 63.950,268.011 63.412 C 267.507 62.873,266.197 62.138,265.100 61.778 C 264.004 61.418,262.694 60.711,262.190 60.207 C 261.607 59.624,260.429 59.098,258.950 58.761 C 257.671 58.469,256.155 57.835,255.580 57.351 C 254.992 56.856,253.450 56.221,252.052 55.896 C 250.687 55.580,248.646 54.845,247.516 54.265 C 246.387 53.684,244.143 52.945,242.530 52.623 C 240.917 52.300,238.726 51.616,237.662 51.101 C 236.287 50.436,234.271 49.966,230.696 49.476 C 227.929 49.096,224.840 48.510,223.831 48.174 C 220.811 47.166,191.462 45.873,190.625 46.711 M210.999 61.558 C 213.217 61.809,215.775 62.237,216.682 62.510 C 217.589 62.784,219.899 63.112,221.815 63.239 C 225.569 63.489,230.723 64.553,232.410 65.425 C 232.985 65.723,234.590 66.142,235.976 66.358 C 239.113 66.847,241.679 67.669,242.785 68.539 C 243.250 68.905,244.621 69.409,245.830 69.658 C 248.241 70.155,249.664 70.775,250.384 71.643 C 250.642 71.954,251.455 72.317,252.191 72.450 C 253.574 72.701,256.645 74.295,256.645 74.762 C 256.645 74.907,257.544 75.310,258.642 75.656 C 259.740 76.002,261.308 76.844,262.125 77.527 C 262.942 78.210,264.112 78.878,264.724 79.013 C 265.336 79.147,266.180 79.722,266.600 80.289 C 267.068 80.922,267.976 81.494,268.949 81.766 C 269.901 82.032,270.987 82.706,271.664 83.450 C 272.284 84.131,273.365 84.929,274.067 85.222 C 274.768 85.515,275.536 86.180,275.772 86.699 C 276.009 87.219,276.587 87.740,277.058 87.858 C 277.528 87.976,278.291 88.523,278.754 89.073 C 279.217 89.623,279.877 90.231,280.220 90.423 C 282.356 91.618,293.402 102.571,294.409 104.491 C 294.779 105.197,295.423 105.981,295.840 106.233 C 296.257 106.485,296.833 107.253,297.120 107.939 C 297.407 108.625,297.963 109.289,298.356 109.414 C 298.749 109.539,299.375 110.315,299.747 111.139 C 300.118 111.963,300.772 112.866,301.200 113.146 C 301.956 113.642,303.575 116.445,303.575 117.259 C 303.575 117.482,303.920 117.849,304.342 118.075 C 304.765 118.301,305.448 119.256,305.861 120.196 C 306.273 121.137,307.064 122.428,307.619 123.065 C 308.173 123.702,308.919 125.104,309.275 126.181 C 309.632 127.258,310.385 128.717,310.948 129.423 C 311.510 130.128,312.152 131.531,312.374 132.539 C 312.596 133.547,313.195 134.978,313.706 135.719 C 314.216 136.459,314.965 138.356,315.369 139.933 C 315.773 141.510,316.248 142.890,316.424 142.999 C 317.018 143.366,317.796 145.717,318.407 148.989 C 318.740 150.778,319.263 152.622,319.568 153.087 C 320.444 154.424,321.459 159.168,321.744 163.256 C 321.887 165.317,322.179 167.415,322.392 167.919 C 322.605 168.423,322.899 170.568,323.046 172.686 C 323.192 174.803,323.471 177.731,323.667 179.193 C 323.895 180.906,323.895 182.797,323.667 184.510 C 323.471 185.972,323.183 189.148,323.025 191.567 C 322.868 193.987,322.558 196.874,322.337 197.984 C 322.115 199.093,321.764 201.897,321.556 204.216 C 321.210 208.084,320.298 211.678,319.384 212.779 C 319.184 213.021,318.764 214.805,318.452 216.745 C 317.815 220.706,317.473 221.796,316.594 222.676 C 316.259 223.010,315.665 224.623,315.274 226.261 C 314.849 228.041,314.213 229.654,313.690 230.275 C 313.210 230.846,312.600 232.160,312.335 233.196 C 312.033 234.373,311.488 235.385,310.882 235.896 C 310.348 236.345,309.622 237.583,309.269 238.646 C 308.916 239.710,308.150 241.123,307.567 241.787 C 306.984 242.450,306.506 243.219,306.504 243.495 C 306.498 244.379,304.788 247.641,303.985 248.301 C 303.557 248.652,303.208 249.187,303.208 249.491 C 303.208 249.795,302.652 250.663,301.972 251.420 C 301.293 252.176,300.313 253.636,299.795 254.663 C 299.278 255.691,298.457 256.792,297.971 257.110 C 297.485 257.428,296.887 258.174,296.641 258.768 C 296.395 259.361,295.803 260.056,295.325 260.312 C 294.848 260.567,294.258 261.257,294.015 261.844 C 293.771 262.432,293.089 263.163,292.498 263.468 C 291.907 263.774,291.089 264.591,290.680 265.284 C 290.271 265.977,289.790 266.544,289.611 266.544 C 289.170 266.544,284.510 271.184,284.510 271.623 C 284.510 271.815,283.931 272.313,283.223 272.730 C 282.516 273.148,281.752 273.895,281.526 274.392 C 281.300 274.888,280.636 275.493,280.050 275.735 C 279.464 275.978,278.696 276.544,278.342 276.993 C 277.989 277.443,277.211 278.064,276.613 278.373 C 276.016 278.682,274.950 279.454,274.244 280.089 C 273.538 280.723,272.383 281.549,271.677 281.924 C 270.972 282.298,269.982 283.048,269.478 283.589 C 268.973 284.131,267.986 284.815,267.283 285.109 C 266.580 285.404,265.670 285.959,265.262 286.342 C 264.853 286.726,263.708 287.399,262.716 287.838 C 261.724 288.276,260.513 289.006,260.025 289.459 C 259.537 289.912,258.205 290.590,257.066 290.966 C 255.927 291.341,254.418 292.097,253.712 292.646 C 253.006 293.194,251.514 293.880,250.395 294.170 C 249.277 294.459,247.753 295.110,247.008 295.615 C 246.264 296.120,244.386 296.815,242.835 297.160 C 241.284 297.505,239.797 298.006,239.531 298.272 C 238.921 298.881,236.145 299.678,231.921 300.455 C 230.120 300.786,227.689 301.446,226.520 301.921 C 224.759 302.637,223.023 302.889,216.413 303.392 C 211.648 303.755,207.948 304.210,207.229 304.521 C 205.819 305.130,203.244 305.170,200.917 304.618 C 200.009 304.403,197.122 304.096,194.500 303.936 C 184.138 303.303,180.961 302.897,177.605 301.781 C 175.807 301.183,172.933 300.499,171.219 300.260 C 168.019 299.815,164.986 298.770,164.986 298.112 C 164.986 297.909,164.368 297.638,163.611 297.511 C 160.495 296.989,157.778 296.181,156.842 295.499 C 156.295 295.100,155.009 294.594,153.984 294.374 C 152.912 294.144,151.439 293.453,150.512 292.746 C 149.626 292.070,148.229 291.335,147.406 291.114 C 145.756 290.670,143.355 289.367,143.355 288.916 C 143.355 288.757,142.466 288.267,141.380 287.826 C 140.293 287.385,139.078 286.720,138.678 286.348 C 138.278 285.975,137.097 285.238,136.053 284.709 C 135.009 284.179,134.059 283.499,133.943 283.196 C 133.827 282.893,133.108 282.327,132.345 281.938 C 131.582 281.549,130.651 280.855,130.276 280.395 C 129.901 279.936,129.019 279.267,128.316 278.909 C 127.614 278.551,125.885 277.181,124.473 275.864 C 123.061 274.548,121.281 273.061,120.517 272.560 C 119.753 272.060,118.985 271.273,118.809 270.811 C 118.634 270.350,118.093 269.712,117.608 269.394 C 117.122 269.076,115.829 267.864,114.733 266.700 C 113.637 265.537,112.147 263.994,111.422 263.273 C 110.697 262.552,109.758 261.384,109.335 260.678 C 108.912 259.973,107.989 258.855,107.284 258.194 C 106.578 257.534,105.887 256.633,105.747 256.192 C 105.607 255.751,105.121 255.098,104.668 254.741 C 104.214 254.384,103.583 253.443,103.265 252.649 C 102.948 251.854,102.366 251.102,101.973 250.978 C 101.385 250.791,99.725 248.052,99.725 247.267 C 99.725 247.145,99.164 246.391,98.478 245.589 C 97.792 244.788,97.126 243.571,96.997 242.884 C 96.868 242.197,96.364 241.161,95.878 240.583 C 95.391 240.004,94.649 238.612,94.229 237.490 C 93.809 236.367,93.232 235.359,92.948 235.250 C 92.242 234.979,91.338 233.143,90.695 230.675 C 90.401 229.544,89.941 228.367,89.673 228.058 C 88.885 227.151,88.097 225.083,87.675 222.815 C 87.458 221.651,86.868 219.994,86.363 219.133 C 85.715 218.027,85.273 216.388,84.857 213.550 C 84.533 211.340,84.019 209.144,83.714 208.670 C 82.556 206.867,81.773 201.157,81.554 192.921 C 81.406 187.367,81.181 184.514,80.808 183.464 C 80.338 182.139,80.341 181.705,80.834 179.812 C 81.141 178.631,81.402 176.420,81.412 174.900 C 81.458 168.003,82.655 158.188,83.612 156.849 C 84.034 156.259,84.544 154.461,84.877 152.391 C 85.434 148.931,86.222 146.179,86.886 145.379 C 87.079 145.147,87.471 143.978,87.757 142.781 C 88.404 140.080,88.914 138.769,89.802 137.521 C 90.183 136.987,90.743 135.598,91.047 134.434 C 91.614 132.263,92.527 130.522,93.098 130.522 C 93.276 130.522,93.769 129.375,94.195 127.973 C 94.621 126.571,95.269 125.210,95.635 124.948 C 96.000 124.687,96.494 123.910,96.731 123.222 C 96.968 122.535,97.615 121.394,98.168 120.687 C 98.722 119.980,99.589 118.563,100.096 117.538 C 100.602 116.513,101.369 115.518,101.801 115.328 C 102.244 115.132,102.760 114.395,102.989 113.631 C 103.212 112.888,103.959 111.663,104.649 110.910 C 105.339 110.156,106.092 109.086,106.322 108.531 C 106.551 107.976,107.156 107.299,107.665 107.027 C 108.174 106.755,108.912 105.901,109.306 105.130 C 109.699 104.359,110.431 103.542,110.933 103.313 C 111.446 103.079,112.146 102.218,112.532 101.347 C 112.909 100.495,113.555 99.690,113.968 99.559 C 114.382 99.428,114.825 98.988,114.954 98.581 C 115.084 98.174,115.646 97.564,116.203 97.225 C 116.761 96.885,117.650 96.093,118.180 95.464 C 118.709 94.835,119.599 94.131,120.158 93.899 C 120.716 93.667,121.454 92.985,121.798 92.385 C 122.141 91.784,122.824 91.109,123.316 90.885 C 123.807 90.661,124.406 90.109,124.648 89.659 C 124.889 89.208,125.723 88.558,126.502 88.214 C 127.281 87.871,128.021 87.264,128.148 86.866 C 128.274 86.468,129.314 85.668,130.458 85.088 C 131.603 84.508,132.931 83.613,133.410 83.099 C 133.889 82.585,134.753 82.061,135.330 81.934 C 135.907 81.807,136.696 81.302,137.082 80.811 C 137.468 80.319,138.667 79.525,139.745 79.045 C 140.823 78.565,142.097 77.751,142.576 77.235 C 143.055 76.720,143.913 76.196,144.483 76.071 C 145.053 75.946,146.485 75.219,147.666 74.455 C 148.847 73.692,150.667 72.863,151.711 72.612 C 152.754 72.362,154.193 71.692,154.909 71.124 C 155.830 70.392,156.955 69.964,158.763 69.659 C 160.168 69.422,161.412 69.076,161.527 68.889 C 161.998 68.126,164.629 67.137,167.733 66.555 C 169.546 66.216,171.197 65.798,171.403 65.627 C 172.486 64.728,176.229 63.799,180.202 63.443 C 182.621 63.225,185.674 62.803,186.984 62.504 C 194.039 60.893,202.239 60.570,210.999 61.558 M198.370 85.983 C 197.115 86.617,196.629 87.129,196.256 88.207 C 195.989 88.977,195.567 89.733,195.319 89.886 C 194.967 90.104,194.844 98.616,194.763 128.525 C 194.676 160.193,194.571 167.023,194.157 167.677 C 193.881 168.113,193.544 169.007,193.406 169.665 C 193.251 170.409,192.688 171.219,191.915 171.809 C 191.204 172.350,190.268 173.640,189.728 174.819 C 189.208 175.954,188.558 177.134,188.283 177.442 C 186.865 179.027,186.927 187.333,188.369 188.956 C 188.749 189.384,189.515 190.688,190.071 191.853 C 190.978 193.753,191.316 194.089,193.341 195.101 C 194.584 195.722,195.966 196.566,196.414 196.977 C 197.102 197.608,197.949 197.766,201.913 198.002 L 206.599 198.281 207.893 199.782 C 208.604 200.608,209.388 201.283,209.634 201.283 C 209.881 201.283,210.082 201.426,210.082 201.601 C 210.082 202.055,218.420 210.449,218.872 210.449 C 219.079 210.449,219.248 210.592,219.248 210.767 C 219.248 211.221,227.586 219.615,228.038 219.615 C 228.245 219.615,228.414 219.758,228.414 219.932 C 228.414 220.328,236.722 228.781,237.112 228.782 C 237.269 228.783,237.727 229.290,238.130 229.909 C 238.533 230.528,239.480 231.355,240.233 231.746 C 240.986 232.137,241.872 232.868,242.201 233.371 C 244.221 236.454,251.465 236.354,253.043 233.222 C 253.381 232.551,254.000 231.638,254.418 231.193 C 255.544 229.994,255.448 226.839,254.232 225.115 C 253.735 224.409,252.990 223.302,252.577 222.656 C 252.164 222.010,251.502 221.378,251.105 221.252 C 250.709 221.126,249.985 220.390,249.496 219.615 C 249.007 218.840,248.279 218.103,247.878 217.975 C 247.477 217.848,246.817 217.206,246.410 216.548 C 246.004 215.891,245.271 215.139,244.782 214.877 C 244.294 214.615,243.675 213.993,243.408 213.494 C 243.141 212.995,242.466 212.350,241.907 212.062 C 241.349 211.773,240.639 211.047,240.330 210.449 C 240.021 209.851,239.275 209.107,238.674 208.796 C 238.072 208.485,237.580 208.088,237.580 207.913 C 237.580 207.739,236.755 206.766,235.747 205.753 C 234.739 204.739,233.914 203.759,233.914 203.575 C 233.914 203.391,233.476 203.006,232.941 202.720 C 232.405 202.434,231.745 201.668,231.473 201.017 C 231.201 200.366,230.496 199.585,229.906 199.280 C 229.316 198.974,228.726 198.387,228.595 197.974 C 228.463 197.561,227.722 196.823,226.948 196.334 C 226.173 195.845,225.432 195.107,225.301 194.694 C 225.170 194.280,224.582 193.694,223.995 193.390 C 223.408 193.087,222.674 192.349,222.365 191.751 C 222.056 191.153,221.322 190.415,220.735 190.111 C 220.147 189.807,219.559 189.219,219.427 188.803 C 219.295 188.388,218.624 187.484,217.935 186.795 C 216.779 185.640,216.681 185.363,216.667 183.239 C 216.659 181.972,216.448 179.780,216.197 178.368 C 215.724 175.708,215.521 175.386,212.158 171.968 C 209.877 169.651,209.960 171.185,209.815 128.901 L 209.682 90.067 208.641 88.882 C 208.069 88.230,207.534 87.498,207.453 87.254 C 207.330 86.886,200.780 84.952,200.188 85.109 C 200.084 85.137,199.267 85.530,198.370 85.983 M131.375 105.026 C 130.735 105.305,129.927 105.967,129.579 106.497 C 129.231 107.028,128.479 107.704,127.908 107.999 C 127.336 108.295,126.632 108.993,126.344 109.552 C 126.055 110.110,125.378 110.803,124.840 111.091 C 124.301 111.379,123.619 112.081,123.325 112.651 C 123.030 113.221,122.013 114.565,121.064 115.637 C 118.918 118.063,117.342 120.080,116.464 121.526 C 116.093 122.139,115.498 122.887,115.144 123.190 C 114.789 123.492,114.219 124.466,113.876 125.353 L 113.252 126.967 114.310 128.286 C 114.891 129.012,116.179 130.050,117.170 130.594 C 118.162 131.137,119.325 131.990,119.755 132.488 C 121.984 135.075,125.621 133.546,127.952 129.044 C 128.321 128.332,129.050 127.520,129.573 127.241 C 130.095 126.961,130.522 126.513,130.522 126.245 C 130.522 125.977,131.070 125.139,131.738 124.382 C 132.407 123.626,133.307 122.496,133.739 121.872 C 134.171 121.248,135.833 119.433,137.433 117.839 C 140.847 114.438,141.486 112.734,140.086 110.767 C 139.666 110.177,139.322 109.508,139.322 109.280 C 139.322 109.053,138.762 108.536,138.078 108.132 C 137.393 107.728,136.640 106.932,136.404 106.362 C 135.744 104.769,133.399 104.146,131.375 105.026 M102.727 148.869 C 102.286 149.280,101.925 149.674,101.925 149.745 C 101.925 150.992,100.524 156.530,99.787 158.193 L 98.808 160.403 98.809 182.951 L 98.809 205.500 99.960 208.249 C 100.594 209.762,101.304 212.154,101.540 213.566 C 101.798 215.115,102.322 216.648,102.862 217.434 C 103.354 218.150,104.104 220.129,104.530 221.833 C 104.955 223.537,105.596 225.261,105.954 225.665 C 106.833 226.654,107.646 228.336,107.968 229.829 C 108.114 230.506,108.632 231.647,109.119 232.364 C 109.605 233.082,110.288 234.468,110.634 235.444 C 111.001 236.477,111.550 237.310,111.947 237.436 C 112.323 237.555,113.039 238.577,113.539 239.708 C 114.038 240.838,114.925 242.365,115.508 243.102 C 116.091 243.838,116.735 244.879,116.939 245.415 C 117.142 245.950,117.708 246.570,118.196 246.793 C 118.684 247.015,119.364 247.819,119.707 248.579 C 120.050 249.340,120.719 250.139,121.195 250.356 C 121.671 250.572,122.381 251.375,122.774 252.139 C 123.698 253.935,131.871 261.778,132.819 261.778 C 133.010 261.778,133.494 261.362,133.893 260.854 C 134.293 260.346,135.072 259.697,135.625 259.411 C 136.177 259.125,137.027 258.310,137.514 257.600 C 138.001 256.889,138.735 256.128,139.145 255.908 C 141.575 254.608,141.188 251.011,138.308 248.134 C 136.937 246.764,135.747 245.568,134.372 244.179 C 133.969 243.771,133.020 242.835,132.264 242.099 C 131.508 241.362,130.889 240.566,130.889 240.330 C 130.889 240.094,130.398 239.464,129.798 238.929 C 129.198 238.394,128.308 237.171,127.820 236.210 C 127.332 235.250,126.421 233.929,125.795 233.276 C 125.169 232.622,124.656 231.844,124.656 231.547 C 124.656 231.250,124.146 230.426,123.523 229.716 C 122.900 229.006,122.064 227.568,121.666 226.519 C 121.268 225.471,120.541 224.138,120.052 223.556 C 119.563 222.975,118.815 221.355,118.391 219.957 C 117.966 218.558,117.469 217.322,117.287 217.209 C 116.658 216.820,115.577 213.926,115.172 211.543 C 114.948 210.229,114.441 208.517,114.044 207.739 C 113.246 206.174,112.812 204.192,112.197 199.302 C 111.971 197.507,111.548 195.696,111.255 195.279 C 110.480 194.172,110.476 172.621,111.251 171.135 C 111.538 170.584,111.956 168.522,112.180 166.552 C 112.745 161.577,113.255 159.174,114.100 157.510 C 115.976 153.818,114.202 149.966,110.620 149.951 C 110.173 149.949,108.925 149.536,107.846 149.034 C 105.454 147.921,103.802 147.867,102.727 148.869 " stroke="none" fill="#bdf151" fill-rule="evenodd"></path></g></svg>