<svg id="svg" version="1.1" xmlns="http://www.w3.org/2000/svg" xmlns:xlink="http://www.w3.org/1999/xlink" width="400" height="427.27272727272725" viewBox="0, 0, 400,427.27272727272725"><g id="svgg"><path id="path0" d="M199.512 176.019 C 192.467 177.094,186.279 183.403,185.012 190.805 C 184.654 192.892,184.189 195.500,183.978 196.600 C 182.823 202.631,181.992 208.038,181.415 213.274 C 181.060 216.505,180.522 219.925,180.220 220.874 C 179.138 224.273,178.231 230.391,178.734 230.894 C 179.522 231.682,178.712 239.232,177.564 241.800 C 177.367 242.240,177.025 244.592,176.803 247.028 C 176.168 253.989,175.688 257.308,174.857 260.478 C 174.434 262.095,173.969 265.035,173.824 267.009 C 173.453 272.080,172.424 279.113,171.776 281.000 C 171.145 282.838,171.001 283.864,170.373 291.000 C 170.119 293.883,169.503 297.626,168.990 299.400 C 168.481 301.160,167.950 304.220,167.810 306.200 C 167.368 312.464,166.421 318.969,165.619 321.250 C 165.109 322.701,164.710 325.428,164.453 329.227 C 164.093 334.535,163.210 339.828,162.354 341.800 C 162.037 342.532,161.835 344.257,160.812 355.000 C 160.623 356.980,160.176 359.288,159.817 360.128 C 159.459 360.968,158.981 363.668,158.755 366.128 C 158.529 368.588,158.086 372.277,157.772 374.326 C 156.526 382.442,157.385 390.086,159.785 392.250 C 160.303 392.717,161.022 393.670,161.383 394.367 C 161.743 395.064,162.525 395.818,163.119 396.042 C 163.714 396.266,164.740 396.963,165.400 397.592 C 167.790 399.869,186.311 400.299,191.018 398.187 C 192.845 397.367,195.249 396.938,201.000 396.403 C 203.860 396.138,207.190 395.738,208.400 395.515 C 209.610 395.292,211.410 394.969,212.400 394.796 C 213.390 394.624,214.830 394.297,215.600 394.071 C 216.370 393.845,219.610 393.451,222.800 393.195 C 226.084 392.931,229.554 392.414,230.800 392.002 C 232.010 391.602,236.600 390.891,241.000 390.423 C 245.400 389.955,250.170 389.236,251.600 388.826 C 254.077 388.116,258.368 387.540,265.400 386.976 C 267.160 386.835,269.140 386.452,269.800 386.126 C 271.283 385.394,274.468 384.862,280.200 384.389 C 288.163 383.732,290.195 383.500,290.600 383.200 C 291.880 382.253,300.849 380.850,306.000 380.790 C 307.210 380.776,308.920 380.505,309.800 380.188 C 310.680 379.871,311.850 379.607,312.400 379.600 C 312.950 379.594,314.120 379.343,315.000 379.043 C 315.880 378.743,319.300 378.284,322.600 378.023 C 326.139 377.743,329.667 377.222,331.200 376.753 C 332.630 376.315,337.490 375.529,342.000 375.005 C 346.510 374.482,351.010 373.861,352.000 373.625 C 355.081 372.892,358.040 372.440,362.483 372.024 C 366.193 371.677,367.223 371.407,370.175 370.012 C 372.050 369.125,373.755 368.400,373.965 368.400 C 374.175 368.400,374.457 368.051,374.592 367.625 C 374.728 367.198,375.415 366.329,376.119 365.693 C 377.590 364.366,378.400 363.105,378.400 362.141 C 378.400 361.772,378.887 360.644,379.481 359.635 C 381.252 356.630,381.336 351.152,379.662 347.845 C 378.981 346.500,378.314 344.863,378.181 344.206 C 377.994 343.290,361.800 326.873,308.776 273.845 C 269.318 234.385,239.046 203.803,238.291 202.639 C 237.563 201.518,236.776 200.241,236.542 199.802 C 236.307 199.363,235.840 199.003,235.504 199.002 C 235.167 199.001,230.537 194.647,225.214 189.328 C 215.763 179.882,214.457 178.808,209.800 176.650 C 208.245 175.929,202.438 175.573,199.512 176.019 " stroke="none" fill="#e3347b" fill-rule="evenodd"></path><path id="path1" d="M236.720 31.988 C 235.686 32.175,234.655 32.442,234.428 32.582 C 233.995 32.850,231.145 33.242,222.680 34.199 C 219.864 34.517,217.407 34.872,217.219 34.988 C 216.445 35.467,210.202 36.456,204.400 37.019 C 200.990 37.350,197.445 37.898,196.521 38.236 C 194.693 38.905,192.392 39.228,180.800 40.447 C 178.490 40.690,175.340 41.298,173.800 41.799 C 171.917 42.411,169.493 42.795,166.400 42.970 C 161.307 43.259,158.017 43.697,156.200 44.329 C 154.213 45.020,148.126 45.948,142.441 46.426 C 139.493 46.674,136.343 47.142,135.441 47.465 C 133.752 48.071,132.107 48.320,122.756 49.384 C 119.761 49.725,115.926 50.359,114.233 50.792 C 112.540 51.225,108.330 51.858,104.877 52.198 C 99.385 52.740,95.323 53.408,88.894 54.824 C 87.956 55.031,86.438 55.200,85.521 55.200 C 82.838 55.200,76.751 56.036,74.800 56.673 C 72.966 57.271,70.579 57.610,62.400 58.431 C 59.870 58.686,57.350 59.119,56.800 59.393 C 56.250 59.668,54.630 60.018,53.200 60.170 C 48.952 60.622,44.343 61.903,43.709 62.808 C 43.400 63.250,42.540 63.865,41.800 64.174 C 41.059 64.484,40.180 65.264,39.847 65.909 C 39.514 66.554,38.827 67.354,38.320 67.688 C 37.689 68.104,37.100 69.284,36.444 71.447 C 35.918 73.181,35.321 74.813,35.118 75.072 C 34.522 75.833,34.273 79.683,34.720 81.202 C 35.523 83.931,38.008 89.373,38.602 89.705 C 38.934 89.891,39.548 90.714,39.967 91.534 C 40.385 92.355,41.180 93.268,41.733 93.564 C 42.286 93.860,42.840 94.507,42.964 95.001 C 43.089 95.496,43.723 96.120,44.380 96.392 C 45.035 96.663,45.799 97.401,46.079 98.033 C 46.358 98.664,47.085 99.386,47.693 99.639 C 48.302 99.891,48.800 100.255,48.800 100.449 C 48.800 100.898,59.887 112.000,60.336 112.000 C 60.520 112.000,60.869 112.433,61.110 112.962 C 61.351 113.491,62.107 114.254,62.791 114.658 C 63.474 115.062,64.139 115.816,64.270 116.335 C 64.405 116.876,64.962 117.438,65.574 117.651 C 66.161 117.855,66.964 118.569,67.358 119.237 C 67.753 119.905,68.509 120.649,69.038 120.890 C 69.567 121.131,70.000 121.480,70.000 121.664 C 70.000 122.103,81.097 133.200,81.536 133.200 C 81.720 133.200,82.069 133.633,82.310 134.162 C 82.551 134.691,83.307 135.454,83.991 135.858 C 84.674 136.262,85.339 137.016,85.470 137.535 C 85.605 138.076,86.162 138.638,86.774 138.851 C 87.361 139.055,88.164 139.769,88.558 140.437 C 88.953 141.105,89.709 141.849,90.238 142.090 C 90.767 142.331,91.200 142.680,91.200 142.864 C 91.200 143.313,102.302 154.400,102.751 154.400 C 102.945 154.400,103.309 154.898,103.561 155.507 C 103.814 156.115,104.536 156.842,105.167 157.121 C 105.799 157.401,106.530 158.147,106.792 158.780 C 107.054 159.413,107.660 160.029,108.138 160.149 C 108.617 160.269,109.338 160.926,109.742 161.609 C 110.146 162.293,110.909 163.049,111.438 163.290 C 111.967 163.531,112.400 163.877,112.400 164.058 C 112.400 164.489,120.742 172.800,121.175 172.800 C 121.357 172.800,121.600 173.158,121.715 173.597 C 121.830 174.035,122.483 174.710,123.167 175.097 C 123.851 175.483,124.619 176.265,124.873 176.832 C 125.127 177.400,125.826 178.082,126.425 178.347 C 127.025 178.612,127.737 179.365,128.008 180.020 C 128.293 180.707,128.903 181.311,129.451 181.448 C 129.973 181.580,130.400 181.840,130.400 182.026 C 130.400 182.468,141.929 194.000,142.370 194.000 C 142.555 194.000,142.800 194.358,142.915 194.797 C 143.030 195.235,143.683 195.910,144.367 196.297 C 145.051 196.683,145.819 197.465,146.073 198.032 C 146.327 198.600,147.000 199.273,147.568 199.527 C 148.135 199.781,148.917 200.549,149.303 201.233 C 149.690 201.917,150.365 202.570,150.803 202.685 C 151.242 202.800,151.600 203.043,151.600 203.225 C 151.600 203.658,159.911 212.000,160.342 212.000 C 160.523 212.000,160.869 212.433,161.110 212.962 C 161.351 213.491,162.107 214.254,162.791 214.658 C 163.474 215.062,164.131 215.783,164.251 216.262 C 164.371 216.740,164.960 217.335,165.559 217.583 C 166.158 217.831,166.969 218.578,167.362 219.243 C 167.754 219.908,168.509 220.649,169.038 220.890 C 169.567 221.131,170.000 221.480,170.000 221.666 C 170.000 222.122,177.488 229.600,177.944 229.600 C 178.345 229.600,178.990 227.252,179.427 224.200 C 179.585 223.100,179.950 221.527,180.238 220.704 C 180.526 219.881,181.054 216.551,181.412 213.304 C 181.991 208.041,182.822 202.636,183.978 196.600 C 184.189 195.500,184.654 192.892,185.012 190.805 C 186.336 183.071,192.472 177.050,200.112 175.987 C 203.783 175.476,209.149 176.009,210.703 177.038 C 211.306 177.438,212.635 178.184,213.656 178.696 C 214.907 179.324,218.708 182.825,225.334 189.451 C 231.063 195.180,235.341 199.160,235.599 199.000 C 237.253 197.978,238.264 193.567,239.175 183.400 C 239.547 179.242,240.042 176.405,240.990 173.000 C 241.296 171.900,241.654 169.740,241.786 168.200 C 242.313 162.057,242.910 157.714,243.458 156.035 C 243.775 155.064,244.390 151.104,244.824 147.235 C 245.699 139.432,246.201 136.280,246.993 133.600 C 247.285 132.610,247.798 128.798,248.133 125.129 C 248.468 121.459,248.933 118.099,249.168 117.661 C 249.659 116.741,250.307 112.653,250.824 107.200 C 251.467 100.417,251.872 97.840,252.707 95.197 C 253.203 93.625,253.712 90.311,253.994 86.800 C 254.465 80.949,255.149 76.673,256.202 73.000 C 256.517 71.900,256.968 68.480,257.204 65.400 C 257.440 62.320,257.797 59.170,257.999 58.400 C 259.344 53.250,259.588 51.956,259.594 49.937 C 259.598 48.274,259.282 46.966,258.400 45.000 C 257.740 43.529,257.200 41.925,257.200 41.436 C 257.200 40.944,256.620 40.016,255.900 39.357 C 255.185 38.702,254.212 37.724,253.739 37.183 C 250.124 33.055,242.943 30.863,236.720 31.988 " stroke="none" fill="#fac90d" fill-rule="evenodd"></path></g></svg>