<?xml version="1.0" standalone="no"?><!DOCTYPE svg PUBLIC "-//W3C//DTD SVG 1.1//EN" "http://www.w3.org/Graphics/SVG/1.1/DTD/svg11.dtd"><svg xmlns:xlink="http://www.w3.org/1999/xlink" version="1.1" class="highcharts-root" style="font-family:&quot;Lucida Grande&quot;, &quot;Lucida Sans Unicode&quot;, Arial, Helvetica, sans-serif;font-size:12px;" xmlns="http://www.w3.org/2000/svg" width="600" height="400" viewBox="0 0 600 400"><desc>Created with Highcharts 7.0.3</desc><defs><clipPath id="highcharts-nwmzfgh-19"><rect x="0" y="0" width="493" height="332" fill="none"></rect></clipPath><clipPath id="highcharts-nwmzfgh-27"><circle cx="246.5" cy="166" r="132.8"></circle></clipPath><clipPath id="highcharts-nwmzfgh-35"><circle cx="246.5" cy="166" r="132.8"></circle></clipPath></defs><rect fill="#ffffff" class="highcharts-background" x="0" y="0" width="600" height="400" rx="0" ry="0"></rect><rect fill="none" class="highcharts-plot-background" x="10" y="53" width="493" height="332"></rect><g class="highcharts-pane-group" data-z-index="0"></g><g class="highcharts-grid highcharts-xaxis-grid " data-z-index="1"><path fill="none" stroke="#e6e6e6" stroke-width="1" data-z-index="1" class="highcharts-grid-line" d="M 256.5 219 L 256.5 86.19999999999999" opacity="1"></path><path fill="none" stroke="#e6e6e6" stroke-width="1" data-z-index="1" class="highcharts-grid-line" d="M 256.5 219 L 371.50817362257345 152.6" opacity="1"></path><path fill="none" stroke="#e6e6e6" stroke-width="1" data-z-index="1" class="highcharts-grid-line" d="M 256.5 219 L 371.50817362257345 285.4" opacity="1"></path><path fill="none" stroke="#e6e6e6" stroke-width="1" data-z-index="1" class="highcharts-grid-line" d="M 256.5 219 L 256.5 351.8" opacity="1"></path><path fill="none" stroke="#e6e6e6" stroke-width="1" data-z-index="1" class="highcharts-grid-line" d="M 256.5 219 L 141.49182637742655 285.40000000000003" opacity="1"></path><path fill="none" stroke="#e6e6e6" stroke-width="1" data-z-index="1" class="highcharts-grid-line" d="M 256.5 219 L 141.4918263774265 152.60000000000008" opacity="1"></path><path fill="none" stroke="#e6e6e6" stroke-width="1" data-z-index="1" class="highcharts-grid-line" d="M 256.5 219 L 256.5 86.19999999999999" opacity="1"></path></g><g class="highcharts-grid highcharts-yaxis-grid " data-z-index="1"><path fill="none" stroke="#e6e6e6" stroke-width="1" data-z-index="1" class="highcharts-grid-line" d="M 256.5 219 L 256.5 219 L 256.5 219 L 256.5 219 L 256.5 219 L 256.5 219 L 256.5 219 L 256.5 219" opacity="1"></path><path fill="none" stroke="#e6e6e6" stroke-width="1" data-z-index="1" class="highcharts-grid-line" d="M 256.5 152.6 L 256.5 152.6 L 198.99591318871325 185.80000000000004 L 198.99591318871327 252.20000000000002 L 256.5 285.4 L 314.00408681128675 252.2 L 314.0040868112867 185.8 L 256.5 152.6" opacity="1"></path><path fill="none" stroke="#e6e6e6" stroke-width="1" data-z-index="1" class="highcharts-grid-line" d="M 256.5 86.19999999999999 L 256.5 86.19999999999999 L 141.4918263774265 152.60000000000008 L 141.49182637742655 285.40000000000003 L 256.5 351.8 L 371.50817362257345 285.4 L 371.50817362257345 152.6 L 256.5 86.19999999999999" opacity="1"></path></g><rect fill="none" class="highcharts-plot-border" data-z-index="1" x="10" y="53" width="493" height="332"></rect><g class="highcharts-axis highcharts-xaxis " data-z-index="2"><path fill="none" class="highcharts-axis-line" data-z-index="7" d="M 256.5 86.19999999999999 A 132.8 132.8 0 1 1 256.36720002213326 86.20006639999445 M 256.5 219 A 0 0 0 1 0 256.5 219 "></path></g><g class="highcharts-axis highcharts-yaxis " data-z-index="2"><path fill="none" class="highcharts-axis-line" data-z-index="7" d="M 256.5 219 L 256.5 86.19999999999999"></path></g><g class="highcharts-series-group" data-z-index="3"><g data-z-index="0.1" class="highcharts-series highcharts-series-0 highcharts-line-series highcharts-color-0 " transform="translate(10,53) scale(1 1)" clip-path="url(#highcharts-nwmzfgh-27)"><path fill="none" d="M 246.5 66.39999999999999 L 304.0040868112868 132.80000000000013 L 332.7561302169299 215.8000000000004 L 246.49999999999983 192.56 L 229.2487739566139 175.95999999999984 L 211.9975479132282 146.0799999999996 L 246.5 66.39999999999999" class="highcharts-graph" data-z-index="1" stroke="#7cb5ec" stroke-width="2" stroke-linejoin="round" stroke-linecap="round"></path></g><g data-z-index="0.1" class="highcharts-markers highcharts-series-0 highcharts-line-series highcharts-color-0 " transform="translate(10,53) scale(1 1)" clip-path="none"><path fill="#7cb5ec" d="M 250 66 A 4 4 0 1 1 249.99999800000018 65.99600000066667 Z" class="highcharts-point highcharts-color-0"></path><path fill="#7cb5ec" d="M 308 133 A 4 4 0 1 1 307.9999980000002 132.99600000066667 Z" class="highcharts-point highcharts-color-0"></path><path fill="#7cb5ec" d="M 336 216 A 4 4 0 1 1 335.9999980000002 215.99600000066667 Z" class="highcharts-point highcharts-color-0"></path><path fill="#7cb5ec" d="M 250 193 A 4 4 0 1 1 249.99999800000018 192.99600000066667 Z" class="highcharts-point highcharts-color-0"></path><path fill="#7cb5ec" d="M 233 176 A 4 4 0 1 1 232.99999800000018 175.99600000066667 Z" class="highcharts-point highcharts-color-0"></path><path fill="#7cb5ec" d="M 215 146 A 4 4 0 1 1 214.99999800000018 145.99600000066667 Z" class="highcharts-point highcharts-color-0"></path></g><g data-z-index="0.1" class="highcharts-series highcharts-series-1 highcharts-line-series highcharts-color-1 " transform="translate(10,53) scale(1 1)" clip-path="url(#highcharts-nwmzfgh-35)"><path fill="none" d="M 246.5 86.32 L 327.0057215358015 119.52000000000018 L 309.75449549241523 202.5200000000003 L 246.49999999999955 232.39999999999998 L 171.74468714532685 209.1599999999993 L 154.49346110194185 112.87999999999892 L 246.5 86.32" class="highcharts-graph" data-z-index="1" stroke="#434348" stroke-width="2" stroke-linejoin="round" stroke-linecap="round"></path></g><g data-z-index="0.1" class="highcharts-markers highcharts-series-1 highcharts-line-series highcharts-color-1 " transform="translate(10,53) scale(1 1)" clip-path="none"><path fill="#434348" d="M 246 82 L 250 86 246 90 242 86 Z" class="highcharts-point highcharts-color-1"></path><path fill="#434348" d="M 327 116 L 331 120 327 124 323 120 Z" class="highcharts-point highcharts-color-1"></path><path fill="#434348" d="M 309 199 L 313 203 309 207 305 203 Z" class="highcharts-point highcharts-color-1"></path><path fill="#434348" d="M 246 228 L 250 232 246 236 242 232 Z" class="highcharts-point highcharts-color-1"></path><path fill="#434348" d="M 171 205 L 175 209 171 213 167 209 Z" class="highcharts-point highcharts-color-1"></path><path fill="#434348" d="M 154 109 L 158 113 154 117 150 113 Z" class="highcharts-point highcharts-color-1"></path></g></g><text x="220" text-anchor="middle" class="highcharts-title" data-z-index="4" style="color:#333333;font-size:18px;fill:#333333;" y="24"><tspan>Budget vs spending</tspan></text><text x="300" text-anchor="middle" class="highcharts-subtitle" data-z-index="4" style="color:#666666;fill:#666666;" y="52"></text><g class="highcharts-legend" data-z-index="7" transform="translate(515,80)"><rect fill="none" class="highcharts-legend-box" rx="0" ry="0" x="0" y="0" width="75" height="47" visibility="visible"></rect><g data-z-index="1"><g><g class="highcharts-legend-item highcharts-line-series highcharts-color-0 highcharts-series-0" data-z-index="1" transform="translate(8,3)"><path fill="none" d="M 0 11 L 16 11" class="highcharts-graph" stroke="#7cb5ec" stroke-width="2"></path><path fill="#7cb5ec" d="M 12 11 A 4 4 0 1 1 11.999998000000167 10.996000000666664 Z" class="highcharts-point"></path><text x="21" style="color:#333333;cursor:pointer;font-size:12px;font-weight:bold;fill:#333333;" text-anchor="start" data-z-index="2" y="15"><tspan>In Use</tspan></text></g><g class="highcharts-legend-item highcharts-line-series highcharts-color-1 highcharts-series-1" data-z-index="1" transform="translate(8,21)"><path fill="none" d="M 0 11 L 16 11" class="highcharts-graph" stroke="#434348" stroke-width="2"></path><path fill="#434348" d="M 8 7 L 12 11 8 15 4 11 Z" class="highcharts-point"></path><text x="21" y="15" style="color:#333333;cursor:pointer;font-size:12px;font-weight:bold;fill:#333333;" text-anchor="start" data-z-index="2"><tspan>Idle</tspan></text></g></g></g></g><g class="highcharts-axis-labels highcharts-xaxis-labels " data-z-index="7"><text x="256.5" style="color:#666666;cursor:default;font-size:11px;fill:#666666;" transform="translate(0,0)" text-anchor="middle" y="75.19999999999999" opacity="1">Sales</text><text x="384.49855467934003" style="color:#666666;cursor:default;font-size:11px;fill:#666666;" transform="translate(0,0)" text-anchor="start" y="149.1" opacity="1">Marketing</text><text x="384.49855467934003" style="color:#666666;cursor:default;font-size:11px;fill:#666666;" transform="translate(0,0)" text-anchor="start" y="296.9" opacity="1">Development</text><text x="256.5" style="color:#666666;cursor:default;font-size:11px;fill:#666666;" transform="translate(0,0)" text-anchor="middle" y="370.8" opacity="1"><tspan>Customer Support</tspan></text><text x="128.50144532065997" style="color:#666666;cursor:default;font-size:11px;fill:#666666;" transform="translate(0,0)" text-anchor="end" y="288.40000000000003" opacity="1"><tspan>Information</tspan><tspan dy="14" x="128.50144532065997">Technology</tspan></text><text x="128.5014453206599" style="color:#666666;cursor:default;font-size:11px;fill:#666666;" transform="translate(0,0)" text-anchor="end" y="149.10000000000008" opacity="1">Administration</text><text x="0" style="color:#666666;cursor:default;font-size:11px;fill:#666666;" transform="translate(0,0)" text-anchor="middle" y="-9999">6</text></g><g class="highcharts-axis-labels highcharts-yaxis-labels " data-z-index="7"><text x="253.5" style="color:#666666;cursor:default;font-size:11px;fill:#666666;" text-anchor="end" transform="translate(0,0)" y="217" opacity="1">0</text><text x="253.5" style="color:#666666;cursor:default;font-size:11px;fill:#666666;" text-anchor="end" transform="translate(0,0)" y="150.6" opacity="1">10</text><text x="0" style="color:#666666;cursor:default;font-size:11px;fill:#666666;" text-anchor="end" transform="translate(0,0)" y="-9999" opacity="0">20</text></g><text x="590" class="highcharts-credits" text-anchor="end" data-z-index="8" style="cursor:pointer;color:#999999;font-size:9px;fill:#999999;" y="395">Highcharts.com</text></svg>