<?xml version="1.0" encoding="iso-8859-1"?>
<!-- Generator: Adobe Illustrator 16.0.0, SVG Export Plug-In . SVG Version: 6.00 Build 0)  -->
<!DOCTYPE svg PUBLIC "-//W3C//DTD SVG 1.1//EN" "http://www.w3.org/Graphics/SVG/1.1/DTD/svg11.dtd">
<svg xmlns="http://www.w3.org/2000/svg" xmlns:xlink="http://www.w3.org/1999/xlink" version="1.1" id="Capa_1" x="0px" y="0px" width="512px" height="512px" viewBox="0 0 432 432" style="enable-background:new 0 0 432 432;" xml:space="preserve">
<g>
	<g>
		<path d="M431.859,414.987l-50-254.001c-0.692-3.517-3.775-6.052-7.359-6.052h-94.491c10.89-27.118,19.04-52.137,19.04-66.278    c0-44.438-36.153-80.591-80.591-80.591c-44.438,0-80.591,36.153-80.591,80.591c0,14.142,8.151,39.16,19.04,66.278H57.5    c-3.583,0-6.667,2.535-7.359,6.052l-50,254.001c-0.433,2.199,0.142,4.479,1.566,6.211c1.425,1.732,3.55,2.736,5.793,2.736h417    c2.243,0,4.368-1.004,5.793-2.736C431.717,419.466,432.292,417.188,431.859,414.987z M121.488,345.571h118.961    c8.007,12.666,24.688,20.889,43.266,20.889c12.241,0,23.81-3.549,32.636-9.856l82.361,52.331H118.853L121.488,345.571z     M298.57,308.647c0,0,0.001,0,0.002,0.001c11.173,3.886,18.393,11.808,18.393,20.187c0,5.9-3.424,10.377-6.298,13.092l0,0    c-6.318,5.97-16.394,9.533-26.952,9.533c-14.59,0-27.713-6.736-31.914-16.383c0,0,0-0.002-0.001-0.002    c-0.886-2.033-1.335-4.134-1.335-6.24c0-12.265,15.227-22.625,33.25-22.625C288.919,306.21,293.917,307.029,298.57,308.647z     M413.765,400.728l-86.801-55.152c3.257-5.16,5.001-10.893,5.001-16.74c0-12.444-7.844-23.924-20.555-30.858l59.826-113.295    L413.765,400.728z M218.458,23.065c36.167,0,65.591,29.424,65.591,65.591c0,28.542-42.553,118.49-65.591,163.997    c-23.038-45.507-65.591-135.455-65.591-163.997C152.867,52.49,182.291,23.065,218.458,23.065z M211.809,272.544    c1.292,2.479,3.855,4.031,6.649,4.031s5.355-1.554,6.648-4.031c1.81-3.467,27.998-53.824,48.701-102.608h88.25L297.23,292.706    c-4.365-0.986-8.887-1.496-13.516-1.496c-26.605,0-48.25,16.879-48.25,37.625c0,0.582,0.021,1.16,0.054,1.737H122.112    l6.682-160.637h34.314C183.812,218.72,210,269.077,211.809,272.544z M63.667,169.936h50.114l-6.799,163.433l-83.848,42.475    L63.667,169.936z M19.458,394.519l86.81-43.975l-2.429,58.391H16.62L19.458,394.519z" fill="#D80027"/>
		<path d="M256.793,87.854c0-21.138-17.197-38.334-38.335-38.334c-21.138,0-38.335,17.196-38.335,38.334    s17.197,38.335,38.335,38.335C239.596,126.189,256.793,108.992,256.793,87.854z M195.123,87.854    c0-12.866,10.468-23.334,23.335-23.334s23.335,10.468,23.335,23.334c0,12.867-10.468,23.335-23.335,23.335    S195.123,100.722,195.123,87.854z" fill="#D80027"/>
	</g>
</g>
<g>
</g>
<g>
</g>
<g>
</g>
<g>
</g>
<g>
</g>
<g>
</g>
<g>
</g>
<g>
</g>
<g>
</g>
<g>
</g>
<g>
</g>
<g>
</g>
<g>
</g>
<g>
</g>
<g>
</g>
</svg>
