<?xml version="1.0" ?><svg viewBox="0 0 320.89 286" xmlns="http://www.w3.org/2000/svg"><defs><style>.cls-1{fill:#fbfcf2;}.cls-2,.cls-4{fill:#3f5a7c;}.cls-2,.cls-3{opacity:0.15;}.cls-5{fill:#a9ea9c;}.cls-6{fill:#91cd86;}.cls-7{fill:#2e576d;}.cls-8,.cls-9{fill:none;stroke:#2e576d;stroke-miterlimit:10;}.cls-8{stroke-width:2px;}.cls-9{stroke-width:7px;}</style></defs><title/><g data-name="Layer 2" id="Layer_2"><g data-name="Layer 1" id="Layer_1-2"><path class="cls-1" d="M148.08,86.3c-16.44-.28-31.84-6.63-46.16-13.52-19-9.12-38.6-20-61.28-19.46-10.55.26-21.25,3.37-28.74,9.7C3.64,70,0,80.29,0,90.22c-.07,23.14,16.59,43.1,19.31,65.8,2.36,19.75-7.08,39.55-2,59.15,7.55,29,39.08,44.8,71,50.47,26.42,4.69,62.15,7.05,82.81-10.76,10.49-9,18.87-23,33.78-23.08,11.71-.1,20.41,8.74,30.59,13.67,17.5,8.48,41,4.67,56-6.73,23.74-18,21.43-43.11,18.72-68a123.17,123.17,0,0,1,3.06-43c3.46-14,10.88-27.66,5.9-42.16-8.31-24.22-46.32-34.87-72.94-34.44-20.15.32-39.75,5.77-57.33,14-16.72,7.79-32,17.23-52.15,16.86"/><path class="cls-2" d="M204.61,100h0a21,21,0,0,0-21,21v57a21,21,0,0,0,21,21h0a18,18,0,0,0,18-18V100Z"/><path class="cls-2" d="M260.61,58h-6a15,15,0,0,0-15,15v33.62A13.36,13.36,0,0,0,253,120h23.64V89Z"/><path class="cls-2" d="M81.61,202h-6a15,15,0,0,0-15,15v33.62A13.36,13.36,0,0,0,74,264H97.61V233Z"/><g class="cls-3"><path class="cls-4" d="M118.61,197.5v31.42A5.1,5.1,0,0,0,123.7,234h27.83a5.1,5.1,0,0,0,5.08-5.08V46.08A5.1,5.1,0,0,0,151.53,41H123.7a5.1,5.1,0,0,0-5.08,5.08V197.5Z"/></g><rect class="cls-5" height="95" rx="3.4" ry="3.4" width="35" x="194.61" y="92"/><path class="cls-6" d="M229.61,181.5v2.1a3.41,3.41,0,0,1-3.4,3.4H198a3.41,3.41,0,0,1-3.4-3.4V95.4A3.41,3.41,0,0,1,198,92h2.1v86.1a3.41,3.41,0,0,0,3.4,3.4Z"/><path class="cls-5" d="M126.61,189.5v31.42A5.1,5.1,0,0,0,131.7,226h27.83a5.1,5.1,0,0,0,5.08-5.08V38.08A5.1,5.1,0,0,0,159.53,33H131.7a5.1,5.1,0,0,0-5.08,5.08V189.5Z"/><path class="cls-6" d="M164.61,216v3.92a5.1,5.1,0,0,1-5.08,5.08H131.69a5.1,5.1,0,0,1-5.08-5.08V37.08A5.1,5.1,0,0,1,131.69,32h2.92V210.92a5.1,5.1,0,0,0,5.08,5.08Z"/><circle class="cls-7" cx="88.2" cy="79.15" r="4.5" transform="translate(-19.8 127.94) rotate(-66.22)"/><circle class="cls-8" cx="18.69" cy="224.46" r="4.5" transform="translate(-194.25 151.05) rotate(-66.22)"/><path class="cls-7" d="M67.12,99.73,63.89,107c-.77,1.75,1.81,3.28,2.59,1.51l3.23-7.32c.77-1.75-1.81-3.28-2.59-1.51Z"/><path class="cls-7" d="M71.22,104.46l-7.32-3.23c-1.75-.77-3.28,1.81-1.51,2.59l7.32,3.23c1.75.77,3.28-1.81,1.51-2.59Z"/><path class="cls-7" d="M129.61,151V45.8c0-2.48-.65-6,0-8.43,1.13-4.2,10.62-2.37,14-2.37h11.92c2.58,0,5.57-.69,6.07,2.63.89,6,0,12.79,0,18.87,0,3.86,6,3.87,6,0,0-6.15.21-12.33,0-18.47-.26-7.57-5.74-9-12.07-9-7.43,0-14.88-.15-22.31,0-5.55.11-9.39,3-9.63,8.81-.42,10.47,0,21,0,31.51V151c0,3.86,6,3.87,6,0Z"/><path class="cls-7" d="M129.61,174v-8.5c0-3.86-6-3.87-6,0V174c0,3.86,6,3.87,6,0Z"/><path class="cls-7" d="M161.61,72.5V207.57c0,3.77.48,7.89,0,11.63-.28,2.21-1.59,2.63-3.63,2.79-4.23.34-8.63,0-12.87,0s-8.76.6-12.86,0c-3.71-.54-2.64-5.26-2.64-8.15V188.5c0-3.86-6-3.87-6,0v24.13c0,7.32-.24,15.11,9.4,15.37,8.58.23,17.39.42,26,0,6.37-.31,8.64-5,8.64-10.54V72.5c0-3.86-6-3.87-6,0Z"/><line class="cls-9" x1="145.61" x2="145.61" y1="32"/><line class="cls-9" x1="213.11" x2="213.11" y1="93" y2="61"/><line class="cls-9" x1="146.11" x2="146.11" y1="255" y2="223"/><line class="cls-9" x1="212.11" x2="212.11" y1="219" y2="187"/><path class="cls-7" d="M197.61,107.25v-4.94c0-1.42-.72-5.23,0-6.5,1-1.77,6.31-.8,8.3-.8h14.94c1.66,0,4.94-.69,5.76.76.61,1.08,0,4.34,0,5.54v79c0,1.15.43,3-.51,3.71-.41.32-2.59,0-3.08,0H201.54c-2.29,0-3.45.61-3.93-1.51-.57-2.53,0-5.89,0-8.46V120c0-3.86-6-3.87-6,0v54.4c0,6-1.65,15,6.79,15.6a206.83,206.83,0,0,0,27.42,0c7.78-.53,6.79-7.78,6.79-13.4V112.08c0-5.48.46-11.2,0-16.67-.49-5.83-5.26-6.41-9.93-6.41h-18.5c-4.06,0-9.74-.92-11.89,3.56-1.93,4-.68,10.38-.68,14.68,0,3.86,6,3.87,6,0Z"/><line class="cls-9" x1="87.11" x2="87.11" y1="195" y2="163"/><line class="cls-9" x1="87.11" x2="87.11" y1="286" y2="254"/><rect class="cls-5" height="60" rx="3.4" ry="3.4" width="35" x="69.61" y="195"/><path class="cls-6" d="M104.61,251.53v1.33c0,1.18-1.53,2.15-3.4,2.15H73c-1.87,0-3.4-1-3.4-2.15V197.15c0-1.18,1.53-2.15,3.4-2.15h2.1v54.38c0,1.18,1.53,2.15,3.4,2.15Z"/><path class="cls-7" d="M101.61,223v24.68c0,1.33.53,3.53-.57,4.32-.95.68-4.93,0-6,0H84.67c-2.41,0-10.85,1.3-12.05-.78-.45-.78,0-3.05,0-3.93v-46.6c0-.93-.31-2,.44-2.68s4.82,0,5.72,0c6.82,0,14.17-.8,20.94,0,2.53.3,1.89,1.65,1.89,4.14v9.53c0,3.86,6,3.87,6,0,0-5,2-14.69-2.48-18.26-2.14-1.72-4.88-1.41-7.44-1.41H86.13c-4.62,0-14.33-1.82-17.88,2.18-2.86,3.23-1.64,10.18-1.64,14.07,0,14.15-.73,28.5,0,42.62C67,257.51,72,258,77.24,258c7.49,0,15,.15,22.48,0,8.07-.16,7.89-6.42,7.89-12.66V223c0-3.86-6-3.87-6,0Z"/><line class="cls-9" x1="268.11" x2="268.11" y1="52" y2="20"/><line class="cls-9" x1="268.11" x2="268.11" y1="143" y2="111"/><rect class="cls-5" height="60" rx="3.4" ry="3.4" width="35" x="250.61" y="52"/><path class="cls-6" d="M285.61,108.53v1.33c0,1.18-1.53,2.15-3.4,2.15H254c-1.87,0-3.4-1-3.4-2.15V54.15c0-1.18,1.53-2.15,3.4-2.15h2.1v54.38c0,1.18,1.53,2.15,3.4,2.15Z"/><path class="cls-7" d="M282.61,80v24.31c0,1.3.54,3.89-.57,4.69-.82.58-4.16,0-5.19,0h-10.7c-2.13,0-11.36,1.29-12.54-.62-.43-.69,0-3.07,0-3.82V58.63c0-.47-.33-2.79,0-3.21.8-1,3.85-.42,5-.42h21c2.53,0,3-.12,3,2.63v9.62c0,3.86,6,3.87,6,0,0-5.21,2.08-15.55-4.28-17.88-2-.74-4.63-.38-6.71-.38h-12c-4.75,0-14.76-1.88-17.37,3.56-1.77,3.68-.68,9.62-.68,13.5,0,13.9-.83,28.07,0,41.94.4,6.73,5.68,7,11,7,7.37,0,14.75.15,22.12,0,8.26-.17,7.89-6.76,7.89-13.09V80c0-3.86-6-3.87-6,0Z"/></g></g></svg>