<?xml version="1.0" ?><svg id="Layer_1" style="enable-background:new 0 0 512 512;" version="1.1" viewBox="0 0 512 512" xml:space="preserve" xmlns="http://www.w3.org/2000/svg" xmlns:xlink="http://www.w3.org/1999/xlink"><style type="text/css">
	.st0{fill:#CCE134;}
	.st1{fill:#2E4356;}
	.st2{fill:#F4908C;}
	.st3{fill:#FBD502;}
</style><g><g><g id="XMLID_96_"><g id="XMLID_98_"><path class="st0" d="M6,288.2h101.1v138.3H6V288.2z M94,301.3H19.1v112H94V301.3z" id="XMLID_99_"/></g><polygon class="st0" id="XMLID_97_" points="107.1,441.7 107.1,463.9 6,463.9 6,463.9 6,441.7    "/></g></g><rect class="st1" height="22.2" id="XMLID_15_" width="101.1" x="139" y="441.7"/><g><polygon class="st2" id="XMLID_14_" points="373,463.9 271.9,463.9 271.9,463.9 271.9,441.7 373,441.7   "/><rect class="st3" height="22.2" id="XMLID_13_" width="101.1" x="404.9" y="441.7"/></g><g><rect class="st1" height="22.5" id="XMLID_12_" width="101.1" x="139" y="397.4"/><g><g id="XMLID_69_"><path class="st1" d="M139,201h101.1v181.1H139V201z M227,214.1h-74.9V369H227V214.1z" id="XMLID_70_"/></g></g><rect class="st2" height="22.5" id="XMLID_9_" width="101.1" x="271.9" y="397.4"/><rect class="st3" height="22.5" id="XMLID_8_" width="101.1" x="404.9" y="397.4"/></g><g><g><g id="XMLID_66_"><path class="st2" d="M271.9,123H373v214.7H271.9V123z M359.9,136.1H285v188.5h74.9V136.1z" id="XMLID_67_"/></g></g><rect class="st2" height="22.5" id="XMLID_5_" width="101.1" x="271.9" y="353.1"/><rect class="st3" height="22.5" id="XMLID_4_" width="101.1" x="404.9" y="353.1"/></g><g><g id="XMLID_90_"><g id="XMLID_92_"><path class="st3" d="M404.9,48.1H506v245.7H404.9V48.1z M492.9,61.2H418v219.5h74.9V61.2z" id="XMLID_93_"/></g><rect class="st3" height="22.1" id="XMLID_91_" width="101.1" x="404.9" y="309.1"/></g></g></g></svg>